<?xml version='1.0' encoding='utf-8'?>
<svg xmlns="http://www.w3.org/2000/svg" xmlns:dc="http://purl.org/dc/elements/1.1/" xmlns:ns2="http://creativecommons.org/ns#" xmlns:rdf="http://www.w3.org/1999/02/22-rdf-syntax-ns#" width="576pt" height="576pt" viewBox="0 0 576 576" version="1.1">
 <metadata>
  <rdf:RDF>
   <ns2:Work>
    <dc:type rdf:resource="http://purl.org/dc/dcmitype/StillImage" />
    <dc:date>2025-06-04T17:08:32.461619</dc:date>
    <dc:format>image/svg+xml</dc:format>
    <dc:creator>
     <ns2:Agent>
      <dc:title>Matplotlib v3.7.5, https://matplotlib.org/</dc:title>
     </ns2:Agent>
    </dc:creator>
   </ns2:Work>
  </rdf:RDF>
 </metadata>
 <defs>
  <style type="text/css">*{stroke-linejoin: round; stroke-linecap: butt}</style>
 </defs>
 <defs>
  <clipPath id="pab6a831729">
   <rect x="72" y="69.12" width="446.4" height="443.52" />
  </clipPath>
 </defs>
<path d="M 255.320463 292.125983 C 255.48767266666667 291.959852 255.65488233333332 291.793721 255.822092 291.62759 C 257.15977066666665 291.62759 258.49744933333335 291.62759 259.835128 291.62759 C 262.176065 292.292114 264.517002 292.956638 266.857939 293.621162 C 268.6972466666667 294.451817 270.5365543333333 295.28247200000004 272.375862 296.113127 C 275.5528483333333 298.27283033333333 278.72983466666665 300.4325336666667 281.906821 302.592237 C 286.5886953333333 307.243906 291.2705696666667 311.895575 295.952444 316.547244 C 297.29012233333333 318.540816 298.6278006666667 320.534388 299.965479 322.52796 C 301.13594766666665 325.1860566666667 302.30641633333335 327.84415333333334 303.476885 330.50225 C 303.8113046666667 331.997429 304.1457243333333 333.492608 304.480144 334.987787 C 304.480144 338.47653866666667 304.480144 341.96529033333337 304.480144 345.454042 C 303.8113046666667 347.94600733333334 303.14246533333335 350.43797266666667 302.473626 352.929938 C 301.30315733333333 355.2557723333333 300.1326886666667 357.5816066666667 298.96222 359.907441 C 297.6245416666667 361.9010133333333 296.2868633333333 363.89458566666667 294.949185 365.888158 C 291.2705696666667 370.04143366666665 287.5919543333333 374.1947093333333 283.913339 378.347985 C 285.2510173333333 378.680247 286.5886956666667 379.01250899999997 287.926374 379.344771 C 288.4280033333333 379.677033 288.9296326666667 380.009295 289.431262 380.341557 C 290.4345206666667 381.67060533333336 291.4377793333333 382.9996536666667 292.441038 384.328702 C 292.441038 385.99001233333337 292.441038 387.65132266666666 292.441038 389.312633 C 292.10661866666663 389.977157 291.77219933333333 390.641681 291.43778 391.306205 C 290.1001013333333 392.4691223333333 288.7624226666666 393.6320396666667 287.424744 394.794957 C 286.08706566666666 394.961088 284.7493873333333 395.12721899999997 283.411709 395.29335 C 279.23146399999996 394.29656366666666 275.051219 393.29977733333334 270.870974 392.302991 C 269.70050533333335 391.638467 268.53003666666666 390.973943 267.359568 390.309419 C 266.52351933333335 389.478764 265.6874706666667 388.648109 264.851422 387.817454 C 264.34979233333337 386.8206676666667 263.84816266666667 385.8238813333333 263.346533 384.827095 C 263.346533 383.16578466666664 263.346533 381.50447433333335 263.346533 379.843164 C 264.01537233333335 378.347985 264.68421166666667 376.852806 265.353051 375.357627 C 266.857939 373.3640546666667 268.362827 371.3704823333333 269.867715 369.37691 C 273.5463306666667 365.38976533333334 277.2249463333333 361.4026206666667 280.903562 357.415476 C 282.07403066666666 355.75416566666667 283.24449933333335 354.0928553333334 284.414968 352.431545 C 285.5854366666667 349.7734486666667 286.7559053333333 347.1153523333333 287.926374 344.457256 C 288.0935836666667 342.46368366666667 288.2607933333333 340.4701113333333 288.428003 338.476539 C 287.9263736666667 336.64909766666665 287.4247443333333 334.82165633333335 286.923115 332.994215 C 286.087066 331.49903566666666 285.251017 330.0038563333333 284.414968 328.508677 C 283.4117093333333 327.179629 282.4084506666667 325.850581 281.405192 324.521533 C 279.06425466666667 322.19569866666666 276.72331733333334 319.86986433333334 274.38238 317.54403 C 270.8709743333333 315.05206433333336 267.3595686666667 312.56009866666665 263.848163 310.068133 C 262.176065 309.403609 260.503967 308.739085 258.831869 308.074561 C 257.159771 307.742299 255.487673 307.410037 253.815575 307.077775 C 252.64510633333333 305.91485766666665 251.47463766666667 304.7519403333333 250.304169 303.589023 C 249.96974933333334 302.426106 249.63532966666665 301.263189 249.30091 300.100272 C 249.46812 299.1034856666667 249.63532999999998 298.1066993333333 249.80254 297.109913 C 250.13695933333332 296.445389 250.47137866666668 295.780865 250.805798 295.116341 C 251.47463733333333 294.451817 252.1434766666667 293.787293 252.812316 293.122769 C 253.648365 292.790507 254.484414 292.45824500000003 255.320463 292.125983 Z M 318.525767 245.775426 C 318.69297666666665 245.609295 318.86018633333333 245.443164 319.027396 245.277033 C 320.53228433333334 245.277033 322.03717266666666 245.277033 323.542061 245.277033 C 324.2109 245.60929533333334 324.87973900000003 245.94155766666665 325.548578 246.27382 C 326.384627 247.104475 327.22067599999997 247.93513 328.056725 248.765785 C 328.39114466666666 249.430309 328.7255643333333 250.094833 329.059984 250.759357 C 329.896033 254.08197766666666 330.732082 257.4045983333333 331.568131 260.727219 C 331.9025506666667 264.04983933333335 332.2369703333333 267.37245966666666 332.57139 270.69508 C 332.7385996666667 270.861211 332.9058093333333 271.027342 333.073019 271.193473 C 333.073019 273.02091433333334 333.073019 274.84835566666663 333.073019 276.675797 C 333.240229 276.841928 333.407439 277.008059 333.574649 277.17419 C 333.407439 286.9759206666667 333.240229 296.7776513333333 333.073019 306.579382 C 332.9058093333333 306.745513 332.7385996666667 306.91164399999997 332.57139 307.077775 C 332.57139 308.7390853333333 332.57139 310.40039566666667 332.57139 312.061706 C 332.40418033333333 312.227837 332.2369706666667 312.393968 332.069761 312.560099 C 331.5681313333333 317.71016066666664 331.0665016666667 322.86022233333335 330.564872 328.010284 C 330.3976623333333 328.176415 330.2304526666667 328.34254599999997 330.063243 328.508677 C 330.063243 329.6715943333333 330.063243 330.8345116666667 330.063243 331.997429 C 329.8960333333333 332.16356 329.7288236666667 332.32969099999997 329.561614 332.495822 C 329.561614 333.49260799999996 329.561614 334.489394 329.561614 335.48618 C 329.394404 335.65231133333333 329.227194 335.81844266666667 329.059984 335.984574 C 328.8927743333333 338.1442773333333 328.7255646666667 340.3039806666667 328.558355 342.463684 C 328.0567256666667 344.9556493333333 327.5550963333333 347.44761466666665 327.053467 349.93958 C 327.053467 351.10249699999997 327.053467 352.265414 327.053467 353.428331 C 326.7190473333333 354.75737933333335 326.3846276666667 356.0864276666667 326.050208 357.415476 C 325.7157883333333 362.06714466666665 325.3813686666667 366.71881333333334 325.046949 371.370482 C 324.8797393333333 371.536613 324.7125296666667 371.702744 324.54532 371.868875 C 324.54532 374.52697133333334 324.54532 377.18506766666667 324.54532 379.843164 C 324.7125296666667 380.009295 324.8797393333333 380.175426 325.046949 380.341557 C 325.21415866666666 380.175426 325.38136833333334 380.009295 325.548578 379.843164 C 327.88951533333335 379.843164 330.2304526666667 379.843164 332.57139 379.843164 C 333.0730193333333 380.009295 333.5746486666667 380.175426 334.076278 380.341557 C 335.2467466666667 381.33834333333334 336.41721533333333 382.33512966666666 337.587684 383.331916 C 338.08931333333334 384.6609643333333 338.5909426666667 385.99001266666664 339.092572 387.319061 C 338.7581523333333 388.81424 338.4237326666667 390.309419 338.089313 391.804598 C 336.91884466666664 392.9675153333333 335.74837633333334 394.13043266666665 334.577908 395.29335 C 333.57464899999997 395.625612 332.57139 395.957874 331.568131 396.290136 C 329.7288233333333 396.290136 327.8895156666667 396.290136 326.050208 396.290136 C 324.8797393333333 396.62239800000003 323.70927066666667 396.95466 322.538802 397.286922 C 320.36507466666666 397.286922 318.19134733333334 397.286922 316.01762 397.286922 C 314.84715133333333 396.788529 313.6766826666667 396.290136 312.506214 395.791743 C 311.1685356666667 394.29656366666666 309.8308573333333 392.8013843333333 308.493179 391.306205 C 308.1587593333333 390.143288 307.8243396666667 388.980371 307.48992 387.817454 C 307.9915493333333 379.17864066666664 308.49317866666667 370.53982733333333 308.994808 361.901014 C 309.162018 361.73488299999997 309.329228 361.568752 309.496438 361.402621 C 309.8308576666667 357.41547633333334 310.16527733333334 353.4283316666667 310.499697 349.441187 C 310.6669066666667 349.275056 310.8341163333333 349.108925 311.001326 348.942794 C 311.1685356666667 346.7830906666667 311.3357453333333 344.6233873333333 311.502955 342.463684 C 311.670165 342.29755266666666 311.837375 342.1314213333333 312.004585 341.96529 C 312.1717946666667 339.80558666666667 312.3390043333333 337.6458833333333 312.506214 335.48618 C 313.0078433333333 332.99421466666666 313.5094726666667 330.50224933333334 314.011102 328.010284 C 314.011102 326.847367 314.011102 325.68444999999997 314.011102 324.521533 C 314.3455216666667 323.19248466666664 314.6799413333333 321.8634363333333 315.014361 320.534388 C 315.3487806666667 316.2149813333333 315.68320033333333 311.8955746666667 316.01762 307.576168 C 316.1848296666667 307.410037 316.3520393333333 307.243906 316.519249 307.077775 C 316.519249 305.2503336666667 316.519249 303.4228923333333 316.519249 301.595451 C 316.686459 301.42932 316.85366899999997 301.263189 317.020879 301.097058 C 317.020879 292.79050666666666 317.020879 284.48395533333337 317.020879 276.177404 C 316.85366899999997 276.011273 316.686459 275.845142 316.519249 275.679011 C 316.519249 274.18383166666666 316.519249 272.6886523333333 316.519249 271.193473 C 316.3520393333333 271.027342 316.1848296666667 270.861211 316.01762 270.69508 C 315.85041033333334 268.70150766666666 315.68320066666666 266.70793533333335 315.515991 264.714363 C 314.679942 261.55787366666664 313.843893 258.40138433333334 313.007844 255.244895 C 313.007844 253.91584666666668 313.007844 252.58679833333332 313.007844 251.25775 C 313.67668299999997 250.094833 314.345522 248.931916 315.014361 247.768999 C 315.85041 247.10447466666668 316.686459 246.43995033333334 317.522508 245.775426 C 317.85692766666665 245.775426 318.19134733333334 245.775426 318.525767 245.775426 Z M 287.424744 143.604845 C 287.591954 143.438714 287.759164 143.272583 287.926374 143.106452 C 289.09684266666665 143.106452 290.26731133333334 143.106452 291.43778 143.106452 C 292.60824833333334 143.43871433333334 293.77871666666664 143.77097666666666 294.949185 144.103239 C 295.785234 144.601632 296.621283 145.10002500000002 297.457332 145.598418 C 298.460591 146.595204 299.46385 147.59199 300.467109 148.588776 C 301.63757733333335 147.758121 302.80804566666666 146.927466 303.978514 146.096811 C 305.14898266666665 145.598418 306.31945133333335 145.100025 307.48992 144.601632 C 308.325969 144.435501 309.162018 144.26937 309.998067 144.103239 C 311.1685356666667 144.26937 312.3390043333333 144.435501 313.509473 144.601632 C 314.67994166666665 145.266156 315.85041033333334 145.93068 317.020879 146.595204 C 318.02413766666666 147.75812133333332 319.02739633333334 148.92103866666667 320.030655 150.083956 C 320.69949433333335 151.413004 321.3683336666667 152.742052 322.037173 154.0711 C 322.706012 157.06145866666668 323.37485100000004 160.05181733333333 324.04369 163.042176 C 327.555096 163.540569 331.066502 164.038962 334.577908 164.537355 C 338.08931366666667 165.534141 341.6007193333333 166.530927 345.112125 167.527713 C 347.2858523333333 168.52449933333332 349.4595796666667 169.52128566666667 351.633307 170.518072 C 353.305405 171.68098899999998 354.977503 172.843906 356.649601 174.006823 C 358.4889086666667 176.16652633333334 360.32821633333333 178.32622966666665 362.167524 180.485933 C 362.66915366666666 181.48271933333334 363.17078333333336 182.47950566666665 363.672413 183.476292 C 364.1740423333333 185.30373333333333 364.6756716666667 187.13117466666668 365.177301 188.958616 C 365.177301 191.45058133333333 365.177301 193.9425466666667 365.177301 196.434512 C 364.174042 199.92326333333335 363.17078300000003 203.41201466666666 362.167524 206.900766 C 360.8298456666667 209.55886266666667 359.4921673333333 212.21695933333334 358.154489 214.875056 C 356.649601 217.20089033333335 355.14471299999997 219.52672466666667 353.639825 221.852559 C 350.79725833333333 225.34131033333335 347.95469166666663 228.83006166666667 345.112125 232.318813 C 344.44328566666667 232.65107533333332 343.77444633333334 232.98333766666667 343.105607 233.3156 C 341.433509 233.3156 339.761411 233.3156 338.089313 233.3156 C 337.420474 232.98333766666667 336.75163499999996 232.65107533333332 336.082796 232.318813 C 335.24674699999997 231.488158 334.410698 230.65750300000002 333.574649 229.826848 C 333.24022933333333 229.162324 332.9058096666667 228.4978 332.57139 227.833276 C 332.57139 226.17196566666667 332.57139 224.51065533333335 332.57139 222.849345 C 336.25000566666665 217.699283 339.92862133333335 212.549221 343.607237 207.399159 C 344.7777056666667 205.07332466666668 345.9481743333333 202.74749033333333 347.118643 200.421656 C 347.62027233333333 198.760346 348.1219016666667 197.099036 348.623531 195.437726 C 348.456321 193.27802266666666 348.289111 191.11831933333335 348.121901 188.958616 C 346.78422266666666 187.62956766666667 345.4465443333333 186.30051933333334 344.108866 184.971471 C 341.767929 183.97468466666666 339.426992 182.97789833333334 337.086055 181.981112 C 333.24022933333333 181.150457 329.3944036666667 180.319802 325.548578 179.489147 C 319.1946056666667 178.824623 312.84063333333336 178.160099 306.486661 177.495575 C 304.64735333333334 176.997182 302.80804566666666 176.498789 300.968738 176.000396 C 299.46384966666665 175.00360966666668 297.9589613333333 174.00682333333333 296.454073 173.010037 C 294.949185 170.68420266666666 293.444297 168.35836833333335 291.939409 166.032534 C 291.2705696666667 164.53735466666666 290.6017303333333 163.04217533333335 289.932891 161.546996 C 289.5984716666667 161.380865 289.2640523333333 161.21473400000002 288.929633 161.048603 C 287.926374 163.37443733333333 286.923115 165.70027166666668 285.919856 168.026106 C 285.251017 171.18259566666666 284.582178 174.33908533333334 283.913339 177.495575 C 283.5789193333333 182.97789866666668 283.2444996666667 188.46022233333332 282.91008 193.942546 C 282.74287 194.108677 282.57566 194.27480799999998 282.40845 194.440939 C 282.40845 196.76677366666667 282.40845 199.09260833333332 282.40845 201.418443 C 282.24124033333334 201.584574 282.07403066666666 201.75070499999998 281.906821 201.916836 C 281.906821 203.245884 281.906821 204.574932 281.906821 205.90398 C 281.57240133333335 207.06689733333332 281.23798166666666 208.22981466666667 280.903562 209.392732 C 280.067513 211.05404233333334 279.231464 212.71535266666666 278.395415 214.376663 C 275.3856386666667 218.69606966666666 272.3758623333333 223.01547633333334 269.366086 227.334883 C 267.693988 231.32202733333332 266.02189 235.30917166666666 264.349792 239.296316 C 261.6744353333333 244.612509 258.99907866666666 249.92870200000002 256.323722 255.244895 C 253.815575 259.23203966666665 251.307428 263.2191843333333 248.799281 267.206329 C 244.78624566666667 271.35960466666666 240.77321033333334 275.5128803333333 236.760175 279.666156 C 231.075042 284.1516936666667 225.38990900000002 288.6372313333333 219.704776 293.122769 C 217.69825833333334 295.1163413333333 215.69174066666667 297.10991366666667 213.685223 299.103486 C 210.84265633333334 302.92449966666663 208.00008966666667 306.74551333333335 205.157523 310.566527 C 203.485425 313.8891473333333 201.81332700000002 317.2117676666667 200.141229 320.534388 C 198.97076066666668 324.68766366666665 197.80029233333335 328.8409393333333 196.629824 332.994215 C 196.462614 338.310408 196.29540400000002 343.626601 196.128194 348.942794 C 196.29540400000002 349.108925 196.462614 349.275056 196.629824 349.441187 C 196.79703366666666 351.4347593333333 196.96424333333334 353.4283316666667 197.131453 355.421904 C 198.63634133333332 359.90744166666667 200.14122966666667 364.3929793333333 201.646118 368.878517 C 202.81658633333333 371.2043513333333 203.98705466666667 373.5301856666667 205.157523 375.85602 C 206.996831 378.68024733333334 208.836139 381.5044746666667 210.675447 384.328702 C 212.68196433333333 386.82066733333335 214.68848166666666 389.3126326666667 216.694999 391.804598 C 220.039195 395.1272186666667 223.383391 398.44983933333333 226.727587 401.77246 C 230.238993 404.43055633333336 233.75039900000002 407.0886526666667 237.261805 409.746749 C 241.10763033333333 411.40805933333337 244.95345566666668 413.06936966666666 248.799281 414.73068 C 252.47789666666668 415.727466 256.15651233333335 416.72425200000004 259.835128 417.721038 C 263.3465336666667 418.3855623333333 266.8579393333333 419.0500866666667 270.369345 419.714611 C 274.54959 420.046873 278.729835 420.37913499999996 282.91008 420.711397 C 283.0772896666667 420.877528 283.2444993333333 421.043659 283.411709 421.20979 C 285.41822666666667 421.20979 287.4247443333333 421.20979 289.431262 421.20979 C 289.5984716666667 421.375921 289.7656813333333 421.542052 289.932891 421.708183 C 298.46059099999997 421.708183 306.988291 421.708183 315.515991 421.708183 C 315.68320066666666 421.542052 315.85041033333334 421.375921 316.01762 421.20979 C 318.19134733333334 421.20979 320.36507466666666 421.20979 322.538802 421.20979 C 322.706012 421.043659 322.873222 420.877528 323.040432 420.711397 C 324.54532 420.711397 326.050208 420.711397 327.555096 420.711397 C 327.72230566666667 420.54526599999997 327.8895153333333 420.379135 328.056725 420.213004 C 332.5713896666667 419.71461066666666 337.0860543333333 419.21621733333336 341.600719 418.717824 C 347.7874816666667 417.222645 353.97424433333333 415.727466 360.161007 414.232287 C 363.337993 413.06936966666666 366.514979 411.90645233333333 369.691965 410.743535 C 372.70174166666663 409.248356 375.71151833333334 407.753177 378.721295 406.257998 C 381.062232 404.59668766666664 383.403169 402.93537733333335 385.744106 401.274067 C 387.7506236666667 398.9482326666667 389.7571413333333 396.6223983333333 391.763659 394.296564 C 392.26528833333333 393.29977766666667 392.7669176666667 392.3029913333333 393.268547 391.306205 C 393.6029666666667 389.977157 393.93738633333334 388.648109 394.271806 387.319061 C 394.271806 385.3254886666667 394.271806 383.3319163333333 394.271806 381.338344 C 393.93738633333334 379.84316466666667 393.6029666666667 378.3479853333333 393.268547 376.852806 C 392.26528833333333 374.52697166666667 391.2620296666667 372.2011373333333 390.258771 369.875303 C 388.7538826666667 367.38333766666665 387.2489943333333 364.8913723333333 385.744106 362.399407 C 385.744106 361.07035866666666 385.744106 359.74131033333333 385.744106 358.412262 C 386.4129453333333 357.249345 387.0817846666667 356.086428 387.750624 354.923511 C 388.586673 354.25898666666666 389.422722 353.59446233333335 390.258771 352.929938 C 392.26528833333333 352.763807 394.2718056666667 352.59767600000004 396.278323 352.431545 C 396.9471623333333 352.76380700000004 397.61600166666665 353.096069 398.284841 353.428331 C 399.12089 354.2589863333333 399.956939 355.0896416666667 400.792988 355.920297 C 401.9634566666667 357.74773833333336 403.1339253333333 359.57517966666666 404.304394 361.402621 C 405.4748626666667 363.89458633333334 406.64533133333333 366.38655166666666 407.8158 368.878517 C 408.651849 371.7027443333333 409.487898 374.52697166666667 410.323947 377.351199 C 410.323947 378.51411633333333 410.323947 379.67703366666666 410.323947 380.839951 C 410.49115666666665 381.006082 410.65836633333333 381.172213 410.825576 381.338344 C 410.65836633333333 384.6609643333333 410.49115666666665 387.9835846666667 410.323947 391.306205 C 409.65510766666665 393.46590833333335 408.9862683333333 395.62561166666666 408.317429 397.785315 C 407.6485896666667 399.11436333333336 406.9797503333333 400.4434116666667 406.310911 401.77246 C 404.63881299999997 404.09829433333334 402.966715 406.42412866666666 401.294617 408.749963 C 399.789729 410.2451423333333 398.284841 411.74032166666666 396.779953 413.235501 C 394.10459599999996 415.22907333333336 391.429239 417.22264566666666 388.753882 419.216218 C 386.0785253333333 420.71139700000003 383.40316866666666 422.206576 380.727812 423.701755 C 377.550826 425.0308033333333 374.37384 426.35985166666666 371.196854 427.6889 C 365.6789303333333 429.35021033333334 360.16100666666665 431.0115206666666 354.643083 432.672831 C 350.4628383333333 433.503486 346.2825936666667 434.334141 342.102349 435.164796 C 338.9253626666667 435.49705800000004 335.74837633333334 435.82932 332.57139 436.161582 C 332.40418033333333 436.327713 332.2369706666667 436.49384399999997 332.069761 436.659975 C 330.7320823333333 436.659975 329.3944036666667 436.659975 328.056725 436.659975 C 327.8895153333333 436.826106 327.72230566666667 436.992237 327.555096 437.158368 C 323.04043133333334 437.324499 318.52576666666664 437.49063 314.011102 437.656761 C 313.8438923333333 437.82289233333336 313.6766826666667 437.98902366666664 313.509473 438.155155 C 306.3194516666667 438.155155 299.12943033333335 438.155155 291.939409 438.155155 C 291.77219933333333 437.98902366666664 291.60498966666665 437.82289233333336 291.43778 437.656761 C 288.92963299999997 437.656761 286.421486 437.656761 283.913339 437.656761 C 283.746129 437.49063 283.578919 437.324499 283.411709 437.158368 C 280.06751299999996 436.992237 276.723317 436.826106 273.379121 436.659975 C 273.2119113333333 436.49384399999997 273.0447016666667 436.327713 272.877492 436.161582 C 268.8644566666667 435.663189 264.85142133333335 435.164796 260.838386 434.666403 C 256.658141 433.6696166666667 252.47789600000002 432.6728303333333 248.297651 431.676044 C 244.11740633333332 430.180865 239.93716166666667 428.68568600000003 235.756917 427.190507 C 232.91435033333332 425.6953276666667 230.07178366666668 424.20014833333335 227.229217 422.704969 C 224.55386000000001 420.71139666666664 221.878503 418.71782433333334 219.203146 416.724252 C 213.35080333333335 410.90966599999996 207.49846066666666 405.09508 201.646118 399.280494 C 198.134712 394.2965633333333 194.62330599999999 389.3126326666667 191.1119 384.328702 C 189.10538233333332 380.17542633333335 187.09886466666666 376.0221506666667 185.092347 371.868875 C 183.92187866666666 368.21399233333335 182.75141033333333 364.55910966666664 181.580942 360.904227 C 181.24652233333333 358.41226166666667 180.91210266666667 355.92029633333334 180.577683 353.428331 C 180.410473 353.2622 180.243263 353.096069 180.076053 352.929938 C 180.076053 351.767021 180.076053 350.604104 180.076053 349.441187 C 179.90884333333332 349.275056 179.74163366666667 349.108925 179.574424 348.942794 C 179.574424 344.7895183333333 179.574424 340.63624266666665 179.574424 336.482967 C 180.57768266666668 331.332905 181.58094133333333 326.182843 182.5842 321.032781 C 184.08908833333334 317.21176733333334 185.59397666666666 313.3907536666667 187.098865 309.56974 C 189.43980233333332 305.5825956666667 191.78073966666668 301.59545133333336 194.121677 297.608307 C 196.629824 294.45181733333334 199.137971 291.2953276666667 201.646118 288.138838 C 203.987055 285.8130036666667 206.327992 283.4871693333333 208.668929 281.161335 C 214.52127199999998 276.5096663333333 220.373615 271.8579976666667 226.225958 267.206329 C 228.90131466666665 264.54823266666665 231.57667133333334 261.8901363333333 234.252028 259.23204 C 235.255287 257.90299166666665 236.258546 256.5739433333333 237.261805 255.244895 C 238.766693 252.7529296666667 240.271581 250.26096433333333 241.776469 247.768999 C 244.284616 242.785068 246.79276299999998 237.801137 249.30091 232.817206 C 251.140218 228.49779933333332 252.979526 224.17839266666667 254.818834 219.858986 C 258.33023966666667 214.54279333333332 261.8416453333333 209.22660066666666 265.353051 203.910408 C 266.1891 193.94254633333333 267.025149 183.97468466666666 267.861198 174.006823 C 268.0284076666667 173.840692 268.1956173333333 173.674561 268.362827 173.50843 C 268.6972466666667 171.01646466666668 269.0316663333333 168.52449933333332 269.366086 166.032534 C 270.3693446666667 163.04217566666668 271.3726033333333 160.05181733333333 272.375862 157.061459 C 273.5463306666667 155.06788666666668 274.7167993333333 153.07431433333332 275.887268 151.080742 C 277.559366 149.41943166666667 279.231464 147.75812133333332 280.903562 146.096811 C 282.07403066666666 145.432287 283.24449933333335 144.767763 284.414968 144.103239 C 285.41822666666667 143.93710766666666 286.4214853333333 143.77097633333335 287.424744 143.604845 Z" fill="black" stroke="none" /></svg>