<?xml version='1.0' encoding='utf-8'?>
<svg xmlns="http://www.w3.org/2000/svg" xmlns:dc="http://purl.org/dc/elements/1.1/" xmlns:ns2="http://creativecommons.org/ns#" xmlns:rdf="http://www.w3.org/1999/02/22-rdf-syntax-ns#" width="576pt" height="576pt" viewBox="0 0 576 576" version="1.1">
 <metadata>
  <rdf:RDF>
   <ns2:Work>
    <dc:type rdf:resource="http://purl.org/dc/dcmitype/StillImage" />
    <dc:date>2025-06-04T15:09:00.030365</dc:date>
    <dc:format>image/svg+xml</dc:format>
    <dc:creator>
     <ns2:Agent>
      <dc:title>Matplotlib v3.7.5, https://matplotlib.org/</dc:title>
     </ns2:Agent>
    </dc:creator>
   </ns2:Work>
  </rdf:RDF>
 </metadata>
 <defs>
  <style type="text/css">*{stroke-linejoin: round; stroke-linecap: butt}</style>
 </defs>
 <defs>
  <clipPath id="p9f8a8416e9">
   <rect x="72" y="69.12" width="446.4" height="443.52" />
  </clipPath>
 </defs>
<path d="M 283.913339 91.771965 C 284.0805486666667 91.605834 284.2477583333333 91.439703 284.414968 91.273572 C 285.9198563333333 91.439703 287.4247446666667 91.605834 288.929633 91.771965 C 290.1001013333333 93.10101333333333 291.2705696666667 94.43006166666667 292.441038 95.75911 C 292.441038 97.25428933333333 292.441038 98.74946866666667 292.441038 100.244648 C 291.604989 101.407565 290.76894 102.570482 289.932891 103.733399 C 289.7656813333333 104.231792 289.5984716666667 104.730185 289.431262 105.228578 C 289.5984716666667 105.39470933333334 289.7656813333333 105.56084066666666 289.932891 105.726972 C 290.2673106666667 105.56084066666666 290.6017303333333 105.39470933333334 290.93615 105.228578 C 293.77871666666664 105.228578 296.62128333333334 105.228578 299.46385 105.228578 C 299.79826966666667 105.39470933333334 300.1326893333333 105.56084066666666 300.467109 105.726972 C 300.6343186666667 105.56084066666666 300.8015283333333 105.39470933333334 300.968738 105.228578 C 300.63431833333334 104.397923 300.29989866666665 103.567268 299.965479 102.736613 C 299.29664 101.905958 298.627801 101.075303 297.958962 100.244648 C 297.958962 98.74946866666667 297.958962 97.25428933333333 297.958962 95.75911 C 298.96222066666667 94.59619266666667 299.9654793333333 93.43327533333334 300.968738 92.270358 C 301.6375773333333 91.938096 302.3064166666667 91.605834 302.975256 91.273572 C 303.9785146666667 91.273572 304.9817733333333 91.273572 305.985032 91.273572 C 306.6538713333333 91.605834 307.3227106666667 91.938096 307.99155 92.270358 C 308.9948086666667 93.26714433333333 309.9980673333333 94.26393066666667 311.001326 95.260717 C 311.67016533333333 96.42363399999999 312.33900466666665 97.586551 313.007844 98.749468 C 313.843893 102.07208866666666 314.679942 105.39470933333334 315.515991 108.71733 C 315.515991 110.37864033333334 315.515991 112.03995066666667 315.515991 113.701261 C 317.020879 115.86096433333333 318.52576700000003 118.02066766666667 320.030655 120.180371 C 320.866704 122.67233633333333 321.702753 125.16430166666666 322.538802 127.656267 C 322.538802 130.81275633333334 322.538802 133.96924566666667 322.538802 137.125735 C 323.8764803333333 138.78704533333334 325.21415866666666 140.44835566666666 326.551837 142.109666 C 327.555096 144.60163133333333 328.558355 147.09359666666668 329.561614 149.585562 C 329.561614 154.237231 329.561614 158.8889 329.561614 163.540569 C 328.725565 165.70027233333334 327.889516 167.85997566666666 327.053467 170.019679 C 328.558355 171.348727 330.063243 172.677775 331.568131 174.006823 C 332.40418 175.16974033333332 333.240229 176.33265766666668 334.076278 177.495575 C 334.5779073333333 178.492361 335.0795366666667 179.489147 335.581166 180.485933 C 335.9155856666667 181.81498133333332 336.2500053333333 183.14402966666665 336.584425 184.473078 C 336.584425 191.11831899999999 336.584425 197.76356 336.584425 204.408801 C 335.748376 206.90076633333334 334.912327 209.39273166666666 334.076278 211.884697 C 335.079537 212.549221 336.082796 213.213745 337.086055 213.878269 C 338.4237333333333 215.53957933333334 339.7614116666667 217.20088966666665 341.09909 218.8622 C 341.935139 221.35416533333333 342.771188 223.84613066666668 343.607237 226.338096 C 343.607237 232.651075 343.607237 238.964054 343.607237 245.277033 C 342.771188 247.93512966666665 341.935139 250.59322633333335 341.09909 253.251323 C 343.1056076666667 255.078764 345.1121253333333 256.906205 347.118643 258.733646 C 347.954692 260.39495633333337 348.790741 262.05626666666666 349.62679 263.717577 C 349.96120933333333 265.37888733333335 350.2956286666667 267.04019766666664 350.630048 268.701508 C 350.630048 274.349963 350.630048 279.998418 350.630048 285.646873 C 350.4628383333333 285.81300400000003 350.2956286666667 285.979135 350.128419 286.145266 C 350.128419 286.97592099999997 350.128419 287.806576 350.128419 288.637231 C 349.29237 290.63080333333335 348.456321 292.62437566666665 347.620272 294.617948 C 346.784223 295.61473433333333 345.948174 296.6115206666667 345.112125 297.608307 C 345.7809643333333 298.438962 346.4498036666667 299.26961700000004 347.118643 300.100272 C 348.1219016666667 302.42610633333334 349.1251603333333 304.75194066666666 350.128419 307.077775 C 350.128419 307.90843 350.128419 308.739085 350.128419 309.56974 C 350.2956286666667 309.73587100000003 350.4628383333333 309.902002 350.630048 310.068133 C 350.630048 315.716588 350.630048 321.365043 350.630048 327.013498 C 350.2956286666667 328.50867733333337 349.96120933333333 330.00385666666665 349.62679 331.499036 C 348.9579506666667 332.99421533333333 348.2891113333333 334.48939466666667 347.620272 335.984574 C 345.4465446666667 338.1442773333333 343.2728173333333 340.3039806666667 341.09909 342.463684 C 341.935139 345.12178033333333 342.771188 347.77987666666667 343.607237 350.437973 C 343.607237 356.584821 343.607237 362.731669 343.607237 368.878517 C 343.2728173333333 370.373696 342.9383976666667 371.868875 342.603978 373.364054 C 341.26629966666667 375.5237573333333 339.9286213333333 377.6834606666667 338.590943 379.843164 C 338.75815266666666 380.50768833333336 338.92536233333334 381.17221266666667 339.092572 381.836737 C 340.09583100000003 383.33191600000004 341.09909 384.827095 342.102349 386.322274 C 342.6039783333333 388.14971533333335 343.1056076666667 389.97715666666664 343.607237 391.804598 C 343.607237 397.951446 343.607237 404.098294 343.607237 410.245142 C 343.2728173333333 411.7403213333333 342.9383976666667 413.23550066666667 342.603978 414.73068 C 341.93513866666666 416.059728 341.26629933333334 417.388776 340.59746 418.717824 C 338.4237326666667 420.8775273333333 336.2500053333333 423.0372306666667 334.076278 425.196934 C 334.912327 427.68889966666666 335.748376 430.1808653333333 336.584425 432.672831 C 336.584425 436.99223766666665 336.584425 441.31164433333333 336.584425 445.631051 C 336.0827956666667 447.292361 335.58116633333333 448.953671 335.079537 450.614981 C 334.4106976666667 451.7778983333333 333.7418583333333 452.94081566666665 333.073019 454.103733 C 331.0665016666667 455.93117433333333 329.0599843333333 457.7586156666666 327.053467 459.586057 C 327.889516 461.9118913333333 328.725565 464.2377256666667 329.561614 466.56356 C 329.561614 468.8893943333333 329.561614 471.2152286666667 329.561614 473.541063 C 329.22719433333333 474.70398033333333 328.8927746666667 475.86689766666666 328.558355 477.029815 C 327.8895156666667 478.358863 327.2206763333333 479.687911 326.551837 481.016959 C 325.046949 482.67826933333333 323.542061 484.3395796666667 322.037173 486.00089 C 320.03065533333336 487.16380733333335 318.02413766666666 488.3267246666667 316.01762 489.489642 C 314.6799416666667 489.821904 313.34226333333334 490.154166 312.004585 490.486428 C 300.80152833333335 490.486428 289.5984716666667 490.486428 278.395415 490.486428 C 277.726576 490.320297 277.057737 490.15416600000003 276.388898 489.988035 C 275.05121933333334 489.48964166666667 273.71354066666663 488.9912483333334 272.375862 488.492855 C 271.03818366666667 487.66220000000004 269.7005053333333 486.831545 268.362827 486.00089 C 266.857939 484.3395796666667 265.353051 482.67826933333333 263.848163 481.016959 C 263.1793236666667 479.687911 262.51048433333335 478.358863 261.841645 477.029815 C 261.50722533333334 475.86689766666666 261.1728056666667 474.70398033333333 260.838386 473.541063 C 260.838386 471.2152286666667 260.838386 468.8893943333333 260.838386 466.56356 C 261.674435 464.2377256666667 262.510484 461.9118913333333 263.346533 459.586057 C 261.34001566666666 457.7586156666666 259.33349833333335 455.93117433333333 257.326981 454.103733 C 256.65814166666667 452.94081566666665 255.9893023333333 451.7778983333333 255.320463 450.614981 C 254.81883366666665 448.953671 254.31720433333334 447.292361 253.815575 445.631051 C 253.815575 441.31164433333333 253.815575 436.99223766666665 253.815575 432.672831 C 254.651624 430.1808653333333 255.48767299999997 427.68889966666666 256.323722 425.196934 C 254.14999466666666 423.0372306666667 251.9762673333333 420.8775273333333 249.80254 418.717824 C 249.13370066666667 417.388776 248.46486133333332 416.059728 247.796022 414.73068 C 247.46160233333333 413.4016316666667 247.12718266666667 412.07258333333334 246.792763 410.743535 C 246.792763 404.430556 246.792763 398.117577 246.792763 391.804598 C 247.29439233333335 389.97715666666664 247.79602166666666 388.14971533333335 248.297651 386.322274 C 249.46811966666667 384.49483299999997 250.63858833333333 382.667392 251.809057 380.839951 C 251.809057 380.50768866666664 251.809057 380.17542633333335 251.809057 379.843164 C 250.47137866666665 377.6834606666667 249.13370033333334 375.5237573333333 247.796022 373.364054 C 247.46160233333333 371.868875 247.12718266666667 370.373696 246.792763 368.878517 C 246.792763 362.731669 246.792763 356.584821 246.792763 350.437973 C 247.628812 347.77987666666667 248.46486099999998 345.12178033333333 249.30091 342.463684 C 247.12718266666667 340.3039806666667 244.95345533333332 338.1442773333333 242.779728 335.984574 C 242.11088866666668 334.48939466666667 241.44204933333333 332.99421533333333 240.77321 331.499036 C 240.43879066666668 330.00385666666665 240.10437133333332 328.50867733333337 239.769952 327.013498 C 239.769952 321.198912 239.769952 315.38432600000004 239.769952 309.56974 C 240.43879099999998 307.2439056666667 241.10763 304.91807133333333 241.776469 302.592237 C 242.94693766666666 301.097058 244.11740633333335 299.601879 245.287875 298.1067 C 244.451826 296.94378266666666 243.615777 295.78086533333334 242.779728 294.617948 C 241.943679 292.62437566666665 241.10763 290.63080333333335 240.271581 288.637231 C 240.271581 287.806576 240.271581 286.97592099999997 240.271581 286.145266 C 240.10437133333332 285.979135 239.93716166666667 285.81300400000003 239.769952 285.646873 C 239.769952 279.998418 239.769952 274.349963 239.769952 268.701508 C 240.10437133333332 267.04019766666664 240.43879066666668 265.37888733333335 240.77321 263.717577 C 241.609259 262.05626666666666 242.445308 260.39495633333337 243.281357 258.733646 C 245.28787466666668 256.906205 247.29439233333332 255.078764 249.30091 253.251323 C 248.46486099999998 250.59322633333335 247.628812 247.93512966666665 246.792763 245.277033 C 246.792763 238.964054 246.792763 232.651075 246.792763 226.338096 C 246.95997300000002 225.507441 247.127183 224.67678600000002 247.294393 223.846131 C 248.29765166666667 221.68642766666667 249.30091033333335 219.52672433333333 250.304169 217.367021 C 251.47463766666667 216.03797266666666 252.64510633333333 214.70892433333333 253.815575 213.379876 C 254.651624 212.881483 255.48767299999997 212.38308999999998 256.323722 211.884697 C 255.48767299999997 209.39273166666666 254.651624 206.90076633333334 253.815575 204.408801 C 253.815575 197.76356 253.815575 191.11831899999999 253.815575 184.473078 C 254.14999466666666 183.14402966666665 254.48441433333335 181.81498133333332 254.818834 180.485933 C 255.32046333333332 179.489147 255.82209266666666 178.492361 256.323722 177.495575 C 257.159771 176.33265766666668 257.99582 175.16974033333332 258.831869 174.006823 C 260.336757 172.677775 261.841645 171.348727 263.346533 170.019679 C 262.510484 167.85997566666666 261.674435 165.70027233333334 260.838386 163.540569 C 260.838386 158.8889 260.838386 154.237231 260.838386 149.585562 C 261.005596 148.921038 261.172806 148.256514 261.340016 147.59199 C 262.176065 145.76454866666668 263.012114 143.93710733333333 263.848163 142.109666 C 265.1858413333333 140.44835566666666 266.5235196666667 138.78704533333334 267.861198 137.125735 C 267.861198 133.96924566666667 267.861198 130.81275633333334 267.861198 127.656267 C 268.697247 125.16430166666666 269.533296 122.67233633333333 270.369345 120.180371 C 271.874233 118.02066766666667 273.379121 115.86096433333333 274.884009 113.701261 C 274.884009 112.03995066666667 274.884009 110.37864033333334 274.884009 108.71733 C 275.720058 105.39470933333334 276.556107 102.07208866666666 277.392156 98.749468 C 278.0609953333333 97.586551 278.7298346666667 96.42363399999999 279.398674 95.260717 C 280.4019326666667 94.26393066666667 281.40519133333333 93.26714433333333 282.40845 92.270358 C 282.91007966666666 92.104227 283.41170933333336 91.938096 283.913339 91.771965 Z M 279.398674 146.096811 C 278.7298346666667 146.429073 278.0609953333333 146.761335 277.392156 147.093597 C 276.723317 147.758121 276.054478 148.422645 275.385639 149.087169 C 275.05121933333334 149.75169333333332 274.7167996666667 150.41621766666665 274.38238 151.080742 C 274.38238 154.73562433333333 274.38238 158.39050666666665 274.38238 162.045389 C 274.7167996666667 162.70991333333333 275.05121933333334 163.37443766666667 275.385639 164.038962 C 276.054478 164.703486 276.723317 165.36801 277.392156 166.032534 C 279.900303 166.697058 282.40845 167.361582 284.916597 168.026106 C 285.58543633333335 168.69063033333333 286.2542756666667 169.35515466666666 286.923115 170.019679 C 287.2575346666667 170.684203 287.5919543333333 171.348727 287.926374 172.013251 C 287.926374 173.176168 287.926374 174.339085 287.926374 175.502002 C 287.5919543333333 176.16652633333334 287.2575346666667 176.83105066666667 286.923115 177.495575 C 285.5854366666667 178.492361 284.2477583333333 179.489147 282.91008 180.485933 C 279.565884 180.485933 276.22168800000003 180.485933 272.877492 180.485933 C 272.041443 180.818195 271.205394 181.150457 270.369345 181.482719 C 269.7005056666667 182.14724333333334 269.0316663333333 182.81176766666667 268.362827 183.476292 C 268.02840733333335 184.306947 267.69398766666666 185.137602 267.359568 185.968257 C 267.359568 191.616712 267.359568 197.265167 267.359568 202.913622 C 267.69398766666666 203.744277 268.02840733333335 204.574932 268.362827 205.405587 C 269.366086 206.23624233333334 270.369345 207.06689766666665 271.372604 207.897553 C 271.87423333333334 208.063684 272.3758626666667 208.229815 272.877492 208.395946 C 276.22168800000003 208.395946 279.565884 208.395946 282.91008 208.395946 C 283.578919 208.728208 284.24775800000003 209.06047 284.916597 209.392732 C 285.58543633333335 210.057256 286.2542756666667 210.72178 286.923115 211.386304 C 287.2575346666667 212.050828 287.5919543333333 212.715352 287.926374 213.379876 C 287.926374 214.54279333333332 287.926374 215.70571066666668 287.926374 216.868628 C 287.5919543333333 217.533152 287.2575346666667 218.197676 286.923115 218.8622 C 286.2542756666667 219.52672433333333 285.58543633333335 220.19124866666667 284.916597 220.855773 C 284.080548 221.188035 283.244499 221.520297 282.40845 221.852559 C 276.8905266666667 221.852559 271.3726033333333 221.852559 265.85468 221.852559 C 264.51700166666666 222.68321400000002 263.17932333333334 223.513869 261.841645 224.344524 C 261.34001566666666 225.34131033333333 260.83838633333335 226.33809666666667 260.336757 227.334883 C 260.336757 232.98333766666667 260.336757 238.63179233333332 260.336757 244.280247 C 260.83838633333335 245.27703333333332 261.34001566666666 246.27381966666667 261.841645 247.270606 C 263.17932333333334 248.101261 264.51700166666666 248.931916 265.85468 249.762571 C 271.5398133333333 249.762571 277.22494666666665 249.762571 282.91008 249.762571 C 283.578919 250.094833 284.24775800000003 250.427095 284.916597 250.759357 C 285.752646 251.59001233333333 286.588695 252.42066766666667 287.424744 253.251323 C 287.591954 254.912633 287.759164 256.573943 287.926374 258.235253 C 287.5919543333333 258.89977733333336 287.2575346666667 259.56430166666667 286.923115 260.228826 C 286.2542756666667 260.89335 285.58543633333335 261.557874 284.916597 262.222398 C 284.080548 262.55466 283.244499 262.88692199999997 282.40845 263.219184 C 274.5495896666667 263.219184 266.6907293333333 263.219184 258.831869 263.219184 C 257.82860999999997 263.717577 256.825351 264.21596999999997 255.822092 264.714363 C 254.986043 266.20954233333333 254.149994 267.70472166666667 253.313945 269.199901 C 253.313945 274.516094 253.313945 279.832287 253.313945 285.14848 C 253.64836466666665 285.979135 253.98278433333334 286.80979 254.317204 287.640445 C 255.153253 288.4711 255.989302 289.301755 256.825351 290.13241 C 257.6614 290.46467233333334 258.497449 290.79693466666663 259.333498 291.129197 C 267.1923586666667 291.129197 275.05121933333334 291.129197 282.91008 291.129197 C 283.578919 291.461459 284.24775800000003 291.793721 284.916597 292.125983 C 285.752646 292.956638 286.588695 293.78729300000003 287.424744 294.617948 C 287.591954 296.27925833333336 287.759164 297.94056866666665 287.926374 299.601879 C 287.5919543333333 300.266403 287.2575346666667 300.930927 286.923115 301.595451 C 286.2542756666667 302.259975 285.58543633333335 302.924499 284.916597 303.589023 C 284.080548 303.92128533333334 283.244499 304.25354766666663 282.40845 304.58581 C 274.5495896666667 304.58581 266.6907293333333 304.58581 258.831869 304.58581 C 257.82860999999997 305.084203 256.825351 305.58259599999997 255.822092 306.080989 C 254.986043 307.5761683333333 254.149994 309.07134766666667 253.313945 310.566527 C 253.313945 315.8827196666667 253.313945 321.19891233333334 253.313945 326.515105 C 253.64836466666665 327.34576 253.98278433333334 328.176415 254.317204 329.00707 C 255.153253 329.8377253333333 255.989302 330.6683806666667 256.825351 331.499036 C 257.6614 331.831298 258.497449 332.16355999999996 259.333498 332.495822 C 267.1923586666667 332.495822 275.05121933333334 332.495822 282.91008 332.495822 C 283.4117093333333 332.661953 283.9133386666667 332.828084 284.414968 332.994215 C 285.41822666666667 333.9910013333333 286.4214853333333 334.9877876666667 287.424744 335.984574 C 287.591954 337.645884 287.759164 339.307194 287.926374 340.968504 C 287.5919543333333 341.63302833333336 287.2575346666667 342.29755266666666 286.923115 342.962077 C 285.9198563333333 343.792732 284.9165976666667 344.62338700000004 283.913339 345.454042 C 283.2444996666667 345.620173 282.5756603333333 345.786304 281.906821 345.952435 C 276.38889766666665 345.952435 270.8709743333333 345.952435 265.353051 345.952435 C 264.0153726666667 346.9492213333333 262.6776943333333 347.9460076666667 261.340016 348.942794 C 261.0055963333333 349.77344899999997 260.67117666666667 350.604104 260.336757 351.434759 C 260.336757 356.917083 260.336757 362.399407 260.336757 367.881731 C 261.0055963333333 369.210779 261.6744356666667 370.539827 262.343275 371.868875 C 263.6809533333333 372.533399 265.0186316666667 373.197923 266.35631 373.862447 C 272.041443 373.862447 277.72657599999997 373.862447 283.411709 373.862447 C 283.74612866666666 374.0285783333333 284.0805483333333 374.19470966666665 284.414968 374.360841 C 285.5854366666667 375.689889 286.7559053333333 377.018937 287.926374 378.347985 C 287.926374 379.6770333333333 287.926374 381.00608166666666 287.926374 382.33513 C 287.090325 383.498047 286.254276 384.660964 285.418227 385.823881 C 284.2477583333333 386.3222743333333 283.0772896666667 386.8206676666666 281.906821 387.319061 C 276.38889766666665 387.319061 270.8709743333333 387.319061 265.353051 387.319061 C 264.68421166666667 387.651323 264.01537233333335 387.983585 263.346533 388.315847 C 262.67769400000003 388.980371 262.008855 389.644895 261.340016 390.309419 C 261.0055963333333 391.14007399999997 260.67117666666667 391.970729 260.336757 392.801384 C 260.336757 398.283708 260.336757 403.766032 260.336757 409.248356 C 260.67117666666667 410.079011 261.0055963333333 410.909666 261.340016 411.740321 C 262.5104846666667 412.7371073333333 263.6809533333333 413.7338936666667 264.851422 414.73068 C 265.520261 414.896811 266.1891 415.062942 266.857939 415.229073 C 272.3758623333333 415.229073 277.89378566666664 415.229073 283.411709 415.229073 C 284.9165973333333 416.72425233333337 286.4214856666667 418.21943166666665 287.926374 419.714611 C 287.926374 421.043659 287.926374 422.372707 287.926374 423.701755 C 287.090325 424.8646723333333 286.254276 426.0275896666667 285.418227 427.190507 C 284.0805486666667 427.6889 282.7428703333333 428.187293 281.405192 428.685686 C 278.39541533333335 428.685686 275.38563866666664 428.685686 272.375862 428.685686 C 271.87423266666667 428.851817 271.3726033333333 429.017948 270.870974 429.184079 C 270.034925 430.014734 269.198876 430.845389 268.362827 431.676044 C 268.02840733333335 432.34056833333335 267.69398766666666 433.00509266666666 267.359568 433.669617 C 267.359568 437.1583683333333 267.359568 440.6471196666667 267.359568 444.135871 C 268.195617 445.46491933333334 269.031666 446.7939676666667 269.867715 448.123016 C 271.03818366666667 448.621409 272.2086523333333 449.119802 273.379121 449.618195 C 276.55610733333333 449.618195 279.73309366666666 449.618195 282.91008 449.618195 C 283.4117093333333 449.784326 283.9133386666667 449.950457 284.414968 450.116588 C 285.5854366666667 451.4456363333333 286.7559053333333 452.77468466666664 287.926374 454.103733 C 287.926374 455.4327813333333 287.926374 456.76182966666664 287.926374 458.090878 C 287.090325 459.25379499999997 286.254276 460.416712 285.418227 461.579629 C 284.9165976666667 461.911891 284.4149683333333 462.244153 283.913339 462.576415 C 281.9068213333333 462.908677 279.9003036666667 463.24093899999997 277.893786 463.573201 C 276.89052699999996 464.5699873333333 275.887268 465.5667736666667 274.884009 466.56356 C 274.7167993333333 468.39100133333335 274.5495896666667 470.21844266666665 274.38238 472.045884 C 274.7167996666667 472.710408 275.05121933333334 473.374932 275.385639 474.039456 C 276.72331733333334 475.0362423333333 278.0609956666667 476.03302866666667 279.398674 477.029815 C 289.7656816666667 477.029815 300.13268933333336 477.029815 310.499697 477.029815 C 311.33574600000003 476.69755266666664 312.171795 476.36529033333335 313.007844 476.033028 C 313.67668299999997 475.368504 314.345522 474.70398 315.014361 474.039456 C 315.3487806666667 473.374932 315.68320033333333 472.710408 316.01762 472.045884 C 315.85041033333334 470.21844266666665 315.68320066666666 468.39100133333335 315.515991 466.56356 C 314.51273199999997 465.5667736666667 313.509473 464.5699873333333 312.506214 463.573201 C 310.49969633333336 463.24093899999997 308.49317866666667 462.908677 306.486661 462.576415 C 305.98503166666666 462.244153 305.48340233333334 461.911891 304.981773 461.579629 C 304.145724 460.416712 303.309675 459.25379499999997 302.473626 458.090878 C 302.473626 456.76182966666664 302.473626 455.4327813333333 302.473626 454.103733 C 303.64409466666666 452.77468466666664 304.81456333333335 451.4456363333333 305.985032 450.116588 C 306.4866613333333 449.950457 306.98829066666667 449.784326 307.48992 449.618195 C 310.6669063333333 449.618195 313.84389266666665 449.618195 317.020879 449.618195 C 318.1913476666667 449.119802 319.3618163333333 448.621409 320.532285 448.123016 C 321.368334 446.7939676666667 322.204383 445.46491933333334 323.040432 444.135871 C 323.040432 440.6471196666667 323.040432 437.1583683333333 323.040432 433.669617 C 322.7060123333333 433.00509266666666 322.3715926666667 432.34056833333335 322.037173 431.676044 C 321.201124 430.845389 320.365075 430.014734 319.529026 429.184079 C 319.0273966666667 429.017948 318.5257673333333 428.851817 318.024138 428.685686 C 315.01436133333334 428.685686 312.00458466666663 428.685686 308.994808 428.685686 C 307.65712966666666 428.187293 306.3194513333333 427.6889 304.981773 427.190507 C 304.145724 426.0275896666667 303.309675 424.8646723333333 302.473626 423.701755 C 302.473626 422.372707 302.473626 421.043659 302.473626 419.714611 C 303.97851433333335 418.21943166666665 305.4834026666667 416.72425233333337 306.988291 415.229073 C 312.50621433333333 415.229073 318.02413766666666 415.229073 323.542061 415.229073 C 324.54531966666667 414.896811 325.5485783333333 414.564549 326.551837 414.232287 C 327.387886 413.4016316666667 328.223935 412.5709763333333 329.059984 411.740321 C 329.3944036666667 410.909666 329.7288233333333 410.079011 330.063243 409.248356 C 330.063243 403.766032 330.063243 398.283708 330.063243 392.801384 C 329.7288233333333 391.970729 329.3944036666667 391.14007399999997 329.059984 390.309419 C 327.72230566666667 389.312633 326.3846273333333 388.31584699999996 325.046949 387.319061 C 319.52902566666666 387.319061 314.0111023333333 387.319061 308.493179 387.319061 C 307.8243396666667 387.15292966666664 307.15550033333335 386.98679833333335 306.486661 386.820667 C 305.48340233333334 385.99001200000004 304.48014366666666 385.159357 303.476885 384.328702 C 303.14246533333335 383.664178 302.80804566666666 382.999654 302.473626 382.33513 C 302.473626 381.00608166666666 302.473626 379.6770333333333 302.473626 378.347985 C 303.97851433333335 376.85280566666665 305.4834026666667 375.3576263333333 306.988291 373.862447 C 312.673424 373.862447 318.358557 373.862447 324.04369 373.862447 C 325.38136833333334 373.197923 326.71904666666666 372.533399 328.056725 371.868875 C 328.7255643333333 370.539827 329.3944036666667 369.210779 330.063243 367.881731 C 330.063243 362.399407 330.063243 356.917083 330.063243 351.434759 C 329.7288233333333 350.604104 329.3944036666667 349.77344899999997 329.059984 348.942794 C 327.72230566666667 347.9460076666667 326.3846273333333 346.9492213333333 325.046949 345.952435 C 319.52902566666666 345.952435 314.0111023333333 345.952435 308.493179 345.952435 C 307.8243396666667 345.786304 307.15550033333335 345.620173 306.486661 345.454042 C 305.48340233333334 344.62338700000004 304.48014366666666 343.792732 303.476885 342.962077 C 303.14246533333335 342.29755266666666 302.80804566666666 341.63302833333336 302.473626 340.968504 C 302.473626 339.639456 302.473626 338.310408 302.473626 336.98136 C 303.64409466666666 335.65231166666666 304.81456333333335 334.32326333333333 305.985032 332.994215 C 306.4866613333333 332.828084 306.98829066666667 332.661953 307.48992 332.495822 C 315.34878066666664 332.495822 323.20764133333336 332.495822 331.066502 332.495822 C 331.902551 332.16355999999996 332.7386 331.831298 333.574649 331.499036 C 334.410698 330.6683806666667 335.24674699999997 329.8377253333333 336.082796 329.00707 C 336.41721566666666 328.176415 336.7516353333333 327.34576 337.086055 326.515105 C 337.086055 321.19891233333334 337.086055 315.8827196666667 337.086055 310.566527 C 336.58442533333334 309.4036096666667 336.08279566666664 308.2406923333333 335.581166 307.077775 C 334.2434876666667 306.24712 332.9058093333333 305.41646499999996 331.568131 304.58581 C 323.70927066666667 304.58581 315.85041033333334 304.58581 307.99155 304.58581 C 307.4899203333334 304.419679 306.98829066666667 304.253548 306.486661 304.087417 C 305.48340233333334 303.2567616666667 304.48014366666666 302.42610633333334 303.476885 301.595451 C 303.14246533333335 300.930927 302.80804566666666 300.266403 302.473626 299.601879 C 302.473626 298.27283066666666 302.473626 296.94378233333333 302.473626 295.614734 C 303.47688500000004 294.451817 304.480144 293.2889 305.483403 292.125983 C 306.152242 291.793721 306.821081 291.461459 307.48992 291.129197 C 315.34878066666664 291.129197 323.20764133333336 291.129197 331.066502 291.129197 C 331.902551 290.79693466666663 332.7386 290.46467233333334 333.574649 290.13241 C 334.410698 289.301755 335.24674699999997 288.4711 336.082796 287.640445 C 336.41721566666666 286.80979 336.7516353333333 285.979135 337.086055 285.14848 C 337.086055 279.832287 337.086055 274.516094 337.086055 269.199901 C 336.58442533333334 268.036984 336.08279566666664 266.87406699999997 335.581166 265.71115 C 334.2434876666667 264.88049466666666 332.9058093333333 264.0498393333333 331.568131 263.219184 C 323.70927066666667 263.219184 315.85041033333334 263.219184 307.99155 263.219184 C 307.155501 262.88692199999997 306.319452 262.55466 305.483403 262.222398 C 304.8145636666667 261.557874 304.1457243333333 260.89335 303.476885 260.228826 C 303.14246533333335 259.56430166666667 302.80804566666666 258.89977733333336 302.473626 258.235253 C 302.473626 256.906205 302.473626 255.577157 302.473626 254.248109 C 303.47688500000004 253.08519166666667 304.480144 251.92227433333332 305.483403 250.759357 C 306.152242 250.427095 306.821081 250.094833 307.48992 249.762571 C 313.1750533333333 249.762571 318.86018666666666 249.762571 324.54532 249.762571 C 325.8829983333333 248.931916 327.2206766666667 248.101261 328.558355 247.270606 C 329.0599843333333 246.27381966666667 329.5616136666667 245.27703333333332 330.063243 244.280247 C 330.063243 238.63179233333332 330.063243 232.98333766666667 330.063243 227.334883 C 329.5616136666667 226.33809666666667 329.0599843333333 225.34131033333333 328.558355 224.344524 C 327.2206766666667 223.513869 325.8829983333333 222.68321400000002 324.54532 221.852559 C 319.0273966666667 221.852559 313.50947333333335 221.852559 307.99155 221.852559 C 307.155501 221.520297 306.319452 221.188035 305.483403 220.855773 C 304.8145636666667 220.19124866666667 304.1457243333333 219.52672433333333 303.476885 218.8622 C 303.14246533333335 218.197676 302.80804566666666 217.533152 302.473626 216.868628 C 302.64083600000004 215.20731766666665 302.808046 213.54600733333334 302.975256 211.884697 C 303.811305 211.05404199999998 304.647354 210.223387 305.483403 209.392732 C 306.152242 209.06047 306.821081 208.728208 307.48992 208.395946 C 310.834116 208.395946 314.178312 208.395946 317.522508 208.395946 C 318.02413733333333 208.229815 318.5257666666667 208.063684 319.027396 207.897553 C 320.030655 207.06689766666665 321.033914 206.23624233333334 322.037173 205.405587 C 322.3715926666667 204.574932 322.7060123333333 203.744277 323.040432 202.913622 C 323.040432 197.265167 323.040432 191.616712 323.040432 185.968257 C 322.7060123333333 185.137602 322.3715926666667 184.306947 322.037173 183.476292 C 321.3683336666667 182.81176766666667 320.69949433333335 182.14724333333334 320.030655 181.482719 C 319.194606 181.150457 318.358557 180.818195 317.522508 180.485933 C 314.178312 180.485933 310.834116 180.485933 307.48992 180.485933 C 306.821081 180.153671 306.152242 179.821409 305.483403 179.489147 C 304.647354 178.658492 303.811305 177.82783700000002 302.975256 176.997182 C 302.808046 176.49878866666668 302.64083600000004 176.00039533333333 302.473626 175.502002 C 302.473626 174.339085 302.473626 173.176168 302.473626 172.013251 C 302.80804566666666 171.348727 303.14246533333335 170.684203 303.476885 170.019679 C 304.1457243333333 169.35515466666666 304.8145636666667 168.69063033333333 305.483403 168.026106 C 306.319452 167.693844 307.155501 167.361582 307.99155 167.02932 C 309.32922833333333 166.863189 310.6669066666667 166.697058 312.004585 166.530927 C 313.0078436666667 165.70027199999998 314.0111023333333 164.869617 315.014361 164.038962 C 315.3487806666667 163.37443766666667 315.68320033333333 162.70991333333333 316.01762 162.045389 C 316.01762 158.39050666666665 316.01762 154.73562433333333 316.01762 151.080742 C 315.68320033333333 150.41621766666665 315.3487806666667 149.75169333333332 315.014361 149.087169 C 314.345522 148.422645 313.67668299999997 147.758121 313.007844 147.093597 C 312.33900466666665 146.761335 311.67016533333333 146.429073 311.001326 146.096811 C 300.46710866666666 146.096811 289.9328913333334 146.096811 279.398674 146.096811 Z M 291.939409 118.685192 C 290.93615033333333 119.017454 289.9328916666667 119.349716 288.929633 119.681978 C 287.4247446666667 120.844895 285.9198563333333 122.007812 284.414968 123.170729 C 283.74612866666666 124.16751533333333 283.07728933333334 125.16430166666667 282.40845 126.161088 C 282.07403066666666 127.157874 281.73961133333336 128.15466 281.405192 129.151446 C 281.405192 130.31436333333332 281.405192 131.47728066666667 281.405192 132.640198 C 290.60173066666664 132.640198 299.79826933333334 132.640198 308.994808 132.640198 C 308.994808 131.47728066666667 308.994808 130.31436333333332 308.994808 129.151446 C 308.6603886666667 128.15466 308.3259693333333 127.157874 307.99155 126.161088 C 306.8210813333333 124.66590866666667 305.6506126666667 123.17072933333334 304.480144 121.67555 C 303.476885 121.011026 302.473626 120.346502 301.470367 119.681978 C 300.46710833333333 119.349716 299.4638496666667 119.017454 298.460591 118.685192 C 296.2868636666667 118.685192 294.11313633333333 118.685192 291.939409 118.685192 Z" fill="black" stroke="none" /></svg>