<?xml version='1.0' encoding='utf-8'?>
<svg xmlns="http://www.w3.org/2000/svg" xmlns:dc="http://purl.org/dc/elements/1.1/" xmlns:ns2="http://creativecommons.org/ns#" xmlns:rdf="http://www.w3.org/1999/02/22-rdf-syntax-ns#" width="576pt" height="576pt" viewBox="0 0 576 576" version="1.1">
 <metadata>
  <rdf:RDF>
   <ns2:Work>
    <dc:type rdf:resource="http://purl.org/dc/dcmitype/StillImage" />
    <dc:date>2025-06-04T19:26:22.332348</dc:date>
    <dc:format>image/svg+xml</dc:format>
    <dc:creator>
     <ns2:Agent>
      <dc:title>Matplotlib v3.7.5, https://matplotlib.org/</dc:title>
     </ns2:Agent>
    </dc:creator>
   </ns2:Work>
  </rdf:RDF>
 </metadata>
 <defs>
  <style type="text/css">*{stroke-linejoin: round; stroke-linecap: butt}</style>
 </defs>
 <defs>
  <clipPath id="p6aaef6e97d">
   <rect x="72" y="69.12" width="446.4" height="443.52" />
  </clipPath>
 </defs>
<path d="M 398.284841 175.003609 C 398.45205066666665 174.837478 398.61926033333333 174.671347 398.78647 174.505216 C 400.625778 174.671347 402.465086 174.837478 404.304394 175.003609 C 404.973233 175.33587133333333 405.642072 175.66813366666668 406.310911 176.000396 C 407.31417 176.997182 408.317429 177.993968 409.320688 178.990754 C 431.559591 213.04761433333334 453.798494 247.10447466666668 476.037397 281.161335 C 477.37507566666665 283.4871693333333 478.71275433333335 285.8130036666667 480.050433 288.138838 C 480.2176426666667 288.803362 480.3848523333333 289.467886 480.552062 290.13241 C 480.552062 325.68444966666664 480.552062 361.23648933333334 480.552062 396.788529 C 480.21764233333334 397.7853153333333 479.88322266666665 398.7821016666667 479.548803 399.778888 C 478.54554433333334 400.941805 477.54228566666666 402.104722 476.539027 403.267639 C 475.03413866666665 403.932163 473.5292503333333 404.596687 472.024362 405.261211 C 354.141454 405.261211 236.258546 405.261211 118.375638 405.261211 C 116.87074966666667 404.596687 115.36586133333333 403.932163 113.860973 403.267639 C 113.35934366666666 402.769246 112.85771433333333 402.270853 112.356085 401.77246 C 111.68724566666666 400.6095426666667 111.01840633333333 399.4466253333333 110.349567 398.283708 C 110.349567 397.286922 110.349567 396.29013599999996 110.349567 395.29335 C 110.18235733333333 395.12721899999997 110.01514766666666 394.961088 109.847938 394.794957 C 109.847938 360.4058346666667 109.847938 326.0167123333333 109.847938 291.62759 C 110.18235766666666 290.13241066666666 110.51677733333334 288.6372313333333 110.851197 287.142052 C 111.85445566666667 285.97913466666665 112.85771433333333 284.8162173333333 113.860973 283.6533 C 123.39193166666666 279.3338933333333 132.92289033333333 275.0144866666667 142.453849 270.69508 C 159.34203866666667 264.049839 176.23022833333332 257.404598 193.118418 250.759357 C 195.29214533333334 250.094833 197.46587266666666 249.430309 199.6396 248.765785 C 203.15100566666666 247.27060566666665 206.66241133333335 245.77542633333334 210.173817 244.280247 C 212.34754433333333 243.615723 214.52127166666668 242.951199 216.694999 242.286675 C 218.03267766666667 241.622151 219.37035633333332 240.957627 220.708035 240.293103 C 221.544084 240.126972 222.380133 239.96084100000002 223.216182 239.79471 C 245.12066566666667 231.48815866666666 267.02514933333333 223.18160733333335 288.929633 214.875056 C 290.26731133333334 214.54279366666665 291.6049896666667 214.21053133333334 292.942668 213.878269 C 294.28034633333334 213.213745 295.6180246666667 212.549221 296.955703 211.884697 C 298.29338133333334 211.552435 299.63105966666666 211.220173 300.968738 210.887911 C 309.998067 207.39915933333333 319.02739599999995 203.91040766666669 328.056725 200.421656 C 329.3944036666667 200.089394 330.7320823333333 199.757132 332.069761 199.42487 C 335.246747 198.095822 338.423733 196.766774 341.600719 195.437726 C 342.93839733333334 195.10546366666665 344.27607566666666 194.77320133333333 345.613754 194.440939 C 348.7907403333333 193.11189099999999 351.9677266666667 191.782843 355.144713 190.453795 C 356.48239133333334 190.121533 357.8200696666667 189.789271 359.157748 189.457009 C 362.33473433333336 188.12796066666667 365.5117206666667 186.79891233333333 368.688707 185.469864 C 378.554085 181.98111233333333 388.419463 178.49236066666668 398.284841 175.003609 Z M 129.411484 300.598665 C 129.411484 329.00707033333333 129.411484 357.4154756666666 129.411484 385.823881 C 239.93716133333334 385.823881 350.4628386666667 385.823881 460.988516 385.823881 C 460.988516 357.4154756666666 460.988516 329.00707033333333 460.988516 300.598665 C 350.46283866666664 300.598665 239.9371613333333 300.598665 129.411484 300.598665 Z M 279.398674 334.489394 C 279.5658836666667 334.323263 279.73309333333333 334.157132 279.900303 333.991001 C 282.91007966666666 333.991001 285.91985633333337 333.991001 288.929633 333.991001 C 291.4377796666667 334.9877873333333 293.9459263333333 335.9845736666667 296.454073 336.98136 C 298.62780066666664 338.97493233333336 300.80152833333335 340.96850466666666 302.975256 342.962077 C 304.14572433333336 345.28791133333334 305.31619266666667 347.61374566666666 306.486661 349.93958 C 306.65387100000004 350.604104 306.821081 351.268628 306.988291 351.933152 C 306.988291 354.92351033333335 306.988291 357.91386866666664 306.988291 360.904227 C 306.152242 363.0639303333333 305.316193 365.2236336666667 304.480144 367.383337 C 302.640836 369.5430403333333 300.801528 371.70274366666666 298.96222 373.862447 C 296.621283 375.1914953333333 294.280346 376.52054366666664 291.939409 377.849592 C 290.4345206666667 378.181854 288.9296323333333 378.514116 287.424744 378.846378 C 285.41822666666667 378.846378 283.4117093333333 378.846378 281.405192 378.846378 C 278.897045 378.01572300000004 276.388898 377.185068 273.880751 376.354413 C 272.87749199999996 375.689889 271.874233 375.025365 270.870974 374.360841 C 269.366086 372.86566166666665 267.861198 371.3704823333333 266.35631 369.875303 C 265.353051 368.2139926666666 264.34979200000004 366.55268233333334 263.346533 364.891372 C 263.01211366666666 363.894586 262.67769433333336 362.89779999999996 262.343275 361.901014 C 262.176065 359.0767863333333 262.00885500000004 356.2525586666667 261.841645 353.428331 C 262.34327433333334 351.60088966666666 262.8449036666667 349.77344833333336 263.346533 347.946007 C 264.01537233333335 346.616959 264.68421166666667 345.287911 265.353051 343.958863 C 267.5267783333333 341.7991596666667 269.7005056666667 339.6394563333333 271.874233 337.479753 C 273.0447016666667 336.81522866666666 274.21517033333333 336.15070433333335 275.385639 335.48618 C 276.72331733333334 335.153918 278.0609956666667 334.821656 279.398674 334.489394 Z M 283.411709 352.929938 C 282.74287 353.59446233333335 282.074031 354.25898666666666 281.405192 354.923511 C 281.405192 355.920297 281.405192 356.917083 281.405192 357.913869 C 281.9068213333333 358.412262 282.4084506666667 358.91065499999996 282.91008 359.409048 C 283.9133386666667 359.409048 284.9165973333333 359.409048 285.919856 359.409048 C 286.5886953333333 358.744524 287.2575346666667 358.08 287.926374 357.415476 C 287.926374 356.750952 287.926374 356.086428 287.926374 355.421904 C 287.4247446666667 354.7573796666667 286.9231153333333 354.0928553333333 286.421486 353.428331 C 285.418227 353.2622 284.414968 353.096069 283.411709 352.929938 Z M 168.538577 313.058492 C 168.70578700000002 312.892361 168.872997 312.72623 169.040207 312.560099 C 170.87951466666667 312.560099 172.71882233333335 312.560099 174.55813 312.560099 C 176.06301833333333 312.892361 177.5679066666667 313.224623 179.072795 313.556885 C 180.74489300000002 314.38754 182.416991 315.21819500000004 184.089089 316.04885 C 186.430026 318.37468466666667 188.770963 320.7005193333334 191.1119 323.026354 C 192.115159 325.35218833333334 193.118418 327.67802266666666 194.121677 330.003857 C 194.28888666666668 332.3296913333333 194.45609633333333 334.6555256666667 194.623306 336.98136 C 194.28888633333335 338.64267 193.95446666666666 340.30397999999997 193.620047 341.96529 C 192.951208 343.4604693333333 192.282369 344.95564866666666 191.61353 346.450828 C 190.44306133333333 347.94600733333334 189.27259266666667 349.4411866666667 188.102124 350.936366 C 187.098865 351.767021 186.095606 352.59767600000004 185.092347 353.428331 C 184.08908833333334 354.0928553333333 183.08582966666665 354.7573796666667 182.082571 355.421904 C 180.07605333333333 356.086428 178.06953566666667 356.750952 176.063018 357.415476 C 173.22045166666666 357.415476 170.37788533333332 357.415476 167.535319 357.415476 C 165.52880133333332 356.750952 163.52228366666668 356.086428 161.515766 355.421904 C 159.676458 354.09285566666665 157.83715 352.7638073333333 155.997842 351.434759 C 154.99458333333334 350.27184166666666 153.99132466666666 349.10892433333333 152.988066 347.946007 C 152.31922666666668 346.78309 151.65038733333333 345.62017299999997 150.981548 344.457256 C 150.47991866666666 342.96207666666663 149.97828933333335 341.46689733333335 149.47666 339.971718 C 149.47666 339.14106300000003 149.47666 338.310408 149.47666 337.479753 C 149.30945033333333 337.313622 149.14224066666668 337.147491 148.975031 336.98136 C 149.14224066666668 334.6555256666667 149.30945033333333 332.3296913333333 149.47666 330.003857 C 150.479919 327.67802266666666 151.483178 325.35218833333334 152.486437 323.026354 C 154.827374 320.7005193333334 157.16831100000002 318.37468466666667 159.509248 316.04885 C 161.18134600000002 315.21819500000004 162.853444 314.38754 164.525542 313.556885 C 165.86322033333335 313.390754 167.20089866666666 313.224623 168.538577 313.058492 Z M 170.043466 331.997429 C 169.54183633333332 332.661953 169.04020666666668 333.326477 168.538577 333.991001 C 168.538577 334.8216563333333 168.538577 335.65231166666666 168.538577 336.482967 C 169.374626 337.147491 170.210675 337.812015 171.046724 338.476539 C 171.54835366666669 338.476539 172.04998333333333 338.476539 172.551613 338.476539 C 173.387662 337.812015 174.223711 337.147491 175.05976 336.482967 C 175.05976 335.65231166666666 175.05976 334.8216563333333 175.05976 333.991001 C 174.3909206666667 333.326477 173.72208133333334 332.661953 173.053242 331.997429 C 172.04998333333333 331.997429 171.04672466666668 331.997429 170.043466 331.997429 Z M 394.773435 305.582596 C 394.940645 305.416465 395.107855 305.250334 395.275065 305.084203 C 397.783212 305.084203 400.291359 305.084203 402.799506 305.084203 C 405.4748626666667 306.080989 408.1502193333333 307.07777500000003 410.825576 308.074561 C 412.99930333333333 310.0681333333333 415.1730306666667 312.0617056666667 417.346758 314.055278 C 418.01559733333335 315.0520643333333 418.68443666666667 316.0488506666667 419.353276 317.045637 C 420.022115 318.873078 420.69095400000003 320.700519 421.359793 322.52796 C 421.359793 323.3586153333333 421.359793 324.1892706666667 421.359793 325.019926 C 421.52700300000004 325.186057 421.694213 325.352188 421.861423 325.518319 C 421.694213 327.84415333333334 421.52700300000004 330.16998766666666 421.359793 332.495822 C 420.0221146666667 335.3200493333333 418.68443633333334 338.14427666666666 417.346758 340.968504 C 415.1730306666667 342.96207633333336 412.99930333333333 344.95564866666666 410.825576 346.949221 C 408.1502193333333 347.94600733333334 405.4748626666667 348.94279366666666 402.799506 349.93958 C 400.291359 349.93958 397.783212 349.93958 395.275065 349.93958 C 393.602967 349.4411866666666 391.93086900000003 348.9427933333333 390.258771 348.4444 C 388.7538826666667 347.613745 387.2489943333333 346.78308999999996 385.744106 345.952435 C 383.73758833333335 343.79273166666667 381.73107066666665 341.6330283333333 379.724553 339.473325 C 378.72129433333333 337.14749066666667 377.7180356666667 334.8216563333333 376.714777 332.495822 C 376.714777 331.665167 376.714777 330.83451199999996 376.714777 330.003857 C 376.54756733333335 329.837726 376.38035766666667 329.671595 376.213148 329.505464 C 376.38035766666667 327.17962933333337 376.54756733333335 324.85379466666666 376.714777 322.52796 C 377.7180356666667 320.2021256666667 378.72129433333333 317.8762913333333 379.724553 315.550457 C 382.2327 313.05849166666667 384.740847 310.56652633333334 387.248994 308.074561 C 389.2555116666667 307.24390600000004 391.2620293333333 306.413251 393.268547 305.582596 C 393.7701763333333 305.582596 394.2718056666667 305.582596 394.773435 305.582596 Z M 398.284841 324.02314 C 397.44879199999997 324.687664 396.612743 325.352188 395.776694 326.016712 C 395.776694 327.01349799999997 395.776694 328.010284 395.776694 329.00707 C 396.27832333333333 329.50546333333335 396.7799526666667 330.00385666666665 397.281582 330.50225 C 398.117631 330.668381 398.95368 330.834512 399.789729 331.000643 C 400.625778 330.33611866666666 401.46182699999997 329.67159433333336 402.297876 329.00707 C 402.297876 328.010284 402.297876 327.01349799999997 402.297876 326.016712 C 401.79624666666666 325.51831899999996 401.2946173333333 325.019926 400.792988 324.521533 C 399.956939 324.35540199999997 399.12089 324.189271 398.284841 324.02314 Z M 395.776694 195.936119 C 364.67567133333336 207.39915966666666 333.5746486666667 218.86220033333333 302.473626 230.325241 C 301.97199666666666 230.657503 301.47036733333334 230.989765 300.968738 231.322027 C 300.13268899999997 231.488158 299.29664 231.654289 298.460591 231.82042 C 297.9589616666667 232.152682 297.45733233333334 232.484944 296.955703 232.817206 C 296.119654 232.98333733333334 295.283605 233.14946866666665 294.447556 233.3156 C 293.9459266666667 233.647862 293.44429733333334 233.980124 292.942668 234.312386 C 292.106619 234.478517 291.27057 234.644648 290.434521 234.810779 C 289.9328916666667 235.143041 289.43126233333334 235.475303 288.929633 235.807565 C 288.093584 235.97369600000002 287.257535 236.139827 286.421486 236.305958 C 285.91985633333337 236.63822 285.41822666666667 236.970482 284.916597 237.302744 C 284.080548 237.468875 283.244499 237.635006 282.40845 237.801137 C 281.9068206666667 238.133399 281.40519133333333 238.465661 280.903562 238.797923 C 280.067513 238.964054 279.231464 239.13018499999998 278.395415 239.296316 C 277.8937856666667 239.62857833333334 277.39215633333333 239.96084066666666 276.890527 240.293103 C 276.054478 240.459234 275.218429 240.625365 274.38238 240.791496 C 273.8807506666667 241.123758 273.37912133333333 241.45602 272.877492 241.788282 C 272.041443 241.95441300000002 271.205394 242.120544 270.369345 242.286675 C 269.8677156666667 242.618937 269.3660863333333 242.951199 268.864457 243.283461 C 268.028408 243.449592 267.192359 243.615723 266.35631 243.781854 C 265.8546806666667 244.114116 265.3530513333333 244.446378 264.851422 244.77864 C 264.015373 244.944771 263.179324 245.11090199999998 262.343275 245.277033 C 261.84164533333336 245.60929533333334 261.34001566666666 245.94155766666665 260.838386 246.27382 C 260.002337 246.439951 259.166288 246.606082 258.330239 246.772213 C 257.8286096666667 247.104475 257.3269803333333 247.436737 256.825351 247.768999 C 255.989302 247.93513000000002 255.153253 248.101261 254.317204 248.267392 C 253.81557466666666 248.599654 253.31394533333335 248.931916 252.812316 249.264178 C 251.976267 249.430309 251.140218 249.59644 250.304169 249.762571 C 249.80253966666666 250.094833 249.30091033333335 250.427095 248.799281 250.759357 C 247.963232 250.925488 247.127183 251.09161899999998 246.291134 251.25775 C 241.44204966666666 253.25132233333332 236.59296533333332 255.24489466666668 231.743881 257.238467 C 230.40620266666667 257.57072900000003 229.06852433333333 257.902991 227.730846 258.235253 C 226.39316766666667 258.89977733333336 225.05548933333336 259.56430166666667 223.717811 260.228826 C 221.54408366666667 260.89335 219.37035633333335 261.557874 217.196629 262.222398 C 201.98053733333333 268.203115 186.76444566666666 274.183832 171.548354 280.164549 C 170.712305 280.33068000000003 169.876256 280.496811 169.040207 280.662942 C 168.70578733333335 280.995204 168.37136766666666 281.32746599999996 168.036948 281.659728 C 262.844904 281.659728 357.65286000000003 281.659728 452.460816 281.659728 C 452.6280256666667 281.49359699999997 452.7952353333333 281.327466 452.962445 281.161335 C 452.126396 279.8322866666667 451.290347 278.50323833333334 450.454298 277.17419 C 446.60847266666667 271.52573533333333 442.76264733333335 265.8772806666667 438.916822 260.228826 C 426.20887733333336 240.45923366666668 413.50093266666664 220.68964133333336 400.792988 200.920049 C 399.7897293333333 199.42487 398.7864706666667 197.92969100000002 397.783212 196.434512 C 397.11437266666667 196.268381 396.44553333333334 196.10225 395.776694 195.936119 Z M 376.714777 218.363807 C 376.8819866666667 218.197676 377.0491963333333 218.031545 377.216406 217.865414 C 380.05897266666665 218.031545 382.90153933333335 218.197676 385.744106 218.363807 C 388.252253 219.52672433333333 390.7604 220.6896416666667 393.268547 221.852559 C 394.43901566666665 222.849345 395.60948433333334 223.846131 396.779953 224.842917 C 397.78321166666666 226.17196533333333 398.78647033333334 227.50101366666667 399.789729 228.830062 C 400.45856833333335 230.15911 401.12740766666667 231.488158 401.796247 232.817206 C 402.1306666666667 234.14625433333333 402.4650863333333 235.47530266666666 402.799506 236.804351 C 402.632296 239.96084066666666 402.465086 243.11733033333334 402.297876 246.27382 C 401.629037 247.93513 400.960198 249.59644 400.291359 251.25775 C 399.6225196666667 252.25453633333333 398.9536803333333 253.25132266666665 398.284841 254.248109 C 396.94716266666666 255.577157 395.60948433333334 256.906205 394.271806 258.235253 C 393.268547 258.89977733333336 392.265288 259.56430166666667 391.262029 260.228826 C 389.08830166666667 261.059481 386.9145743333333 261.89013600000004 384.740847 262.720791 C 381.73107066666665 262.720791 378.72129433333333 262.720791 375.711518 262.720791 C 374.20663 262.222398 372.70174199999997 261.72400500000003 371.196854 261.225612 C 369.52475599999997 260.2288256666667 367.852658 259.2320393333333 366.18056 258.235253 C 364.84288133333337 256.906205 363.50520266666666 255.577157 362.167524 254.248109 C 361.498685 253.25132266666665 360.829846 252.25453633333333 360.161007 251.25775 C 359.324958 248.93191566666667 358.488909 246.60608133333332 357.65286 244.280247 C 357.82006966666665 240.95762666666667 357.98727933333333 237.63500633333334 358.154489 234.312386 C 359.32495766666665 231.98655166666666 360.49542633333334 229.66071733333334 361.665895 227.334883 C 364.0068323333333 225.17517966666665 366.3477696666667 223.01547633333334 368.688707 220.855773 C 370.69522433333333 220.02511766666666 372.7017416666667 219.19446233333335 374.708259 218.363807 C 375.3770983333333 218.363807 376.0459376666667 218.363807 376.714777 218.363807 Z M 378.721295 237.302744 C 378.0524556666667 238.13339933333333 377.38361633333335 238.96405466666667 376.714777 239.79471 C 376.8819866666667 240.62536500000002 377.0491963333333 241.45602 377.216406 242.286675 C 377.88524533333333 242.785068 378.55408466666665 243.28346100000002 379.222924 243.781854 C 379.8917633333333 243.781854 380.5606026666667 243.781854 381.229442 243.781854 C 381.898281 243.28346100000002 382.56712 242.785068 383.235959 242.286675 C 383.40316866666666 241.45602 383.57037833333334 240.62536500000002 383.737588 239.79471 C 383.068749 238.96405466666667 382.39991 238.13339933333333 381.731071 237.302744 C 380.7278123333333 237.302744 379.7245536666667 237.302744 378.721295 237.302744 Z" fill="black" stroke="none" /></svg>