<?xml version='1.0' encoding='utf-8'?>
<svg xmlns="http://www.w3.org/2000/svg" xmlns:dc="http://purl.org/dc/elements/1.1/" xmlns:ns2="http://creativecommons.org/ns#" xmlns:rdf="http://www.w3.org/1999/02/22-rdf-syntax-ns#" width="576pt" height="576pt" viewBox="0 0 576 576" version="1.1">
 <metadata>
  <rdf:RDF>
   <ns2:Work>
    <dc:type rdf:resource="http://purl.org/dc/dcmitype/StillImage" />
    <dc:date>2025-06-04T19:08:57.634035</dc:date>
    <dc:format>image/svg+xml</dc:format>
    <dc:creator>
     <ns2:Agent>
      <dc:title>Matplotlib v3.7.5, https://matplotlib.org/</dc:title>
     </ns2:Agent>
    </dc:creator>
   </ns2:Work>
  </rdf:RDF>
 </metadata>
 <defs>
  <style type="text/css">*{stroke-linejoin: round; stroke-linecap: butt}</style>
 </defs>
 <defs>
  <clipPath id="pe84d95c98b">
   <rect x="72" y="69.12" width="446.4" height="443.52" />
  </clipPath>
 </defs>
<path d="M 234.753658 91.771965 C 234.92086766666668 91.605834 235.08807733333333 91.439703 235.255287 91.273572 C 236.25854566666666 91.273572 237.26180433333334 91.273572 238.265063 91.273572 C 241.609259 92.60262033333333 244.953455 93.93166866666667 248.297651 95.260717 C 252.81231566666668 96.257503 257.3269803333334 97.254289 261.841645 98.251075 C 264.85142133333335 98.251075 267.86119766666667 98.251075 270.870974 98.251075 C 275.887268 97.254289 280.90356199999997 96.257503 285.919856 95.260717 C 289.264052 95.094586 292.608248 94.928455 295.952444 94.762324 C 296.1196536666667 94.596193 296.2868633333333 94.430062 296.454073 94.263931 C 299.798269 94.263931 303.142465 94.263931 306.486661 94.263931 C 306.65387100000004 94.0978 306.821081 93.931669 306.988291 93.765538 C 310.165277 93.931669 313.342263 94.0978 316.519249 94.263931 C 320.19786466666665 95.094586 323.87648033333335 95.925241 327.555096 96.755896 C 330.063243 97.91881333333333 332.57139 99.08173066666667 335.079537 100.244648 C 337.08605466666666 101.573696 339.09257233333335 102.902744 341.09909 104.231792 C 344.77770566666663 107.88667466666666 348.45632133333334 111.54155733333333 352.134937 115.19644 C 354.64308366666666 116.027095 357.15123033333333 116.85775 359.659377 117.688405 C 363.33799266666665 119.84810833333333 367.01660833333335 122.00781166666667 370.695224 124.167515 C 373.8722103333333 127.32400466666667 377.04919666666666 130.48049433333335 380.226183 133.636984 C 381.5638613333333 135.63055633333335 382.9015396666667 137.62412866666668 384.239218 139.617701 C 385.2424766666667 141.61127333333334 386.2457353333333 143.60484566666668 387.248994 145.598418 C 388.252253 148.42264533333335 389.255512 151.24687266666666 390.258771 154.0711 C 391.09482 158.39050666666668 391.930869 162.70991333333333 392.766918 167.02932 C 392.766918 168.69063033333333 392.766918 170.35194066666668 392.766918 172.013251 C 392.93412766666665 172.179382 393.10133733333333 172.34551299999998 393.268547 172.511644 C 393.10133733333333 179.156885 392.93412766666665 185.80212600000002 392.766918 192.447367 C 392.59970799999996 192.61349800000002 392.432498 192.779629 392.265288 192.94576 C 392.265288 194.27480833333334 392.265288 195.60385666666667 392.265288 196.932905 C 392.0980783333333 197.099036 391.9308686666667 197.265167 391.763659 197.431298 C 391.4292393333333 200.42165633333335 391.0948196666667 203.41201466666666 390.7604 206.402373 C 389.7571413333333 210.22338666666667 388.7538826666667 214.04440033333333 387.750624 217.865414 C 387.750624 218.696069 387.750624 219.526724 387.750624 220.357379 C 388.9210923333333 222.01868933333333 390.0915606666667 223.67999966666667 391.262029 225.34131 C 392.098078 227.16875133333332 392.934127 228.99619266666667 393.770176 230.823634 C 394.27180566666664 233.31559933333332 394.77343533333334 235.80756466666668 395.275065 238.29953 C 395.107855 240.95762666666667 394.940645 243.61572333333334 394.773435 246.27382 C 393.6029663333333 250.26096433333333 392.4324976666667 254.24810866666667 391.262029 258.235253 C 389.757141 261.2256116666667 388.252253 264.2159703333333 386.747365 267.206329 C 384.239218 270.19668733333333 381.731071 273.1870456666667 379.222924 276.177404 C 378.2196653333333 277.00805933333334 377.21640666666667 277.8387146666667 376.213148 278.66937 C 373.705001 280.164549 371.19685400000003 281.659728 368.688707 283.154907 C 367.685448 285.97913466666665 366.682189 288.8033623333333 365.67893 291.62759 C 363.67241233333334 295.78086566666667 361.66589466666665 299.93414133333334 359.659377 304.087417 C 357.65285966666664 307.24390633333337 355.64634233333334 310.40039566666667 353.639825 313.556885 C 352.30214666666666 315.05206433333336 350.96446833333334 316.54724366666665 349.62679 318.042423 C 349.29237033333334 320.5343883333333 348.9579506666667 323.0263536666667 348.623531 325.518319 C 348.456321 325.68445 348.289111 325.850581 348.121901 326.016712 C 348.121901 327.3457603333333 348.121901 328.67480866666665 348.121901 330.003857 C 347.9546913333333 330.169988 347.7874816666667 330.336119 347.620272 330.50225 C 347.7874816666667 335.32004966666665 347.9546913333333 340.13784933333335 348.121901 344.955649 C 348.95795 347.1153523333333 349.793999 349.2750556666667 350.630048 351.434759 C 351.466097 352.5976763333333 352.302146 353.7605936666667 353.138195 354.923511 C 356.1479713333333 357.24934533333334 359.1577476666667 359.57517966666666 362.167524 361.901014 C 366.8493986666667 364.06071733333334 371.53127333333333 366.22042066666666 376.213148 368.380124 C 385.7441063333333 371.86887533333334 395.27506466666665 375.3576266666667 404.806023 378.846378 C 408.8190583333333 380.8399503333333 412.83209366666665 382.8335226666667 416.845129 384.827095 C 421.1925836666667 387.81745366666667 425.5400383333333 390.80781233333335 429.887493 393.798171 C 432.39564 396.29013633333335 434.90378699999997 398.7821016666667 437.411934 401.274067 C 438.58240266666667 402.769246 439.7528713333333 404.264425 440.92334 405.759604 C 442.9298573333333 409.24835566666667 444.93637466666667 412.73710733333337 446.942892 416.225859 C 448.11336066666667 419.54847966666665 449.2838293333333 422.87110033333335 450.454298 426.193721 C 451.1231373333333 429.6824723333333 451.7919766666667 433.17122366666666 452.460816 436.659975 C 452.6280256666667 441.31164366666667 452.7952353333333 445.9633123333333 452.962445 450.614981 C 452.6280253333333 451.7778983333333 452.2936056666667 452.94081566666665 451.959186 454.103733 C 451.123137 455.4327813333333 450.287088 456.76182966666664 449.451039 458.090878 C 447.778941 459.752188 446.106843 461.413498 444.434745 463.074808 C 441.92659833333335 464.73611833333337 439.41845166666667 466.39742866666666 436.910305 468.058739 C 432.56284999999997 470.0523113333333 428.215395 472.04588366666667 423.86794 474.039456 C 418.68443633333334 475.7007663333333 413.50093266666664 477.36207666666667 408.317429 479.023387 C 402.465086 480.35243533333335 396.612743 481.6814836666667 390.7604 483.010532 C 389.924351 483.010532 389.088302 483.010532 388.252253 483.010532 C 384.239218 483.841187 380.226183 484.671842 376.213148 485.502497 C 373.87221066666666 485.668628 371.53127333333333 485.834759 369.190336 486.00089 C 369.0231263333333 486.16702100000003 368.8559166666667 486.333152 368.688707 486.499283 C 362.836364 486.997676 356.98402100000004 487.496069 351.131678 487.994462 C 350.964468 488.160593 350.797258 488.326724 350.630048 488.492855 C 348.6235306666667 488.492855 346.6170133333333 488.492855 344.610496 488.492855 C 344.443286 488.658986 344.276076 488.825117 344.108866 488.991248 C 338.7581523333333 489.1573793333333 333.4074386666666 489.32351066666666 328.056725 489.489642 C 327.8895153333333 489.655773 327.72230566666667 489.821904 327.555096 489.988035 C 323.04043133333334 489.988035 318.52576666666664 489.988035 314.011102 489.988035 C 313.8438923333333 490.15416600000003 313.6766826666667 490.320297 313.509473 490.486428 C 296.62128333333334 490.320297 279.73309366666666 490.15416600000003 262.844904 489.988035 C 262.6776943333333 489.821904 262.5104846666667 489.655773 262.343275 489.489642 C 259.33349833333335 489.489642 256.32372166666664 489.489642 253.313945 489.489642 C 253.14673533333334 489.32351066666666 252.97952566666666 489.1573793333333 252.812316 488.991248 C 248.632071 488.825117 244.451826 488.658986 240.271581 488.492855 C 240.10437133333332 488.326724 239.93716166666667 488.160593 239.769952 487.994462 C 238.09785399999998 487.994462 236.425756 487.994462 234.753658 487.994462 C 234.586448 487.828331 234.419238 487.6622 234.252028 487.496069 C 228.73410466666667 486.997676 223.21618133333334 486.499283 217.698258 486.00089 C 216.52778933333335 485.668628 215.35732066666665 485.336366 214.186852 485.004104 C 210.17381699999999 484.50571099999996 206.160782 484.007318 202.147747 483.508925 C 201.311698 483.17666266666663 200.475649 482.84440033333334 199.6396 482.512138 C 198.803551 482.512138 197.967502 482.512138 197.131453 482.512138 C 192.115159 481.349221 187.098865 480.186304 182.082571 479.023387 C 176.89906733333333 477.36207666666667 171.71556366666667 475.7007663333333 166.53206 474.039456 C 161.85018566666668 471.87975266666666 157.16831133333332 469.7200493333333 152.486437 467.560346 C 150.31270966666668 466.06516666666664 148.13898233333333 464.56998733333336 145.965255 463.074808 C 144.293157 461.413498 142.621059 459.752188 140.948961 458.090878 C 140.28012166666667 457.09409166666666 139.61128233333332 456.09730533333334 138.942443 455.100519 C 138.44081366666666 453.771471 137.93918433333334 452.442423 137.437555 451.113375 C 137.437555 447.95688533333333 137.437555 444.8003956666667 137.437555 441.643906 C 137.60476466666668 441.477775 137.77197433333333 441.311644 137.939184 441.145513 C 137.939184 439.65033366666665 137.939184 438.1551543333333 137.939184 436.659975 C 138.60802333333334 433.17122366666666 139.2768626666667 429.6824723333333 139.945702 426.193721 C 140.781751 423.7017553333333 141.6178 421.20978966666667 142.453849 418.717824 C 143.62431766666666 416.2258586666667 144.79478633333335 413.7338933333333 145.965255 411.241928 C 148.306192 407.91930766666667 150.647129 404.5966873333333 152.988066 401.274067 C 156.33226200000001 398.1175773333333 159.676458 394.9610876666667 163.020654 391.804598 C 166.53205966666667 389.4787636666667 170.04346533333333 387.1529293333333 173.554871 384.827095 C 178.40395533333333 382.50126066666667 183.25303966666667 380.1754263333333 188.102124 377.849592 C 198.803551 373.8624473333333 209.504978 369.87530266666664 220.206405 365.888158 C 223.71781099999998 364.0607166666667 227.229217 362.2332753333333 230.740623 360.405834 C 232.91435033333335 358.578393 235.08807766666666 356.75095200000004 237.261805 354.923511 C 238.097854 353.7605936666667 238.933903 352.5976763333333 239.769952 351.434759 C 240.43879099999998 349.93957966666665 241.10763 348.44440033333336 241.776469 346.949221 C 241.943679 345.12177966666667 242.110889 343.29433833333337 242.278099 341.466897 C 242.44530866666668 341.300766 242.61251833333333 341.134635 242.779728 340.968504 C 242.779728 337.4797526666667 242.779728 333.9910013333333 242.779728 330.50225 C 242.61251833333333 330.336119 242.44530866666668 330.169988 242.278099 330.003857 C 242.278099 328.67480866666665 242.278099 327.3457603333333 242.278099 326.016712 C 241.77646933333332 323.52474666666666 241.27483966666668 321.03278133333333 240.77321 318.540816 C 239.43553166666666 316.87950566666666 238.09785333333335 315.21819533333337 236.760175 313.556885 C 234.75365766666667 310.40039566666667 232.74714033333333 307.24390633333337 230.740623 304.087417 C 229.40294433333332 301.42932033333335 228.06526566666668 298.7712236666667 226.727587 296.113127 C 225.055489 291.79372033333334 223.38339100000002 287.47431366666666 221.711293 283.154907 C 219.203146 281.659728 216.694999 280.164549 214.186852 278.66937 C 213.18359333333333 277.8387146666667 212.18033466666665 277.00805933333334 211.177076 276.177404 C 208.668929 273.1870456666667 206.160782 270.19668733333333 203.652635 267.206329 C 202.147747 264.2159703333333 200.642859 261.2256116666667 199.137971 258.235253 C 198.134712 255.07876366666667 197.131453 251.92227433333332 196.128194 248.765785 C 195.96098433333333 247.10447466666668 195.79377466666668 245.44316433333333 195.626565 243.781854 C 195.459355 243.615723 195.292145 243.449592 195.124935 243.283461 C 195.124935 241.45601966666666 195.124935 239.62857833333334 195.124935 237.801137 C 195.62656466666667 235.47530266666666 196.12819433333334 233.14946833333335 196.629824 230.823634 C 197.96750233333333 228.16553766666667 199.30518066666667 225.50744133333333 200.642859 222.849345 C 201.81332766666665 221.52029666666667 202.98379633333334 220.19124833333333 204.154265 218.8622 C 203.987055 217.533152 203.81984500000002 216.204104 203.652635 214.875056 C 203.31821533333334 214.04440066666666 202.98379566666665 213.21374533333335 202.649376 212.38309 C 202.48216633333334 209.06046966666668 202.31495666666666 205.73784933333334 202.147747 202.415229 C 201.4789076666667 199.25873933333335 200.81006833333333 196.10224966666667 200.141229 192.94576 C 199.97401933333333 190.45379466666668 199.80680966666668 187.96182933333333 199.6396 185.469864 C 199.47239033333332 185.303733 199.30518066666667 185.13760200000002 199.137971 184.971471 C 199.137971 183.14402966666668 199.137971 181.31658833333333 199.137971 179.489147 C 198.97076099999998 179.323016 198.803551 179.15688500000002 198.636341 178.990754 C 198.803551 172.013251 198.97076099999998 165.035748 199.137971 158.058245 C 199.30518066666667 157.892114 199.47239033333332 157.725983 199.6396 157.559852 C 199.80680966666668 155.23401766666666 199.97401933333333 152.90818333333334 200.141229 150.582349 C 200.977278 146.59520433333333 201.813327 142.60805966666666 202.649376 138.620915 C 204.321474 133.304722 205.993572 127.988529 207.66567 122.672336 C 208.501719 120.67876366666667 209.337768 118.68519133333334 210.173817 116.691619 C 211.177076 115.030309 212.180335 113.368999 213.183594 111.707689 C 214.855692 109.54798533333333 216.52778999999998 107.38828166666667 218.199888 105.228578 C 221.376874 102.07208866666667 224.55386000000001 98.91559933333333 227.730846 95.75911 C 229.06852433333333 94.762324 230.40620266666667 93.765538 231.743881 92.768752 C 232.74714 92.43648966666667 233.750399 92.10422733333333 234.753658 91.771965 Z M 230.238993 375.85602 C 224.88827933333332 378.1818543333333 219.53756566666667 380.5076886666667 214.186852 382.833523 C 214.186852 388.3158466666667 214.186852 393.7981703333333 214.186852 399.280494 C 216.19336966666665 399.6127563333333 218.19988733333332 399.94501866666667 220.206405 400.277281 C 223.71781099999998 402.10472200000004 227.229217 403.932163 230.740623 405.759604 C 233.58318933333334 408.4177006666667 236.42575566666667 411.07579733333336 239.268322 413.733894 C 240.43879066666668 415.39520400000004 241.60925933333334 417.056514 242.779728 418.717824 C 243.95019666666667 421.04365866666666 245.12066533333333 423.36949333333337 246.291134 425.695328 C 246.959973 428.18729333333334 247.628812 430.67925866666667 248.297651 433.171224 C 248.297651 436.32771333333335 248.297651 439.48420266666665 248.297651 442.640692 C 247.461602 444.8003953333333 246.625553 446.9600986666667 245.789504 449.119802 C 244.61903566666666 450.4488503333333 243.44856733333333 451.77789866666666 242.278099 453.106947 C 240.438791 453.771471 238.599483 454.435995 236.760175 455.100519 C 236.42575566666667 454.768257 236.09133633333332 454.435995 235.756917 454.103733 C 235.756917 451.94402966666667 235.756917 449.7843263333333 235.756917 447.624623 C 236.76017566666667 446.793968 237.76343433333332 445.96331299999997 238.766693 445.132658 C 239.10111266666667 444.4681336666667 239.43553233333333 443.8036093333333 239.769952 443.139085 C 239.93716166666667 440.4809886666667 240.10437133333332 437.82289233333336 240.271581 435.164796 C 239.435532 432.1744376666667 238.599483 429.18407933333333 237.763434 426.193721 C 235.58970666666667 423.0372313333333 233.41597933333333 419.88074166666667 231.242252 416.724252 C 229.73736366666668 415.395204 228.23247533333333 414.066156 226.727587 412.737108 C 224.38665 411.40805966666665 222.045713 410.0790113333333 219.704776 408.749963 C 217.02941900000002 408.085439 214.354062 407.420915 211.678705 406.756391 C 210.00660733333333 406.756391 208.33450966666666 406.756391 206.662412 406.756391 C 204.48868433333334 407.25478400000003 202.31495666666666 407.753177 200.141229 408.25157 C 197.46587233333335 409.74674933333336 194.79051566666666 411.24192866666664 192.115159 412.737108 C 189.607012 415.2290733333333 187.09886500000002 417.7210386666667 184.590718 420.213004 C 183.25303966666667 422.53883833333333 181.91536133333335 424.8646726666667 180.577683 427.190507 C 179.90884366666668 429.51634133333334 179.24000433333333 431.84217566666666 178.571165 434.16801 C 178.571165 436.6599753333333 178.571165 439.1519406666667 178.571165 441.643906 C 178.90558466666667 442.64069233333333 179.24000433333333 443.6374786666667 179.574424 444.634265 C 180.74489266666666 445.631051 181.91536133333332 446.627837 183.08583 447.624623 C 183.08583 449.7843263333333 183.08583 451.94402966666667 183.08583 454.103733 C 182.75141033333333 454.435995 182.41699066666666 454.768257 182.082571 455.100519 C 181.246522 454.934388 180.410473 454.768257 179.574424 454.602126 C 178.57116533333334 454.103733 177.56790666666666 453.60534 176.564648 453.106947 C 175.561389 452.1101606666667 174.55813 451.1133743333333 173.554871 450.116588 C 172.55161233333334 447.79075366666666 171.54835366666666 445.46491933333334 170.545095 443.139085 C 170.545095 439.65033366666665 170.545095 436.16158233333334 170.545095 432.672831 C 171.381144 429.8486033333333 172.217193 427.0243756666667 173.053242 424.200148 C 173.88929100000001 422.538838 174.72534 420.87752800000004 175.561389 419.216218 C 176.73185766666666 417.5549076666667 177.90232633333335 415.89359733333333 179.072795 414.232287 C 181.58094200000002 411.74032166666666 184.089089 409.24835633333333 186.597236 406.756391 C 187.76770433333334 405.9257356666667 188.93817266666667 405.0950803333333 190.108641 404.264425 C 192.44957833333333 403.101508 194.79051566666666 401.938591 197.131453 400.775674 C 199.6396 400.1111496666667 202.14774699999998 399.4466253333333 204.655894 398.782101 C 204.655894 394.79495633333335 204.655894 390.8078116666667 204.655894 386.820667 C 204.32147433333333 386.654536 203.98705466666667 386.488405 203.652635 386.322274 C 198.30192133333333 388.4819773333333 192.95120766666668 390.6416806666667 187.600494 392.801384 C 184.75792766666666 394.2965633333333 181.91536133333335 395.79174266666666 179.072795 397.286922 C 176.564648 398.94823233333335 174.056501 400.60954266666664 171.548354 402.270853 C 168.70578733333332 404.9289493333333 165.86322066666668 407.58704566666665 163.020654 410.245142 C 162.01739533333333 411.5741903333333 161.01413666666667 412.90323866666665 160.010878 414.232287 C 158.17157 417.8871693333333 156.332262 421.5420516666667 154.492954 425.196934 C 153.48969533333334 429.516341 152.48643666666666 433.83574799999997 151.483178 438.155155 C 151.483178 439.650334 151.483178 441.145513 151.483178 442.640692 C 151.315968 442.806823 151.14875800000002 442.972954 150.981548 443.139085 C 150.981548 444.9665263333334 150.981548 446.7939676666667 150.981548 448.621409 C 151.14875800000002 448.95367100000004 151.315968 449.285933 151.483178 449.618195 C 152.65364666666667 450.78111233333334 153.82411533333334 451.94402966666667 154.994584 453.106947 C 157.16831133333335 454.435995 159.34203866666667 455.765043 161.515766 457.094091 C 165.86322066666668 458.92153233333335 170.21067533333334 460.74897366666664 174.55813 462.576415 C 178.40395533333333 463.7393323333333 182.24978066666668 464.90224966666665 186.095606 466.065167 C 192.951208 467.5603463333333 199.80680999999998 469.05552566666665 206.662412 470.550705 C 212.01312533333333 471.215229 217.36383866666665 471.879753 222.714552 472.544277 C 222.881762 472.71040800000003 223.048972 472.876539 223.216182 473.04267 C 224.38665033333334 473.04267 225.55711866666667 473.04267 226.727587 473.04267 C 226.894797 473.208801 227.062007 473.374932 227.229217 473.541063 C 231.91109133333333 473.873325 236.5929656666667 474.205587 241.27484 474.537849 C 241.44204966666666 474.70398 241.60925933333334 474.870111 241.776469 475.036242 C 249.30091 475.36850400000003 256.82535099999996 475.700766 264.349792 476.033028 C 264.517002 476.19915933333334 264.684212 476.3652906666667 264.851422 476.531422 C 269.8677156666667 476.531422 274.8840093333333 476.531422 279.900303 476.531422 C 280.067513 476.697553 280.234723 476.863684 280.401933 477.029815 C 290.267311 477.029815 300.13268899999997 477.029815 309.998067 477.029815 C 310.165277 476.863684 310.332487 476.697553 310.499697 476.531422 C 318.69297700000004 476.3652906666667 326.886257 476.19915933333334 335.079537 476.033028 C 335.2467466666667 475.866897 335.4139563333333 475.700766 335.581166 475.534635 C 339.928621 475.368504 344.276076 475.202373 348.623531 475.036242 C 348.7907406666667 474.870111 348.9579503333333 474.70398 349.12516 474.537849 C 350.797258 474.537849 352.469356 474.537849 354.141454 474.537849 C 354.3086636666667 474.371718 354.4758733333333 474.205587 354.643083 474.039456 C 356.1479713333333 474.039456 357.6528596666667 474.039456 359.157748 474.039456 C 359.3249576666667 473.87332499999997 359.4921673333333 473.707194 359.659377 473.541063 C 363.50520266666666 473.208801 367.3510283333333 472.87653900000004 371.196854 472.544277 C 372.36732233333333 472.212015 373.53779066666664 471.879753 374.708259 471.547491 C 377.7180353333333 471.21522899999997 380.7278116666667 470.882967 383.737588 470.550705 C 390.59319 469.05552566666665 397.448792 467.5603463333333 404.304394 466.065167 C 408.1502193333333 464.90224966666665 411.99604466666665 463.7393323333333 415.84187 462.576415 C 419.5204856666667 461.081236 423.1991013333333 459.586057 426.877717 458.090878 C 429.7202833333333 456.4295676666666 432.5628496666667 454.76825733333334 435.405416 453.106947 C 436.74309466666665 451.61176766666665 438.08077333333335 450.11658833333337 439.418452 448.621409 C 439.251242 445.13265766666666 439.08403200000004 441.64390633333335 438.916822 438.155155 C 438.080773 434.3341413333333 437.244724 430.51312766666666 436.408675 426.692114 C 434.903787 423.3694933333333 433.398899 420.0468726666667 431.894011 416.724252 C 430.38912266666665 414.56454866666667 428.8842343333333 412.4048453333333 427.379346 410.245142 C 424.53677933333336 407.58704566666665 421.69421266666666 404.9289493333333 418.851646 402.270853 C 415.1730306666667 399.94501866666667 411.49441533333334 397.6191843333333 407.8158 395.29335 C 401.2946176666667 392.4691223333333 394.77343533333334 389.6448946666667 388.252253 386.820667 C 386.9145746666667 386.488405 385.5768963333333 386.156143 384.239218 385.823881 C 380.56060233333335 384.32870199999996 376.88198666666665 382.833523 373.203371 381.338344 C 372.7017416666667 381.338344 372.2001123333333 381.338344 371.698483 381.338344 C 372.7017416666667 384.49483333333336 373.7050003333333 387.65132266666666 374.708259 390.807812 C 374.875469 393.29977733333334 375.04267899999996 395.79174266666666 375.209889 398.283708 C 375.37709866666665 398.449839 375.54430833333333 398.61597 375.711518 398.782101 C 375.711518 412.7371073333333 375.711518 426.69211366666667 375.711518 440.64712 C 375.878728 440.813251 376.045938 440.979382 376.213148 441.145513 C 383.06874966666663 441.145513 389.92435133333333 441.145513 396.779953 441.145513 C 396.94716266666666 441.311644 397.11437233333334 441.477775 397.281582 441.643906 C 397.281582 444.30200233333335 397.281582 446.9600986666667 397.281582 449.618195 C 396.9471623333333 449.95045700000003 396.6127426666667 450.282719 396.278323 450.614981 C 379.055714 450.614981 361.833105 450.614981 344.610496 450.614981 C 344.443286 450.44885 344.276076 450.282719 344.108866 450.116588 C 344.108866 447.29236066666664 344.108866 444.46813333333336 344.108866 441.643906 C 344.276076 441.477775 344.443286 441.311644 344.610496 441.145513 C 351.46609766666666 441.145513 358.32169933333336 441.145513 365.177301 441.145513 C 365.3445106666667 440.813251 365.5117203333333 440.480989 365.67893 440.148727 C 365.67893 428.68568600000003 365.67893 417.222645 365.67893 405.759604 C 365.5117203333333 405.593473 365.3445106666667 405.427342 365.177301 405.261211 C 365.177301 402.60311466666667 365.177301 399.94501833333334 365.177301 397.286922 C 364.174042 392.9675153333333 363.17078300000003 388.6481086666667 362.167524 384.328702 C 360.8298456666667 381.8367366666667 359.4921673333333 379.3447713333333 358.154489 376.852806 C 340.0958306666667 404.9289493333333 322.03717233333333 433.00509266666666 303.978514 461.081236 C 302.6408356666667 463.07480833333335 301.30315733333333 465.06838066666666 299.965479 467.061953 C 299.4638496666667 467.39421500000003 298.96222033333333 467.726477 298.460591 468.058739 C 276.3888976666667 437.82289233333336 254.31720433333334 407.58704566666665 232.245511 377.351199 C 231.57667166666667 376.852806 230.90783233333332 376.354413 230.238993 375.85602 Z M 226.225958 442.640692 C 227.062007 442.474561 227.898056 442.30843 228.734105 442.142299 C 229.90457366666666 442.474561 231.07504233333333 442.806823 232.245511 443.139085 C 232.57993066666666 443.47134700000004 232.91435033333335 443.803609 233.24877 444.135871 C 233.24877 448.621409 233.24877 453.106947 233.24877 457.592485 C 232.74714033333333 457.924747 232.24551066666666 458.257009 231.743881 458.589271 C 229.73736366666665 458.755402 227.73084633333335 458.921533 225.724329 459.087664 C 224.88828 458.42313966666666 224.052231 457.75861533333335 223.216182 457.094091 C 222.88176233333334 456.429567 222.54734266666665 455.765043 222.212923 455.100519 C 222.212923 452.1101606666667 222.212923 449.1198023333333 222.212923 446.129444 C 223.21618166666667 444.96652666666665 224.21944033333332 443.8036093333333 225.222699 442.640692 C 225.55711866666667 442.640692 225.89153833333333 442.640692 226.225958 442.640692 Z M 189.607012 442.640692 C 190.443061 442.474561 191.27911 442.30843 192.115159 442.142299 C 192.78399833333333 442.474561 193.45283766666668 442.806823 194.121677 443.139085 C 194.790516 443.8036093333333 195.45935500000002 444.4681336666667 196.128194 445.132658 C 196.29540400000002 445.631051 196.462614 446.129444 196.629824 446.627837 C 196.629824 449.45206433333334 196.629824 452.2762916666667 196.629824 455.100519 C 195.9609846666667 456.09730533333334 195.29214533333334 457.09409166666666 194.623306 458.090878 C 193.9544666666667 458.42314 193.28562733333334 458.755402 192.616788 459.087664 C 191.44631966666668 459.087664 190.27585133333332 459.087664 189.105383 459.087664 C 187.93491433333332 458.589271 186.76444566666666 458.09087800000003 185.593977 457.592485 C 185.593977 452.940816 185.593977 448.289147 185.593977 443.637478 C 186.93165533333334 443.305216 188.26933366666665 442.972954 189.607012 442.640692 Z M 247.796022 362.8978 C 244.95345533333332 365.72202733333336 242.11088866666668 368.54625466666664 239.268322 371.370482 C 253.31394533333335 390.47555 267.3595686666667 409.58061799999996 281.405192 428.685686 C 281.5724016666667 428.51955499999997 281.7396113333333 428.353424 281.906821 428.187293 C 282.4084503333333 423.86788633333333 282.91007966666666 419.5484796666667 283.411709 415.229073 C 283.74612866666666 414.0661556666667 284.0805483333333 412.9032383333333 284.414968 411.740321 C 284.7493876666667 408.2515696666667 285.0838073333333 404.7628183333333 285.418227 401.274067 C 281.906821 397.61918433333335 278.395415 393.96430166666664 274.884009 390.309419 C 274.884009 389.81102599999997 274.884009 389.312633 274.884009 388.81424 C 276.723317 385.9900123333333 278.56262499999997 383.1657846666667 280.401933 380.341557 C 280.7363526666667 379.510902 281.0707723333333 378.680247 281.405192 377.849592 C 271.53981366666665 373.19792333333334 261.67443533333335 368.54625466666664 251.809057 363.894586 C 250.47137866666665 363.562324 249.13370033333334 363.23006200000003 247.796022 362.8978 Z M 341.09909 362.399407 C 331.40092166666665 367.54946866666666 321.70275333333336 372.6995303333333 312.004585 377.849592 C 312.004585 378.181854 312.004585 378.514116 312.004585 378.846378 C 314.17831233333334 382.33512966666666 316.35203966666666 385.82388133333336 318.525767 389.312633 C 318.02413766666666 390.143288 317.5225083333333 390.973943 317.020879 391.804598 C 313.84389266666665 395.1272186666667 310.6669063333333 398.44983933333333 307.48992 401.77246 C 308.9948083333333 411.24192833333336 310.4996966666667 420.71139666666664 312.004585 430.180865 C 312.1717946666667 430.180865 312.3390043333333 430.180865 312.506214 430.180865 C 325.21415866666666 410.411273 337.9221033333333 390.641681 350.630048 370.872089 C 347.7874816666667 368.0478616666667 344.9449153333333 365.22363433333334 342.102349 362.399407 C 341.7679293333333 362.399407 341.4335096666667 362.399407 341.09909 362.399407 Z M 369.691965 225.839703 C 369.5247553333333 226.171965 369.3575456666667 226.504227 369.190336 226.836489 C 369.190336 228.66393033333333 369.190336 230.49137166666668 369.190336 232.318813 C 368.6887066666667 234.47851633333335 368.1870773333333 236.63821966666666 367.685448 238.797923 C 366.682189 241.28988866666666 365.67893000000004 243.78185433333334 364.675671 246.27382 C 363.50520266666666 247.93513 362.33473433333336 249.59644 361.164266 251.25775 C 358.82332866666667 253.25132233333332 356.48239133333334 255.24489466666668 354.141454 257.238467 C 352.3021463333333 258.0691223333333 350.4628386666667 258.8997776666667 348.623531 259.730433 C 345.948174 260.394957 343.27281700000003 261.059481 340.59746 261.724005 C 336.7516346666667 261.724005 332.9058093333333 261.724005 329.059984 261.724005 C 328.223935 261.55787399999997 327.387886 261.391743 326.551837 261.225612 C 324.54531966666667 260.561088 322.5388023333333 259.896564 320.532285 259.23204 C 318.52576733333336 258.06912266666666 316.51924966666667 256.90620533333333 314.512732 255.743288 C 312.50621433333333 253.74971566666667 310.4996966666667 251.75614333333334 308.493179 249.762571 C 307.8243396666667 248.765785 307.15550033333335 247.768999 306.486661 246.772213 C 305.81782200000004 245.27703366666665 305.148983 243.78185433333334 304.480144 242.286675 C 303.476885 238.96405433333334 302.473626 235.64143366666667 301.470367 232.318813 C 300.9687376666667 231.322027 300.46710833333333 230.325241 299.965479 229.328455 C 299.4638496666667 228.830062 298.96222033333333 228.331669 298.460591 227.833276 C 297.9589616666667 227.667145 297.45733233333334 227.501014 296.955703 227.334883 C 296.119654 227.501014 295.283605 227.667145 294.447556 227.833276 C 293.7787166666667 228.4978 293.1098773333333 229.162324 292.441038 229.826848 C 291.9394086666667 230.823634 291.4377793333333 231.82042 290.93615 232.817206 C 289.7656813333333 236.63821966666666 288.59521266666667 240.45923333333334 287.424744 244.280247 C 286.08706566666666 246.43995033333334 284.7493873333333 248.59965366666665 283.411709 250.759357 C 281.906821 252.25453633333333 280.401933 253.74971566666667 278.897045 255.244895 C 277.057737 256.40781200000004 275.218429 257.57072900000003 273.379121 258.733646 C 270.034925 259.73043233333334 266.69072900000003 260.72721866666666 263.346533 261.724005 C 259.5007076666667 261.724005 255.65488233333335 261.724005 251.809057 261.724005 C 248.79928066666668 260.89335 245.78950433333333 260.06269499999996 242.779728 259.23204 C 241.10763 258.4013846666667 239.435532 257.5707293333333 237.763434 256.740074 C 235.422497 254.58037066666665 233.08156 252.42066733333334 230.740623 250.260964 C 230.07178366666668 249.264178 229.40294433333332 248.267392 228.734105 247.270606 C 227.56363633333333 244.77864066666666 226.39316766666667 242.28667533333333 225.222699 239.79471 C 224.88827933333334 238.13339966666666 224.55385966666665 236.47208933333334 224.21944 234.810779 C 223.88502066666666 235.309172 223.55060133333333 235.807565 223.216182 236.305958 C 222.71455233333333 236.305958 222.21292266666669 236.305958 221.711293 236.305958 C 221.04245400000002 235.641434 220.373615 234.97691 219.704776 234.312386 C 218.19988766666668 231.98655166666666 216.69499933333333 229.66071733333334 215.190111 227.334883 C 214.354062 227.999407 213.518013 228.663931 212.681964 229.328455 C 211.67870533333334 231.15589633333332 210.67544666666666 232.98333766666667 209.672188 234.810779 C 209.33776833333334 236.47208933333334 209.00334866666665 238.13339966666666 208.668929 239.79471 C 208.83613866666667 241.45602 209.00334833333332 243.11733 209.170558 244.77864 C 210.173817 247.93512966666665 211.177076 251.09161933333334 212.180335 254.248109 C 213.01638400000002 255.90941933333332 213.852433 257.57072966666664 214.688482 259.23204 C 216.36058 261.3917433333333 218.032678 263.55144666666666 219.704776 265.71115 C 221.209664 266.87406699999997 222.714552 268.036984 224.21944 269.199901 C 226.89479699999998 270.36281833333334 229.570154 271.52573566666666 232.245511 272.688653 C 233.750399 276.84192866666666 235.255287 280.99520433333333 236.760175 285.14848 C 239.10111233333333 289.96627966666665 241.44204966666666 294.78407933333335 243.782987 299.601879 C 245.455085 302.0938443333333 247.127183 304.58580966666665 248.799281 307.077775 C 250.304169 308.7390853333333 251.809057 310.40039566666667 253.313945 312.061706 C 254.149994 316.2149816666667 254.986043 320.3682573333333 255.822092 324.521533 C 255.822092 325.850581 255.822092 327.179629 255.822092 328.508677 C 255.98930199999998 328.674808 256.15651199999996 328.840939 256.323722 329.00707 C 256.323722 333.492608 256.323722 337.978146 256.323722 342.463684 C 256.15651199999996 342.629815 255.98930199999998 342.795946 255.822092 342.962077 C 255.65488233333332 344.9556493333333 255.48767266666667 346.9492216666667 255.320463 348.942794 C 254.65162366666667 350.604104 253.9827843333333 352.26541399999996 253.313945 353.926724 C 253.64836466666665 354.2589863333333 253.98278433333334 354.5912486666667 254.317204 354.923511 C 258.99907833333333 356.917083 263.68095266666666 358.910655 268.362827 360.904227 C 277.72657566666663 365.389765 287.09032433333334 369.875303 296.454073 374.360841 C 296.95570266666664 374.360841 297.45733233333334 374.360841 297.958962 374.360841 C 310.8341163333333 367.54946866666666 323.70927066666667 360.7380963333333 336.584425 353.926724 C 336.584425 353.428331 336.584425 352.929938 336.584425 352.431545 C 336.0827956666667 351.26862800000004 335.58116633333333 350.105711 335.079537 348.942794 C 334.91232733333334 346.9492216666667 334.74511766666666 344.9556493333333 334.577908 342.962077 C 334.41069799999997 342.795946 334.243488 342.629815 334.076278 342.463684 C 334.076278 337.978146 334.076278 333.492608 334.076278 329.00707 C 334.243488 328.840939 334.41069799999997 328.674808 334.577908 328.508677 C 334.577908 327.179629 334.577908 325.850581 334.577908 324.521533 C 335.413957 320.3682573333333 336.250006 316.2149816666667 337.086055 312.061706 C 338.590943 310.40039566666667 340.09583100000003 308.7390853333333 341.600719 307.077775 C 343.27281700000003 304.58580966666665 344.944915 302.0938443333333 346.617013 299.601879 C 348.6235306666667 295.61473433333333 350.6300483333333 291.62758966666667 352.636566 287.640445 C 354.4758736666667 282.65651433333335 356.3151813333333 277.67258366666664 358.154489 272.688653 C 360.82984600000003 271.52573566666666 363.505203 270.36281833333334 366.18056 269.199901 C 368.0198676666667 267.70472166666667 369.8591753333333 266.20954233333333 371.698483 264.714363 C 373.0361613333333 262.88692199999997 374.3738396666667 261.059481 375.711518 259.23204 C 376.38035733333334 257.90299166666665 377.04919666666666 256.5739433333333 377.718036 255.244895 C 378.72129466666667 252.42066766666667 379.7245533333333 249.59644033333333 380.727812 246.772213 C 381.06223166666666 244.44637866666667 381.3966513333333 242.12054433333333 381.731071 239.79471 C 381.3966513333333 238.13339966666666 381.06223166666666 236.47208933333334 380.727812 234.810779 C 380.058973 233.48173066666666 379.390134 232.15268233333333 378.721295 230.823634 C 378.0524556666667 230.15911 377.38361633333335 229.494586 376.714777 228.830062 C 375.54430833333333 230.65750333333332 374.3738396666667 232.48494466666668 373.203371 234.312386 C 372.8689513333333 233.980124 372.5345316666667 233.647862 372.200112 233.3156 C 371.86569266666663 231.15589633333332 371.53127333333333 228.99619266666667 371.196854 226.836489 C 371.02964399999996 226.504227 370.862434 226.171965 370.695224 225.839703 C 370.3608043333333 225.839703 370.0263846666667 225.839703 369.691965 225.839703 Z M 332.57139 216.370235 C 332.40418033333333 216.53636600000002 332.2369706666667 216.702497 332.069761 216.868628 C 329.0599846666667 217.034759 326.05020833333333 217.20089 323.040432 217.367021 C 320.86670433333336 217.865414 318.69297666666665 218.363807 316.519249 218.8622 C 315.5159903333333 219.360593 314.5127316666667 219.85898600000002 313.509473 220.357379 C 312.673424 221.18803433333335 311.837375 222.01868966666666 311.001326 222.849345 C 310.6669063333333 223.84613099999999 310.3324866666667 224.842917 309.998067 225.839703 C 309.998067 227.99940633333333 309.998067 230.15910966666667 309.998067 232.318813 C 310.4996963333333 234.47851633333335 311.0013256666667 236.63821966666666 311.502955 238.797923 C 312.00458466666663 240.29310233333334 312.50621433333333 241.78828166666665 313.007844 243.283461 C 313.67668299999997 244.4463783333333 314.345522 245.60929566666667 315.014361 246.772213 C 316.18482966666664 247.93513 317.35529833333334 249.098047 318.525767 250.260964 C 320.6994943333333 251.42388133333333 322.87322166666667 252.58679866666668 325.046949 253.749716 C 327.72230566666667 254.248109 330.3976623333333 254.74650200000002 333.073019 255.244895 C 334.41069766666664 255.244895 335.74837633333334 255.244895 337.086055 255.244895 C 339.7614116666667 254.74650200000002 342.4367683333333 254.248109 345.112125 253.749716 C 347.620272 252.42066766666667 350.128419 251.09161933333334 352.636566 249.762571 C 353.6398246666667 248.59965400000002 354.6430833333333 247.436737 355.646342 246.27382 C 356.482391 244.77864066666666 357.31844 243.28346133333335 358.154489 241.788282 C 358.990538 238.63179233333335 359.826587 235.47530266666666 360.662636 232.318813 C 360.49542633333334 229.16232366666668 360.32821666666666 226.00583433333333 360.161007 222.849345 C 359.15774799999997 221.68642766666667 358.154489 220.52351033333332 357.15123 219.360593 C 355.8135516666667 218.8622 354.4758733333333 218.36380699999998 353.138195 217.865414 C 351.466097 217.69928299999998 349.793999 217.533152 348.121901 217.367021 C 347.9546913333333 217.20089 347.7874816666667 217.034759 347.620272 216.868628 C 345.7809643333333 216.868628 343.9416566666667 216.868628 342.102349 216.868628 C 341.935139 216.702497 341.76792900000004 216.53636600000002 341.600719 216.370235 C 338.5909426666667 216.370235 335.58116633333333 216.370235 332.57139 216.370235 Z M 250.304169 216.370235 C 250.13695933333332 216.53636600000002 249.96974966666667 216.702497 249.80254 216.868628 C 248.29765166666667 216.868628 246.79276333333334 216.868628 245.287875 216.868628 C 242.779728 217.367021 240.271581 217.86541400000002 237.763434 218.363807 C 236.76017533333334 218.8622 235.75691666666665 219.360593 234.753658 219.858986 C 234.08481866666668 220.68964133333333 233.41597933333333 221.52029666666667 232.74714 222.350952 C 232.41272033333334 223.846131 232.07830066666665 225.34131 231.743881 226.836489 C 231.911091 229.16232366666668 232.07830099999998 231.48815833333333 232.245511 233.813993 C 232.74714033333333 235.80756533333334 233.24876966666665 237.80113766666668 233.750399 239.79471 C 234.4192383333333 241.28988900000002 235.08807766666666 242.785068 235.756917 244.280247 C 237.42901466666666 246.27381933333334 239.10111233333333 248.26739166666667 240.77321 250.260964 C 241.776469 250.925488 242.779728 251.590012 243.782987 252.254536 C 245.62229466666665 252.91906033333333 247.46160233333333 253.58358466666667 249.30091 254.248109 C 252.81231599999998 254.580371 256.323722 254.912633 259.835128 255.244895 C 260.0023376666667 255.078764 260.1695473333333 254.912633 260.336757 254.746502 C 262.17606466666666 254.58037099999999 264.0153723333333 254.41424 265.85468 254.248109 C 267.86119766666667 253.41745366666666 269.8677153333333 252.58679833333335 271.874233 251.756143 C 273.37912133333333 250.59322600000002 274.88400966666666 249.430309 276.388898 248.267392 C 277.224947 247.10447466666668 278.060996 245.94155733333332 278.897045 244.77864 C 279.565884 243.11733 280.23472300000003 241.45602 280.903562 239.79471 C 281.57240133333335 236.97048233333334 282.24124066666667 234.14625466666666 282.91008 231.322027 C 282.91008 229.82684766666665 282.91008 228.33166833333334 282.91008 226.836489 C 282.4084506666667 225.34131 281.9068213333333 223.846131 281.405192 222.350952 C 280.06751333333335 221.35416566666666 278.72983466666665 220.35737933333334 277.392156 219.360593 C 274.884009 218.696069 272.375862 218.031545 269.867715 217.367021 C 266.85793866666666 217.20089 263.84816233333333 217.034759 260.838386 216.868628 C 260.67117633333334 216.702497 260.50396666666666 216.53636600000002 260.336757 216.370235 C 256.99256099999997 216.370235 253.64836499999998 216.370235 250.304169 216.370235 Z M 341.600719 152.575921 C 338.92536233333334 153.240445 336.2500056666667 153.904969 333.574649 154.569493 C 332.7386 154.569493 331.902551 154.569493 331.066502 154.569493 C 327.0534666666667 155.40014833333333 323.04043133333334 156.23080366666667 319.027396 157.061459 C 316.8536686666667 157.22759000000002 314.6799413333333 157.393721 312.506214 157.559852 C 311.3357453333333 157.892114 310.16527666666667 158.224376 308.994808 158.556638 C 303.47688466666665 159.05503099999999 297.9589613333333 159.553424 292.441038 160.051817 C 292.2738283333333 160.217948 292.1066186666667 160.38407899999999 291.939409 160.55021 C 290.4345206666667 160.55021 288.9296323333333 160.55021 287.424744 160.55021 C 287.2575343333333 160.716341 287.0903246666667 160.882472 286.923115 161.048603 C 284.7493876666667 161.048603 282.5756603333333 161.048603 280.401933 161.048603 C 280.234723 161.21473400000002 280.067513 161.380865 279.900303 161.546996 C 272.543072 161.71312700000001 265.18584100000004 161.879258 257.82861 162.045389 C 257.66140033333335 161.879258 257.49419066666667 161.71312700000001 257.326981 161.546996 C 253.146736 161.380865 248.966491 161.21473400000002 244.786246 161.048603 C 242.77972833333334 160.55021000000002 240.77321066666667 160.051817 238.766693 159.553424 C 238.43227333333334 160.88247233333334 238.09785366666665 162.21152066666667 237.763434 163.540569 C 237.763434 165.035748 237.763434 166.530927 237.763434 168.026106 C 237.42901433333333 169.18902333333332 237.09459466666667 170.35194066666668 236.760175 171.514858 C 236.760175 172.345513 236.760175 173.176168 236.760175 174.006823 C 236.091336 176.99718166666668 235.422497 179.98754033333333 234.753658 182.977899 C 231.409462 192.61349833333333 228.065266 202.24909766666667 224.72107 211.884697 C 224.88827966666668 211.884697 225.05548933333333 211.884697 225.222699 211.884697 C 225.38990900000002 211.220173 225.557119 210.555649 225.724329 209.891125 C 226.56037800000001 209.226601 227.396427 208.562077 228.232476 207.897553 C 229.904574 207.73142166666665 231.576672 207.56529033333334 233.24877 207.399159 C 233.41597966666666 207.233028 233.58318933333334 207.066897 233.750399 206.900766 C 235.58970666666667 206.900766 237.42901433333333 206.900766 239.268322 206.900766 C 239.435532 206.734635 239.602742 206.56850400000002 239.769952 206.402373 C 245.78950466666666 206.402373 251.80905733333336 206.402373 257.82861 206.402373 C 257.9958196666667 206.56850400000002 258.1630293333333 206.734635 258.330239 206.900766 C 262.84490366666665 207.066897 267.35956833333336 207.233028 271.874233 207.399159 C 272.0414426666667 207.56529033333334 272.2086523333333 207.73142166666665 272.375862 207.897553 C 274.884009 208.063684 277.392156 208.229815 279.900303 208.395946 C 284.24775800000003 209.22660100000002 288.595213 210.057256 292.942668 210.887911 C 295.11639533333334 210.887911 297.29012266666666 210.887911 299.46385 210.887911 C 303.9785146666666 210.057256 308.49317933333333 209.22660100000002 313.007844 208.395946 C 314.01110266666666 208.395946 315.01436133333334 208.395946 316.01762 208.395946 C 316.1848296666667 208.229815 316.3520393333333 208.063684 316.519249 207.897553 C 319.69623533333333 207.73142166666665 322.87322166666667 207.56529033333334 326.050208 207.399159 C 326.2174176666667 207.233028 326.3846273333333 207.066897 326.551837 206.900766 C 329.059984 206.900766 331.568131 206.900766 334.076278 206.900766 C 334.243488 206.734635 334.41069799999997 206.56850400000002 334.577908 206.402373 C 340.7646703333333 206.402373 346.9514326666667 206.402373 353.138195 206.402373 C 353.305405 206.56850400000002 353.47261499999996 206.734635 353.639825 206.900766 C 356.6496013333333 207.066897 359.65937766666667 207.233028 362.669154 207.399159 C 363.6724126666667 207.73142133333334 364.6756713333333 208.06368366666666 365.67893 208.395946 C 365.67893 207.89755266666668 365.67893 207.39915933333333 365.67893 206.900766 C 364.842881 204.57493166666666 364.006832 202.24909733333334 363.170783 199.923263 C 361.3314753333333 196.10224933333333 359.49216766666666 192.28123566666665 357.65286 188.460222 C 355.8135523333333 185.96825666666666 353.97424466666666 183.47629133333334 352.134937 180.984326 C 350.63004866666665 178.16009866666667 349.1251603333333 175.33587133333333 347.620272 172.511644 C 346.4498033333333 169.18902333333332 345.27933466666667 165.86640266666666 344.108866 162.543782 C 343.60723666666667 159.22116166666666 343.1056073333333 155.89854133333333 342.603978 152.575921 C 342.26955833333335 152.575921 341.93513866666666 152.575921 341.600719 152.575921 Z" fill="black" stroke="none" /></svg>