<?xml version='1.0' encoding='utf-8'?>
<svg xmlns="http://www.w3.org/2000/svg" xmlns:dc="http://purl.org/dc/elements/1.1/" xmlns:ns2="http://creativecommons.org/ns#" xmlns:rdf="http://www.w3.org/1999/02/22-rdf-syntax-ns#" width="576pt" height="576pt" viewBox="0 0 576 576" version="1.1">
 <metadata>
  <rdf:RDF>
   <ns2:Work>
    <dc:type rdf:resource="http://purl.org/dc/dcmitype/StillImage" />
    <dc:date>2025-06-04T17:14:50.067545</dc:date>
    <dc:format>image/svg+xml</dc:format>
    <dc:creator>
     <ns2:Agent>
      <dc:title>Matplotlib v3.7.5, https://matplotlib.org/</dc:title>
     </ns2:Agent>
    </dc:creator>
   </ns2:Work>
  </rdf:RDF>
 </metadata>
 <defs>
  <style type="text/css">*{stroke-linejoin: round; stroke-linecap: butt}</style>
 </defs>
 <defs>
  <clipPath id="p0d616dd3f8">
   <rect x="72" y="69.12" width="446.4" height="443.52" />
  </clipPath>
 </defs>
<path d="M 283.411709 132.640198 C 283.578919 132.474067 283.746129 132.307936 283.913339 132.141805 C 292.27382866666665 132.141805 300.63431833333334 132.141805 308.994808 132.141805 C 309.162018 132.307936 309.329228 132.474067 309.496438 132.640198 C 313.676683 132.806329 317.856928 132.97245999999998 322.037173 133.138591 C 322.2043826666667 133.304722 322.3715923333333 133.470853 322.538802 133.636984 C 323.70927066666667 133.636984 324.8797393333333 133.636984 326.050208 133.636984 C 326.2174176666667 133.80311500000002 326.3846273333333 133.969246 326.551837 134.135377 C 327.72230566666667 134.135377 328.8927743333333 134.135377 330.063243 134.135377 C 330.2304526666667 134.301508 330.3976623333333 134.467639 330.564872 134.63377 C 333.4074386666667 134.966032 336.2500053333333 135.298294 339.092572 135.630556 C 345.61375433333336 137.12573533333335 352.13493666666665 138.62091466666666 358.656119 140.116094 C 363.3379933333333 141.61127333333334 368.0198676666667 143.10645266666666 372.701742 144.601632 C 377.21640633333334 146.42907333333332 381.7310706666667 148.25651466666667 386.245735 150.083956 C 391.429239 152.74205233333333 396.612743 155.40014866666667 401.796247 158.058245 C 406.645331 161.21473433333333 411.494415 164.37122366666668 416.343499 167.527713 C 418.851646 169.52128533333334 421.35979299999997 171.51485766666667 423.86794 173.50843 C 428.048185 177.66170566666668 432.22843 181.81498133333332 436.408675 185.968257 C 439.58566133333335 190.28766366666667 442.7626476666667 194.60707033333333 445.939634 198.926477 C 447.7789416666667 202.41522866666668 449.6182493333333 205.90398033333332 451.457557 209.392732 C 452.7952353333333 213.21374566666665 454.1329136666667 217.03475933333334 455.470592 220.855773 C 456.13943133333333 224.34452433333334 456.80827066666666 227.83327566666665 457.47711 231.322027 C 457.47711 241.95441266666666 457.47711 252.58679833333332 457.47711 263.219184 C 457.64431966666666 263.883708 457.81152933333334 264.548232 457.978739 265.212756 C 460.15246633333334 265.212756 462.32619366666665 265.212756 464.499921 265.212756 C 466.6736483333333 266.0434113333333 468.84737566666666 266.8740666666667 471.021103 267.704722 C 472.860411 269.36603233333335 474.69971899999996 271.02734266666664 476.539027 272.688653 C 477.70949566666667 275.1806183333333 478.8799643333333 277.6725836666667 480.050433 280.164549 C 480.2176426666667 285.6468726666667 480.3848523333333 291.1291963333333 480.552062 296.61152 C 480.3848523333333 296.777651 480.2176426666667 296.943782 480.050433 297.109913 C 480.050433 298.60509233333335 480.050433 300.1002716666667 480.050433 301.595451 C 479.7160133333333 302.59223733333334 479.3815936666667 303.58902366666666 479.047174 304.58581 C 478.211125 306.080989 477.375076 307.576168 476.539027 309.071347 C 474.69971899999996 310.73265733333335 472.860411 312.39396766666664 471.021103 314.055278 C 468.84737566666666 314.8859333333333 466.6736483333333 315.71658866666667 464.499921 316.547244 C 462.32619366666665 316.547244 460.15246633333334 316.547244 457.978739 316.547244 C 457.81152933333334 317.211768 457.64431966666666 317.876292 457.47711 318.540816 C 457.47711 329.17320166666667 457.47711 339.80558733333334 457.47711 350.437973 C 456.80827066666666 353.9267243333333 456.13943133333333 357.4154756666667 455.470592 360.904227 C 454.1329136666667 364.72524066666665 452.7952353333333 368.54625433333337 451.457557 372.367268 C 450.2870883333333 374.69310233333334 449.1166196666667 377.01893666666666 447.946151 379.344771 C 446.274053 382.00286766666665 444.60195500000003 384.6609643333333 442.929857 387.319061 C 440.42171 390.47555033333333 437.913563 393.6320396666666 435.405416 396.788529 C 431.8940103333333 400.2772806666666 428.3826046666667 403.7660323333333 424.871199 407.254784 C 421.527003 409.9128803333333 418.182807 412.5709766666667 414.838611 415.229073 C 410.1567366666667 418.2194313333334 405.4748623333333 421.20978966666667 400.792988 424.200148 C 396.94716266666666 426.1937203333333 393.10133733333333 428.1872926666667 389.255512 430.180865 C 385.4096866666667 431.84217533333333 381.5638613333333 433.5034856666667 377.718036 435.164796 C 372.36732233333333 436.9922373333333 367.0166086666666 438.8196786666667 361.665895 440.64712 C 356.48239133333334 441.9761683333333 351.29888766666664 443.3052166666667 346.115384 444.634265 C 341.60071933333336 445.46492 337.08605466666666 446.29557500000004 332.57139 447.12623 C 328.7255646666667 447.45849200000004 324.8797393333333 447.790754 321.033914 448.123016 C 320.8667043333333 448.289147 320.6994946666667 448.455278 320.532285 448.621409 C 318.860187 448.621409 317.188089 448.621409 315.515991 448.621409 C 315.348781 448.78754000000004 315.181571 448.953671 315.014361 449.119802 C 312.3390043333333 449.119802 309.6636476666667 449.119802 306.988291 449.119802 C 306.821081 449.285933 306.65387100000004 449.452064 306.486661 449.618195 C 299.79826933333334 449.618195 293.1098776666667 449.618195 286.421486 449.618195 C 286.254276 449.452064 286.087066 449.285933 285.919856 449.119802 C 281.40519133333333 448.953671 276.89052666666663 448.78754000000004 272.375862 448.621409 C 272.2086523333333 448.455278 272.0414426666667 448.289147 271.874233 448.123016 C 267.025149 447.624623 262.176065 447.12623 257.326981 446.627837 C 249.80254 444.96652666666665 242.278099 443.30521633333336 234.753658 441.643906 C 229.570154 439.98259566666667 224.38665 438.3212853333333 219.203146 436.659975 C 214.01964233333334 434.50027166666666 208.83613866666667 432.3405683333333 203.652635 430.180865 C 198.13471166666668 427.19050666666664 192.61678833333332 424.20014833333335 187.098865 421.20979 C 184.08908866666667 419.2162176666667 181.07931233333332 417.22264533333333 178.069536 415.229073 C 174.72534 412.5709766666667 171.381144 409.9128803333333 168.036948 407.254784 C 164.52554233333333 403.7660323333333 161.01413666666667 400.2772806666666 157.502731 396.788529 C 154.32574466666668 392.6352533333333 151.14875833333332 388.4819776666667 147.971772 384.328702 C 146.29967399999998 381.3383436666667 144.627576 378.3479853333333 142.955478 375.357627 C 141.78500933333333 372.6995303333333 140.61454066666667 370.04143366666665 139.444072 367.383337 C 138.27360366666667 362.8977993333333 137.10313533333334 358.41226166666667 135.932667 353.926724 C 135.765457 350.10571066666665 135.59824700000001 346.2846973333333 135.431037 342.463684 C 135.26382733333332 342.29755266666666 135.09661766666667 342.1314213333333 134.929408 341.96529 C 134.929408 334.157132 134.929408 326.348974 134.929408 318.540816 C 135.09661766666667 318.374685 135.26382733333332 318.208554 135.431037 318.042423 C 135.26382733333332 317.54402999999996 135.09661766666667 317.045637 134.929408 316.547244 C 131.91963166666667 316.547244 128.90985533333333 316.547244 125.900079 316.547244 C 123.72635166666667 315.71658866666667 121.55262433333333 314.8859333333333 119.378897 314.055278 C 117.53958899999999 312.39396766666664 115.700281 310.73265733333335 113.860973 309.071347 C 112.69050433333334 306.5793816666667 111.52003566666666 304.08741633333335 110.349567 301.595451 C 110.349567 300.1002716666667 110.349567 298.60509233333335 110.349567 297.109913 C 110.18235733333333 296.943782 110.01514766666666 296.777651 109.847938 296.61152 C 110.01514766666666 296.11312699999996 110.18235733333333 295.614734 110.349567 295.116341 C 110.18235733333333 294.95020999999997 110.01514766666666 294.784079 109.847938 294.617948 C 110.01514766666666 289.80014833333337 110.18235733333333 284.98234866666667 110.349567 280.164549 C 111.52003566666666 277.6725836666667 112.69050433333334 275.1806183333333 113.860973 272.688653 C 115.03144166666667 271.52573566666666 116.20191033333333 270.36281833333334 117.372379 269.199901 C 119.044477 268.203115 120.71657499999999 267.206329 122.388673 266.209543 C 123.55914166666666 265.87728066666665 124.72961033333334 265.54501833333336 125.900079 265.212756 C 128.90985533333333 265.212756 131.91963166666667 265.212756 134.929408 265.212756 C 135.09661766666667 264.714363 135.26382733333332 264.21597 135.431037 263.717577 C 135.26382733333332 263.551446 135.09661766666667 263.385315 134.929408 263.219184 C 135.09661766666667 252.58679833333332 135.26382733333332 241.95441266666666 135.431037 231.322027 C 136.09987633333333 227.83327566666665 136.76871566666668 224.34452433333334 137.437555 220.855773 C 138.77523333333335 217.03475933333334 140.11291166666666 213.21374566666665 141.45059 209.392732 C 143.28989766666666 205.90398033333332 145.12920533333335 202.41522866666668 146.968513 198.926477 C 148.807821 196.26838066666667 150.647129 193.61028433333334 152.486437 190.952188 C 153.991325 189.12474666666668 155.496213 187.29730533333333 157.001101 185.469864 C 160.84692633333333 181.64885033333334 164.69275166666668 177.82783666666666 168.538577 174.006823 C 172.886032 170.68420266666666 177.233487 167.36158233333333 181.580942 164.038962 C 185.92839666666666 161.38086533333333 190.27585133333335 158.72276866666667 194.623306 156.064672 C 198.63634133333335 154.0711 202.64937666666665 152.077528 206.662412 150.083956 C 211.67870566666667 148.09038366666667 216.69499933333333 146.09681133333333 221.711293 144.103239 C 226.56037733333335 142.60805966666666 231.40946166666666 141.11288033333335 236.258546 139.617701 C 242.110889 138.28865266666668 247.963232 136.95960433333335 253.815575 135.630556 C 256.65814166666667 135.298294 259.50070833333336 134.966032 262.343275 134.63377 C 262.5104846666667 134.467639 262.6776943333333 134.301508 262.844904 134.135377 C 264.0153726666667 134.135377 265.1858413333333 134.135377 266.35631 134.135377 C 266.5235196666667 133.969246 266.6907293333333 133.80311500000002 266.857939 133.636984 C 268.0284076666667 133.636984 269.1988763333333 133.636984 270.369345 133.636984 C 270.5365546666667 133.470853 270.7037643333333 133.304722 270.870974 133.138591 C 275.051219 132.97245999999998 279.23146399999996 132.806329 283.411709 132.640198 Z M 374.708259 351.434759 C 374.03942 351.60089 373.370581 351.767021 372.701742 351.933152 C 372.36732233333333 352.431545 372.0329026666667 352.929938 371.698483 353.428331 C 364.67567133333336 365.223634 357.65285966666664 377.018937 350.630048 388.81424 C 349.4595796666667 389.977157 348.2891113333333 391.140074 347.118643 392.302991 C 346.4498036666667 392.63525333333337 345.7809643333333 392.96751566666666 345.112125 393.299778 C 342.77118766666666 393.13364666666666 340.43025033333333 392.9675153333333 338.089313 392.801384 C 336.7516346666667 391.638467 335.4139563333333 390.47555 334.076278 389.312633 C 326.551837 376.852806 319.027396 364.392979 311.502955 351.933152 C 259.50070766666664 351.933152 207.49846033333336 351.933152 155.496213 351.933152 C 155.496213 352.597676 155.496213 353.2622 155.496213 353.926724 C 156.33226200000001 356.75095166666665 157.168311 359.5751793333333 158.00436 362.399407 C 159.50924833333332 365.55589633333335 161.01413666666667 368.71238566666665 162.519025 371.868875 C 165.696011 376.1882816666667 168.872997 380.5076883333333 172.049983 384.827095 C 174.89254966666667 387.65132266666666 177.73511633333334 390.47555033333333 180.577683 393.299778 C 183.08583000000002 395.29335 185.593977 397.286922 188.102124 399.280494 C 191.94794933333333 401.77245966666663 195.79377466666668 404.26442533333335 199.6396 406.756391 C 203.48542533333332 408.7499633333333 207.33125066666668 410.7435356666667 211.177076 412.737108 C 215.52453066666666 414.564549 219.87198533333333 416.39198999999996 224.21944 418.219431 C 227.73084599999999 419.3823483333333 231.242252 420.5452656666667 234.753658 421.708183 C 242.44530866666668 423.5356243333334 250.13695933333335 425.36306566666667 257.82861 427.190507 C 262.3432746666667 427.6889 266.8579393333334 428.187293 271.372604 428.685686 C 271.5398136666667 428.851817 271.7070233333333 429.017948 271.874233 429.184079 C 273.37912133333333 429.184079 274.88400966666666 429.184079 276.388898 429.184079 C 276.55610766666666 429.35021 276.72331733333334 429.516341 276.890527 429.682472 C 279.06425433333334 429.682472 281.23798166666666 429.682472 283.411709 429.682472 C 283.578919 429.848603 283.746129 430.014734 283.913339 430.180865 C 292.27382866666665 430.180865 300.63431833333334 430.180865 308.994808 430.180865 C 309.162018 430.014734 309.329228 429.848603 309.496438 429.682472 C 311.67016533333333 429.682472 313.8438926666667 429.682472 316.01762 429.682472 C 316.1848296666667 429.516341 316.3520393333333 429.35021 316.519249 429.184079 C 319.36181566666664 429.017948 322.20438233333334 428.851817 325.046949 428.685686 C 325.21415866666666 428.51955499999997 325.38136833333334 428.353424 325.548578 428.187293 C 327.72230566666667 428.021162 329.8960333333334 427.855031 332.069761 427.6889 C 333.0730196666667 427.356638 334.07627833333333 427.024376 335.079537 426.692114 C 337.587684 426.359852 340.095831 426.02759000000003 342.603978 425.695328 C 348.289111 424.2001486666667 353.974244 422.70496933333334 359.659377 421.20979 C 365.51172 419.0500866666667 371.364063 416.8903833333333 377.216406 414.73068 C 380.39339233333334 413.23550066666667 383.57037866666667 411.7403213333333 386.747365 410.245142 C 391.763659 407.25478366666664 396.779953 404.26442533333335 401.796247 401.274067 C 406.3109113333333 397.61918433333335 410.8255756666667 393.96430166666664 415.34024 390.309419 C 417.6811773333333 387.81745366666667 420.02211466666665 385.32548833333334 422.363052 382.833523 C 424.5367793333333 379.84316433333333 426.7105066666667 376.85280566666665 428.884234 373.862447 C 430.3891223333333 371.03821966666663 431.89401066666665 368.21399233333335 433.398899 365.389765 C 434.40215766666665 362.56553766666667 435.40541633333333 359.74131033333333 436.408675 356.917083 C 436.74309466666665 355.25577266666664 437.07751433333334 353.59446233333335 437.411934 351.933152 C 416.677919 351.933152 395.943904 351.933152 375.209889 351.933152 C 375.04267899999996 351.767021 374.875469 351.60089 374.708259 351.434759 Z M 154.492954 316.547244 C 154.492954 321.86343666666664 154.492954 327.1796293333333 154.492954 332.495822 C 209.337768 332.495822 264.182582 332.495822 319.027396 332.495822 C 319.863445 332.828084 320.699494 333.160346 321.535543 333.492608 C 322.53880200000003 334.32326333333333 323.542061 335.1539186666667 324.54532 335.984574 C 330.397663 345.62017333333336 336.250006 355.25577266666664 342.102349 364.891372 C 342.43676833333336 364.725241 342.77118766666666 364.55911000000003 343.105607 364.392979 C 348.79074033333336 354.9235106666667 354.47587366666664 345.45404233333335 360.161007 335.984574 C 361.4986853333333 334.9877876666667 362.83636366666667 333.9910013333333 364.174042 332.994215 C 364.6756713333333 332.828084 365.17730066666667 332.661953 365.67893 332.495822 C 389.924351 332.495822 414.16977199999997 332.495822 438.415193 332.495822 C 438.415193 327.1796293333333 438.415193 321.86343666666664 438.415193 316.547244 C 343.7744466666667 316.547244 249.13370033333334 316.547244 154.492954 316.547244 Z M 129.913114 284.151693 C 129.745904 284.31782433333336 129.578694 284.48395566666665 129.411484 284.650087 C 129.411484 288.8033623333333 129.411484 292.95663766666667 129.411484 297.109913 C 239.76995133333335 297.109913 350.1284186666667 297.109913 460.486886 297.109913 C 460.486886 295.116341 460.486886 293.122769 460.486886 291.129197 C 460.65409600000004 290.96306566666664 460.821306 290.79693433333335 460.988516 290.630803 C 460.988516 288.637231 460.988516 286.643659 460.988516 284.650087 C 460.821306 284.48395566666665 460.65409600000004 284.31782433333336 460.486886 284.151693 C 350.2956286666667 284.151693 240.10437133333335 284.151693 129.913114 284.151693 Z M 154.492954 249.264178 C 154.492954 254.41423966666665 154.492954 259.56430133333333 154.492954 264.714363 C 154.660164 264.880494 154.827374 265.046625 154.994584 265.212756 C 249.30091033333335 265.212756 343.6072366666667 265.212756 437.913563 265.212756 C 438.080773 265.046625 438.247983 264.880494 438.415193 264.714363 C 438.415193 259.56430133333333 438.415193 254.41423966666665 438.415193 249.264178 C 343.7744466666667 249.264178 249.13370033333334 249.264178 154.492954 249.264178 Z M 281.906821 151.579135 C 281.7396113333333 151.74526600000002 281.5724016666667 151.911397 281.405192 152.077528 C 277.72657633333336 152.243659 274.04796066666665 152.40979 270.369345 152.575921 C 270.202135 152.742052 270.034925 152.90818299999998 269.867715 153.074314 C 265.6874703333333 153.57270699999998 261.50722566666667 154.0711 257.326981 154.569493 C 249.63532999999998 156.39693433333332 241.943679 158.22437566666667 234.252028 160.051817 C 227.89805566666666 162.37765133333335 221.54408333333333 164.70348566666667 215.190111 167.02932 C 208.83613866666667 170.35194066666668 202.48216633333334 173.67456133333334 196.128194 176.997182 C 190.94469033333334 180.81819533333334 185.76118666666667 184.63920866666666 180.577683 188.460222 C 177.56790666666666 191.45058066666667 174.55813033333334 194.44093933333332 171.548354 197.431298 C 169.709046 199.75713233333335 167.86973799999998 202.08296666666666 166.03043 204.408801 C 164.85996166666666 206.23624233333334 163.68949333333333 208.06368366666666 162.519025 209.891125 C 161.01413666666667 213.0476143333333 159.50924833333332 216.20410366666667 158.00436 219.360593 C 157.168311 222.18482066666667 156.33226200000001 225.00904833333334 155.496213 227.833276 C 155.66342266666666 228.66393100000002 155.83063233333334 229.494586 155.997842 230.325241 C 249.63532966666668 230.325241 343.27281733333336 230.325241 436.910305 230.325241 C 437.0775146666667 230.15911 437.2447243333333 229.99297900000002 437.411934 229.826848 C 437.07751433333334 227.83327566666668 436.74309466666665 225.83970333333335 436.408675 223.846131 C 435.40541633333333 221.18803466666668 434.40215766666665 218.52993833333332 433.398899 215.871842 C 431.89401066666665 213.0476143333333 430.3891223333333 210.22338666666667 428.884234 207.399159 C 426.543297 204.24266966666667 424.20236 201.08618033333332 421.861423 197.929691 C 418.517227 194.60707033333333 415.17303100000004 191.28444966666666 411.828835 187.961829 C 409.989527 186.46665 408.150219 184.971471 406.310911 183.476292 C 402.63229566666666 180.98432666666668 398.9536803333333 178.49236133333332 395.275065 176.000396 C 392.26528833333333 174.33908566666668 389.2555116666667 172.67777533333333 386.245735 171.016465 C 380.0589726666667 168.35836866666668 373.8722103333333 165.70027233333334 367.685448 163.042176 C 362.33473433333336 161.38086566666666 356.98402066666665 159.71955533333335 351.633307 158.058245 C 347.2858523333333 157.06145866666665 342.9383976666667 156.06467233333333 338.590943 155.067886 C 334.57790766666665 154.569493 330.5648723333333 154.0711 326.551837 153.572707 C 326.3846273333333 153.406576 326.2174176666667 153.240445 326.050208 153.074314 C 324.8797393333333 153.074314 323.70927066666667 153.074314 322.538802 153.074314 C 322.3715923333333 152.90818299999998 322.2043826666667 152.742052 322.037173 152.575921 C 318.525767 152.40979 315.014361 152.243659 311.502955 152.077528 C 311.3357453333333 151.911397 311.1685356666667 151.74526600000002 311.001326 151.579135 C 301.30315766666666 151.579135 291.6049893333333 151.579135 281.906821 151.579135 Z" fill="black" stroke="none" /></svg>