<?xml version='1.0' encoding='utf-8'?>
<svg xmlns="http://www.w3.org/2000/svg" xmlns:dc="http://purl.org/dc/elements/1.1/" xmlns:ns2="http://creativecommons.org/ns#" xmlns:rdf="http://www.w3.org/1999/02/22-rdf-syntax-ns#" width="576pt" height="576pt" viewBox="0 0 576 576" version="1.1">
 <metadata>
  <rdf:RDF>
   <ns2:Work>
    <dc:type rdf:resource="http://purl.org/dc/dcmitype/StillImage" />
    <dc:date>2025-06-04T20:39:16.792442</dc:date>
    <dc:format>image/svg+xml</dc:format>
    <dc:creator>
     <ns2:Agent>
      <dc:title>Matplotlib v3.7.5, https://matplotlib.org/</dc:title>
     </ns2:Agent>
    </dc:creator>
   </ns2:Work>
  </rdf:RDF>
 </metadata>
 <defs>
  <style type="text/css">*{stroke-linejoin: round; stroke-linecap: butt}</style>
 </defs>
 <defs>
  <clipPath id="pe8fde5a08b">
   <rect x="72" y="69.12" width="446.4" height="443.52" />
  </clipPath>
 </defs>
<path d="M 187.600494 249.762571 C 187.767704 249.59644 187.934914 249.430309 188.102124 249.264178 C 189.10538266666666 249.264178 190.10864133333334 249.264178 191.1119 249.264178 C 191.78073933333332 249.59644 192.44957866666667 249.928702 193.118418 250.260964 C 193.78725699999998 250.925488 194.456096 251.590012 195.124935 252.254536 C 195.45935466666666 253.08519133333334 195.79377433333335 253.91584666666665 196.128194 254.746502 C 196.128194 258.23525333333333 196.128194 261.7240046666667 196.128194 265.212756 C 195.96098433333333 265.71114933333337 195.79377466666668 266.20954266666666 195.626565 266.707936 C 194.623306 267.870853 193.620047 269.03377 192.616788 270.196687 C 191.780739 270.528949 190.94469 270.86121099999997 190.108641 271.193473 C 188.77096266666666 270.86121099999997 187.43328433333335 270.528949 186.095606 270.196687 C 185.259557 269.366032 184.423508 268.535377 183.587459 267.704722 C 183.42024933333332 267.206329 183.25303966666667 266.707936 183.08583 266.209543 C 183.08583 262.0562673333333 183.08583 257.90299166666665 183.08583 253.749716 C 184.25629866666665 252.42066766666667 185.42676733333334 251.09161933333334 186.597236 249.762571 C 186.93165533333334 249.762571 187.26607466666667 249.762571 187.600494 249.762571 Z M 202.147747 236.305958 C 202.31495666666666 236.139827 202.48216633333334 235.97369600000002 202.649376 235.807565 C 205.65915233333334 235.807565 208.66892866666666 235.807565 211.678705 235.807565 C 213.01638366666668 236.305958 214.35406233333333 236.804351 215.691741 237.302744 C 216.52779 238.63179233333332 217.36383899999998 239.96084066666666 218.199888 241.289889 C 218.032678 242.618937 217.865468 243.947985 217.698258 245.277033 C 216.36057966666667 246.43995033333331 215.02290133333335 247.60286766666667 213.685223 248.765785 C 209.33776833333334 248.765785 204.99031366666665 248.765785 200.642859 248.765785 C 200.30843933333333 248.599654 199.97401966666666 248.433523 199.6396 248.267392 C 198.803551 247.43673666666666 197.967502 246.60608133333335 197.131453 245.775426 C 196.79703333333333 244.446378 196.46261366666667 243.11733 196.128194 241.788282 C 196.46261366666667 240.95762666666667 196.79703333333333 240.12697133333333 197.131453 239.296316 C 197.967502 238.46566099999998 198.803551 237.635006 199.6396 236.804351 C 200.475649 236.63822 201.311698 236.472089 202.147747 236.305958 Z M 166.53206 236.305958 C 166.69926966666668 236.139827 166.86647933333333 235.97369600000002 167.033689 235.807565 C 170.04346533333333 235.807565 173.05324166666668 235.807565 176.063018 235.807565 C 176.899067 235.97369600000002 177.735116 236.139827 178.571165 236.305958 C 179.07279433333335 236.63822 179.57442366666666 236.970482 180.076053 237.302744 C 180.912102 238.46566133333332 181.748151 239.62857866666667 182.5842 240.791496 C 182.5842 241.954413 182.5842 243.11733 182.5842 244.280247 C 182.24978066666668 244.94477133333334 181.91536133333332 245.60929566666667 181.580942 246.27382 C 180.41047333333333 247.104475 179.24000466666666 247.93513 178.069536 248.765785 C 173.72208133333334 248.765785 169.37462666666667 248.765785 165.027172 248.765785 C 164.69275233333335 248.599654 164.35833266666666 248.433523 164.023913 248.267392 C 163.020654 247.10447466666668 162.017395 245.94155733333332 161.014136 244.77864 C 161.014136 243.283461 161.014136 241.788282 161.014136 240.293103 C 162.017395 239.13018566666668 163.020654 237.96726833333332 164.023913 236.804351 C 164.859962 236.63822 165.696011 236.472089 166.53206 236.305958 Z M 188.102124 214.376663 C 188.938173 214.21053166666667 189.774222 214.04440033333333 190.610271 213.878269 C 191.61352966666666 214.37666233333331 192.61678833333335 214.87505566666667 193.620047 215.373449 C 194.28888633333332 216.204104 194.95772566666668 217.03475899999998 195.626565 217.865414 C 195.79377466666668 218.529938 195.96098433333333 219.194462 196.128194 219.858986 C 196.128194 223.18160666666665 196.128194 226.50422733333335 196.128194 229.826848 C 195.96098433333333 230.491372 195.79377466666668 231.155896 195.626565 231.82042 C 194.95772566666668 232.65107533333335 194.28888633333332 233.48173066666666 193.620047 234.312386 C 192.61678833333335 234.810779 191.61352966666666 235.30917200000002 190.610271 235.807565 C 189.774222 235.807565 188.938173 235.807565 188.102124 235.807565 C 187.43328466666668 235.475303 186.76444533333333 235.143041 186.095606 234.810779 C 185.09234733333332 233.64786166666667 184.08908866666667 232.48494433333332 183.08583 231.322027 C 183.08583 227.00262033333334 183.08583 222.68321366666666 183.08583 218.363807 C 184.08908866666667 217.20089000000002 185.09234733333332 216.037973 186.095606 214.875056 C 186.76444533333333 214.708925 187.43328466666668 214.54279400000001 188.102124 214.376663 Z M 267.861198 169.521286 C 268.0284076666667 169.35515466666666 268.1956173333333 169.18902333333335 268.362827 169.022892 C 269.8677153333333 169.18902333333335 271.3726036666667 169.35515466666666 272.877492 169.521286 C 274.04796066666665 170.850334 275.21842933333335 172.179382 276.388898 173.50843 C 276.388898 175.00360933333334 276.388898 176.49878866666666 276.388898 177.993968 C 275.05121933333334 179.323016 273.71354066666663 180.652064 272.375862 181.981112 C 270.870974 181.981112 269.366086 181.981112 267.861198 181.981112 C 267.1923586666667 181.64885 266.5235193333333 181.316588 265.85468 180.984326 C 265.185841 180.153671 264.517002 179.323016 263.848163 178.492361 C 263.680953 176.99718166666665 263.51374300000003 175.50200233333334 263.346533 174.006823 C 264.182582 172.843906 265.01863099999997 171.68098899999998 265.85468 170.518072 C 266.5235193333333 170.18581 267.1923586666667 169.853548 267.861198 169.521286 Z M 184.089089 148.090383 C 184.25629866666668 147.924252 184.42350833333333 147.75812100000002 184.590718 147.59199 C 187.26607466666667 147.59199 189.94143133333336 147.59199 192.616788 147.59199 C 194.62330566666668 148.42264533333335 196.62982333333332 149.25330066666666 198.636341 150.083956 C 200.81006833333333 152.24365933333334 202.98379566666665 154.40336266666665 205.157523 156.563066 C 205.82636233333332 158.224376 206.49520166666667 159.885686 207.164041 161.546996 C 207.33125066666668 164.03896133333333 207.49846033333333 166.5309266666667 207.66567 169.022892 C 206.99683100000001 171.01646433333335 206.327992 173.01003666666668 205.659153 175.003609 C 204.99031366666668 176.00039533333333 204.32147433333333 176.99718166666668 203.652635 177.993968 C 202.48216633333334 179.156885 201.31169766666667 180.319802 200.141229 181.482719 C 198.30192133333335 182.47950533333332 196.46261366666667 183.47629166666667 194.623306 184.473078 C 191.27911 184.639209 187.93491400000002 184.80534 184.590718 184.971471 C 182.58420033333334 184.140816 180.57768266666668 183.310161 178.571165 182.479506 C 176.899067 180.98432666666665 175.226969 179.48914733333334 173.554871 177.993968 C 172.718822 176.66491966666666 171.88277300000001 175.33587133333333 171.046724 174.006823 C 170.71230466666668 173.010037 170.37788533333332 172.013251 170.043466 171.016465 C 169.87625599999998 168.52449966666669 169.709046 166.03253433333333 169.541836 163.540569 C 170.2106753333333 161.54699666666667 170.87951466666667 159.55342433333334 171.548354 157.559852 C 172.21719299999998 156.56306566666666 172.886032 155.56627933333334 173.554871 154.569493 C 174.72533966666666 153.406576 175.89580833333335 152.24365899999998 177.066277 151.080742 C 178.57116533333334 150.25008666666665 180.07605366666667 149.41943133333334 181.580942 148.588776 C 182.416991 148.422645 183.25304 148.256514 184.089089 148.090383 Z M 186.597236 160.55021 C 185.92839666666669 160.882472 185.25955733333333 161.214734 184.590718 161.546996 C 184.08908866666667 162.21152033333334 183.58745933333333 162.87604466666667 183.08583 163.540569 C 182.91862 164.038962 182.75141 164.53735500000002 182.5842 165.035748 C 182.75141 166.364796 182.91862 167.693844 183.08583 169.022892 C 183.58745933333333 169.68741633333335 184.08908866666667 170.35194066666668 184.590718 171.016465 C 185.25955733333333 171.348727 185.92839666666669 171.680989 186.597236 172.013251 C 187.93491433333335 172.013251 189.27259266666667 172.013251 190.610271 172.013251 C 191.27911 171.680989 191.94794900000002 171.348727 192.616788 171.016465 C 193.1184176666667 170.35194066666668 193.62004733333333 169.68741633333335 194.121677 169.022892 C 194.28888666666668 168.52449900000002 194.45609633333333 168.026106 194.623306 167.527713 C 194.45609633333333 166.198665 194.28888666666668 164.869617 194.121677 163.540569 C 193.62004733333333 162.87604466666667 193.1184176666667 162.21152033333334 192.616788 161.546996 C 191.94794900000002 161.214734 191.27911 160.882472 190.610271 160.55021 C 189.27259266666667 160.55021 187.93491433333335 160.55021 186.597236 160.55021 Z M 349.62679 91.771965 C 349.7939996666667 91.605834 349.96120933333333 91.439703 350.128419 91.273572 C 351.1316776666667 91.273572 352.1349363333333 91.273572 353.138195 91.273572 C 353.8070343333333 91.605834 354.4758736666667 91.938096 355.144713 92.270358 C 355.813552 92.93488233333333 356.482391 93.59940666666667 357.15123 94.263931 C 357.4856496666667 94.928455 357.8200693333333 95.592979 358.154489 96.257503 C 358.154489 100.74304066666667 358.154489 105.22857833333333 358.154489 109.714116 C 358.321699 109.880247 358.488909 110.046378 358.656119 110.212509 C 363.3379933333333 110.212509 368.0198676666667 110.212509 372.701742 110.212509 C 374.03942033333334 111.54155733333333 375.3770986666667 112.87060566666666 376.714777 114.199654 C 376.714777 115.69483333333334 376.714777 117.19001266666666 376.714777 118.685192 C 375.3770986666667 120.01424 374.03942033333334 121.343288 372.701742 122.672336 C 367.8526576666667 122.838467 363.00357333333335 123.004598 358.154489 123.170729 C 358.154489 137.12573533333332 358.154489 151.08074166666668 358.154489 165.035748 C 372.5345316666667 191.616712 386.91457433333335 218.197676 401.294617 244.77864 C 401.461827 245.77542633333334 401.629037 246.77221266666666 401.796247 247.768999 C 400.960198 249.26417800000002 400.124149 250.759357 399.2881 252.254536 C 398.284841 252.75292933333333 397.281582 253.25132266666668 396.278323 253.749716 C 394.1045956666667 253.749716 391.9308683333333 253.749716 389.757141 253.749716 C 389.5899313333333 254.081978 389.4227216666667 254.41424 389.255512 254.746502 C 389.255512 258.89977766666664 389.255512 263.0530533333333 389.255512 267.206329 C 389.4227216666667 267.37246 389.5899313333333 267.538591 389.757141 267.704722 C 389.5899313333333 268.203115 389.4227216666667 268.701508 389.255512 269.199901 C 389.4227216666667 269.366032 389.5899313333333 269.53216299999997 389.757141 269.698294 C 389.924351 269.53216299999997 390.091561 269.366032 390.258771 269.199901 C 392.93412766666665 265.37888733333335 395.60948433333334 261.55787366666664 398.284841 257.73686 C 402.1306663333333 253.5835843333333 405.9764916666667 249.43030866666666 409.822317 245.277033 C 411.1599953333333 244.114116 412.4976736666667 242.951199 413.835352 241.788282 C 414.5041913333333 241.45602 415.17303066666665 241.123758 415.84187 240.791496 C 416.84512866666665 240.791496 417.84838733333333 240.791496 418.851646 240.791496 C 420.02211466666665 241.45602 421.19258333333335 242.120544 422.363052 242.785068 C 425.707248 246.10768866666666 429.051444 249.43030933333333 432.39564 252.75293 C 435.23820666666666 256.2416813333333 438.08077333333335 259.7304326666667 440.92334 263.219184 C 443.264277 266.87406666666664 445.605214 270.52894933333334 447.946151 274.183832 C 450.2870883333333 279.33389366666665 452.62802566666664 284.4839553333333 454.968963 289.634017 C 454.968963 290.1324103333333 454.968963 290.6308036666666 454.968963 291.129197 C 455.63780199999997 292.956638 456.306641 294.78407899999996 456.97548 296.61152 C 457.3098996666667 299.60187866666666 457.6443193333333 302.59223733333334 457.978739 305.582596 C 458.14594900000003 305.74872700000003 458.313159 305.914858 458.480369 306.080989 C 458.480369 310.5665266666667 458.480369 315.0520643333333 458.480369 319.537602 C 458.313159 319.703733 458.14594900000003 319.869864 457.978739 320.035995 C 457.978739 321.69730533333336 457.978739 323.35861566666665 457.978739 325.019926 C 457.81152933333334 325.186057 457.64431966666666 325.352188 457.47711 325.518319 C 456.97548066666667 329.3393326666667 456.4738513333333 333.16034633333334 455.972222 336.98136 C 454.80175333333335 340.6362423333333 453.63128466666666 344.2911246666667 452.460816 347.946007 C 452.460816 362.0671443333333 452.460816 376.1882816666667 452.460816 390.309419 C 454.801753 390.309419 457.14269 390.309419 459.483627 390.309419 C 459.98525666666666 390.47555 460.48688633333336 390.641681 460.988516 390.807812 C 461.824565 391.472336 462.660614 392.13686 463.496663 392.801384 C 463.8310823333333 393.46590833333335 464.16550166666667 394.13043266666665 464.499921 394.794957 C 464.667131 395.625612 464.834341 396.456267 465.001551 397.286922 C 464.834341 397.785315 464.667131 398.283708 464.499921 398.782101 C 464.667131 398.948232 464.834341 399.11436299999997 465.001551 399.280494 C 465.001551 422.7049686666667 465.001551 446.1294433333333 465.001551 469.553918 C 464.834341 469.720049 464.667131 469.88617999999997 464.499921 470.052311 C 464.83434066666666 470.55070433333333 465.1687603333333 471.0490976666666 465.50318 471.547491 C 468.011327 471.547491 470.519474 471.547491 473.027621 471.547491 C 473.3620406666667 471.713622 473.69646033333333 471.879753 474.03088 472.045884 C 475.0341386666667 473.208801 476.03739733333333 474.371718 477.040656 475.534635 C 477.040656 477.0298143333333 477.040656 478.52499366666666 477.040656 480.020173 C 476.87344633333333 480.352435 476.70623666666665 480.68469699999997 476.539027 481.016959 C 475.702978 481.8476143333333 474.866929 482.67826966666667 474.03088 483.508925 C 472.6932016666667 483.841187 471.35552333333334 484.173449 470.017845 484.505711 C 353.472615 484.505711 236.92738500000002 484.505711 120.382155 484.505711 C 119.04447666666667 484.173449 117.70679833333332 483.841187 116.36912 483.508925 C 115.36586133333333 482.34600766666665 114.36260266666666 481.1830903333333 113.359344 480.020173 C 113.359344 478.52499366666666 113.359344 477.0298143333333 113.359344 475.534635 C 113.52655366666666 475.20237299999997 113.69376333333334 474.870111 113.860973 474.537849 C 115.03144166666667 473.541063 116.20191033333333 472.54427699999997 117.372379 471.547491 C 119.880526 471.547491 122.388673 471.547491 124.89682 471.547491 C 125.23123966666667 471.0490976666666 125.56565933333334 470.55070433333333 125.900079 470.052311 C 125.73286900000001 469.88617999999997 125.565659 469.720049 125.398449 469.553918 C 125.398449 446.1294433333333 125.398449 422.7049686666667 125.398449 399.280494 C 125.565659 399.11436299999997 125.73286900000001 398.948232 125.900079 398.782101 C 125.73286900000001 398.283708 125.565659 397.785315 125.398449 397.286922 C 125.565659 396.456267 125.73286900000001 395.625612 125.900079 394.794957 C 126.568918 393.7981706666667 127.237757 392.8013843333333 127.906596 391.804598 C 128.909855 391.306205 129.913114 390.807812 130.916373 390.309419 C 135.43103733333334 390.309419 139.94570166666665 390.309419 144.460366 390.309419 C 144.460366 388.48197766666664 144.460366 386.65453633333334 144.460366 384.827095 C 143.45710733333334 384.49483299999997 142.45384866666666 384.162571 141.45059 383.830309 C 140.614541 382.999654 139.778492 382.168999 138.942443 381.338344 C 138.77523333333332 381.00608166666666 138.60802366666667 380.67381933333337 138.440814 380.341557 C 138.440814 378.846378 138.440814 377.351199 138.440814 375.85602 C 142.78826866666665 362.23327566666666 147.13572333333335 348.61053133333337 151.483178 334.987787 C 151.483178 334.489394 151.483178 333.99100100000004 151.483178 333.492608 C 152.152017 331.83129766666667 152.82085600000002 330.1699873333333 153.489695 328.508677 C 153.489695 328.010284 153.489695 327.511891 153.489695 327.013498 C 154.15853433333334 325.3521876666667 154.8273736666667 323.69087733333333 155.496213 322.029567 C 155.496213 321.53117399999996 155.496213 321.032781 155.496213 320.534388 C 156.16505233333334 318.87307766666663 156.8338916666667 317.21176733333334 157.502731 315.550457 C 157.502731 315.052064 157.502731 314.553671 157.502731 314.055278 C 158.17157 312.39396766666664 158.84040900000002 310.73265733333335 159.509248 309.071347 C 159.509248 308.572954 159.509248 308.074561 159.509248 307.576168 C 160.17808733333334 305.91485766666665 160.8469266666667 304.25354733333336 161.515766 302.592237 C 161.515766 302.093844 161.515766 301.595451 161.515766 301.097058 C 162.51902466666667 298.43896166666667 163.52228333333335 295.78086533333334 164.525542 293.122769 C 165.86322033333335 292.2921136666667 167.20089866666666 291.4614583333333 168.538577 290.630803 C 169.87625566666668 290.79693433333335 171.21393433333333 290.96306566666664 172.551613 291.129197 C 173.387662 291.793721 174.223711 292.458245 175.05976 293.122769 C 176.06301866666666 295.78086533333334 177.06627733333335 298.43896166666667 178.069536 301.097058 C 178.069536 301.595451 178.069536 302.093844 178.069536 302.592237 C 178.738375 304.25354733333336 179.407214 305.91485766666665 180.076053 307.576168 C 180.076053 308.074561 180.076053 308.572954 180.076053 309.071347 C 180.74489233333333 310.73265733333335 181.41373166666668 312.39396766666664 182.082571 314.055278 C 182.082571 314.553671 182.082571 315.052064 182.082571 315.550457 C 182.75141033333333 317.21176733333334 183.42024966666668 318.87307766666663 184.089089 320.534388 C 184.089089 321.032781 184.089089 321.53117399999996 184.089089 322.029567 C 184.757928 323.69087733333333 185.426767 325.3521876666667 186.095606 327.013498 C 186.095606 327.511891 186.095606 328.010284 186.095606 328.508677 C 186.76444533333333 330.1699873333333 187.43328466666668 331.83129766666667 188.102124 333.492608 C 188.102124 333.99100100000004 188.102124 334.489394 188.102124 334.987787 C 192.44957866666667 348.61053133333337 196.79703333333333 362.23327566666666 201.144488 375.85602 C 201.144488 377.351199 201.144488 378.846378 201.144488 380.341557 C 200.97727833333332 380.67381933333337 200.81006866666667 381.00608166666666 200.642859 381.338344 C 199.80680999999998 382.168999 198.970761 382.999654 198.134712 383.830309 C 197.131453 384.162571 196.128194 384.49483299999997 195.124935 384.827095 C 195.124935 386.65453633333334 195.124935 388.48197766666664 195.124935 390.309419 C 201.144488 390.309419 207.164041 390.309419 213.183594 390.309419 C 213.183594 386.65453633333334 213.183594 382.99965366666663 213.183594 379.344771 C 213.35080366666668 379.01250899999997 213.51801333333333 378.680247 213.685223 378.347985 C 212.51475433333334 374.36084033333333 211.34428566666668 370.37369566666666 210.173817 366.386551 C 209.67218766666667 363.89458566666667 209.17055833333333 361.40262033333335 208.668929 358.910655 C 208.668929 357.91386900000003 208.668929 356.917083 208.668929 355.920297 C 208.50171933333334 355.754166 208.33450966666666 355.588035 208.1673 355.421904 C 208.00009 352.2654143333333 207.83288000000002 349.10892466666667 207.66567 345.952435 C 207.49846033333333 345.786304 207.33125066666668 345.620173 207.164041 345.454042 C 207.164041 340.47011133333336 207.164041 335.48618066666666 207.164041 330.50225 C 207.33125066666668 330.336119 207.49846033333333 330.169988 207.66567 330.003857 C 208.00008966666667 326.68123633333335 208.33450933333333 323.35861566666665 208.668929 320.035995 C 209.17055833333333 318.04242266666665 209.67218766666667 316.04885033333335 210.173817 314.055278 C 211.67870533333334 309.9020023333333 213.18359366666667 305.7487266666667 214.688482 301.595451 C 217.53104866666666 296.27925833333336 220.37361533333333 290.9630656666667 223.216182 285.646873 C 226.22595833333332 281.49359733333335 229.23573466666667 277.3403216666667 232.245511 273.187046 C 234.25202833333333 271.0273426666667 236.25854566666666 268.86763933333333 238.265063 266.707936 C 239.937161 266.20954266666666 241.609259 265.71114933333337 243.281357 265.212756 C 244.78624533333334 262.22239766666667 246.29113366666667 259.2320393333334 247.796022 256.241681 C 250.304169 252.75292933333336 252.81231599999998 249.26417766666668 255.320463 245.775426 C 260.00233733333334 240.95762633333334 264.68421166666667 236.13982666666666 269.366086 231.322027 C 272.3758623333333 228.83006166666667 275.3856386666667 226.33809633333334 278.395415 223.846131 C 281.739611 221.52029666666667 285.083807 219.19446233333335 288.428003 216.868628 C 289.0968423333333 216.536366 289.7656816666667 216.204104 290.434521 215.871842 C 291.4377796666667 215.871842 292.4410383333333 215.871842 293.444297 215.871842 C 295.952444 217.367021 298.46059099999997 218.8622 300.968738 220.357379 C 304.1457243333333 222.84934466666667 307.3227106666667 225.34131033333335 310.499697 227.833276 C 310.8341163333333 227.833276 311.1685356666667 227.833276 311.502955 227.833276 C 315.34878066666664 220.35737966666667 319.19460633333335 212.88148333333334 323.040432 205.405587 C 323.37485133333337 205.073325 323.70927066666667 204.741063 324.04369 204.408801 C 325.04694900000004 202.24909766666667 326.050208 200.08939433333333 327.053467 197.929691 C 333.07301966666665 186.96504333333334 339.09257233333335 176.00039566666666 345.112125 165.035748 C 345.112125 151.08074166666668 345.112125 137.12573533333332 345.112125 123.170729 C 340.26304066666665 123.004598 335.4139563333333 122.838467 330.564872 122.672336 C 329.22719366666666 121.343288 327.8895153333333 120.01424 326.551837 118.685192 C 326.551837 117.19001266666666 326.551837 115.69483333333334 326.551837 114.199654 C 327.8895153333333 112.87060566666666 329.22719366666666 111.54155733333333 330.564872 110.212509 C 335.24674666666664 110.212509 339.92862133333335 110.212509 344.610496 110.212509 C 344.7777056666667 110.046378 344.9449153333333 109.880247 345.112125 109.714116 C 345.112125 105.22857833333333 345.112125 100.74304066666667 345.112125 96.257503 C 345.4465446666667 95.592979 345.7809643333333 94.928455 346.115384 94.263931 C 346.784223 93.59940666666667 347.453062 92.93488233333333 348.121901 92.270358 C 348.6235306666667 92.104227 349.1251603333333 91.938096 349.62679 91.771965 Z M 203.151006 428.187293 C 200.81006866666667 428.68568600000003 198.46913133333334 429.184079 196.128194 429.682472 C 193.787257 430.67925833333334 191.44632 431.67604466666666 189.105383 432.672831 C 186.59723599999998 434.5002723333333 184.089089 436.3277136666666 181.580942 438.155155 C 180.24326366666665 439.650334 178.90558533333333 441.145513 177.567907 442.640692 C 176.564648 444.13587133333334 175.561389 445.6310506666667 174.55813 447.12623 C 173.55487133333332 449.45206433333334 172.55161266666667 451.77789866666666 171.548354 454.103733 C 171.04672466666665 456.4295673333333 170.54509533333334 458.75540166666667 170.043466 461.081236 C 170.043466 464.4038566666667 170.043466 467.7264773333333 170.043466 471.049098 C 170.21067566666667 471.215229 170.37788533333332 471.38136 170.545095 471.547491 C 195.12493533333333 471.547491 219.70477566666668 471.547491 244.284616 471.547491 C 244.451826 471.38136 244.619036 471.215229 244.786246 471.049098 C 244.786246 467.7264773333333 244.786246 464.4038566666667 244.786246 461.081236 C 244.28461633333333 458.75540166666667 243.7829866666667 456.4295673333333 243.281357 454.103733 C 242.445308 452.1101606666667 241.609259 450.1165883333333 240.77321 448.123016 C 238.76669266666667 445.29878866666667 236.76017533333334 442.4745613333333 234.753658 439.650334 C 232.245511 437.6567616666667 229.737364 435.6631893333333 227.229217 433.669617 C 224.88827966666668 432.5066996666667 222.54734233333332 431.3437823333333 220.206405 430.180865 C 217.36383833333332 429.516341 214.52127166666668 428.851817 211.678705 428.187293 C 208.83613866666667 428.187293 205.99357233333333 428.187293 203.151006 428.187293 Z M 157.502731 384.827095 C 157.502731 386.65453633333334 157.502731 388.48197766666664 157.502731 390.309419 C 165.696011 390.309419 173.88929100000001 390.309419 182.082571 390.309419 C 182.082571 388.48197766666664 182.082571 386.65453633333334 182.082571 384.827095 C 173.88929100000001 384.827095 165.696011 384.827095 157.502731 384.827095 Z M 226.727587 378.347985 C 226.727587 383.498047 226.727587 388.64810900000003 226.727587 393.798171 C 226.56037733333332 393.96430200000003 226.39316766666667 394.130433 226.225958 394.296564 C 226.39316766666667 394.961088 226.56037733333332 395.625612 226.727587 396.290136 C 226.56037733333332 397.120791 226.39316766666667 397.95144600000003 226.225958 398.782101 C 225.55711866666667 399.77888733333333 224.88827933333332 400.7756736666667 224.21944 401.77246 C 223.21618133333334 402.270853 222.21292266666666 402.769246 221.209664 403.267639 C 193.787257 403.267639 166.36485 403.267639 138.942443 403.267639 C 138.77523333333332 403.43377 138.60802366666667 403.599901 138.440814 403.766032 C 138.60802366666667 403.932163 138.77523333333332 404.098294 138.942443 404.264425 C 138.77523333333332 404.59668700000003 138.60802366666667 404.928949 138.440814 405.261211 C 138.60802366666667 405.427342 138.77523333333332 405.593473 138.942443 405.759604 C 138.77523333333332 405.92573533333336 138.60802366666667 406.09186666666665 138.440814 406.257998 C 138.440814 427.6889003333333 138.440814 449.11980266666666 138.440814 470.550705 C 138.77523333333332 470.882967 139.10965266666668 471.21522899999997 139.444072 471.547491 C 145.12920533333335 471.547491 150.81433866666666 471.547491 156.499472 471.547491 C 156.66668166666668 471.38136 156.83389133333333 471.215229 157.001101 471.049098 C 157.001101 467.56034633333337 157.001101 464.07159466666667 157.001101 460.582843 C 157.66994033333333 457.26022233333333 158.33877966666668 453.9376016666667 159.007619 450.614981 C 160.17808766666667 447.79075366666666 161.34855633333333 444.9665263333333 162.519025 442.142299 C 164.69275233333335 438.9858096666666 166.86647966666666 435.8293203333333 169.040207 432.672831 C 171.71556366666667 430.1808653333333 174.39092033333336 427.68889966666666 177.066277 425.196934 C 179.40721433333334 423.701755 181.74815166666667 422.206576 184.089089 420.711397 C 186.93165533333334 419.54847966666665 189.77422166666668 418.3855623333333 192.616788 417.222645 C 195.960984 416.558121 199.30518 415.893597 202.649376 415.229073 C 206.996831 415.39520400000004 211.344286 415.561335 215.691741 415.727466 C 217.86546833333333 416.225859 220.03919566666667 416.724252 222.212923 417.222645 C 224.38665033333334 418.0533003333333 226.56037766666665 418.8839556666667 228.734105 419.714611 C 231.74388133333332 421.542052 234.75365766666667 423.369493 237.763434 425.196934 C 240.43879066666665 427.68889966666666 243.11414733333334 430.1808653333333 245.789504 432.672831 C 247.96323166666667 435.8293203333333 250.13695933333332 438.9858096666666 252.310687 442.142299 C 253.48115533333333 444.9665263333333 254.65162366666667 447.79075366666666 255.822092 450.614981 C 256.4909313333333 453.9376016666667 257.1597706666667 457.26022233333333 257.82861 460.582843 C 257.82861 464.07159466666667 257.82861 467.56034633333337 257.82861 471.049098 C 257.9958196666667 471.215229 258.1630293333333 471.38136 258.330239 471.547491 C 264.01537233333335 471.547491 269.7005056666667 471.547491 275.385639 471.547491 C 275.72005866666666 471.21522899999997 276.05447833333335 470.882967 276.388898 470.550705 C 276.388898 455.59891266666665 276.388898 440.64712033333336 276.388898 425.695328 C 277.7265763333333 424.3662796666667 279.06425466666667 423.03723133333335 280.401933 421.708183 C 281.906821 421.708183 283.41170900000003 421.708183 284.916597 421.708183 C 285.25101666666666 421.874314 285.58543633333335 422.040445 285.919856 422.206576 C 286.755905 423.03723099999996 287.591954 423.867886 288.428003 424.698541 C 288.7624226666667 425.8614583333333 289.0968423333333 427.0243756666667 289.431262 428.187293 C 289.2640523333333 428.851817 289.0968426666667 429.516341 288.929633 430.180865 C 288.929633 443.6374783333333 288.929633 457.09409166666666 288.929633 470.550705 C 289.2640523333333 470.882967 289.5984716666667 471.21522899999997 289.932891 471.547491 C 293.444297 471.547491 296.95570299999997 471.547491 300.467109 471.547491 C 300.80152833333335 471.21522899999997 301.13594766666665 470.882967 301.470367 470.550705 C 301.470367 457.09409166666666 301.470367 443.6374783333333 301.470367 430.180865 C 301.30315733333333 429.516341 301.13594766666665 428.851817 300.968738 428.187293 C 301.30315766666666 427.0243756666667 301.6375773333333 425.8614583333333 301.971997 424.698541 C 303.1424656666667 423.701755 304.3129343333333 422.704969 305.483403 421.708183 C 306.988291 421.708183 308.493179 421.708183 309.998067 421.708183 C 310.3324866666667 421.874314 310.6669063333333 422.040445 311.001326 422.206576 C 311.837375 423.03723099999996 312.673424 423.867886 313.509473 424.698541 C 313.8438926666667 425.8614583333333 314.17831233333334 427.0243756666667 314.512732 428.187293 C 314.345522 428.519555 314.178312 428.851817 314.011102 429.184079 C 314.011102 442.97295433333335 314.011102 456.76182966666664 314.011102 470.550705 C 314.3455216666667 470.882967 314.6799413333333 471.21522899999997 315.014361 471.547491 C 318.5257666666667 471.547491 322.03717233333333 471.547491 325.548578 471.547491 C 325.88299766666665 471.0490976666666 326.21741733333334 470.55070433333333 326.551837 470.052311 C 326.3846273333333 469.88617999999997 326.2174176666667 469.720049 326.050208 469.553918 C 326.050208 456.76182900000003 326.050208 443.96974 326.050208 431.177651 C 326.2174176666667 431.01152 326.3846273333333 430.845389 326.551837 430.679258 C 326.3846273333333 430.014734 326.2174176666667 429.35021 326.050208 428.685686 C 326.3846276666667 427.35663766666664 326.7190473333333 426.0275893333333 327.053467 424.698541 C 328.2239353333333 423.701755 329.3944036666667 422.704969 330.564872 421.708183 C 332.0697603333333 421.708183 333.5746486666667 421.708183 335.079537 421.708183 C 336.41721533333333 423.03723133333335 337.7548936666667 424.3662796666667 339.092572 425.695328 C 339.092572 440.64712033333336 339.092572 455.59891266666665 339.092572 470.550705 C 339.42699166666665 470.882967 339.76141133333334 471.21522899999997 340.095831 471.547491 C 343.60723666666667 471.547491 347.1186423333333 471.547491 350.630048 471.547491 C 350.9644676666667 471.21522899999997 351.2988873333333 470.882967 351.633307 470.550705 C 351.633307 455.59891266666665 351.633307 440.64712033333336 351.633307 425.695328 C 352.9709853333333 424.3662796666667 354.3086636666667 423.03723133333335 355.646342 421.708183 C 357.15123033333333 421.708183 358.65611866666666 421.708183 360.161007 421.708183 C 361.4986853333333 423.03723133333335 362.83636366666667 424.3662796666667 364.174042 425.695328 C 364.174042 426.525983 364.174042 427.35663800000003 364.174042 428.187293 C 364.34125166666666 428.353424 364.50846133333334 428.51955499999997 364.675671 428.685686 C 364.50846133333334 429.017948 364.34125166666666 429.35021 364.174042 429.682472 C 364.34125166666666 430.18086500000004 364.50846133333334 430.679258 364.675671 431.177651 C 364.675671 443.96974 364.675671 456.76182900000003 364.675671 469.553918 C 364.50846133333334 469.720049 364.34125166666666 469.88617999999997 364.174042 470.052311 C 364.5084616666667 470.55070433333333 364.8428813333333 471.0490976666666 365.177301 471.547491 C 368.6887066666667 471.547491 372.2001123333333 471.547491 375.711518 471.547491 C 376.0459376666667 471.21522899999997 376.38035733333334 470.882967 376.714777 470.550705 C 376.714777 455.59891266666665 376.714777 440.64712033333336 376.714777 425.695328 C 378.05245533333334 424.3662796666667 379.39013366666666 423.03723133333335 380.727812 421.708183 C 382.2327003333333 421.708183 383.7375886666667 421.708183 385.242477 421.708183 C 385.57689633333337 421.874314 385.91131566666667 422.040445 386.245735 422.206576 C 387.081784 423.03723099999996 387.917833 423.867886 388.753882 424.698541 C 389.08830166666667 425.8614583333333 389.4227213333333 427.0243756666667 389.757141 428.187293 C 389.5899313333333 428.851817 389.4227216666667 429.516341 389.255512 430.180865 C 389.255512 443.6374783333333 389.255512 457.09409166666666 389.255512 470.550705 C 389.5899316666667 470.882967 389.92435133333333 471.21522899999997 390.258771 471.547491 C 393.77017666666666 471.547491 397.28158233333335 471.547491 400.792988 471.547491 C 401.12740766666667 471.21522899999997 401.4618273333333 470.882967 401.796247 470.550705 C 401.796247 457.09409166666666 401.796247 443.6374783333333 401.796247 430.180865 C 401.629037 429.516341 401.461827 428.851817 401.294617 428.187293 C 401.62903666666665 427.0243756666667 401.96345633333334 425.8614583333333 402.297876 424.698541 C 403.133925 423.867886 403.969974 423.03723099999996 404.806023 422.206576 C 405.1404426666667 422.040445 405.4748623333333 421.874314 405.809282 421.708183 C 407.3141703333333 421.708183 408.81905866666665 421.708183 410.323947 421.708183 C 411.49441533333334 422.704969 412.66488366666664 423.701755 413.835352 424.698541 C 414.1697716666667 425.8614583333333 414.5041913333333 427.0243756666667 414.838611 428.187293 C 414.67140133333334 428.519555 414.50419166666666 428.851817 414.336982 429.184079 C 414.336982 442.97295433333335 414.336982 456.76182966666664 414.336982 470.550705 C 414.67140133333334 470.882967 415.00582066666664 471.21522899999997 415.34024 471.547491 C 418.851646 471.547491 422.363052 471.547491 425.874458 471.547491 C 426.2088776666667 471.0490976666666 426.5432973333333 470.55070433333333 426.877717 470.052311 C 426.710507 469.88617999999997 426.543297 469.720049 426.376087 469.553918 C 426.376087 456.76182900000003 426.376087 443.96974 426.376087 431.177651 C 426.543297 431.01152 426.710507 430.845389 426.877717 430.679258 C 426.710507 430.014734 426.543297 429.35021 426.376087 428.685686 C 426.543297 428.51955499999997 426.710507 428.353424 426.877717 428.187293 C 426.877717 427.35663800000003 426.877717 426.525983 426.877717 425.695328 C 428.21539533333333 424.3662796666667 429.5530736666667 423.03723133333335 430.890752 421.708183 C 432.39564 421.708183 433.900528 421.708183 435.405416 421.708183 C 436.74309466666665 423.03723133333335 438.08077333333335 424.3662796666667 439.418452 425.695328 C 439.418452 440.64712033333336 439.418452 455.59891266666665 439.418452 470.550705 C 439.75287133333336 470.882967 440.08729066666666 471.21522899999997 440.42171 471.547491 C 443.933116 471.547491 447.444522 471.547491 450.955928 471.547491 C 451.29034733333333 471.21522899999997 451.62476666666663 470.882967 451.959186 470.550705 C 451.959186 449.11980266666666 451.959186 427.6889003333333 451.959186 406.257998 C 451.7919763333333 406.09186666666665 451.6247666666667 405.92573533333336 451.457557 405.759604 C 451.6247666666667 405.09508 451.7919763333333 404.430556 451.959186 403.766032 C 451.7919763333333 403.599901 451.6247666666667 403.43377 451.457557 403.267639 C 388.419463 403.267639 325.381369 403.267639 262.343275 403.267639 C 261.00559633333336 402.270853 259.66791766666665 401.274067 258.330239 400.277281 C 257.99581966666665 399.61275666666666 257.66140033333335 398.94823233333335 257.326981 398.283708 C 257.326981 391.638467 257.326981 384.993226 257.326981 378.347985 C 247.127183 378.347985 236.927385 378.347985 226.727587 378.347985 Z M 404.304394 353.428331 C 410.65836633333333 365.389765 417.01233866666666 377.351199 423.366311 389.312633 C 423.7007306666667 389.644895 424.0351503333333 389.977157 424.36957 390.309419 C 429.218654 390.309419 434.067738 390.309419 438.916822 390.309419 C 438.916822 378.347985 438.916822 366.386551 438.916822 354.425117 C 439.08403200000004 354.258986 439.251242 354.092855 439.418452 353.926724 C 439.251242 353.760593 439.08403200000004 353.594462 438.916822 353.428331 C 427.379346 353.428331 415.84187000000003 353.428331 404.304394 353.428331 Z M 376.213148 330.003857 C 371.029644 339.97171833333334 365.84614 349.93957966666665 360.662636 359.907441 C 356.3151813333333 367.71559933333333 351.9677266666667 375.52375766666665 347.620272 383.331916 C 346.6170133333333 385.6577503333333 345.6137546666667 387.9835846666667 344.610496 390.309419 C 366.01335 390.309419 387.416204 390.309419 408.819058 390.309419 C 408.819058 389.977157 408.819058 389.644895 408.819058 389.312633 C 407.6485896666667 386.9867986666667 406.4781213333333 384.6609643333333 405.307653 382.33513 C 403.8027646666667 379.84316466666667 402.2978763333333 377.35119933333334 400.792988 374.859234 C 393.10133733333333 360.2397036666667 385.40968666666663 345.62017333333336 377.718036 331.000643 C 377.21640666666667 330.668381 376.7147773333333 330.336119 376.213148 330.003857 Z M 276.388898 328.508677 C 276.388898 335.153918 276.388898 341.799159 276.388898 348.4444 C 276.221688 348.6105313333333 276.054478 348.77666266666665 275.887268 348.942794 C 275.887268 350.437973 275.887268 351.933152 275.887268 353.428331 C 275.7200583333333 353.594462 275.5528486666667 353.760593 275.385639 353.926724 C 274.88400966666666 357.74773766666664 274.38238033333334 361.56875133333335 273.880751 365.389765 C 273.21191166666665 368.04786133333334 272.5430723333333 370.7059576666667 271.874233 373.364054 C 271.3726036666667 374.1947093333333 270.8709743333333 375.0253646666667 270.369345 375.85602 C 270.369345 380.67381966666665 270.369345 385.49161933333335 270.369345 390.309419 C 286.923115 390.309419 303.47688500000004 390.309419 320.030655 390.309419 C 320.030655 369.70917166666663 320.030655 349.10892433333333 320.030655 328.508677 C 305.4834026666667 328.508677 290.93615033333333 328.508677 276.388898 328.508677 Z M 169.541836 319.537602 C 164.19112233333334 336.81522866666666 158.84040866666666 354.0928553333333 153.489695 371.370482 C 153.82411466666667 371.536613 154.15853433333334 371.702744 154.492954 371.868875 C 164.69275166666665 371.868875 174.89254933333333 371.868875 185.092347 371.868875 C 185.42676666666665 371.702744 185.76118633333334 371.536613 186.095606 371.370482 C 185.92839633333332 370.705958 185.76118666666667 370.041434 185.593977 369.37691 C 181.58094166666666 356.917083 177.56790633333333 344.45725600000003 173.554871 331.997429 C 172.886032 329.3393326666667 172.21719299999998 326.68123633333335 171.548354 324.02314 C 171.04672466666665 322.5279606666667 170.54509533333334 321.03278133333333 170.043466 319.537602 C 169.87625599999998 319.537602 169.709046 319.537602 169.541836 319.537602 Z M 241.776469 282.158121 C 240.104371 284.3178243333333 238.432273 286.4775276666667 236.760175 288.637231 C 235.088077 291.2953273333333 233.415979 293.95342366666665 231.743881 296.61152 C 229.57015366666667 301.0970576666667 227.39642633333332 305.5825953333333 225.222699 310.068133 C 224.05223033333334 313.88914666666665 222.88176166666668 317.71016033333336 221.711293 321.531174 C 221.37687366666668 324.5215326666667 221.04245433333332 327.5118913333333 220.708035 330.50225 C 220.54082499999998 330.668381 220.373615 330.834512 220.206405 331.000643 C 220.206405 335.65231166666666 220.206405 340.30398033333336 220.206405 344.955649 C 220.373615 345.12178 220.54082499999998 345.287911 220.708035 345.454042 C 220.708035 347.11535233333336 220.708035 348.77666266666665 220.708035 350.437973 C 220.87524466666667 350.604104 221.04245433333332 350.770235 221.209664 350.936366 C 221.209664 352.099283 221.209664 353.2622 221.209664 354.425117 C 221.37687366666668 354.59124833333334 221.54408333333333 354.7573796666667 221.711293 354.923511 C 222.04571266666667 357.58160733333335 222.38013233333334 360.2397036666667 222.714552 362.8978 C 223.04897166666666 363.728455 223.38339133333335 364.55911000000003 223.717811 365.389765 C 235.92412633333333 365.389765 248.13044166666666 365.389765 260.336757 365.389765 C 261.0055963333333 362.23327566666666 261.6744356666667 359.07678633333336 262.343275 355.920297 C 262.5104846666667 353.42833133333335 262.6776943333333 350.93636566666663 262.844904 348.4444 C 263.01211366666666 348.27826899999997 263.17932333333334 348.112138 263.346533 347.946007 C 263.346533 341.466897 263.346533 334.98778699999997 263.346533 328.508677 C 263.01211366666666 327.34576 262.67769433333336 326.182843 262.343275 325.019926 C 262.343275 324.1892706666667 262.343275 323.3586153333333 262.343275 322.52796 C 261.00559633333336 318.2085533333333 259.66791766666665 313.8891466666667 258.330239 309.56974 C 256.32372166666664 305.41646433333335 254.31720433333334 301.2631886666667 252.310687 297.109913 C 249.96974966666667 293.4550306666667 247.62881233333334 289.8001483333333 245.287875 286.145266 C 244.11740633333335 284.81621766666666 242.94693766666666 283.4871693333333 241.776469 282.158121 Z M 417.346758 256.241681 C 414.5041913333333 259.2320393333334 411.6616246666667 262.22239766666667 408.819058 265.212756 C 406.8125406666667 267.8708526666667 404.8060233333333 270.52894933333334 402.799506 273.187046 C 401.46182733333336 275.3467493333333 400.12414866666666 277.5064526666667 398.78647 279.666156 C 396.9471623333333 283.48716966666666 395.1078546666667 287.3081833333333 393.268547 291.129197 C 392.5997076666667 293.122769 391.9308683333333 295.116341 391.262029 297.109913 C 390.7603996666667 299.60187866666666 390.2587703333333 302.0938443333333 389.757141 304.58581 C 389.757141 310.23426466666666 389.757141 315.88271933333334 389.757141 321.531174 C 389.924351 321.69730500000003 390.091561 321.863436 390.258771 322.029567 C 390.4259806666667 324.1892703333333 390.5931903333333 326.34897366666667 390.7604 328.508677 C 392.9341273333333 332.49582166666664 395.1078546666667 336.4829663333333 397.281582 340.470111 C 411.9960443333333 340.470111 426.7105066666667 340.470111 441.424969 340.470111 C 442.261018 337.14749066666667 443.097067 333.8248703333333 443.933116 330.50225 C 444.10032566666666 328.50867766666664 444.26753533333334 326.51510533333334 444.434745 324.521533 C 444.60195500000003 324.35540199999997 444.769165 324.189271 444.936375 324.02314 C 444.936375 322.5279606666667 444.936375 321.03278133333333 444.936375 319.537602 C 445.1035846666667 319.371471 445.2707943333333 319.20534000000004 445.438004 319.039209 C 445.438004 314.88593333333336 445.438004 310.7326576666667 445.438004 306.579382 C 445.2707943333333 306.413251 445.1035846666667 306.24712 444.936375 306.080989 C 444.6019553333333 303.42289266666666 444.2675356666667 300.7647963333333 443.933116 298.1067 C 442.76264733333335 294.78407933333335 441.59217866666665 291.46145866666666 440.42171 288.138838 C 438.41519266666666 284.31782433333336 436.40867533333335 280.49681066666665 434.402158 276.675797 C 431.894011 273.1870456666667 429.385864 269.6982943333333 426.877717 266.209543 C 424.70398933333337 263.71757733333334 422.53026166666666 261.2256116666667 420.356534 258.733646 C 419.35327533333333 257.90299100000004 418.3500166666667 257.072336 417.346758 256.241681 Z M 335.079537 253.749716 C 335.079537 254.081978 335.079537 254.41424 335.079537 254.746502 C 335.915586 255.90941899999999 336.751635 257.072336 337.587684 258.235253 C 338.75815266666666 260.5610873333333 339.92862133333335 262.8869216666667 341.09909 265.212756 C 342.10234866666667 268.0369836666667 343.1056073333333 270.8612113333333 344.108866 273.685439 C 344.44328566666667 276.1774043333333 344.7777053333333 278.6693696666667 345.112125 281.161335 C 345.27933466666667 281.327466 345.4465443333333 281.49359699999997 345.613754 281.659728 C 345.613754 285.48074166666663 345.613754 289.30175533333335 345.613754 293.122769 C 345.4465443333333 293.2889 345.27933466666667 293.455031 345.112125 293.621162 C 345.112125 295.11634133333337 345.112125 296.61152066666665 345.112125 298.1067 C 344.9449153333333 298.272831 344.7777056666667 298.438962 344.610496 298.605093 C 344.2760763333333 301.26318933333334 343.9416566666667 303.9212856666667 343.607237 306.579382 C 342.4367683333333 310.40039566666667 341.26629966666667 314.2214093333333 340.095831 318.042423 C 339.0925723333333 320.3682573333333 338.08931366666667 322.6940916666667 337.086055 325.019926 C 335.74837633333334 326.182843 334.41069766666664 327.34576 333.073019 328.508677 C 333.073019 346.78308999999996 333.073019 365.057503 333.073019 383.331916 C 345.613754 359.90744133333334 358.154489 336.48296666666664 370.695224 313.058492 C 371.3640633333333 312.227837 372.0329026666667 311.397182 372.701742 310.566527 C 373.87221066666666 310.06813366666665 375.04267933333335 309.56974033333336 376.213148 309.071347 C 376.213148 307.576168 376.213148 306.080989 376.213148 304.58581 C 376.38035766666667 304.419679 376.54756733333335 304.253548 376.714777 304.087417 C 376.714777 287.4743143333333 376.714777 270.8612116666667 376.714777 254.248109 C 376.54756733333335 254.081978 376.38035766666667 253.915847 376.213148 253.749716 C 362.5019443333333 253.749716 348.7907406666667 253.749716 335.079537 253.749716 Z M 291.43778 230.325241 C 286.42148599999996 234.31238566666667 281.405192 238.29953033333334 276.388898 242.286675 C 272.87749199999996 245.94155766666668 269.366086 249.59644033333333 265.85468 253.251323 C 263.34653299999997 256.7400743333333 260.838386 260.2288256666667 258.330239 263.717577 C 257.15977066666665 266.0434113333333 255.98930233333334 268.3692456666667 254.818834 270.69508 C 254.31720433333334 272.35639033333337 253.81557466666666 274.01770066666666 253.313945 275.679011 C 256.825351 280.829073 260.336757 285.979135 263.848163 291.129197 C 266.0218903333333 295.61473466666666 268.1956176666667 300.1002723333333 270.369345 304.58581 C 271.53981366666665 308.2406923333333 272.71028233333334 311.8955746666667 273.880751 315.550457 C 291.60498966666665 315.550457 309.32922833333333 315.550457 327.053467 315.550457 C 328.3911453333333 311.3971813333333 329.7288236666667 307.24390566666665 331.066502 303.09063 C 331.4009216666667 299.76800966666667 331.73534133333334 296.4453893333333 332.069761 293.122769 C 332.2369706666667 292.956638 332.40418033333333 292.790507 332.57139 292.624376 C 332.57139 289.30175533333335 332.57139 285.97913466666665 332.57139 282.656514 C 332.40418033333333 282.490383 332.2369706666667 282.324252 332.069761 282.158121 C 331.902551 280.49681066666665 331.735341 278.83550033333336 331.568131 277.17419 C 330.899292 275.18061766666665 330.230453 273.18704533333334 329.561614 271.193473 C 327.889516 268.03698366666663 326.217418 264.88049433333333 324.54532 261.724005 C 321.869963 258.23525333333333 319.194606 254.74650166666666 316.519249 251.25775 C 312.8406336666667 247.60286766666667 309.1620183333333 243.94798533333332 305.483403 240.293103 C 301.4703676666667 237.13661333333334 297.45733233333334 233.98012366666666 293.444297 230.823634 C 292.775458 230.657503 292.10661899999997 230.491372 291.43778 230.325241 Z M 351.633307 180.485933 C 350.128419 182.97789833333331 348.623531 185.46986366666667 347.118643 187.961829 C 338.42373333333336 204.40880066666665 329.72882366666664 220.85577233333333 321.033914 237.302744 C 322.03717266666666 238.46566133333332 323.04043133333334 239.62857866666667 324.04369 240.791496 C 343.941656 240.791496 363.839622 240.791496 383.737588 240.791496 C 382.73432933333333 238.46566166666668 381.73107066666665 236.13982733333333 380.727812 233.813993 C 379.05571399999997 230.98976533333334 377.383616 228.16553766666667 375.711518 225.34131 C 368.01986733333337 210.72177966666666 360.32821666666666 196.10224933333333 352.636566 181.482719 C 352.3021463333333 181.150457 351.9677266666667 180.818195 351.633307 180.485933 Z" fill="black" stroke="none" /></svg>