<?xml version='1.0' encoding='utf-8'?>
<svg xmlns="http://www.w3.org/2000/svg" xmlns:dc="http://purl.org/dc/elements/1.1/" xmlns:ns2="http://creativecommons.org/ns#" xmlns:rdf="http://www.w3.org/1999/02/22-rdf-syntax-ns#" width="576pt" height="576pt" viewBox="0 0 576 576" version="1.1">
 <metadata>
  <rdf:RDF>
   <ns2:Work>
    <dc:type rdf:resource="http://purl.org/dc/dcmitype/StillImage" />
    <dc:date>2025-06-05T11:15:32.160092</dc:date>
    <dc:format>image/svg+xml</dc:format>
    <dc:creator>
     <ns2:Agent>
      <dc:title>Matplotlib v3.7.5, https://matplotlib.org/</dc:title>
     </ns2:Agent>
    </dc:creator>
   </ns2:Work>
  </rdf:RDF>
 </metadata>
 <defs>
  <style type="text/css">*{stroke-linejoin: round; stroke-linecap: butt}</style>
 </defs>
 <defs>
  <clipPath id="p91547d1f55">
   <rect x="72" y="69.12" width="446.4" height="443.52" />
  </clipPath>
 </defs>
<path d="M 227.896002 232.265749 C 231.66281 232.15567533333333 235.429618 232.04560166666667 239.196426 231.935528 C 240.96904166666667 232.15567566666667 242.74165733333334 232.37582333333333 244.514273 232.595971 C 245.28979233333334 232.926192 246.06531166666667 233.256413 246.840831 233.586634 C 248.61344666666668 235.127666 250.38606233333334 236.668698 252.158678 238.20973 C 252.49104333333335 239.42054066666668 252.82340866666667 240.63135133333333 253.155774 241.842162 C 254.15287033333334 243.713415 255.14996666666667 245.584668 256.147063 247.455921 C 256.25785133333335 248.666732 256.36863966666664 249.877543 256.479428 251.088354 C 256.922582 252.07901733333333 257.365736 253.06968066666667 257.80889 254.060344 C 257.80889 258.35321866666663 257.80889 262.64609333333334 257.80889 266.938968 C 257.365736 267.709484 256.922582 268.48 256.479428 269.250516 C 256.36863966666664 270.13110566666666 256.25785133333335 271.01169533333336 256.147063 271.892285 C 255.260755 273.433317 254.374447 274.974349 253.488139 276.515381 C 253.37735066666667 277.1758233333333 253.26656233333333 277.8362656666667 253.155774 278.496708 C 250.386062 281.35862433333335 247.61635 284.22054066666664 244.846638 287.082457 C 241.07983000000002 288.73356266666667 237.313022 290.3846683333333 233.546214 292.035774 C 232.881483 292.14584766666667 232.21675199999999 292.25592133333333 231.552021 292.365995 C 230.88729033333334 292.80629 230.22255966666665 293.246585 229.557829 293.68688 C 228.33915566666667 293.9070273333333 227.1204823333333 294.1271746666667 225.901809 294.347322 C 224.239982 295.117838 222.57815499999998 295.888354 220.916328 296.65887 C 219.80844333333332 296.76894366666664 218.70055866666667 296.8790173333333 217.592674 296.989091 C 215.37690433333333 297.75960699999996 213.16113466666667 298.530123 210.945365 299.300639 C 207.28934533333333 300.071155 203.63332566666668 300.841671 199.977306 301.612187 C 199.977306 308.32668333333334 199.977306 315.04117966666666 199.977306 321.755676 C 200.08809466666668 325.0578873333333 200.19888333333333 328.36009866666666 200.309672 331.66231 C 200.64203733333335 333.42348933333335 200.97440266666666 335.18466866666665 201.306768 336.945848 C 201.41755633333332 342.3394596666667 201.52834466666667 347.7330713333333 201.639133 353.126683 C 201.30676766666664 354.11734633333333 200.97440233333333 355.1080096666667 200.642037 356.098673 C 200.08809466666665 356.6490416666667 199.53415233333334 357.19941033333333 198.98021 357.749779 C 198.09390233333335 358.08 197.20759466666667 358.410221 196.321287 358.740442 C 195.656556 358.6303683333333 194.991825 358.52029466666664 194.327094 358.410221 C 193.32999766666666 357.639705 192.33290133333333 356.869189 191.335805 356.098673 C 191.00343966666665 354.8878623333334 190.67107433333334 353.67705166666667 190.338709 352.466241 C 190.22792066666668 347.072629 190.11713233333333 341.67901700000004 190.006344 336.285405 C 189.67397833333334 335.0745943333333 189.34161266666666 333.8637836666667 189.009247 332.652973 C 188.89845866666667 319.774349 188.78767033333332 306.895725 188.676882 294.017101 C 188.34451666666666 291.4854056666667 188.01215133333335 288.95371033333333 187.679786 286.422015 C 187.56899733333333 280.80825566666664 187.45820866666668 275.19449633333335 187.34742 269.580737 C 186.904266 268.039705 186.46111199999999 266.498673 186.017958 264.957641 C 185.90716966666668 263.086388 185.79638133333333 261.21513500000003 185.685593 259.343882 C 185.35322766666667 257.91292366666664 185.02086233333335 256.48196533333333 184.688497 255.051007 C 184.57770833333333 252.849533 184.46691966666668 250.648059 184.356131 248.446585 C 183.91297733333334 245.804816 183.46982366666666 243.163047 183.02667 240.521278 C 183.13745833333334 239.64068833333334 183.24824666666666 238.76009866666666 183.359035 237.879509 C 184.023766 236.99891933333333 184.688497 236.11832966666668 185.353228 235.23774 C 186.01795866666666 234.90751866666668 186.68268933333334 234.57729733333332 187.34742 234.247076 C 188.34451633333333 234.247076 189.34161266666666 234.247076 190.338709 234.247076 C 190.781863 234.46722333333332 191.225017 234.68737066666668 191.668171 234.907518 C 192.22211333333334 235.45788666666667 192.77605566666665 236.00825533333335 193.329998 236.558624 C 193.66236333333333 237.32914 193.99472866666665 238.099656 194.327094 238.870172 C 195.988921 237.87950866666665 197.650748 236.88884533333334 199.312575 235.898182 C 201.30676766666667 235.23773966666667 203.30096033333334 234.57729733333332 205.295153 233.916855 C 206.95698 233.80678133333333 208.618807 233.69670766666667 210.280634 233.586634 C 211.83167266666666 233.146339 213.38271133333333 232.706044 214.93375 232.265749 C 219.25450066666667 232.265749 223.57525133333334 232.265749 227.896002 232.265749 Z M 220.583962 243.163047 C 218.58976966666668 243.27312066666667 216.59557733333332 243.38319433333334 214.601385 243.493268 C 213.715077 243.823489 212.828769 244.15371000000002 211.942461 244.483931 C 210.39142266666667 244.59400466666668 208.84038433333333 244.70407833333334 207.289346 244.814152 C 204.519634 246.13503666666668 201.749922 247.45592133333332 198.98021 248.776806 C 197.87232533333332 249.76746933333334 196.76444066666667 250.75813266666665 195.656556 251.748796 C 196.09970966666666 255.71144966666665 196.54286333333334 259.67410333333333 196.986017 263.636757 C 197.429171 264.84756766666663 197.87232500000002 266.05837833333334 198.315479 267.269189 C 198.537056 273.54339066666665 198.758633 279.8175923333333 198.98021 286.091794 C 199.201787 287.4126783333333 199.423364 288.73356266666667 199.644941 290.054447 C 200.30967166666665 290.054447 200.97440233333333 290.054447 201.639133 290.054447 C 202.303864 289.724226 202.968595 289.394005 203.633326 289.063784 C 204.74121066666666 288.95371033333333 205.84909533333334 288.84363666666667 206.95698 288.733563 C 207.73249933333332 288.293268 208.50801866666666 287.852973 209.283538 287.412678 C 211.72088433333332 286.97238333333337 214.15823066666667 286.53208866666665 216.595577 286.091794 C 217.481885 285.651499 218.368193 285.211204 219.254501 284.770909 C 221.02711666666667 284.33061433333336 222.79973233333334 283.89031966666664 224.572348 283.450025 C 226.455752 282.45936133333333 228.339156 281.4686976666666 230.22256 280.478034 C 231.99517566666665 280.0377393333333 233.76779133333332 279.59744466666666 235.540407 279.15715 C 236.64829166666667 278.60678133333334 237.75617633333331 278.05641266666663 238.864061 277.506044 C 239.75036866666667 276.6254543333333 240.63667633333333 275.7448646666667 241.522984 274.864275 C 242.6308686666667 273.10309566666666 243.73875333333334 271.34191633333336 244.846638 269.580737 C 245.511369 267.5994103333333 246.17610000000002 265.6180836666667 246.840831 263.636757 C 246.840831 261.325209 246.840831 259.013661 246.840831 256.702113 C 246.619254 256.371892 246.397677 256.041671 246.1761 255.71145 C 245.84373466666665 253.84019666666669 245.51136933333333 251.96894333333333 245.179004 250.09769 C 244.40348466666666 248.44658433333333 243.62796533333332 246.79547866666667 242.852446 245.144373 C 241.966138 244.483931 241.07983 243.823489 240.193522 243.163047 C 233.657002 243.163047 227.120482 243.163047 220.583962 243.163047 Z M 285.727585 231.605307 C 286.94625833333333 231.49523333333335 288.16493166666663 231.38515966666665 289.383605 231.275086 C 290.3807013333333 232.045602 291.37779766666665 232.816118 292.374894 233.586634 C 292.9288363333333 235.127666 293.48277866666666 236.668698 294.036721 238.20973 C 294.258298 240.30113033333333 294.479875 242.3925306666667 294.701452 244.483931 C 294.701452 249.21710066666668 294.701452 253.95027033333335 294.701452 258.68344 C 294.258298 261.8755776666667 293.815144 265.06771533333335 293.37199 268.259853 C 293.150413 277.28589700000003 292.928836 286.311941 292.707259 295.337985 C 292.26410533333336 296.879017 291.82095166666664 298.420049 291.377798 299.961081 C 290.82385566666665 300.51144966666664 290.26991333333336 301.06181833333335 289.715971 301.612187 C 288.608086 302.05248166666667 287.500201 302.4927763333333 286.392316 302.933071 C 285.2844313333333 302.60285 284.1765466666667 302.272629 283.068662 301.942408 C 282.29314266666665 300.9517446666667 281.51762333333335 299.9610813333333 280.742104 298.970418 C 280.742104 297.759607 280.742104 296.548796 280.742104 295.337985 C 280.963681 295.007764 281.185258 294.677543 281.406835 294.347322 C 281.406835 290.49474200000003 281.406835 286.642162 281.406835 282.789582 C 281.628412 281.4686976666667 281.849989 280.1478133333333 282.071566 278.826929 C 282.071566 274.86427533333335 282.071566 270.90162166666664 282.071566 266.938968 C 282.5147196666667 264.62742 282.95787333333334 262.315872 283.401027 260.004324 C 283.401027 254.390565 283.401027 248.776806 283.401027 243.163047 C 283.29023866666665 242.17238366666666 283.17945033333336 241.18172033333335 283.068662 240.191057 C 282.7362966666667 239.53061466666668 282.40393133333333 238.87017233333333 282.071566 238.20973 C 282.071566 237.10899266666667 282.071566 236.00825533333335 282.071566 234.907518 C 282.7362966666667 234.02692833333333 283.40102733333333 233.14633866666668 284.065758 232.265749 C 284.61970033333336 232.04560166666667 285.17364266666664 231.82545433333334 285.727585 231.605307 Z M 345.885727 226.982211 C 350.538843 226.982211 355.191959 226.982211 359.845075 226.982211 C 361.506902 227.97287433333335 363.168729 228.96353766666667 364.830556 229.954201 C 365.6060753333333 230.17434866666667 366.3815946666667 230.39449633333334 367.157114 230.614644 C 369.483672 233.03626566666668 371.81023 235.45788733333333 374.136788 237.879509 C 374.46915333333334 238.87017233333333 374.8015186666667 239.86083566666667 375.133884 240.851499 C 376.3525573333333 242.282457 377.5712306666667 243.713415 378.789904 245.144373 C 379.23305799999997 246.685405 379.676212 248.226437 380.119366 249.767469 C 379.78700033333337 252.73945933333334 379.45463466666666 255.71144966666668 379.122269 258.68344 C 379.78700000000003 260.00432433333333 380.451731 261.3252086666667 381.116462 262.646093 C 381.22725033333336 263.856904 381.33803866666665 265.067715 381.448827 266.278526 C 381.78119266666664 266.8288943333333 382.11355833333334 267.37926266666665 382.445924 267.929631 C 382.55671233333334 269.140442 382.6675006666666 270.351253 382.778289 271.562064 C 382.999866 271.892285 383.22144299999997 272.222506 383.44302 272.552727 C 383.7753853333333 278.3866336666667 384.1077506666667 284.2205403333333 384.440116 290.054447 C 384.440116 292.365995 384.440116 294.67754299999996 384.440116 296.989091 C 383.44301966666666 302.6028503333333 382.4459233333333 308.21660966666667 381.448827 313.830369 C 381.33803866666665 316.36206433333336 381.22725033333336 318.89375966666665 381.116462 321.425455 C 380.673308 322.96648666666664 380.23015399999997 324.50751833333334 379.787 326.04855 C 379.787 327.47950833333334 379.787 328.91046666666665 379.787 330.341425 C 379.23305766666664 332.212678 378.67911533333336 334.083931 378.125173 335.955184 C 377.46044233333333 337.2760686666667 376.7957116666667 338.5969533333333 376.130981 339.917838 C 374.026 342.11931200000004 371.921019 344.320786 369.816038 346.52226 C 366.9355376666667 348.9438816666667 364.0550373333333 351.3655033333333 361.174537 353.787125 C 359.845075 354.4475673333333 358.515613 355.1080096666667 357.186151 355.768452 C 355.63511266666666 355.8785256666667 354.0840743333333 355.98859933333335 352.533036 356.098673 C 351.7575166666667 356.42889433333335 350.9819973333333 356.7591156666667 350.206478 357.089337 C 348.4338623333333 357.089337 346.66124666666667 357.089337 344.888631 357.089337 C 343.3375923333333 356.649042 341.7865536666667 356.208747 340.235515 355.768452 C 338.35211100000004 354.7777886666667 336.468707 353.78712533333334 334.585303 352.796462 C 333.698995 352.68638833333335 332.812687 352.5763146666667 331.926379 352.466241 C 329.71060966666664 351.3655036666667 327.49484033333334 350.26476633333334 325.279071 349.164029 C 323.2848783333333 347.51292366666667 321.29068566666666 345.86181833333336 319.296493 344.210713 C 318.41018533333335 342.88982833333336 317.52387766666664 341.56894366666666 316.63757 340.248059 C 316.415993 339.14732200000003 316.194416 338.046585 315.972839 336.945848 C 316.08362733333337 336.06525833333336 316.19441566666666 335.18466866666665 316.305204 334.304079 C 316.969935 333.42348933333335 317.634666 332.54289966666664 318.299397 331.66231 C 318.9641276666667 331.33208866666666 319.6288583333333 331.00186733333334 320.293589 330.671646 C 321.29068533333333 330.671646 322.28778166666666 330.671646 323.284878 330.671646 C 324.2819743333333 331.442162 325.27907066666666 332.21267800000004 326.276167 332.983194 C 326.497744 333.75371 326.719321 334.524226 326.940898 335.294742 C 328.27035966666665 336.6156266666667 329.59982133333335 337.9365113333333 330.929283 339.257396 C 335.25003366666664 341.23872266666666 339.57078433333334 343.22004933333335 343.891535 345.201376 C 345.553362 345.4215233333333 347.215189 345.6416706666667 348.877016 345.861818 C 350.87120833333336 345.3114496666667 352.8654006666667 344.7610813333333 354.859593 344.210713 C 356.29984333333334 343.22004933333335 357.74009366666667 342.22938566666664 359.180344 341.238722 C 361.6176903333333 338.70702666666665 364.0550366666667 336.17533133333336 366.492383 333.643636 C 367.2679023333333 331.55223566666666 368.0434216666667 329.46083533333336 368.818941 327.369435 C 368.9297296666667 325.7183293333333 369.0405183333333 324.0672236666667 369.151307 322.416118 C 369.4836723333333 321.315381 369.81603766666666 320.21464399999996 370.148403 319.113907 C 370.2591913333333 316.362064 370.36997966666667 313.610221 370.480768 310.858378 C 370.81313366666666 309.64756733333337 371.14549933333336 308.43675666666667 371.477865 307.225946 C 371.58865333333335 304.914398 371.69944166666664 302.60285 371.81023 300.291302 C 372.253384 299.520786 372.69653800000003 298.75027 373.139692 297.979754 C 373.02890333333335 293.24658466666665 372.91811466666667 288.51341533333334 372.807326 283.780246 C 372.69653766666664 283.6701723333333 372.58574933333335 283.56009866666665 372.474961 283.450025 C 371.81023 284.11046699999997 371.14549900000003 284.770909 370.480768 285.431351 C 368.818941 287.412678 367.15711400000004 289.394005 365.495287 291.375332 C 363.61188300000003 292.58614266666666 361.728479 293.79695333333336 359.845075 295.007764 C 357.740094 295.22791133333334 355.635113 295.44805866666667 353.530132 295.668206 C 352.7546126666667 295.9984273333333 351.9790933333333 296.32864866666665 351.203574 296.65887 C 347.76913133333335 296.65887 344.33468866666664 296.65887 340.900246 296.65887 C 337.4658033333333 295.448059 334.03136066666667 294.23724799999997 330.596918 293.026437 C 329.04587933333335 291.595479 327.4948406666667 290.164521 325.943802 288.733563 C 324.39276333333333 286.20186766666666 322.84172466666666 283.67017233333337 321.290686 281.138477 C 321.06910899999997 280.0377396666667 320.847532 278.93700233333334 320.625955 277.836265 C 319.85043566666667 276.18515933333333 319.0749163333333 274.5340536666667 318.299397 272.882948 C 318.07782 271.2318423333333 317.856243 269.58073666666667 317.634666 267.929631 C 317.634666 263.52668266666666 317.634666 259.12373433333335 317.634666 254.720786 C 317.856243 252.849533 318.07782 250.97827999999998 318.299397 249.107027 C 318.85333933333334 247.67606866666665 319.4072816666667 246.24511033333334 319.961224 244.814152 C 321.29068566666666 242.942899 322.62014733333336 241.071646 323.949609 239.200393 C 326.497744 236.888845 329.045879 234.577297 331.594014 232.265749 C 333.477418 231.05493833333333 335.36082200000004 229.84412766666668 337.244226 228.633317 C 340.12472633333334 228.08294833333335 343.00522666666666 227.53257966666666 345.885727 226.982211 Z M 345.885727 237.879509 C 343.8915343333333 238.650025 341.89734166666665 239.42054100000001 339.903149 240.191057 C 338.7952643333333 241.07164666666668 337.6873796666667 241.95223633333333 336.579495 242.832826 C 335.360822 243.93356300000002 334.142149 245.0343 332.923476 246.135037 C 331.92637966666666 247.676069 330.92928333333333 249.21710099999999 329.932187 250.758133 C 329.59982133333335 251.74879633333333 329.26745566666665 252.73945966666665 328.93509 253.730123 C 328.93509 258.7935136666667 328.93509 263.8569043333333 328.93509 268.920295 C 330.3753403333333 272.4426536666667 331.81559066666665 275.96501233333333 333.255841 279.487371 C 334.1421486666666 280.4780343333333 335.02845633333334 281.4686976666667 335.914764 282.459361 C 336.9118603333333 283.00972966666666 337.90895666666665 283.56009833333337 338.906053 284.110467 C 340.56788033333333 284.5507616666667 342.2297076666666 284.99105633333335 343.891535 285.431351 C 345.66415033333334 285.431351 347.43676566666664 285.431351 349.209381 285.431351 C 351.64672766666666 284.99105633333335 354.0840743333333 284.5507616666667 356.521421 284.110467 C 359.29113266666667 281.35862433333335 362.0608443333333 278.6067816666667 364.830556 275.854939 C 365.6060753333333 273.103096 366.3815946666667 270.351253 367.157114 267.59941 C 367.157114 265.61808333333335 367.157114 263.63675666666666 367.157114 261.65543 C 366.0492293333333 260.4446193333333 364.9413446666667 259.2338086666667 363.83346 258.022998 C 363.5010946666667 257.1424083333333 363.1687293333333 256.26181866666667 362.836364 255.381229 C 362.836364 250.97828033333332 362.836364 246.57533166666667 362.836364 242.172383 C 362.171633 241.511941 361.506902 240.851499 360.842171 240.191057 C 359.29113233333334 239.42054100000001 357.74009366666667 238.650025 356.189055 237.879509 C 352.75461233333334 237.879509 349.32016966666663 237.879509 345.885727 237.879509 Z M 287.057047 210.140934 C 287.943355 210.03086033333332 288.82966300000004 209.92078666666666 289.715971 209.810713 C 290.49149 210.25100766666665 291.26700900000003 210.69130233333334 292.042528 211.131597 C 292.5964706666667 211.90211299999999 293.15041333333335 212.672629 293.704356 213.443145 C 293.704356 214.543882 293.704356 215.64461899999998 293.704356 216.745356 C 293.482779 217.18565099999998 293.261202 217.625946 293.039625 218.066241 C 292.04252866666667 218.836757 291.04543233333334 219.607273 290.048336 220.377789 C 288.71887433333336 220.26771533333334 287.38941266666666 220.15764166666668 286.059951 220.047568 C 285.5060086666667 219.60727300000002 284.95206633333333 219.166978 284.398124 218.726683 C 283.95497 217.956167 283.511816 217.185651 283.068662 216.415135 C 283.290239 215.09425066666665 283.511816 213.77336633333334 283.733393 212.452482 C 284.39812366666666 211.79203966666668 285.0628543333333 211.13159733333333 285.727585 210.471155 C 286.17073899999997 210.36108133333335 286.613893 210.25100766666665 287.057047 210.140934 Z" fill="black" stroke="none" /></svg>