<?xml version='1.0' encoding='utf-8'?>
<svg xmlns="http://www.w3.org/2000/svg" xmlns:dc="http://purl.org/dc/elements/1.1/" xmlns:ns2="http://creativecommons.org/ns#" xmlns:rdf="http://www.w3.org/1999/02/22-rdf-syntax-ns#" width="861.483717pt" height="576pt" viewBox="0 0 861.483717 576" version="1.1">
 <metadata>
  <rdf:RDF>
   <ns2:Work>
    <dc:type rdf:resource="http://purl.org/dc/dcmitype/StillImage" />
    <dc:date>2025-06-05T12:38:32.155126</dc:date>
    <dc:format>image/svg+xml</dc:format>
    <dc:creator>
     <ns2:Agent>
      <dc:title>Matplotlib v3.7.5, https://matplotlib.org/</dc:title>
     </ns2:Agent>
    </dc:creator>
   </ns2:Work>
  </rdf:RDF>
 </metadata>
 <defs>
  <style type="text/css">*{stroke-linejoin: round; stroke-linecap: butt}</style>
 </defs>
 <defs>
  <clipPath id="p8e4bdb2106">
   <rect x="107.685465" y="69.12" width="667.649881" height="443.52" />
  </clipPath>
 </defs>
<path d="M 474.90742 325.682864 C 475.87544933333334 325.57594266666666 476.84347866666667 325.46902133333333 477.811508 325.3621 C 478.6719786666667 325.68286366666666 479.5324493333333 326.0036273333333 480.39292 326.324391 C 481.14583166666665 327.07283966666665 481.89874333333336 327.8212883333333 482.651655 328.569737 C 482.97433133333334 329.21126466666664 483.2970076666667 329.85279233333335 483.619684 330.49432 C 483.619684 331.7773746666667 483.619684 333.06042933333333 483.619684 334.343484 C 483.4045663333333 334.8780903333333 483.1894486666667 335.41269666666665 482.974331 335.947303 C 482.436537 336.5888303333333 481.898743 337.2303576666667 481.360949 337.871885 C 480.39291966666667 338.40649133333335 479.42489033333334 338.9410976666667 478.456861 339.475704 C 477.166155 339.475704 475.875449 339.475704 474.584743 339.475704 C 473.93939 339.15494033333334 473.294037 338.8341766666667 472.648684 338.513413 C 471.68065466666667 337.33727933333336 470.71262533333334 336.16114566666664 469.744596 334.985012 C 469.63703733333335 333.701957 469.52947866666665 332.418902 469.42192 331.135847 C 469.74459633333333 330.38739833333335 470.06727266666667 329.63894966666663 470.389949 328.890501 C 471.2504196666667 328.035131 472.1108903333333 327.179761 472.971361 326.324391 C 473.616714 326.11054866666666 474.262067 325.8967063333333 474.90742 325.682864 Z M 352.613038 287.511981 C 354.65665566666667 287.40505966666666 356.70027333333337 287.2981383333333 358.743891 287.191217 C 360.14215566666667 287.40505966666666 361.5404203333334 287.6189023333333 362.938685 287.832745 C 365.41253800000004 289.00887866666665 367.886391 290.18501233333336 370.360244 291.361146 C 374.017244 293.82033433333334 377.67424400000004 296.2795226666667 381.331244 298.738711 C 383.052185 300.449451 384.773126 302.160191 386.494067 303.870931 C 387.35453766666666 305.3678283333333 388.2150083333333 306.8647256666667 389.075479 308.361623 C 389.075479 310.82081166666666 389.075479 313.28000033333336 389.075479 315.739189 C 388.430126 317.34300733333333 387.784773 318.94682566666665 387.13942 320.550644 C 386.494067 321.29909266666664 385.848714 322.04754133333336 385.203361 322.79599 C 384.020214 323.65136 382.837067 324.50673 381.65392 325.3621 C 379.3951846666667 328.462816 377.13644933333336 331.563532 374.877714 334.664248 C 374.33992 335.84038166666664 373.80212600000004 337.01651533333336 373.264332 338.192649 C 371.973626 339.048019 370.68292 339.903389 369.392214 340.758759 C 367.24103766666667 340.758759 365.0898613333334 340.758759 362.938685 340.758759 C 361.21774400000004 340.331074 359.496803 339.903389 357.775862 339.475704 C 354.97933233333333 338.4064916666667 352.1828026666667 337.3372793333333 349.386273 336.268067 C 345.94439066666666 334.34348466666665 342.50250833333337 332.41890233333334 339.060626 330.49432 C 337.877479 328.5697376666667 336.69433200000003 326.6451553333333 335.511185 324.720573 C 335.0809496666667 322.047542 334.6507143333333 319.374511 334.220479 316.70148 C 334.220479 312.745394 334.220479 308.789308 334.220479 304.833222 C 334.5431556666667 303.6570883333333 334.86583233333334 302.48095466666666 335.188509 301.304821 C 335.188509 299.3802386666667 335.188509 297.4556563333333 335.188509 295.531074 C 335.4036266666667 294.46186166666666 335.6187443333333 293.39264933333334 335.833862 292.323437 C 336.80189133333334 291.14730333333335 337.7699206666667 289.97116966666664 338.73795 288.795036 C 339.49086166666666 288.4742723333333 340.24377333333337 288.15350866666665 340.996685 287.832745 C 343.362979 288.0465873333333 345.72927300000003 288.26042966666665 348.095567 288.474272 C 348.9560376666667 288.1535083333333 349.81650833333333 287.83274466666666 350.676979 287.511981 C 351.322332 287.511981 351.967685 287.511981 352.613038 287.511981 Z M 354.22642 301.946348 C 353.36594966666667 302.267112 352.50547933333337 302.587876 351.645009 302.90864 C 350.999656 302.90864 350.354303 302.90864 349.70895 302.90864 C 349.49383233333333 303.5501673333333 349.2787146666667 304.19169466666665 349.063597 304.833222 C 349.063597 308.57546533333334 349.063597 312.31770866666665 349.063597 316.059952 C 349.2787146666667 317.23608566666667 349.49383233333333 318.4122193333333 349.70895 319.588353 C 351.429891 320.5506443333333 353.15083200000004 321.5129356666667 354.871773 322.475227 C 355.8398026666667 322.68906933333335 356.80783233333335 322.9029116666667 357.775862 323.116754 C 359.6043616666667 323.972124 361.43286133333334 324.827494 363.261361 325.682864 C 363.7991553333334 325.255179 364.33694966666667 324.827494 364.874744 324.399809 C 366.70324400000004 321.726778 368.531744 319.053747 370.360244 316.380716 C 371.6509496666667 315.097661 372.94165533333336 313.81460599999997 374.232361 312.531551 C 372.94165533333336 311.56926 371.6509496666667 310.606969 370.360244 309.644678 C 369.6073323333334 308.789308 368.85442066666667 307.933938 368.101509 307.078568 C 367.34859700000004 306.75780433333335 366.595685 306.4370406666667 365.842773 306.116277 C 365.0898613333334 305.4747496666667 364.33694966666667 304.8332223333333 363.584038 304.191695 C 361.8630966666667 303.443246 360.14215533333333 302.694797 358.421214 301.946348 C 357.0229493333334 301.946348 355.62468466666667 301.946348 354.22642 301.946348 Z M 280.010833 267.945394 C 280.4410683333333 267.8384726666667 280.8713036666667 267.73155133333336 281.301539 267.62463 C 283.02248 268.052315 284.743421 268.48 286.464362 268.907685 C 288.938215 269.01460633333335 291.412068 269.1215276666667 293.885921 269.228449 C 296.46733266666666 270.29766133333334 299.04874433333333 271.36687366666666 301.630156 272.436086 C 303.67377366666665 273.9329833333333 305.71739133333335 275.4298806666667 307.761009 276.926778 C 309.26683233333335 277.46138433333334 310.77265566666665 277.99599066666667 312.278479 278.530597 C 313.031391 279.27904566666666 313.784303 280.0274943333333 314.537215 280.775943 C 314.9674503333333 282.165919 315.3976856666667 283.555895 315.827921 284.945871 C 315.6128033333333 285.90816233333334 315.3976856666667 286.87045366666666 315.182568 287.832745 C 314.429656 288.795036 313.676744 289.75732700000003 312.923832 290.719618 C 312.06336166666665 291.147303 311.20289133333335 291.574988 310.342421 292.002673 C 309.589509 292.10959433333335 308.836597 292.2165156666667 308.083685 292.323437 C 305.717391 291.57498833333335 303.351097 290.82653966666663 300.984803 290.078091 C 300.23189133333335 289.4365633333333 299.47897966666665 288.79503566666665 298.726068 288.153508 C 296.14465633333333 286.65661066666667 293.56324466666666 285.15971333333334 290.981833 283.662816 C 289.045774 283.662816 287.109715 283.662816 285.173656 283.662816 C 285.281215 304.08477300000004 285.388774 324.50673 285.496333 344.928687 C 285.2812153333333 345.89097833333335 285.0660976666667 346.8532696666667 284.85098 347.815561 C 284.098068 348.777852 283.345156 349.740143 282.592244 350.702434 C 282.05445 351.023198 281.516656 351.343962 280.978862 351.664726 C 279.9032736666667 351.8785683333333 278.8276853333333 352.0924106666667 277.752097 352.306253 C 276.676509 351.98548933333336 275.60092099999997 351.66472566666664 274.525333 351.343962 C 273.4497446666667 350.1678283333333 272.3741563333333 348.99169466666666 271.298568 347.815561 C 270.97589166666666 345.8909786666667 270.6532153333333 343.9663963333333 270.330539 342.041814 C 270.330539 340.54491666666667 270.330539 339.04801933333334 270.330539 337.551122 C 269.685186 335.51961833333337 269.039833 333.48811466666666 268.39448 331.456611 C 268.286921 329.63895 268.17936199999997 327.821289 268.071803 326.003628 C 268.2869206666667 325.04133666666667 268.5020383333333 324.07904533333334 268.717156 323.116754 C 268.9322736666667 312.85231500000003 269.1473913333333 302.587876 269.362509 292.323437 C 269.7927443333333 287.084296 270.2229796666667 281.84515500000003 270.653215 276.606014 C 271.5136856666667 274.89527433333336 272.3741563333333 273.18453466666665 273.234627 271.473795 C 274.0950976666667 270.618425 274.9555683333333 269.763055 275.816039 268.907685 C 276.56895066666664 268.58692133333335 277.32186233333334 268.2661576666667 278.074774 267.945394 C 278.720127 267.945394 279.36548 267.945394 280.010833 267.945394 Z M 704.007712 266.662339 C 705.1908589999999 266.55541766666664 706.374006 266.4484963333333 707.557153 266.341575 C 708.310065 266.66233866666664 709.0629769999999 266.98310233333336 709.815889 267.303866 C 710.5688006666667 268.0523146666667 711.3217123333333 268.80076333333335 712.074624 269.549212 C 712.719977 270.72534566666667 713.36533 271.9014793333333 714.010683 273.077613 C 714.1182416666667 275.64372299999997 714.2258003333333 278.209833 714.333359 280.775943 C 713.5804473333333 285.5873986666667 712.8275356666667 290.3988543333333 712.074624 295.21031 C 712.719977 297.455656 713.36533 299.701002 714.010683 301.946348 C 714.9787123333333 303.657088 715.9467416666666 305.36782800000003 716.914771 307.078568 C 717.0223296666667 307.8270166666667 717.1298883333333 308.57546533333334 717.237447 309.323914 C 718.9583883333333 311.89002366666665 720.6793296666666 314.45613333333336 722.400271 317.022243 C 722.6153886666666 318.305298 722.8305063333333 319.588353 723.045624 320.871408 C 722.7229473333333 322.04754166666663 722.4002706666666 323.22367533333335 722.077594 324.399809 C 720.894447 325.46902133333333 719.7112999999999 326.53823366666666 718.528153 327.607446 C 717.6676823333333 327.82128866666665 716.8072116666666 328.0351313333333 715.946741 328.248974 C 714.8711529999999 328.0351313333333 713.795565 327.82128866666665 712.719977 327.607446 C 711.8595063333333 326.96591866666665 710.9990356666666 326.3243913333333 710.138565 325.682864 C 709.2780943333333 324.07904533333334 708.4176236666666 322.47522666666663 707.557153 320.871408 C 707.1269176666666 320.5506443333333 706.6966823333333 320.22988066666665 706.266447 319.909117 C 705.6210943333333 318.83990466666665 704.9757416666666 317.77069233333333 704.330389 316.70148 C 703.039683 318.30529866666666 701.748977 319.90911733333337 700.458271 321.512936 C 698.1995356666666 323.758282 695.9408003333333 326.003628 693.682065 328.248974 C 693.036712 329.3181863333333 692.391359 330.3873986666667 691.746006 331.456611 C 690.4553003333333 332.52582333333334 689.1645946666666 333.59503566666666 687.873889 334.664248 C 685.93783 335.091933 684.001771 335.519618 682.065712 335.947303 C 677.333124 336.374988 672.6005359999999 336.802673 667.867948 337.230358 C 667.0074773333333 337.230358 666.1470066666666 337.230358 665.286536 337.230358 C 663.99583 336.802673 662.705124 336.374988 661.414418 335.947303 C 660.3388299999999 334.985012 659.263242 334.022721 658.187654 333.06043 C 656.896948 331.45661133333334 655.606242 329.85279266666663 654.315536 328.248974 C 653.777742 326.965919 653.2399479999999 325.682864 652.702154 324.399809 C 652.4870363333333 322.36830533333335 652.2719186666666 320.33680166666664 652.056801 318.305298 C 651.7341243333333 317.55684933333333 651.4114476666666 316.80840066666667 651.088771 316.059952 C 650.9812123333332 314.242291 650.8736536666667 312.42463 650.766095 310.606969 C 650.3358596666666 308.896229 649.9056243333333 307.18548899999996 649.475389 305.474749 C 649.5829476666667 304.2986153333333 649.6905063333332 303.12248166666666 649.798065 301.946348 C 649.5829476666667 300.66329333333334 649.3678303333332 299.3802386666667 649.152713 298.097184 C 649.152713 291.468067 649.152713 284.83895 649.152713 278.209833 C 649.582948 276.7129356666667 650.0131829999999 275.2160383333333 650.443418 273.719141 C 651.19633 272.9706923333333 651.9492419999999 272.22224366666666 652.702154 271.473795 C 653.4550656666667 271.15303133333333 654.2079773333332 270.83226766666667 654.960889 270.511504 C 656.3591536666667 270.618425 657.7574183333332 270.725346 659.155683 270.832267 C 660.3388299999999 271.7945583333333 661.521977 272.75684966666665 662.705124 273.719141 C 663.1353593333333 275.10911699999997 663.5655946666666 276.499093 663.99583 277.889069 C 664.103389 286.97737466666666 664.2109479999999 296.0656803333333 664.318507 305.153986 C 664.6411833333333 307.39933199999996 664.9638596666666 309.644678 665.286536 311.890024 C 665.6092123333333 312.5315513333333 665.9318886666666 313.1730786666667 666.254565 313.814606 C 666.362124 315.31150333333335 666.4696829999999 316.80840066666667 666.577242 318.305298 C 667.3301536666667 319.6952743333333 668.0830653333333 321.0852506666667 668.835977 322.475227 C 670.8795946666667 322.3683056666667 672.9232123333333 322.26138433333335 674.96683 322.154463 C 676.7953299999999 321.83369933333336 678.62383 321.5129356666667 680.45233 321.192172 C 683.7866533333333 317.77069233333333 687.1209766666666 314.3492126666667 690.4553 310.927733 C 690.9930943333333 310.072363 691.5308886666667 309.216993 692.068683 308.361623 C 692.3913593333333 306.971647 692.7140356666666 305.581671 693.036712 304.191695 C 693.682065 303.1224823333333 694.327418 302.05326966666667 694.972771 300.984057 C 695.618124 298.9525536666667 696.263477 296.9210503333333 696.90883 294.889547 C 697.0163886666667 287.72582366666666 697.1239473333333 280.5621003333333 697.231506 273.398377 C 697.5541826666666 272.75684966666665 697.8768593333333 272.1153223333333 698.199536 271.473795 C 699.4902416666666 270.0838186666667 700.7809473333333 268.69384233333335 702.071653 267.303866 C 702.717006 267.0900236666667 703.362359 266.8761813333333 704.007712 266.662339 Z M 217.088921 210.849451 C 223.54245033333333 210.74252966666666 229.99597966666667 210.63560833333332 236.449509 210.528687 C 237.63265633333333 210.849451 238.81580366666668 211.170215 239.998951 211.490979 C 241.71989200000002 211.5979 243.440833 211.704821 245.161774 211.811742 C 247.74318566666668 213.30863933333333 250.32459733333334 214.80553666666668 252.906009 216.302434 C 254.734509 217.79933133333333 256.56300899999997 219.29622866666668 258.391509 220.793126 C 260.54268566666667 223.25231466666668 262.6938623333333 225.71150333333333 264.845039 228.170692 C 265.06015666666667 229.13298333333333 265.2752743333333 230.09527466666668 265.490392 231.057566 C 266.35086233333334 232.34062066666667 267.21133266666664 233.62367533333335 268.071803 234.90673 C 268.9322736666667 237.25899733333333 269.7927443333333 239.61126466666667 270.653215 241.963532 C 270.8683326666667 243.35350833333334 271.0834503333333 244.74348466666666 271.298568 246.133461 C 271.6212443333333 246.77498833333334 271.94392066666666 247.41651566666667 272.266597 248.058043 C 272.37415599999997 249.448019 272.481715 250.837995 272.589274 252.227971 C 272.1590386666667 254.68715966666667 271.7288033333333 257.1463483333333 271.298568 259.605537 C 270.54565633333334 261.10243433333335 269.79274466666664 262.59933166666667 269.039833 264.096229 C 266.458421 266.66233866666664 263.877009 269.22844833333335 261.295597 271.794558 C 257.96127366666667 273.932983 254.62695033333333 276.071408 251.292627 278.209833 C 250.001921 278.637518 248.711215 279.065203 247.420509 279.492888 C 243.871068 281.52439166666665 240.321627 283.55589533333335 236.772186 285.587399 C 235.15880366666667 286.01508366666667 233.54542133333334 286.44276833333333 231.932039 286.870453 C 230.748892 287.08429566666666 229.565745 287.2981383333333 228.382598 287.511981 C 224.94071566666668 287.511981 221.49883333333332 287.511981 218.056951 287.511981 C 216.98136266666666 287.1912173333333 215.90577433333334 286.87045366666666 214.830186 286.54969 C 214.39995066666665 288.9019573333333 213.96971533333334 291.2542246666667 213.53948 293.606492 C 213.43192133333332 298.524869 213.32436266666667 303.443246 213.216804 308.361623 C 212.89412733333333 309.43083533333333 212.57145066666666 310.50004766666666 212.248774 311.56926 C 212.14121533333332 321.5129353333333 212.03365666666667 331.4566106666667 211.926098 341.400286 C 211.06562733333334 342.683341 210.20515666666665 343.96639600000003 209.344686 345.249451 C 208.48421533333334 345.677136 207.62374466666665 346.104821 206.763274 346.532506 C 206.01036233333332 346.63942733333334 205.25745066666667 346.7463486666667 204.504539 346.85327 C 203.42895066666665 346.53250633333334 202.35336233333334 346.2117426666667 201.277774 345.890979 C 200.63242133333333 345.3563726666667 199.98706866666666 344.8217663333333 199.341716 344.28716 C 198.91148066666665 343.64563266666664 198.48124533333333 343.0041053333333 198.05101 342.362578 C 197.83589233333333 341.1864443333333 197.62077466666665 340.01031066666667 197.405657 338.834177 C 197.405657 329.8527926666667 197.405657 320.8714083333333 197.405657 311.890024 C 197.83589233333333 310.2862053333333 198.26612766666665 308.6823866666667 198.696363 307.078568 C 198.91148066666665 301.51866333333334 199.12659833333333 295.95875866666665 199.341716 290.398854 C 199.66439233333332 289.008878 199.98706866666666 287.618902 200.309745 286.228926 C 200.309745 284.62510733333335 200.309745 283.02128866666663 200.309745 281.41747 C 200.73998033333334 279.7067303333333 201.17021566666665 277.99599066666667 201.600451 276.285251 C 201.600451 274.4675896666667 201.600451 272.6499283333333 201.600451 270.832267 C 202.03068633333334 268.4799996666667 202.46092166666665 266.1277323333333 202.891157 263.775465 C 202.891157 258.857088 202.891157 253.93871099999998 202.891157 249.020334 C 203.32139233333334 247.09575166666667 203.75162766666665 245.17116933333332 204.181863 243.246587 C 204.181863 237.47284 204.181863 231.699093 204.181863 225.925346 C 204.612098 224.42844866666667 205.04233299999999 222.93155133333332 205.472568 221.434654 C 206.22548 220.68620533333333 206.97839199999999 219.93775666666667 207.731304 219.189308 C 208.376657 218.86854433333335 209.02201 218.54778066666665 209.667363 218.227017 C 209.667363 217.58548933333333 209.667363 216.94396166666667 209.667363 216.302434 C 209.99003933333333 215.55398533333334 210.31271566666666 214.80553666666665 210.635392 214.057088 C 211.38830366666667 213.30863933333333 212.14121533333332 212.56019066666667 212.894127 211.811742 C 213.64703866666667 211.49097833333335 214.39995033333332 211.17021466666665 215.152862 210.849451 C 215.798215 210.849451 216.443568 210.849451 217.088921 210.849451 Z M 219.02498 225.283819 C 218.91742133333332 231.485251 218.80986266666667 237.686683 218.702304 243.888115 C 218.37962733333333 245.278091 218.05695066666667 246.668067 217.734274 248.058043 C 217.62671533333332 253.404105 217.51915666666667 258.750167 217.411598 264.096229 C 217.08892133333333 266.0208113333333 216.76624466666667 267.9453936666667 216.443568 269.869976 C 217.088921 270.51150333333334 217.734274 271.15303066666667 218.379627 271.794558 C 219.34765633333333 272.115322 220.31568566666667 272.436086 221.283715 272.75685 C 223.65000933333334 272.75685 226.01630366666666 272.75685 228.382598 272.75685 C 229.24306833333333 272.5430073333333 230.10353866666668 272.32916466666666 230.964009 272.115322 C 234.728568 270.08381833333334 238.49312700000002 268.05231466666663 242.257686 266.020811 C 243.01059766666668 265.80696866666665 243.76350933333333 265.5931263333333 244.516421 265.379284 C 246.77515633333334 263.989308 249.03389166666668 262.599332 251.292627 261.209356 C 251.50774466666667 260.781671 251.72286233333335 260.353986 251.93798 259.926301 C 253.658921 258.32248233333337 255.379862 256.71866366666666 257.100803 255.114845 C 257.31592066666667 254.68716 257.5310383333333 254.259475 257.746156 253.83179 C 257.746156 252.97642000000002 257.746156 252.12105 257.746156 251.26568 C 257.5310383333333 250.94491633333334 257.31592066666667 250.62415266666667 257.100803 250.303389 C 256.8856853333333 248.592649 256.67056766666667 246.881909 256.45545 245.171169 C 254.84206766666665 241.74968933333332 253.22868533333335 238.32820966666668 251.615303 234.90673 C 250.86239133333333 233.94443900000002 250.1094796666667 232.982148 249.356568 232.019857 C 247.635627 230.62988066666668 245.91468600000002 229.23990433333333 244.193745 227.849928 C 243.22571533333334 227.315322 242.25768566666667 226.78071599999998 241.289656 226.24611 C 240.53674433333333 226.24611 239.78383266666668 226.24611 239.030921 226.24611 C 238.17045033333335 225.92534633333332 237.30997966666666 225.60458266666666 236.449509 225.283819 C 230.64133266666667 225.283819 224.83315633333333 225.283819 219.02498 225.283819 Z M 526.858331 202.188831 C 528.041478 202.08190966666666 529.2246250000001 201.97498833333333 530.407772 201.868067 C 531.1606836666667 202.18883066666666 531.9135953333333 202.50959433333333 532.666507 202.830358 C 533.4194190000001 203.57880666666665 534.172331 204.32725533333334 534.925243 205.075704 C 535.2479193333334 205.71723133333333 535.5705956666667 206.35875866666666 535.893272 207.000286 C 536.0008310000001 209.78023833333333 536.10839 212.56019066666667 536.215949 215.340143 C 536.5386253333334 216.40935533333334 536.8613016666667 217.47856766666666 537.183978 218.54778 C 537.2915366666667 222.39694466666666 537.3990953333333 226.24610933333332 537.506654 230.095274 C 538.2595660000001 233.83751766666666 539.012478 237.57976133333332 539.76539 241.322005 C 539.76539 244.20887833333333 539.76539 247.09575166666667 539.76539 249.982625 C 540.0880663333334 250.94491633333334 540.4107426666667 251.90720766666666 540.733419 252.869499 C 540.8409780000001 254.7940813333333 540.948537 256.71866366666666 541.056096 258.643246 C 541.4863310000001 260.46090699999996 541.916566 262.278568 542.346801 264.096229 C 542.5619186666667 266.8761813333333 542.7770363333334 269.6561336666667 542.992154 272.436086 C 542.8845953333333 277.03369933333335 542.7770366666667 281.63131266666664 542.669478 286.228926 C 545.3584486666667 279.172124 548.0474193333333 272.115322 550.73639 265.05852 C 552.56489 258.9640093333333 554.3933900000001 252.86949866666666 556.22189 246.774988 C 556.3294486666667 245.064248 556.4370073333333 243.353508 556.544566 241.642768 C 557.08236 239.50434333333334 557.6201540000001 237.36591866666666 558.157948 235.227494 C 559.5562130000001 230.95064433333334 560.954478 226.67379466666665 562.352743 222.396945 C 562.890537 221.32773266666666 563.4283310000001 220.25852033333334 563.966125 219.189308 C 564.611478 218.33393800000002 565.256831 217.478568 565.902184 216.623198 C 566.439978 215.233222 566.9777720000001 213.843246 567.515566 212.45327 C 569.2365073333334 210.314845 570.9574486666667 208.17642 572.67839 206.037995 C 573.4313016666667 205.71723133333333 574.1842133333333 205.39646766666667 574.937125 205.075704 C 576.2278306666667 205.075704 577.5185363333334 205.075704 578.809242 205.075704 C 579.5621540000001 205.39646766666667 580.315066 205.71723133333333 581.067978 206.037995 C 581.8208896666667 206.78644366666666 582.5738013333333 207.53489233333335 583.326713 208.283341 C 583.864507 209.67331733333333 584.4023010000001 211.06329366666668 584.940095 212.45327 C 585.0476540000001 218.86854433333335 585.155213 225.28381866666666 585.262772 231.699093 C 585.5854483333334 232.44754166666667 585.9081246666667 233.19599033333333 586.230801 233.944439 C 586.3383600000001 235.44133633333334 586.445919 236.93823366666666 586.553478 238.435131 C 586.9837133333334 239.82510733333334 587.4139486666667 241.2150836666667 587.844184 242.60506 C 588.381978 247.095752 588.9197720000001 251.586444 589.457566 256.077136 C 590.2104776666667 257.894797 590.9633893333333 259.712458 591.716301 261.530119 C 591.8238600000001 262.92009533333334 591.931419 264.31007166666666 592.038978 265.700048 C 592.8994483333333 268.907685 593.7599186666667 272.115322 594.620389 275.322959 C 594.7279480000001 276.8198566666667 594.835507 278.31675433333334 594.943066 279.813652 C 595.2657423333334 280.4551793333333 595.5884186666667 281.09670666666665 595.911095 281.738234 C 596.1262126666667 283.44897366666663 596.3413303333334 285.15971333333334 596.556448 286.870453 C 598.492507 292.109594 600.428566 297.348735 602.364625 302.587876 C 603.3326543333334 299.16639633333335 604.3006836666667 295.74491666666665 605.268713 292.323437 C 606.45186 289.43656333333337 607.6350070000001 286.54968966666667 608.818154 283.662816 C 608.9257126666668 282.5936036666667 609.0332713333333 281.5243913333333 609.14083 280.455179 C 609.786183 278.637518 610.431536 276.819857 611.076889 275.002196 C 611.722242 271.25995233333333 612.367595 267.5177086666667 613.012948 263.775465 C 614.303654 260.567828 615.59436 257.360191 616.885066 254.152554 C 616.9926246666668 253.08334133333335 617.1001833333333 252.01412866666666 617.207742 250.944916 C 618.390889 247.20267266666667 619.5740360000001 243.46042933333334 620.757183 239.718186 C 621.0798596666667 237.36591866666666 621.4025363333334 235.01365133333334 621.725213 232.661384 C 622.8008010000001 229.560668 623.876389 226.45995200000002 624.951977 223.359236 C 625.59733 222.39694500000002 626.242683 221.434654 626.888036 220.472363 C 626.888036 219.83083533333334 626.888036 219.18930766666665 626.888036 218.54778 C 627.533389 217.47856766666666 628.178742 216.40935533333334 628.824095 215.340143 C 629.2543303333334 213.20171833333333 629.6845656666667 211.06329366666668 630.114801 208.924869 C 630.652595 207.74873533333334 631.190389 206.57260166666666 631.728183 205.396468 C 632.481095 204.64801933333334 633.2340069999999 203.89957066666665 633.986919 203.151122 C 634.7398306666666 202.83035833333332 635.4927423333332 202.50959466666666 636.245654 202.188831 C 637.6439186666667 202.295752 639.0421833333332 202.402673 640.440448 202.509594 C 641.6235949999999 203.47188533333332 642.806742 204.43417666666667 643.989889 205.396468 C 644.4201243333333 206.786444 644.8503596666666 208.17642 645.280595 209.566396 C 644.8503596666666 212.02558466666667 644.4201243333333 214.48477333333332 643.989889 216.943962 C 642.9143006666666 219.83083533333334 641.8387123333333 222.71770866666665 640.763124 225.604582 C 639.579977 227.84992833333334 638.3968299999999 230.09527466666665 637.213683 232.340621 C 635.7078596666666 239.076659 634.2020363333332 245.812697 632.696213 252.548735 C 630.867713 257.787876 629.039213 263.027017 627.210713 268.266158 C 626.6729186666668 270.40458266666667 626.1351243333334 272.5430073333333 625.59733 274.681432 C 625.4897713333334 276.2852506666666 625.3822126666668 277.88906933333334 625.274654 279.492888 C 622.5856833333333 287.29813866666666 619.8967126666668 295.1033893333333 617.207742 302.90864 C 616.7775066666667 305.7955133333333 616.3472713333334 308.6823866666667 615.917036 311.56926 C 615.4868006666667 312.6384723333333 615.0565653333334 313.7076846666667 614.62633 314.776897 C 614.62633 317.98453433333333 614.62633 321.1921716666667 614.62633 324.399809 C 614.4112123333334 325.789785 614.1960946666667 327.179761 613.980977 328.569737 C 613.3356243333334 329.85279199999997 612.6902716666667 331.135847 612.044919 332.418902 C 611.1844483333334 333.16735066666666 610.3239776666667 333.9157993333333 609.463507 334.664248 C 607.8501246666667 334.98501166666665 606.2367423333334 335.3057753333333 604.62336 335.626539 C 603.7628893333334 335.41269666666665 602.9024186666667 335.1988543333333 602.041948 334.985012 C 601.1814773333334 334.34348466666665 600.3210066666667 333.7019573333333 599.460536 333.06043 C 599.030301 332.41890233333334 598.6000660000001 331.7773746666667 598.169831 331.135847 C 597.416919 329.1043436666667 596.6640070000001 327.0728403333333 595.911095 325.041337 C 595.265742 324.185967 594.620389 323.330597 593.975036 322.475227 C 593.2221243333333 320.01603833333337 592.4692126666667 317.55684966666666 591.716301 315.097661 C 590.8558303333334 313.49384233333336 589.9953596666667 311.89002366666665 589.134889 310.286205 C 588.2744186666667 307.5062526666667 587.4139483333333 304.7263003333333 586.553478 301.946348 C 586.1232426666667 301.30482066666667 585.6930073333334 300.66329333333334 585.262772 300.021766 C 584.2947426666667 297.2418136666667 583.3267133333334 294.46186133333333 582.358684 291.681909 C 582.251125 290.07809033333336 582.1435660000001 288.47427166666665 582.036007 286.870453 C 581.4982130000001 285.3735556666667 580.960419 283.8766583333333 580.422625 282.379761 C 580.315066 280.5621 580.2075070000001 278.744439 580.099948 276.926778 C 579.2394776666667 273.93298333333337 578.3790073333333 270.93918866666667 577.518537 267.945394 C 577.410978 266.5554176666667 577.3034190000001 265.1654413333333 577.19586 263.775465 C 576.550507 262.385489 575.905154 260.995513 575.259801 259.605537 C 574.7220070000001 254.794081 574.184213 249.982625 573.646419 245.171169 C 573.1086250000001 243.353508 572.570831 241.535847 572.033037 239.718186 C 571.7103603333334 240.68047733333333 571.3876836666667 241.64276866666668 571.065007 242.60506 C 570.8498893333334 245.06424833333335 570.6347716666667 247.52343666666667 570.419654 249.982625 C 568.3760363333333 256.7186633333333 566.3324186666667 263.45470166666667 564.288801 270.19074 C 559.8788893333334 281.52439166666665 555.4689776666667 292.85804333333334 551.059066 304.191695 C 550.3061543333333 307.50625333333335 549.5532426666667 310.82081166666666 548.800331 314.13537 C 548.692772 316.808401 548.5852130000001 319.48143200000004 548.477654 322.154463 C 547.8323013333334 324.1859666666667 547.1869486666667 326.2174703333333 546.541596 328.248974 C 545.4660076666667 329.53202866666663 544.3904193333334 330.81508333333335 543.314831 332.098138 C 541.9165663333333 332.63274433333333 540.5183016666667 333.16735066666666 539.120037 333.701957 C 537.829331 333.38119333333333 536.538625 333.06042966666666 535.247919 332.739666 C 534.1723306666667 331.56353233333334 533.0967423333334 330.3873986666667 532.021154 329.211265 C 531.2682423333333 325.682864 530.5153306666667 322.154463 529.762419 318.626062 C 529.762419 315.3115036666667 529.762419 311.9969453333333 529.762419 308.682387 C 529.4397426666667 307.827017 529.1170663333334 306.971647 528.79439 306.116277 C 528.4717133333334 302.587876 528.1490366666667 299.059475 527.82636 295.531074 C 527.9339190000001 287.2981383333333 528.041478 279.06520266666666 528.149037 270.832267 C 527.9339193333334 268.3730786666667 527.7188016666666 265.9138903333333 527.503684 263.454702 C 526.7507723333333 259.070931 525.9978606666667 254.68716 525.244949 250.303389 C 525.244949 247.73727933333333 525.244949 245.17116966666669 525.244949 242.60506 C 524.492037 238.54205266666668 523.7391250000001 234.47904533333332 522.986213 230.416038 C 522.8786543333333 226.99455833333332 522.7710956666667 223.57307866666667 522.663537 220.151599 C 522.2333016666666 218.440859 521.8030663333334 216.730119 521.372831 215.019379 C 521.372831 213.201718 521.372831 211.38405699999998 521.372831 209.566396 C 521.5879486666666 208.49718366666667 521.8030663333334 207.42797133333332 522.018184 206.358759 C 522.9862133333334 205.18262533333333 523.9542426666667 204.00649166666665 524.922272 202.830358 C 525.567625 202.61651566666666 526.212978 202.40267333333333 526.858331 202.188831 Z M 422.956508 194.811265 C 426.18327266666665 194.811265 429.4100373333333 194.811265 432.636802 194.811265 C 436.1862433333333 196.73584733333334 439.73568466666666 198.66042966666666 443.285126 200.585012 C 444.57583166666666 201.868067 445.8665373333333 203.15112200000002 447.157243 204.434177 C 448.6630666666667 205.50338933333333 450.1688903333333 206.57260166666669 451.674714 207.641814 C 453.18053733333335 209.24563266666667 454.68636066666664 210.84945133333335 456.192184 212.45327 C 456.6224193333333 213.20171866666666 457.0526546666667 213.95016733333333 457.48289 214.698616 C 458.773596 215.87474966666664 460.064302 217.05088333333333 461.355008 218.227017 C 461.892802 219.72391433333334 462.430596 221.22081166666666 462.96839 222.717709 C 462.7532723333333 223.78692133333334 462.5381546666667 224.85613366666666 462.323037 225.925346 C 461.57012533333335 226.88763733333332 460.81721366666665 227.84992866666667 460.064302 228.81222 C 458.66603733333335 229.346826 457.26777266666664 229.881432 455.869508 230.416038 C 454.7939196666667 230.20219566666665 453.7183313333333 229.98835333333332 452.642743 229.774511 C 450.814243 228.17069233333334 448.985743 226.56687366666665 447.157243 224.963055 C 445.54386066666666 222.82462999999998 443.9304783333333 220.686205 442.317096 218.54778 C 440.3810373333333 217.157804 438.44497866666666 215.76782799999998 436.50892 214.377852 C 436.0786846666667 213.84324566666666 435.6484493333333 213.30863933333333 435.218214 212.774033 C 433.06703766666664 211.59789933333334 430.91586133333334 210.42176566666666 428.764685 209.245632 C 428.764685 210.42176566666666 428.764685 211.59789933333334 428.764685 212.774033 C 428.97980266666667 213.094797 429.1949203333333 213.415561 429.410038 213.736325 C 429.62515533333334 215.44706466666668 429.84027266666664 217.15780433333333 430.05539 218.868544 C 429.94783133333334 235.44133633333334 429.84027266666664 252.0141286666667 429.732714 268.586921 C 433.282155 268.159236 436.831596 267.731551 440.381037 267.303866 C 446.40433133333335 267.303866 452.42762566666664 267.303866 458.45092 267.303866 C 458.8811553333333 267.0900236666667 459.3113906666667 266.8761813333333 459.741626 266.662339 C 461.13989066666664 266.662339 462.53815533333335 266.662339 463.93642 266.662339 C 464.68933166666665 266.98310266666664 465.44224333333335 267.30386633333336 466.195155 267.62463 C 466.94806666666665 268.3730786666667 467.70097833333335 269.12152733333335 468.45389 269.869976 C 468.77656666666667 270.51150333333334 469.09924333333333 271.15303066666667 469.42192 271.794558 C 469.42192 273.077613 469.42192 274.36066800000003 469.42192 275.643723 C 468.9916846666667 276.499093 468.5614493333333 277.354463 468.131214 278.209833 C 466.302714 279.38596666666666 464.474214 280.5621003333333 462.645714 281.738234 C 454.686361 281.8451553333333 446.727008 281.95207666666664 438.767655 282.058998 C 437.26183166666664 282.165919 435.75600833333334 282.27284 434.250185 282.379761 C 433.06703766666664 282.80744599999997 431.88389033333334 283.235131 430.700743 283.662816 C 430.9158606666667 291.574988 431.1309783333333 299.48716 431.346096 307.399332 C 431.5612136666667 310.7138903333333 431.7763313333333 314.0284486666667 431.991449 317.343007 C 432.31412566666665 318.7329833333333 432.6368023333333 320.1229596666667 432.959479 321.512936 C 432.959479 323.865203 432.959479 326.21747 432.959479 328.569737 C 432.7443613333333 329.5320283333333 432.5292436666667 330.4943196666667 432.314126 331.456611 C 431.668773 332.739666 431.02342 334.022721 430.378067 335.305776 C 429.62515533333334 335.9473033333333 428.87224366666663 336.5888306666667 428.119332 337.230358 C 427.04374366666667 337.5511216666667 425.9681553333333 337.87188533333335 424.892567 338.192649 C 423.601861 337.87188533333335 422.311155 337.5511216666667 421.020449 337.230358 C 420.3750963333333 336.6957516666667 419.72974366666665 336.1611453333333 419.084391 335.626539 C 418.54659666666663 334.664248 418.00880233333334 333.701957 417.471008 332.739666 C 417.68612566666667 328.9974226666667 417.9012433333333 325.25517933333333 418.116361 321.512936 C 417.79368466666665 320.22988100000003 417.4710083333333 318.946826 417.148332 317.663771 C 416.71809666666667 307.61317433333335 416.2878613333333 297.56257766666664 415.857626 287.511981 C 413.81400833333333 288.0465873333333 411.77039066666663 288.58119366666665 409.726773 289.1158 C 407.46803766666665 289.222721 405.2093023333333 289.329642 402.950567 289.436563 C 402.0900963333333 289.22272066666665 401.22962566666666 289.0088783333333 400.369155 288.795036 C 399.7238023333333 288.367351 399.07844966666664 287.939666 398.433097 287.511981 C 397.680185 286.33584733333333 396.92727299999996 285.1597136666667 396.174361 283.98358 C 396.28191999999996 282.4866826666667 396.389479 280.9897853333333 396.497038 279.492888 C 397.4650673333333 278.31675433333334 398.43309666666664 277.1406206666667 399.401126 275.964487 C 400.1540376666666 275.64372333333336 400.90694933333333 275.3229596666667 401.659861 275.002196 C 403.488361 274.8952746666667 405.31686099999996 274.7883533333333 407.145361 274.681432 C 409.29653766666667 274.253747 411.4477143333333 273.826062 413.598891 273.398377 C 414.24424366666665 273.0776133333333 414.8895963333333 272.75684966666665 415.534949 272.436086 C 415.3198313333333 271.153031 415.10471366666667 269.869976 414.889596 268.586921 C 414.99715499999996 251.80028633333333 415.104714 235.01365166666668 415.212273 218.227017 C 414.8895963333333 217.69241066666666 414.56691966666665 217.15780433333333 414.244243 216.623198 C 414.13668433333333 215.767828 414.02912566666663 214.912458 413.921567 214.057088 C 413.921567 210.74252966666666 413.921567 207.42797133333335 413.921567 204.113413 C 414.459361 202.18883066666666 414.99715499999996 200.26424833333334 415.534949 198.339666 C 416.71809633333334 197.37737466666667 417.90124366666663 196.4150833333333 419.084391 195.452792 C 420.37509666666665 195.23894966666666 421.6658023333333 195.02510733333332 422.956508 194.811265 Z" fill="black" stroke="none" /></svg>