<?xml version="1.0" ?>
<svg xmlns="http://www.w3.org/2000/svg" version="1.1" width="600" height="600">
  <defs/>
  <g>
    <path stroke-width="0" fill="rgb(0, 0, 0)" opacity="1.0" d="M 212.75405883789062 218.734619140625 C 218.63970947265625 218.5625 224.52532958984375 218.390625 230.41098022460938 218.2186279296875 C 233.18069458007812 218.5625 235.95040893554688 218.906494140625 238.7200927734375 219.25048828125 C 239.931884765625 219.7664794921875 241.14361572265625 220.282470703125 242.35537719726562 220.7984619140625 C 245.12509155273438 223.206298828125 247.894775390625 225.6142578125 250.66448974609375 228.02197265625 C 251.18380737304688 229.9139404296875 251.70315551757812 231.8057861328125 252.22247314453125 233.69775390625 C 253.78042602539062 236.62158203125 255.33837890625 239.54541015625 256.8963623046875 242.46923828125 C 257.0694580078125 244.361083984375 257.2425842285156 246.2529296875 257.4156799316406 248.1448974609375 C 258.10809326171875 249.6927490234375 258.8005065917969 251.24072265625 259.49298095703125 252.78857421875 C 259.49298095703125 259.4962158203125 259.49298095703125 266.203857421875 259.49298095703125 272.9114990234375 C 258.8005065917969 274.1153564453125 258.10809326171875 275.3193359375 257.4156799316406 276.5233154296875 C 257.2425842285156 277.899169921875 257.0694580078125 279.275146484375 256.8963623046875 280.6510009765625 C 255.51150512695312 283.058837890625 254.12664794921875 285.466796875 252.74179077148438 287.8746337890625 C 252.56866455078125 288.906494140625 252.39556884765625 289.9384765625 252.22247314453125 290.970458984375 C 247.894775390625 295.442138671875 243.56710815429688 299.9139404296875 239.23944091796875 304.3857421875 C 233.35382080078125 306.965576171875 227.46817016601562 309.54541015625 221.58251953125 312.125244140625 C 220.54388427734375 312.2972412109375 219.5052490234375 312.46923828125 218.46658325195312 312.6412353515625 C 217.42794799804688 313.3292236328125 216.38931274414062 314.01708984375 215.35067749023438 314.705078125 C 213.44650268554688 315.049072265625 211.54232788085938 315.39306640625 209.63815307617188 315.737060546875 C 207.04153442382812 316.94091796875 204.4449462890625 318.1448974609375 201.84832763671875 319.348876953125 C 200.11724853515625 319.520751953125 198.38619995117188 319.69287109375 196.65512084960938 319.86474609375 C 193.1929931640625 321.0687255859375 189.7308349609375 322.272705078125 186.2686767578125 323.4765625 C 180.55618286132812 324.6805419921875 174.84365844726562 325.884521484375 169.131103515625 327.08837890625 C 169.131103515625 337.579833984375 169.131103515625 348.0711669921875 169.131103515625 358.5626220703125 C 169.30419921875 363.7222900390625 169.47732543945312 368.882080078125 169.65042114257812 374.041748046875 C 170.16976928710938 376.79345703125 170.68905639648438 379.54541015625 171.2083740234375 382.2972412109375 C 171.38150024414062 390.7247314453125 171.55462646484375 399.1522216796875 171.72769165039062 407.579833984375 C 171.2083740234375 409.127685546875 170.68905639648438 410.675537109375 170.16976928710938 412.2235107421875 C 169.30419921875 413.08349609375 168.43865966796875 413.943359375 167.57315063476562 414.803466796875 C 166.18829345703125 415.3193359375 164.80343627929688 415.8353271484375 163.4185791015625 416.351318359375 C 162.37994384765625 416.1793212890625 161.34127807617188 416.00732421875 160.30264282226562 415.8353271484375 C 158.74468994140625 414.63134765625 157.18673706054688 413.427490234375 155.62875366210938 412.2235107421875 C 155.10943603515625 410.33154296875 154.59011840820312 408.439697265625 154.07080078125 406.5478515625 C 153.897705078125 398.120361328125 153.72457885742188 389.69287109375 153.55148315429688 381.2652587890625 C 153.03216552734375 379.373291015625 152.51284790039062 377.4814453125 151.99349975585938 375.589599609375 C 151.82040405273438 355.466796875 151.64730834960938 335.3438720703125 151.47418212890625 315.2210693359375 C 150.95486450195312 311.2652587890625 150.435546875 307.3095703125 149.91622924804688 303.353759765625 C 149.74313354492188 294.582275390625 149.57000732421875 285.810791015625 149.39691162109375 277.039306640625 C 148.7044677734375 274.63134765625 148.01205444335938 272.2235107421875 147.31964111328125 269.815673828125 C 147.14651489257812 266.891845703125 146.97341918945312 263.968017578125 146.80029296875 261.044189453125 C 146.28097534179688 258.808349609375 145.76165771484375 256.5723876953125 145.24234008789062 254.3365478515625 C 145.06924438476562 250.896728515625 144.8961181640625 247.4569091796875 144.7230224609375 244.01708984375 C 144.03060913085938 239.889404296875 143.33816528320312 235.7615966796875 142.645751953125 231.6337890625 C 142.81884765625 230.2579345703125 142.991943359375 228.8819580078125 143.16506958007812 227.506103515625 C 144.20370483398438 226.130126953125 145.24234008789062 224.7542724609375 146.28097534179688 223.3782958984375 C 147.31964111328125 222.8623046875 148.3582763671875 222.346435546875 149.39691162109375 221.830322265625 C 150.95486450195312 221.830322265625 152.51284790039062 221.830322265625 154.07080078125 221.830322265625 C 154.76321411132812 222.17431640625 155.45565795898438 222.518310546875 156.1480712890625 222.8623046875 C 157.01361083984375 223.7222900390625 157.879150390625 224.582275390625 158.74468994140625 225.442138671875 C 159.26400756835938 226.6461181640625 159.7833251953125 227.85009765625 160.30264282226562 229.053955078125 C 162.89926147460938 227.506103515625 165.495849609375 225.9581298828125 168.09246826171875 224.4102783203125 C 171.2083740234375 223.3782958984375 174.32431030273438 222.346435546875 177.44024658203125 221.314453125 C 180.036865234375 221.1424560546875 182.63345336914062 220.970458984375 185.23007202148438 220.7984619140625 C 187.65353393554688 220.1104736328125 190.07705688476562 219.4224853515625 192.50054931640625 218.734619140625 C 199.251708984375 218.734619140625 206.00289916992188 218.734619140625 212.75405883789062 218.734619140625M 201.32901000976562 235.7615966796875 C 198.21307373046875 235.93359375 195.09716796875 236.1055908203125 191.98123168945312 236.277587890625 C 190.59637451171875 236.79345703125 189.21151733398438 237.3095703125 187.82666015625 237.825439453125 C 185.40316772460938 237.9974365234375 182.97964477539062 238.16943359375 180.55618286132812 238.3414306640625 C 176.22848510742188 240.4052734375 171.90081787109375 242.46923828125 167.57315063476562 244.5330810546875 C 165.84207153320312 246.0810546875 164.11099243164062 247.62890625 162.37994384765625 249.1767578125 C 163.07235717773438 255.3685302734375 163.76480102539062 261.56005859375 164.45721435546875 267.751708984375 C 165.14962768554688 269.6436767578125 165.84207153320312 271.5355224609375 166.53448486328125 273.427490234375 C 166.8807373046875 283.23095703125 167.2269287109375 293.0343017578125 167.57315063476562 302.8377685546875 C 167.91934204101562 304.901611328125 168.26559448242188 306.965576171875 168.61178588867188 309.0294189453125 C 169.65042114257812 309.0294189453125 170.68905639648438 309.0294189453125 171.72769165039062 309.0294189453125 C 172.766357421875 308.513427734375 173.80499267578125 307.9974365234375 174.84365844726562 307.4814453125 C 176.57470703125 307.3095703125 178.30575561523438 307.137451171875 180.036865234375 306.965576171875 C 181.24859619140625 306.277587890625 182.46035766601562 305.589599609375 183.67208862304688 304.901611328125 C 187.48043823242188 304.213623046875 191.288818359375 303.525634765625 195.09716796875 302.8377685546875 C 196.48202514648438 302.1497802734375 197.86688232421875 301.4619140625 199.251708984375 300.77392578125 C 202.02142333984375 300.0859375 204.7911376953125 299.39794921875 207.56085205078125 298.7099609375 C 210.503662109375 297.162109375 213.44650268554688 295.6141357421875 216.38931274414062 294.0662841796875 C 219.15902709960938 293.3782958984375 221.92874145507812 292.6903076171875 224.69845581054688 292.0023193359375 C 226.42950439453125 291.1424560546875 228.16058349609375 290.282470703125 229.89166259765625 289.4224853515625 C 231.27651977539062 288.046630859375 232.661376953125 286.670654296875 234.04623413085938 285.2947998046875 C 235.77731323242188 282.54296875 237.50836181640625 279.791015625 239.23944091796875 277.039306640625 C 240.278076171875 273.943359375 241.31671142578125 270.8475341796875 242.35537719726562 267.751708984375 C 242.35537719726562 264.139892578125 242.35537719726562 260.5281982421875 242.35537719726562 256.9163818359375 C 242.00912475585938 256.400390625 241.66293334960938 255.8843994140625 241.31671142578125 255.3685302734375 C 240.79739379882812 252.444580078125 240.278076171875 249.520751953125 239.75875854492188 246.596923828125 C 238.54702758789062 244.01708984375 237.33526611328125 241.437255859375 236.12350463867188 238.857421875 C 234.7386474609375 237.825439453125 233.35382080078125 236.79345703125 231.96896362304688 235.7615966796875 C 221.755615234375 235.7615966796875 211.54232788085938 235.7615966796875 201.32901000976562 235.7615966796875M 303.1159362792969 217.70263671875 C 305.02008056640625 217.5306396484375 306.92425537109375 217.358642578125 308.8284606933594 217.1866455078125 C 310.38641357421875 218.390625 311.94439697265625 219.594482421875 313.5023498535156 220.7984619140625 C 314.36785888671875 223.206298828125 315.2334289550781 225.6142578125 316.09893798828125 228.02197265625 C 316.4451599121094 231.289794921875 316.7913818359375 234.5576171875 317.1375732421875 237.825439453125 C 317.1375732421875 245.2210693359375 317.1375732421875 252.61669921875 317.1375732421875 260.01220703125 C 316.4451599121094 265.0 315.75274658203125 269.9876708984375 315.0602722167969 274.975341796875 C 314.714111328125 289.07861328125 314.36785888671875 303.1817626953125 314.0216369628906 317.284912109375 C 313.3292236328125 319.69287109375 312.6368103027344 322.1005859375 311.94439697265625 324.508544921875 C 311.0788269042969 325.368408203125 310.21331787109375 326.228515625 309.3477783203125 327.08837890625 C 307.61669921875 327.7763671875 305.8856506347656 328.46435546875 304.154541015625 329.1522216796875 C 302.4234619140625 328.63623046875 300.6924133300781 328.120361328125 298.96136474609375 327.6043701171875 C 297.7496032714844 326.056396484375 296.537841796875 324.508544921875 295.3260803222656 322.960693359375 C 295.3260803222656 321.0687255859375 295.3260803222656 319.1767578125 295.3260803222656 317.284912109375 C 295.6723327636719 316.7689208984375 296.0185546875 316.2530517578125 296.36474609375 315.737060546875 C 296.36474609375 309.7174072265625 296.36474609375 303.69775390625 296.36474609375 297.6781005859375 C 296.7109680175781 295.6141357421875 297.0571594238281 293.55029296875 297.40338134765625 291.4864501953125 C 297.40338134765625 285.2947998046875 297.40338134765625 279.10302734375 297.40338134765625 272.9114990234375 C 298.0957946777344 269.2996826171875 298.78826904296875 265.6878662109375 299.4806823730469 262.076171875 C 299.4806823730469 253.3045654296875 299.4806823730469 244.5330810546875 299.4806823730469 235.7615966796875 C 299.3075866699219 234.213623046875 299.13446044921875 232.665771484375 298.96136474609375 231.117919921875 C 298.4420166015625 230.0859375 297.9226989746094 229.053955078125 297.40338134765625 228.02197265625 C 297.40338134765625 226.3021240234375 297.40338134765625 224.582275390625 297.40338134765625 222.8623046875 C 298.4420166015625 221.4864501953125 299.4806823730469 220.1104736328125 300.5193176269531 218.734619140625 C 301.38482666015625 218.390625 302.2503967285156 218.046630859375 303.1159362792969 217.70263671875M 397.113037109375 210.47900390625 C 404.383544921875 210.47900390625 411.65399169921875 210.47900390625 418.92449951171875 210.47900390625 C 421.5211181640625 212.0269775390625 424.11773681640625 213.5748291015625 426.71429443359375 215.122802734375 C 427.92608642578125 215.466796875 429.1378173828125 215.810791015625 430.34954833984375 216.15478515625 C 433.98480224609375 219.9384765625 437.62005615234375 223.7222900390625 441.25531005859375 227.506103515625 C 441.77459716796875 229.053955078125 442.2939453125 230.6019287109375 442.813232421875 232.1497802734375 C 444.71746826171875 234.3857421875 446.62158203125 236.62158203125 448.52581787109375 238.857421875 C 449.21820068359375 241.2652587890625 449.91064453125 243.673095703125 450.60302734375 246.0810546875 C 450.083740234375 250.7247314453125 449.56439208984375 255.3685302734375 449.04510498046875 260.01220703125 C 450.083740234375 262.076171875 451.12237548828125 264.139892578125 452.1610107421875 266.203857421875 C 452.33416748046875 268.095703125 452.50726318359375 269.9876708984375 452.68035888671875 271.8795166015625 C 453.19964599609375 272.739501953125 453.718994140625 273.5994873046875 454.23834228515625 274.4593505859375 C 454.41143798828125 276.351318359375 454.58453369140625 278.2431640625 454.75762939453125 280.135009765625 C 455.1038818359375 280.6510009765625 455.4500732421875 281.1669921875 455.7962646484375 281.6829833984375 C 456.31561279296875 290.7984619140625 456.8349609375 299.9139404296875 457.354248046875 309.0294189453125 C 457.354248046875 312.6412353515625 457.354248046875 316.2530517578125 457.354248046875 319.86474609375 C 455.7962646484375 328.63623046875 454.23834228515625 337.4078369140625 452.68035888671875 346.1793212890625 C 452.50726318359375 350.135009765625 452.33416748046875 354.0908203125 452.1610107421875 358.046630859375 C 451.4686279296875 360.4544677734375 450.77618408203125 362.8623046875 450.083740234375 365.270263671875 C 450.083740234375 367.506103515625 450.083740234375 369.741943359375 450.083740234375 371.977783203125 C 449.21820068359375 374.901611328125 448.3526611328125 377.825439453125 447.4871826171875 380.749267578125 C 446.44854736328125 382.813232421875 445.40985107421875 384.8770751953125 444.3712158203125 386.94091796875 C 441.08221435546875 390.380859375 437.79315185546875 393.820556640625 434.504150390625 397.2603759765625 C 430.00335693359375 401.044189453125 425.5025634765625 404.827880859375 421.00177001953125 408.61181640625 C 418.92449951171875 409.6436767578125 416.84722900390625 410.675537109375 414.76995849609375 411.70751953125 C 412.346435546875 411.879638671875 409.92291259765625 412.051513671875 407.49945068359375 412.2235107421875 C 406.28765869140625 412.739501953125 405.075927734375 413.2554931640625 403.86419677734375 413.771484375 C 401.094482421875 413.771484375 398.32476806640625 413.771484375 395.5550537109375 413.771484375 C 393.13153076171875 413.08349609375 390.70806884765625 412.3955078125 388.2845458984375 411.70751953125 C 385.34173583984375 410.15966796875 382.39892578125 408.61181640625 379.45611572265625 407.063720703125 C 378.0712890625 406.891845703125 376.6864013671875 406.7198486328125 375.30157470703125 406.5478515625 C 371.83935546875 404.827880859375 368.37725830078125 403.1080322265625 364.9151306152344 401.38818359375 C 361.7991943359375 398.8082275390625 358.6832580566406 396.2283935546875 355.56732177734375 393.648681640625 C 354.1824951171875 391.584716796875 352.797607421875 389.520751953125 351.41278076171875 387.4569091796875 C 351.0665283203125 385.737060546875 350.7203674316406 384.01708984375 350.3741149902344 382.2972412109375 C 350.5472106933594 380.9212646484375 350.7203674316406 379.54541015625 350.8934631347656 378.16943359375 C 351.9320983886719 376.79345703125 352.9707336425781 375.4176025390625 354.0093994140625 374.041748046875 C 355.04803466796875 373.5257568359375 356.0866394042969 373.009765625 357.1252746582031 372.4937744140625 C 358.6832580566406 372.4937744140625 360.2412109375 372.4937744140625 361.7991943359375 372.4937744140625 C 363.357177734375 373.69775390625 364.9151306152344 374.901611328125 366.4730529785156 376.1055908203125 C 366.81927490234375 377.3095703125 367.16552734375 378.513427734375 367.5116882324219 379.71728515625 C 369.5889892578125 381.78125 371.666259765625 383.84521484375 373.74359130859375 385.908935546875 C 380.4947509765625 389.0048828125 387.24591064453125 392.1007080078125 393.9970703125 395.196533203125 C 396.59368896484375 395.54052734375 399.1903076171875 395.884521484375 401.78692626953125 396.2283935546875 C 404.90283203125 395.368408203125 408.01873779296875 394.508544921875 411.1346435546875 393.648681640625 C 413.38507080078125 392.1007080078125 415.63543701171875 390.552734375 417.8858642578125 389.0048828125 C 421.69415283203125 385.049072265625 425.5025634765625 381.09326171875 429.3109130859375 377.137451171875 C 430.522705078125 373.8697509765625 431.73443603515625 370.6019287109375 432.9461669921875 367.3341064453125 C 433.1192626953125 364.754150390625 433.29241943359375 362.17431640625 433.4654541015625 359.594482421875 C 433.98480224609375 357.8746337890625 434.504150390625 356.1546630859375 435.0234375 354.434814453125 C 435.196533203125 350.135009765625 435.36962890625 345.8353271484375 435.54278564453125 341.5355224609375 C 436.06207275390625 339.6436767578125 436.5814208984375 337.751708984375 437.10076904296875 335.85986328125 C 437.27386474609375 332.248046875 437.4468994140625 328.63623046875 437.62005615234375 325.0244140625 C 438.3125 323.820556640625 439.0048828125 322.61669921875 439.69732666015625 321.4127197265625 C 439.52423095703125 314.01708984375 439.35113525390625 306.62158203125 439.177978515625 299.2259521484375 C 439.0048828125 299.053955078125 438.831787109375 298.8819580078125 438.65869140625 298.7099609375 C 437.62005615234375 299.741943359375 436.5814208984375 300.77392578125 435.54278564453125 301.805908203125 C 432.9461669921875 304.901611328125 430.34954833984375 307.9974365234375 427.75299072265625 311.09326171875 C 424.81011962890625 312.9852294921875 421.8673095703125 314.8770751953125 418.92449951171875 316.7689208984375 C 415.63543701171875 317.1129150390625 412.346435546875 317.4569091796875 409.057373046875 317.8009033203125 C 407.84564208984375 318.31689453125 406.6339111328125 318.8328857421875 405.42218017578125 319.348876953125 C 400.05584716796875 319.348876953125 394.68951416015625 319.348876953125 389.32318115234375 319.348876953125 C 383.95684814453125 317.4569091796875 378.590576171875 315.5650634765625 373.2242431640625 313.673095703125 C 370.80072021484375 311.437255859375 368.37725830078125 309.201416015625 365.9537658691406 306.965576171875 C 363.5302429199219 303.009765625 361.1067810058594 299.053955078125 358.6832580566406 295.0982666015625 C 358.3370666503906 293.3782958984375 357.9908447265625 291.658447265625 357.64459228515625 289.9384765625 C 356.432861328125 287.358642578125 355.22113037109375 284.77880859375 354.0093994140625 282.198974609375 C 353.66314697265625 279.619140625 353.3169250488281 277.039306640625 352.9707336425781 274.4593505859375 C 352.9707336425781 267.579833984375 352.9707336425781 260.7001953125 352.9707336425781 253.820556640625 C 353.3169250488281 250.896728515625 353.66314697265625 247.972900390625 354.0093994140625 245.049072265625 C 354.8749084472656 242.813232421875 355.7404479980469 240.577392578125 356.60595703125 238.3414306640625 C 358.6832580566406 235.4176025390625 360.76055908203125 232.4937744140625 362.83782958984375 229.5699462890625 C 366.81927490234375 225.9581298828125 370.80072021484375 222.346435546875 374.7822265625 218.734619140625 C 377.72503662109375 216.8426513671875 380.6678466796875 214.9508056640625 383.61065673828125 213.058837890625 C 388.1114501953125 212.198974609375 392.61224365234375 211.3389892578125 397.113037109375 210.47900390625M 397.113037109375 227.506103515625 C 393.9970703125 228.7099609375 390.88116455078125 229.9139404296875 387.76519775390625 231.117919921875 C 386.0341796875 232.4937744140625 384.3031005859375 233.8697509765625 382.572021484375 235.24560546875 C 380.6678466796875 236.965576171875 378.763671875 238.6854248046875 376.8594970703125 240.4052734375 C 375.30157470703125 242.813232421875 373.74359130859375 245.2210693359375 372.18560791015625 247.62890625 C 371.666259765625 249.1767578125 371.14697265625 250.7247314453125 370.62762451171875 252.272705078125 C 370.62762451171875 260.1842041015625 370.62762451171875 268.095703125 370.62762451171875 276.00732421875 C 372.8780517578125 281.510986328125 375.12841796875 287.0146484375 377.3787841796875 292.518310546875 C 378.763671875 294.0662841796875 380.14849853515625 295.6141357421875 381.53338623046875 297.162109375 C 383.09136962890625 298.02197265625 384.64935302734375 298.8819580078125 386.207275390625 299.741943359375 C 388.80389404296875 300.429931640625 391.40045166015625 301.117919921875 393.9970703125 301.805908203125 C 396.76678466796875 301.805908203125 399.5364990234375 301.805908203125 402.30621337890625 301.805908203125 C 406.11456298828125 301.117919921875 409.92291259765625 300.429931640625 413.73126220703125 299.741943359375 C 418.0589599609375 295.442138671875 422.38665771484375 291.1424560546875 426.71429443359375 286.8426513671875 C 427.92608642578125 282.54296875 429.1378173828125 278.2431640625 430.34954833984375 273.943359375 C 430.34954833984375 270.8475341796875 430.34954833984375 267.751708984375 430.34954833984375 264.656005859375 C 428.61846923828125 262.7640380859375 426.88739013671875 260.8720703125 425.1563720703125 258.980224609375 C 424.63702392578125 257.6043701171875 424.11773681640625 256.2283935546875 423.598388671875 254.8525390625 C 423.598388671875 247.972900390625 423.598388671875 241.09326171875 423.598388671875 234.213623046875 C 422.55975341796875 233.1817626953125 421.5211181640625 232.1497802734375 420.482421875 231.117919921875 C 418.0589599609375 229.9139404296875 415.63543701171875 228.7099609375 413.21197509765625 227.506103515625 C 407.84564208984375 227.506103515625 402.47930908203125 227.506103515625 397.113037109375 227.506103515625M 305.19317626953125 184.16455078125 C 306.57806396484375 183.9925537109375 307.962890625 183.820556640625 309.3477783203125 183.6485595703125 C 310.55950927734375 184.3365478515625 311.771240234375 185.0245361328125 312.9830322265625 185.71240234375 C 313.8485412597656 186.9163818359375 314.714111328125 188.120361328125 315.57958984375 189.32421875 C 315.57958984375 191.044189453125 315.57958984375 192.7640380859375 315.57958984375 194.48388671875 C 315.2334289550781 195.171875 314.8871765136719 195.85986328125 314.54095458984375 196.5478515625 C 312.9830322265625 197.751708984375 311.4250793457031 198.9556884765625 309.8670959472656 200.15966796875 C 307.789794921875 199.9876708984375 305.7125244140625 199.815673828125 303.6352233886719 199.6436767578125 C 302.76971435546875 198.9556884765625 301.9041442871094 198.2677001953125 301.03863525390625 197.579833984375 C 300.34619140625 196.3758544921875 299.6537780761719 195.171875 298.96136474609375 193.968017578125 C 299.3075866699219 191.904052734375 299.6537780761719 189.8402099609375 300.0 187.7763671875 C 301.03863525390625 186.744384765625 302.0773010253906 185.71240234375 303.1159362792969 184.6805419921875 C 303.808349609375 184.508544921875 304.5007629394531 184.3365478515625 305.19317626953125 184.16455078125"/>
  </g>
</svg>
