<?xml version="1.0" ?>
<svg xmlns="http://www.w3.org/2000/svg" version="1.1" width="600" height="600">
  <defs/>
  <g>
    <path stroke-width="0" fill="rgb(0, 0, 0)" opacity="1.0" d="M 315.3468017578125 354.476806640625 C 316.35870361328125 354.364990234375 317.37054443359375 354.2532958984375 318.3824157714844 354.1416015625 C 319.2818603515625 354.476806640625 320.18133544921875 354.81201171875 321.0807800292969 355.1473388671875 C 321.8677978515625 355.9295654296875 322.6548156738281 356.7117919921875 323.4418029785156 357.4940185546875 C 323.77911376953125 358.16455078125 324.11639404296875 358.8349609375 324.4537048339844 359.5054931640625 C 324.4537048339844 360.846435546875 324.4537048339844 362.1873779296875 324.4537048339844 363.5283203125 C 324.2288513183594 364.087158203125 324.00396728515625 364.6458740234375 323.77911376953125 365.20458984375 C 323.2169494628906 365.8751220703125 322.6548156738281 366.5455322265625 322.0926818847656 367.216064453125 C 321.0807800292969 367.7747802734375 320.06890869140625 368.33349609375 319.0570068359375 368.892333984375 C 317.7078552246094 368.892333984375 316.35870361328125 368.892333984375 315.009521484375 368.892333984375 C 314.3349304199219 368.5570068359375 313.66033935546875 368.2218017578125 312.9857482910156 367.886474609375 C 311.973876953125 366.6573486328125 310.9620056152344 365.4281005859375 309.95013427734375 364.1988525390625 C 309.8376770019531 362.85791015625 309.7252502441406 361.5169677734375 309.6128234863281 360.1759033203125 C 309.95013427734375 359.3936767578125 310.28741455078125 358.6114501953125 310.6247253417969 357.8292236328125 C 311.524169921875 356.935302734375 312.4236145019531 356.041259765625 313.32305908203125 355.1473388671875 C 313.99761962890625 354.923828125 314.6722106933594 354.7003173828125 315.3468017578125 354.476806640625M 187.512939453125 314.5830078125 C 189.64913940429688 314.47119140625 191.78533935546875 314.359375 193.9215087890625 314.2476806640625 C 195.38311767578125 314.47119140625 196.84469604492188 314.6947021484375 198.30630493164062 314.918212890625 C 200.8922119140625 316.1474609375 203.47811889648438 317.3765869140625 206.06402587890625 318.6058349609375 C 209.88668823242188 321.176025390625 213.7093505859375 323.7462158203125 217.531982421875 326.31640625 C 219.33087158203125 328.1044921875 221.12979125976562 329.892333984375 222.92868041992188 331.6802978515625 C 223.82809448242188 333.2447509765625 224.7275390625 334.8092041015625 225.62698364257812 336.373779296875 C 225.62698364257812 338.94384765625 225.62698364257812 341.51416015625 225.62698364257812 344.0843505859375 C 224.952392578125 345.760498046875 224.27783203125 347.436767578125 223.603271484375 349.1129150390625 C 222.92868041992188 349.895263671875 222.25408935546875 350.677490234375 221.57949829101562 351.459716796875 C 220.34274291992188 352.3536376953125 219.10601806640625 353.24755859375 217.86929321289062 354.1416015625 C 215.50820922851562 357.38232421875 213.14718627929688 360.6229248046875 210.7861328125 363.8636474609375 C 210.22396850585938 365.0928955078125 209.66183471679688 366.322021484375 209.09967041015625 367.55126953125 C 207.75051879882812 368.4453125 206.40133666992188 369.3392333984375 205.05215454101562 370.233154296875 C 202.80352783203125 370.233154296875 200.554931640625 370.233154296875 198.30630493164062 370.233154296875 C 196.50741577148438 369.7862548828125 194.70852661132812 369.3392333984375 192.90960693359375 368.892333984375 C 189.9864501953125 367.7747802734375 187.063232421875 366.6573486328125 184.1400146484375 365.539794921875 C 180.542236328125 363.5283203125 176.9444580078125 361.5169677734375 173.3466796875 359.5054931640625 C 172.10992431640625 357.4940185546875 170.87319946289062 355.4825439453125 169.636474609375 353.4710693359375 C 169.18673706054688 350.677490234375 168.73703002929688 347.8837890625 168.28729248046875 345.090087890625 C 168.28729248046875 340.955322265625 168.28729248046875 336.8206787109375 168.28729248046875 332.68603515625 C 168.62457275390625 331.456787109375 168.96188354492188 330.2275390625 169.29916381835938 328.9984130859375 C 169.29916381835938 326.9869384765625 169.29916381835938 324.9754638671875 169.29916381835938 322.9639892578125 C 169.52401733398438 321.8465576171875 169.74887084960938 320.72900390625 169.9737548828125 319.611572265625 C 170.985595703125 318.38232421875 171.99749755859375 317.153076171875 173.00936889648438 315.9239501953125 C 173.79641723632812 315.588623046875 174.58340454101562 315.25341796875 175.37042236328125 314.918212890625 C 177.84390258789062 315.1417236328125 180.3173828125 315.365234375 182.79086303710938 315.588623046875 C 183.69027709960938 315.25341796875 184.58975219726562 314.918212890625 185.48919677734375 314.5830078125 C 186.16378784179688 314.5830078125 186.83837890625 314.5830078125 187.512939453125 314.5830078125M 189.19940185546875 329.6689453125 C 188.29995727539062 330.004150390625 187.40054321289062 330.33935546875 186.5010986328125 330.674560546875 C 185.82650756835938 330.674560546875 185.15191650390625 330.674560546875 184.47732543945312 330.674560546875 C 184.25247192382812 331.3450927734375 184.027587890625 332.015625 183.802734375 332.68603515625 C 183.802734375 336.59716796875 183.802734375 340.5084228515625 183.802734375 344.4195556640625 C 184.027587890625 345.6488037109375 184.25247192382812 346.8780517578125 184.47732543945312 348.107177734375 C 186.27621459960938 349.1129150390625 188.07510375976562 350.11865234375 189.87399291992188 351.1243896484375 C 190.88589477539062 351.347900390625 191.89776611328125 351.5714111328125 192.90960693359375 351.794921875 C 194.82095336914062 352.6888427734375 196.73226928710938 353.582763671875 198.64358520507812 354.476806640625 C 199.20578002929688 354.02978515625 199.76791381835938 353.582763671875 200.330078125 353.1358642578125 C 202.24139404296875 350.3421630859375 204.1527099609375 347.5484619140625 206.06402587890625 344.7547607421875 C 207.4132080078125 343.413818359375 208.76235961914062 342.0728759765625 210.11154174804688 340.73193359375 C 208.76235961914062 339.7261962890625 207.4132080078125 338.720458984375 206.06402587890625 337.7147216796875 C 205.27700805664062 336.8206787109375 204.49002075195312 335.9267578125 203.70297241210938 335.03271484375 C 202.91598510742188 334.697509765625 202.12893676757812 334.3623046875 201.34194946289062 334.0269775390625 C 200.554931640625 333.3565673828125 199.76791381835938 332.68603515625 198.98089599609375 332.015625 C 197.1820068359375 331.2333984375 195.38311767578125 330.451171875 193.58419799804688 329.6689453125 C 192.12261962890625 329.6689453125 190.66104125976562 329.6689453125 189.19940185546875 329.6689453125M 111.62213134765625 294.1331787109375 C 112.07186889648438 294.0213623046875 112.5216064453125 293.90966796875 112.9713134765625 293.7978515625 C 114.77023315429688 294.244873046875 116.569091796875 294.69189453125 118.36798095703125 295.138916015625 C 120.95388793945312 295.2506103515625 123.53982543945312 295.3623046875 126.125732421875 295.47412109375 C 128.82406616210938 296.591552734375 131.52239990234375 297.7091064453125 134.22073364257812 298.8265380859375 C 136.35693359375 300.3909912109375 138.49310302734375 301.9554443359375 140.62930297851562 303.52001953125 C 142.20333862304688 304.0787353515625 143.77734375 304.637451171875 145.35137939453125 305.1961669921875 C 146.138427734375 305.9783935546875 146.9254150390625 306.7606201171875 147.71243286132812 307.5428466796875 C 148.16213989257812 308.99560546875 148.61187744140625 310.4482421875 149.06161499023438 311.9010009765625 C 148.83673095703125 312.90673828125 148.61187744140625 313.9124755859375 148.38702392578125 314.918212890625 C 147.60000610351562 315.9239501953125 146.81301879882812 316.9296875 146.02597045898438 317.935302734375 C 145.12652587890625 318.38232421875 144.22708129882812 318.829345703125 143.32763671875 319.2763671875 C 142.54061889648438 319.3880615234375 141.75363159179688 319.4998779296875 140.96658325195312 319.611572265625 C 138.49310302734375 318.829345703125 136.0196533203125 318.047119140625 133.546142578125 317.264892578125 C 132.7591552734375 316.5943603515625 131.97210693359375 315.9239501953125 131.18511962890625 315.25341796875 C 128.48675537109375 313.68896484375 125.78842163085938 312.12451171875 123.090087890625 310.56005859375 C 121.06634521484375 310.56005859375 119.04257202148438 310.56005859375 117.018798828125 310.56005859375 C 117.13125610351562 331.90380859375 117.24368286132812 353.24755859375 117.35610961914062 374.59130859375 C 117.13125610351562 375.59716796875 116.90640258789062 376.602783203125 116.68154907226562 377.6085205078125 C 115.89450073242188 378.6142578125 115.10748291015625 379.6199951171875 114.32049560546875 380.625732421875 C 113.75833129882812 380.9609375 113.19619750976562 381.2962646484375 112.63400268554688 381.6314697265625 C 111.50970458984375 381.85498046875 110.38540649414062 382.0784912109375 109.2611083984375 382.302001953125 C 108.13677978515625 381.966796875 107.01248168945312 381.6314697265625 105.88818359375 381.2962646484375 C 104.76385498046875 380.0670166015625 103.63955688476562 378.8377685546875 102.51522827148438 377.6085205078125 C 102.17794799804688 375.59716796875 101.84066772460938 373.585693359375 101.50335693359375 371.57421875 C 101.50335693359375 370.009765625 101.50335693359375 368.4453125 101.50335693359375 366.880859375 C 100.82876586914062 364.757568359375 100.15420532226562 362.6343994140625 99.4796142578125 360.51123046875 C 99.3671875 358.6114501953125 99.25473022460938 356.7117919921875 99.142333984375 354.81201171875 C 99.3671875 353.806396484375 99.592041015625 352.800537109375 99.81692504882812 351.794921875 C 100.04177856445312 341.067138671875 100.26663208007812 330.33935546875 100.49151611328125 319.611572265625 C 100.94122314453125 314.135986328125 101.39096069335938 308.660400390625 101.84066772460938 303.1846923828125 C 102.74008178710938 301.396728515625 103.63955688476562 299.6087646484375 104.53900146484375 297.82080078125 C 105.43844604492188 296.9268798828125 106.337890625 296.0328369140625 107.23733520507812 295.138916015625 C 108.02435302734375 294.8035888671875 108.81137084960938 294.4683837890625 109.598388671875 294.1331787109375 C 110.27297973632812 294.1331787109375 110.94757080078125 294.1331787109375 111.62213134765625 294.1331787109375M 554.824462890625 292.792236328125 C 556.0611572265625 292.680419921875 557.2979736328125 292.568603515625 558.53466796875 292.4569091796875 C 559.3216552734375 292.792236328125 560.1087646484375 293.12744140625 560.895751953125 293.462646484375 C 561.6827392578125 294.244873046875 562.4697265625 295.027099609375 563.2568359375 295.809326171875 C 563.931396484375 297.03857421875 564.60595703125 298.267822265625 565.280517578125 299.4970703125 C 565.3929443359375 302.178955078125 565.50537109375 304.8609619140625 565.6177978515625 307.5428466796875 C 564.830810546875 312.571533203125 564.0438232421875 317.60009765625 563.2568359375 322.6287841796875 C 563.931396484375 324.9754638671875 564.60595703125 327.3221435546875 565.280517578125 329.6689453125 C 566.2923583984375 331.456787109375 567.3043212890625 333.2447509765625 568.316162109375 335.03271484375 C 568.4285888671875 335.81494140625 568.541015625 336.59716796875 568.6534423828125 337.37939453125 C 570.452392578125 340.0614013671875 572.251220703125 342.743408203125 574.0501708984375 345.42529296875 C 574.2750244140625 346.7662353515625 574.4998779296875 348.107177734375 574.7247314453125 349.4482421875 C 574.387451171875 350.677490234375 574.0501708984375 351.9066162109375 573.7127685546875 353.1358642578125 C 572.47607421875 354.2532958984375 571.2393798828125 355.370849609375 570.0025634765625 356.48828125 C 569.1031494140625 356.7117919921875 568.2037353515625 356.935302734375 567.3043212890625 357.15869140625 C 566.179931640625 356.935302734375 565.0556640625 356.7117919921875 563.931396484375 356.48828125 C 563.0318603515625 355.8177490234375 562.1324462890625 355.1473388671875 561.2330322265625 354.476806640625 C 560.3336181640625 352.800537109375 559.43408203125 351.1243896484375 558.53466796875 349.4482421875 C 558.0849609375 349.1129150390625 557.63525390625 348.7777099609375 557.1854248046875 348.4425048828125 C 556.510986328125 347.324951171875 555.83642578125 346.20751953125 555.1617431640625 345.090087890625 C 553.8126220703125 346.7662353515625 552.46337890625 348.4425048828125 551.1142578125 350.11865234375 C 548.753173828125 352.46533203125 546.3922119140625 354.81201171875 544.0311279296875 357.15869140625 C 543.3564453125 358.2762451171875 542.681884765625 359.3936767578125 542.00732421875 360.51123046875 C 540.658203125 361.628662109375 539.30908203125 362.74609375 537.9598388671875 363.8636474609375 C 535.93603515625 364.310546875 533.912353515625 364.757568359375 531.8885498046875 365.20458984375 C 526.941650390625 365.651611328125 521.99462890625 366.0986328125 517.0477294921875 366.5455322265625 C 516.1483154296875 366.5455322265625 515.2489013671875 366.5455322265625 514.349365234375 366.5455322265625 C 513.000244140625 366.0986328125 511.6510314941406 365.651611328125 510.3018493652344 365.20458984375 C 509.1775207519531 364.1988525390625 508.0532531738281 363.193115234375 506.9289855957031 362.1873779296875 C 505.5798034667969 360.51123046875 504.2306213378906 358.8349609375 502.8814392089844 357.15869140625 C 502.3193054199219 355.8177490234375 501.7571105957031 354.476806640625 501.1949768066406 353.1358642578125 C 500.9701232910156 351.0126953125 500.7452087402344 348.889404296875 500.5204162597656 346.7662353515625 C 500.1830749511719 345.9840087890625 499.8457946777344 345.2017822265625 499.5084533691406 344.4195556640625 C 499.3960876464844 342.519775390625 499.2836608886719 340.6201171875 499.1712341308594 338.720458984375 C 498.7215270996094 336.9324951171875 498.2717590332031 335.14453125 497.8220520019531 333.3565673828125 C 497.9344787597656 332.1273193359375 498.0469055175781 330.8980712890625 498.1592712402344 329.6689453125 C 497.9344787597656 328.327880859375 497.7096252441406 326.9869384765625 497.4847717285156 325.64599609375 C 497.4847717285156 318.7176513671875 497.4847717285156 311.789306640625 497.4847717285156 304.8609619140625 C 497.9344787597656 303.29638671875 498.3841857910156 301.73193359375 498.8338928222656 300.16748046875 C 499.6209411621094 299.38525390625 500.4079284667969 298.60302734375 501.1949768066406 297.82080078125 C 501.9819641113281 297.485595703125 502.7690124511719 297.150390625 503.5559997558594 296.8150634765625 C 505.0176086425781 296.9268798828125 506.4792175292969 297.03857421875 507.9408264160156 297.150390625 C 509.1775207519531 298.156005859375 510.4142761230469 299.1617431640625 511.6510314941406 300.16748046875 C 512.100830078125 301.6202392578125 512.550537109375 303.072998046875 513.000244140625 304.525634765625 C 513.1126708984375 314.024169921875 513.22509765625 323.522705078125 513.3375244140625 333.021240234375 C 513.6748046875 335.367919921875 514.0120849609375 337.7147216796875 514.349365234375 340.0614013671875 C 514.6866455078125 340.73193359375 515.02392578125 341.40234375 515.3612060546875 342.0728759765625 C 515.4736328125 343.6373291015625 515.5860595703125 345.2017822265625 515.6986083984375 346.7662353515625 C 516.485595703125 348.218994140625 517.2725830078125 349.671630859375 518.0595703125 351.1243896484375 C 520.19580078125 351.0126953125 522.3319091796875 350.90087890625 524.4681396484375 350.7891845703125 C 526.3795166015625 350.453857421875 528.290771484375 350.11865234375 530.2021484375 349.783447265625 C 533.6875 346.20751953125 537.1728515625 342.631591796875 540.658203125 339.0556640625 C 541.2203369140625 338.16162109375 541.782470703125 337.2677001953125 542.3446044921875 336.373779296875 C 542.681884765625 334.9210205078125 543.019287109375 333.46826171875 543.3564453125 332.015625 C 544.0311279296875 330.8980712890625 544.7056884765625 329.7806396484375 545.3802490234375 328.6630859375 C 546.0548095703125 326.5399169921875 546.7294921875 324.416748046875 547.404052734375 322.2935791015625 C 547.5164794921875 314.806396484375 547.62890625 307.3193359375 547.7413330078125 299.832275390625 C 548.07861328125 299.1617431640625 548.4158935546875 298.4913330078125 548.753173828125 297.82080078125 C 550.1024169921875 296.3681640625 551.4515380859375 294.9154052734375 552.8006591796875 293.462646484375 C 553.4752197265625 293.2391357421875 554.14990234375 293.015625 554.824462890625 292.792236328125M 45.85011291503906 234.4599609375 C 52.59596252441406 234.34814453125 59.34181213378906 234.2364501953125 66.08766174316406 234.124755859375 C 67.32440185546875 234.4599609375 68.56114196777344 234.795166015625 69.79786682128906 235.1304931640625 C 71.59677124023438 235.2421875 73.39566040039062 235.35400390625 75.19454956054688 235.4656982421875 C 77.89288330078125 237.0301513671875 80.59124755859375 238.5946044921875 83.28958129882812 240.1590576171875 C 85.20089721679688 241.7235107421875 87.11224365234375 243.2880859375 89.0235595703125 244.8525390625 C 91.27218627929688 247.4227294921875 93.520751953125 249.992919921875 95.76937866210938 252.5631103515625 C 95.9942626953125 253.56884765625 96.2191162109375 254.574462890625 96.4439697265625 255.580322265625 C 97.34341430664062 256.9212646484375 98.24288940429688 258.26220703125 99.142333984375 259.6031494140625 C 100.04177856445312 262.0616455078125 100.94122314453125 264.52001953125 101.84066772460938 266.978515625 C 102.0655517578125 268.4312744140625 102.2904052734375 269.8839111328125 102.51522827148438 271.336669921875 C 102.8525390625 272.007080078125 103.1898193359375 272.6776123046875 103.52713012695312 273.34814453125 C 103.63955688476562 274.80078125 103.75198364257812 276.2535400390625 103.86441040039062 277.706298828125 C 103.4146728515625 280.2764892578125 102.9649658203125 282.8466796875 102.51522827148438 285.4168701171875 C 101.72824096679688 286.9813232421875 100.94122314453125 288.5457763671875 100.15420532226562 290.1102294921875 C 97.45587158203125 292.792236328125 94.75753784179688 295.47412109375 92.05917358398438 298.156005859375 C 88.57382202148438 300.3909912109375 85.08847045898438 302.6259765625 81.60311889648438 304.8609619140625 C 80.25393676757812 305.307861328125 78.90478515625 305.7548828125 77.55560302734375 306.201904296875 C 73.84538269042969 308.3250732421875 70.13516235351562 310.4482421875 66.42495727539062 312.571533203125 C 64.73847961425781 313.0185546875 63.052032470703125 313.4654541015625 61.365570068359375 313.9124755859375 C 60.128814697265625 314.135986328125 58.89208984375 314.359375 57.65534973144531 314.5830078125 C 54.05757141113281 314.5830078125 50.45977783203125 314.5830078125 46.86198425292969 314.5830078125 C 45.73768615722656 314.2476806640625 44.613372802734375 313.9124755859375 43.48905944824219 313.5771484375 C 43.039337158203125 316.03564453125 42.58961486816406 318.494140625 42.139892578125 320.95263671875 C 42.02745056152344 326.093017578125 41.91502380371094 331.2333984375 41.80259704589844 336.373779296875 C 41.46531677246094 337.4912109375 41.128021240234375 338.608642578125 40.79072570800781 339.7261962890625 C 40.67829895019531 350.11865234375 40.56587219238281 360.51123046875 40.45343017578125 370.9036865234375 C 39.553985595703125 372.24462890625 38.654541015625 373.585693359375 37.75508117675781 374.9266357421875 C 36.85565185546875 375.37353515625 35.956207275390625 375.820556640625 35.05674743652344 376.267578125 C 34.26972961425781 376.37939453125 33.48271179199219 376.4910888671875 32.69569396972656 376.602783203125 C 31.571395874023438 376.267578125 30.44708251953125 375.932373046875 29.322769165039062 375.59716796875 C 28.648193359375 375.038330078125 27.973617553710938 374.4796142578125 27.299026489257812 373.9208984375 C 26.84930419921875 373.2503662109375 26.399581909179688 372.5799560546875 25.949859619140625 371.909423828125 C 25.724990844726562 370.68017578125 25.5001220703125 369.450927734375 25.2752685546875 368.2218017578125 C 25.2752685546875 358.8349609375 25.2752685546875 349.4482421875 25.2752685546875 340.0614013671875 C 25.724990844726562 338.3851318359375 26.174713134765625 336.708984375 26.624435424804688 335.03271484375 C 26.84930419921875 329.221923828125 27.074172973632812 323.4110107421875 27.299026489257812 317.60009765625 C 27.636322021484375 316.1474609375 27.973617553710938 314.6947021484375 28.310897827148438 313.241943359375 C 28.310897827148438 311.5657958984375 28.310897827148438 309.8895263671875 28.310897827148438 308.21337890625 C 28.7606201171875 306.4254150390625 29.210342407226562 304.637451171875 29.660064697265625 302.8494873046875 C 29.660064697265625 300.94970703125 29.660064697265625 299.050048828125 29.660064697265625 297.150390625 C 30.109786987304688 294.69189453125 30.559524536132812 292.2333984375 31.009246826171875 289.7750244140625 C 31.009246826171875 284.6346435546875 31.009246826171875 279.4942626953125 31.009246826171875 274.3538818359375 C 31.458969116210938 272.3424072265625 31.90869140625 270.3309326171875 32.35841369628906 268.3194580078125 C 32.35841369628906 262.28515625 32.35841369628906 256.250732421875 32.35841369628906 250.21630859375 C 32.80812072753906 248.65185546875 33.25785827636719 247.08740234375 33.70758056640625 245.52294921875 C 34.494598388671875 244.74072265625 35.2816162109375 243.95849609375 36.068634033203125 243.17626953125 C 36.74322509765625 242.841064453125 37.41778564453125 242.5057373046875 38.092376708984375 242.1705322265625 C 38.092376708984375 241.5 38.092376708984375 240.82958984375 38.092376708984375 240.1590576171875 C 38.42967224121094 239.3768310546875 38.7669677734375 238.5946044921875 39.10426330566406 237.8123779296875 C 39.89128112792969 237.0301513671875 40.67829895019531 236.2479248046875 41.46531677246094 235.4656982421875 C 42.2523193359375 235.1304931640625 43.039337158203125 234.795166015625 43.82635498046875 234.4599609375 C 44.500946044921875 234.4599609375 45.175537109375 234.4599609375 45.85011291503906 234.4599609375M 47.87385559082031 249.5458984375 C 47.76142883300781 256.0272216796875 47.64900207519531 262.508544921875 47.53657531738281 268.989990234375 C 47.19927978515625 270.442626953125 46.86198425292969 271.8953857421875 46.524688720703125 273.34814453125 C 46.412261962890625 278.935546875 46.29981994628906 284.5228271484375 46.18739318847656 290.1102294921875 C 45.85011291503906 292.1217041015625 45.5128173828125 294.1331787109375 45.175537109375 296.14453125 C 45.85011291503906 296.8150634765625 46.524688720703125 297.485595703125 47.19927978515625 298.156005859375 C 48.211151123046875 298.4913330078125 49.22303771972656 298.8265380859375 50.23492431640625 299.1617431640625 C 52.70838928222656 299.1617431640625 55.181854248046875 299.1617431640625 57.65534973144531 299.1617431640625 C 58.55479431152344 298.938232421875 59.454254150390625 298.71484375 60.35368347167969 298.4913330078125 C 64.28875732421875 296.3681640625 68.22384643554688 294.244873046875 72.158935546875 292.1217041015625 C 72.94595336914062 291.898193359375 73.73295593261719 291.6746826171875 74.51997375488281 291.451171875 C 76.88101196289062 289.99853515625 79.2420654296875 288.5457763671875 81.60311889648438 287.093017578125 C 81.82797241210938 286.6461181640625 82.0528564453125 286.1990966796875 82.27767944335938 285.7520751953125 C 84.07659912109375 284.075927734375 85.87548828125 282.399658203125 87.67437744140625 280.723388671875 C 87.89923095703125 280.2764892578125 88.12408447265625 279.8294677734375 88.34896850585938 279.3824462890625 C 88.34896850585938 278.488525390625 88.34896850585938 277.594482421875 88.34896850585938 276.7005615234375 C 88.12408447265625 276.365234375 87.89923095703125 276.030029296875 87.67437744140625 275.69482421875 C 87.44952392578125 273.9068603515625 87.22463989257812 272.118896484375 86.99978637695312 270.3309326171875 C 85.31332397460938 266.7550048828125 83.62686157226562 263.1790771484375 81.94039916992188 259.6031494140625 C 81.15338134765625 258.597412109375 80.36636352539062 257.5916748046875 79.579345703125 256.5859375 C 77.78045654296875 255.13330078125 75.9815673828125 253.6805419921875 74.18267822265625 252.227783203125 C 73.17079162597656 251.6690673828125 72.158935546875 251.1103515625 71.14704895019531 250.5516357421875 C 70.36003112792969 250.5516357421875 69.57301330566406 250.5516357421875 68.78599548339844 250.5516357421875 C 67.88655090332031 250.21630859375 66.98710632324219 249.881103515625 66.08766174316406 249.5458984375 C 60.016387939453125 249.5458984375 53.94512939453125 249.5458984375 47.87385559082031 249.5458984375M 369.6509094238281 225.408447265625 C 370.8876647949219 225.296630859375 372.1243591308594 225.1849365234375 373.3611145019531 225.0732421875 C 374.1481628417969 225.408447265625 374.9351501464844 225.74365234375 375.7221374511719 226.078857421875 C 376.5091857910156 226.861083984375 377.2961730957031 227.643310546875 378.0832214355469 228.425537109375 C 378.4205017089844 229.0960693359375 378.7578430175781 229.7666015625 379.0950622558594 230.43701171875 C 379.2075500488281 233.342529296875 379.3199768066406 236.2479248046875 379.4323425292969 239.1533203125 C 379.7696838378906 240.2708740234375 380.1069641113281 241.3883056640625 380.4442443847656 242.5057373046875 C 380.5567321777344 246.5286865234375 380.6691589355469 250.5516357421875 380.7815246582031 254.574462890625 C 381.5685729980469 258.4857177734375 382.3555603027344 262.3968505859375 383.1426086425781 266.3079833984375 C 383.1426086425781 269.3251953125 383.1426086425781 272.3424072265625 383.1426086425781 275.359619140625 C 383.4798889160156 276.365234375 383.8172302246094 277.37109375 384.1544494628906 278.376708984375 C 384.2669372558594 280.38818359375 384.3793640136719 282.399658203125 384.4917297363281 284.4111328125 C 384.9414978027344 286.310791015625 385.3912048339844 288.2105712890625 385.8409118652344 290.1102294921875 C 386.0657653808594 293.015625 386.2906799316406 295.921142578125 386.5154724121094 298.8265380859375 C 386.4030456542969 303.6317138671875 386.2906799316406 308.4368896484375 386.1782531738281 313.241943359375 C 388.9889831542969 305.86669921875 391.7997741699219 298.4913330078125 394.6105651855469 291.115966796875 C 396.5218811035156 284.746337890625 398.4331970214844 278.376708984375 400.3444519042969 272.007080078125 C 400.4569396972656 270.21923828125 400.5693664550781 268.4312744140625 400.6817932128906 266.643310546875 C 401.2439270019531 264.4083251953125 401.8061218261719 262.17333984375 402.3682556152344 259.9383544921875 C 403.8298645019531 255.468505859375 405.2914733886719 250.9986572265625 406.7530212402344 246.5286865234375 C 407.3152770996094 245.4112548828125 407.8774108886719 244.293701171875 408.4395446777344 243.17626953125 C 409.1141052246094 242.2823486328125 409.7887268066406 241.3883056640625 410.4632873535156 240.494384765625 C 411.0254821777344 239.0416259765625 411.5876159667969 237.5888671875 412.1497497558594 236.13623046875 C 413.9486389160156 233.9012451171875 415.7475280761719 231.666259765625 417.5464172363281 229.4312744140625 C 418.3334045410156 229.0960693359375 419.1204528808594 228.7608642578125 419.9075012207031 228.425537109375 C 421.2566833496094 228.425537109375 422.6058044433594 228.425537109375 423.9549865722656 228.425537109375 C 424.7419738769531 228.7608642578125 425.5290222167969 229.0960693359375 426.3160705566406 229.4312744140625 C 427.1029968261719 230.213623046875 427.8900451660156 230.995849609375 428.6770935058594 231.778076171875 C 429.2392272949219 233.230712890625 429.8013610839844 234.6834716796875 430.3635559082031 236.13623046875 C 430.4759826660156 242.841064453125 430.5884094238281 249.5458984375 430.7008361816406 256.250732421875 C 431.0381164550781 257.032958984375 431.3754577636719 257.815185546875 431.7126770019531 258.597412109375 C 431.8251647949219 260.161865234375 431.9375915527344 261.726318359375 432.0500183105469 263.290771484375 C 432.4997253417969 264.7435302734375 432.9494323730469 266.1962890625 433.3991394042969 267.64892578125 C 433.9613342285156 272.3424072265625 434.5235290527344 277.0357666015625 435.0856628417969 281.729248046875 C 435.8726501464844 283.62890625 436.6596374511719 285.528564453125 437.4466857910156 287.4283447265625 C 437.5591125488281 288.881103515625 437.6715393066406 290.333740234375 437.7840270996094 291.786376953125 C 438.6834411621094 295.138916015625 439.5829162597656 298.4913330078125 440.4822692871094 301.84375 C 440.5947570800781 303.408203125 440.7071838378906 304.97265625 440.8196105957031 306.537109375 C 441.1568908691406 307.2076416015625 441.4942321777344 307.878173828125 441.8314514160156 308.548583984375 C 442.0563659667969 310.3365478515625 442.2811584472656 312.12451171875 442.5060729980469 313.9124755859375 C 444.5298156738281 319.3880615234375 446.5536193847656 324.86376953125 448.5773620605469 330.33935546875 C 449.5892028808594 326.763427734375 450.6010437011719 323.1875 451.6130065917969 319.611572265625 C 452.8497009277344 316.5943603515625 454.0864562988281 313.5771484375 455.3232116699219 310.56005859375 C 455.4356384277344 309.442626953125 455.5480651855469 308.3250732421875 455.6604309082031 307.2076416015625 C 456.3350524902344 305.307861328125 457.0096130371094 303.408203125 457.6842346191406 301.508544921875 C 458.3587951660156 297.5972900390625 459.0334167480469 293.6861572265625 459.7079772949219 289.7750244140625 C 461.0571594238281 286.422607421875 462.4063415527344 283.0701904296875 463.7555236816406 279.7177734375 C 463.8678894042969 278.6002197265625 463.9803161621094 277.4827880859375 464.0928039550781 276.365234375 C 465.3294982910156 272.4541015625 466.5662536621094 268.54296875 467.8030090332031 264.6318359375 C 468.1402893066406 262.17333984375 468.4775695800781 259.7149658203125 468.8149108886719 257.2564697265625 C 469.9391784667969 254.0157470703125 471.0635070800781 250.775146484375 472.1877746582031 247.534423828125 C 472.8623962402344 246.5286865234375 473.5369567871094 245.52294921875 474.2115783691406 244.5172119140625 C 474.2115783691406 243.8468017578125 474.2115783691406 243.17626953125 474.2115783691406 242.5057373046875 C 474.8861389160156 241.3883056640625 475.5607604980469 240.2708740234375 476.2353210449219 239.1533203125 C 476.6850280761719 236.91845703125 477.1347961425781 234.6834716796875 477.5845031738281 232.448486328125 C 478.1466369628906 231.21923828125 478.7087707519531 229.9901123046875 479.2709655761719 228.7608642578125 C 480.0579528808594 227.9786376953125 480.8450012207031 227.1964111328125 481.6320495605469 226.4141845703125 C 482.4189758300781 226.078857421875 483.2060241699219 225.74365234375 483.9930725097656 225.408447265625 C 485.4546203613281 225.5201416015625 486.9162292480469 225.6319580078125 488.3778381347656 225.74365234375 C 489.6145935058594 226.7493896484375 490.8513488769531 227.755126953125 492.0880432128906 228.7608642578125 C 492.5377502441406 230.213623046875 492.9875183105469 231.666259765625 493.4372253417969 233.1190185546875 C 492.9875183105469 235.689208984375 492.5377502441406 238.2593994140625 492.0880432128906 240.82958984375 C 490.9637756347656 243.8468017578125 489.8394470214844 246.864013671875 488.7151184082031 249.881103515625 C 487.4783630371094 252.227783203125 486.2416687011719 254.574462890625 485.0049133300781 256.9212646484375 C 483.4309387207031 263.9613037109375 481.8568420410156 271.00146484375 480.2828674316406 278.04150390625 C 478.3715515136719 283.51708984375 476.4601745605469 288.9927978515625 474.5488586425781 294.4683837890625 C 473.9867248535156 296.703369140625 473.4245300292969 298.938232421875 472.8623962402344 301.1732177734375 C 472.7499084472656 302.8494873046875 472.6375427246094 304.525634765625 472.5251159667969 306.201904296875 C 469.7143249511719 314.359375 466.9035949707031 322.51708984375 464.0928039550781 330.674560546875 C 463.6430969238281 333.6917724609375 463.1933898925781 336.708984375 462.7436218261719 339.7261962890625 C 462.2939147949219 340.8436279296875 461.8442077636719 341.9610595703125 461.3944396972656 343.07861328125 C 461.3944396972656 346.4310302734375 461.3944396972656 349.783447265625 461.3944396972656 353.1358642578125 C 461.1695861816406 354.588623046875 460.9447326660156 356.041259765625 460.7198181152344 357.4940185546875 C 460.0452575683594 358.8349609375 459.3706970214844 360.1759033203125 458.6961364746094 361.5169677734375 C 457.7966613769531 362.2991943359375 456.8971862792969 363.0814208984375 455.9977722167969 363.8636474609375 C 454.3113098144531 364.1988525390625 452.6248474121094 364.5341796875 450.9383850097656 364.869384765625 C 450.0389099121094 364.6458740234375 449.1394958496094 364.42236328125 448.2400207519531 364.1988525390625 C 447.3405456542969 363.5283203125 446.4411315917969 362.85791015625 445.5416564941406 362.1873779296875 C 445.0919494628906 361.5169677734375 444.6422424316406 360.846435546875 444.1925354003906 360.1759033203125 C 443.4055480957031 358.052734375 442.6184997558594 355.9295654296875 441.8314514160156 353.806396484375 C 441.1568908691406 352.912353515625 440.4822692871094 352.018310546875 439.8077087402344 351.1243896484375 C 439.0207214355469 348.55419921875 438.2337341308594 345.9840087890625 437.4466857910156 343.413818359375 C 436.5472717285156 341.737548828125 435.6477966308594 340.0614013671875 434.7483215332031 338.3851318359375 C 433.8489074707031 335.479736328125 432.9494323730469 332.5743408203125 432.0500183105469 329.6689453125 C 431.6002502441406 328.9984130859375 431.1505432128906 328.327880859375 430.7008361816406 327.657470703125 C 429.6889343261719 324.751953125 428.6770935058594 321.8465576171875 427.6652526855469 318.941162109375 C 427.5527648925781 317.264892578125 427.4403381347656 315.588623046875 427.3279113769531 313.9124755859375 C 426.7657775878906 312.3480224609375 426.2036437988281 310.7835693359375 425.6414489746094 309.2191162109375 C 425.5290222167969 307.3193359375 425.4165954589844 305.419677734375 425.3041687011719 303.52001953125 C 424.4047546386719 300.3909912109375 423.5052795410156 297.2620849609375 422.6058044433594 294.1331787109375 C 422.4933776855469 292.680419921875 422.3809509277344 291.227783203125 422.2685241699219 289.7750244140625 C 421.5939636230469 288.322265625 420.9193420410156 286.86962890625 420.2447814941406 285.4168701171875 C 419.6825866699219 280.38818359375 419.1204528808594 275.359619140625 418.5583190917969 270.3309326171875 C 417.9961853027344 268.4312744140625 417.4339904785156 266.531494140625 416.8717956542969 264.6318359375 C 416.5345764160156 265.6375732421875 416.1972961425781 266.643310546875 415.8599548339844 267.64892578125 C 415.6351013183594 270.21923828125 415.4102478027344 272.789306640625 415.1853942871094 275.359619140625 C 413.0492248535156 282.399658203125 410.9129943847656 289.439697265625 408.7768249511719 296.4798583984375 C 404.1672058105469 308.3250732421875 399.5575256347656 320.1702880859375 394.9478454589844 332.015625 C 394.1607971191406 335.479736328125 393.3737487792969 338.94384765625 392.5868225097656 342.4080810546875 C 392.4743347167969 345.2017822265625 392.3619079589844 347.9954833984375 392.2494812011719 350.7891845703125 C 391.5748596191406 352.912353515625 390.9002990722656 355.0355224609375 390.2257385253906 357.15869140625 C 389.1014099121094 358.499755859375 387.9771423339844 359.8406982421875 386.8528137207031 361.181640625 C 385.3912048339844 361.740478515625 383.9295959472656 362.2991943359375 382.4680480957031 362.85791015625 C 381.1188659667969 362.522705078125 379.7696838378906 362.1873779296875 378.4205017089844 361.8521728515625 C 377.2961730957031 360.6229248046875 376.1719055175781 359.3936767578125 375.0475769042969 358.16455078125 C 374.2605895996094 354.476806640625 373.4735412597656 350.7891845703125 372.6864929199219 347.1015625 C 372.6864929199219 343.6373291015625 372.6864929199219 340.173095703125 372.6864929199219 336.708984375 C 372.3492736816406 335.81494140625 372.0119323730469 334.9210205078125 371.6746520996094 334.0269775390625 C 371.3373718261719 330.33935546875 371.0000915527344 326.6517333984375 370.6627502441406 322.9639892578125 C 370.7751770019531 314.359375 370.8876647949219 305.7548828125 371.0000915527344 297.150390625 C 370.7751770019531 294.580078125 370.5503234863281 292.010009765625 370.3254699707031 289.439697265625 C 369.5384826660156 284.858154296875 368.7514343261719 280.2764892578125 367.9644470214844 275.69482421875 C 367.9644470214844 273.012939453125 367.9644470214844 270.3309326171875 367.9644470214844 267.64892578125 C 367.1774597167969 263.402587890625 366.3904113769531 259.1561279296875 365.6033630371094 254.9097900390625 C 365.4909362792969 251.3338623046875 365.3785705566406 247.7579345703125 365.2660827636719 244.1820068359375 C 364.8163146972656 242.39404296875 364.3666076660156 240.6060791015625 363.9169006347656 238.818115234375 C 363.9169006347656 236.91845703125 363.9169006347656 235.0186767578125 363.9169006347656 233.1190185546875 C 364.1418151855469 232.00146484375 364.3666076660156 230.884033203125 364.5915222167969 229.7666015625 C 365.6033630371094 228.537353515625 366.6152648925781 227.30810546875 367.6271667480469 226.078857421875 C 368.3017272949219 225.85546875 368.9762878417969 225.6319580078125 369.6509094238281 225.408447265625M 261.042724609375 217.6978759765625 C 264.4156188964844 217.6978759765625 267.78857421875 217.6978759765625 271.1614990234375 217.6978759765625 C 274.8717041015625 219.709228515625 278.5819396972656 221.720703125 282.2921447753906 223.732177734375 C 283.6413269042969 225.0732421875 284.990478515625 226.4141845703125 286.33966064453125 227.755126953125 C 287.9136657714844 228.87255859375 289.4877014160156 229.9901123046875 291.0617370605469 231.1075439453125 C 292.6357727050781 232.78369140625 294.2098083496094 234.4599609375 295.7838134765625 236.13623046875 C 296.2335510253906 236.91845703125 296.68328857421875 237.70068359375 297.13299560546875 238.48291015625 C 298.482177734375 239.712158203125 299.83135986328125 240.9412841796875 301.1805114746094 242.1705322265625 C 301.74267578125 243.7349853515625 302.3048400878906 245.2994384765625 302.8669738769531 246.864013671875 C 302.6421203613281 247.9814453125 302.417236328125 249.098876953125 302.1923828125 250.21630859375 C 301.4053955078125 251.2220458984375 300.61834716796875 252.227783203125 299.83135986328125 253.2335205078125 C 298.3697509765625 253.792236328125 296.90814208984375 254.35107421875 295.446533203125 254.9097900390625 C 294.3222351074219 254.686279296875 293.19793701171875 254.4627685546875 292.0736083984375 254.2392578125 C 290.16229248046875 252.5631103515625 288.2509765625 250.8868408203125 286.33966064453125 249.210693359375 C 284.6531677246094 246.9757080078125 282.96673583984375 244.74072265625 281.2802734375 242.5057373046875 C 279.2565002441406 241.0531005859375 277.2327575683594 239.600341796875 275.208984375 238.147705078125 C 274.75927734375 237.5888671875 274.3095397949219 237.0301513671875 273.85980224609375 236.471435546875 C 271.6112365722656 235.2421875 269.36260986328125 234.012939453125 267.1139831542969 232.78369140625 C 267.1139831542969 234.012939453125 267.1139831542969 235.2421875 267.1139831542969 236.471435546875 C 267.3388366699219 236.806640625 267.5636901855469 237.141845703125 267.78857421875 237.4771728515625 C 268.013427734375 239.26513671875 268.23828125 241.0531005859375 268.463134765625 242.841064453125 C 268.3507385253906 260.161865234375 268.23828125 277.4827880859375 268.1258850097656 294.8035888671875 C 271.8360900878906 294.356689453125 275.5462951660156 293.90966796875 279.2565002441406 293.462646484375 C 285.5526428222656 293.462646484375 291.8487548828125 293.462646484375 298.1448974609375 293.462646484375 C 298.5946350097656 293.2391357421875 299.0443420410156 293.015625 299.49407958984375 292.792236328125 C 300.9556579589844 292.792236328125 302.417236328125 292.792236328125 303.8788757324219 292.792236328125 C 304.6658630371094 293.12744140625 305.452880859375 293.462646484375 306.2398986816406 293.7978515625 C 307.02691650390625 294.580078125 307.81396484375 295.3623046875 308.6009521484375 296.14453125 C 308.9382629394531 296.8150634765625 309.2755432128906 297.485595703125 309.6128234863281 298.156005859375 C 309.6128234863281 299.4970703125 309.6128234863281 300.8380126953125 309.6128234863281 302.178955078125 C 309.1631164550781 303.072998046875 308.7134094238281 303.9669189453125 308.263671875 304.8609619140625 C 306.3523254394531 306.090087890625 304.4410095214844 307.3193359375 302.5296936035156 308.548583984375 C 294.2098083496094 308.660400390625 285.88995361328125 308.7720947265625 277.570068359375 308.8837890625 C 275.99603271484375 308.99560546875 274.4219970703125 309.1072998046875 272.84796142578125 309.2191162109375 C 271.6112365722656 309.666015625 270.37445068359375 310.113037109375 269.1377258300781 310.56005859375 C 269.36260986328125 318.829345703125 269.58746337890625 327.0986328125 269.81231689453125 335.367919921875 C 270.03717041015625 338.8321533203125 270.2620544433594 342.29638671875 270.4869079589844 345.760498046875 C 270.8241882324219 347.2132568359375 271.1614990234375 348.666015625 271.498779296875 350.11865234375 C 271.498779296875 352.5771484375 271.498779296875 355.0355224609375 271.498779296875 357.4940185546875 C 271.27392578125 358.499755859375 271.0490417480469 359.5054931640625 270.8241882324219 360.51123046875 C 270.14959716796875 361.8521728515625 269.4750061035156 363.193115234375 268.8004150390625 364.5341796875 C 268.013427734375 365.20458984375 267.2264099121094 365.8751220703125 266.43939208984375 366.5455322265625 C 265.3150634765625 366.880859375 264.1907958984375 367.216064453125 263.06646728515625 367.55126953125 C 261.7173156738281 367.216064453125 260.3681335449219 366.880859375 259.0189514160156 366.5455322265625 C 258.3443603515625 365.98681640625 257.6697692871094 365.4281005859375 256.9952087402344 364.869384765625 C 256.43304443359375 363.8636474609375 255.87088012695312 362.85791015625 255.30874633789062 361.8521728515625 C 255.53359985351562 357.9410400390625 255.75845336914062 354.02978515625 255.98333740234375 350.11865234375 C 255.64602661132812 348.7777099609375 255.30874633789062 347.436767578125 254.97146606445312 346.095703125 C 254.521728515625 335.591552734375 254.072021484375 325.0872802734375 253.62228393554688 314.5830078125 C 251.486083984375 315.1417236328125 249.34991455078125 315.700439453125 247.21371459960938 316.2591552734375 C 244.85269165039062 316.370849609375 242.49160766601562 316.482666015625 240.13058471679688 316.5943603515625 C 239.23110961914062 316.370849609375 238.3316650390625 316.1474609375 237.43222045898438 315.9239501953125 C 236.75765991210938 315.4769287109375 236.08306884765625 315.0299072265625 235.40850830078125 314.5830078125 C 234.6214599609375 313.353759765625 233.83447265625 312.12451171875 233.04742431640625 310.895263671875 C 233.15988159179688 309.330810546875 233.27227783203125 307.766357421875 233.38473510742188 306.201904296875 C 234.3966064453125 304.97265625 235.40850830078125 303.743408203125 236.42034912109375 302.51416015625 C 237.2073974609375 302.178955078125 237.994384765625 301.84375 238.78140258789062 301.508544921875 C 240.6927490234375 301.396728515625 242.60406494140625 301.2850341796875 244.515380859375 301.1732177734375 C 246.76400756835938 300.726318359375 249.01263427734375 300.279296875 251.26123046875 299.832275390625 C 251.935791015625 299.4970703125 252.61038208007812 299.1617431640625 253.28497314453125 298.8265380859375 C 253.06011962890625 297.485595703125 252.83526611328125 296.14453125 252.61038208007812 294.8035888671875 C 252.72283935546875 277.25927734375 252.83526611328125 259.7149658203125 252.94769287109375 242.1705322265625 C 252.61038208007812 241.61181640625 252.27310180664062 241.0531005859375 251.935791015625 240.494384765625 C 251.82339477539062 239.600341796875 251.7109375 238.7064208984375 251.59854125976562 237.8123779296875 C 251.59854125976562 234.34814453125 251.59854125976562 230.884033203125 251.59854125976562 227.419921875 C 252.16067504882812 225.408447265625 252.72283935546875 223.39697265625 253.28497314453125 221.385498046875 C 254.521728515625 220.3797607421875 255.75845336914062 219.3740234375 256.9952087402344 218.3682861328125 C 258.3443603515625 218.144775390625 259.69354248046875 217.92138671875 261.042724609375 217.6978759765625"/>
  </g>
</svg>
