<?xml version="1.0" ?>
<svg xmlns="http://www.w3.org/2000/svg" version="1.1" width="600" height="600">
  <defs/>
  <g>
    <path stroke-width="0" fill="rgb(0, 0, 0)" opacity="1.0" d="M 258.4588317871094 301.55743408203125 C 258.6330261230469 301.3843994140625 258.80718994140625 301.21136474609375 258.98138427734375 301.03826904296875 C 260.374755859375 301.03826904296875 261.7681884765625 301.03826904296875 263.1615905761719 301.03826904296875 C 265.6000671386719 301.73052978515625 268.03857421875 302.4227294921875 270.47705078125 303.11492919921875 C 272.3929748535156 303.98016357421875 274.3089294433594 304.84552001953125 276.224853515625 305.71075439453125 C 279.53424072265625 307.96038818359375 282.8435974121094 310.21014404296875 286.1529541015625 312.45977783203125 C 291.0299072265625 317.3052978515625 295.9068603515625 322.15081787109375 300.7838134765625 326.99627685546875 C 302.17724609375 329.07293701171875 303.5706481933594 331.14959716796875 304.96405029296875 333.2261962890625 C 306.1833190917969 335.99505615234375 307.4025573730469 338.76385498046875 308.6217956542969 341.53277587890625 C 308.9701232910156 343.09027099609375 309.3184814453125 344.647705078125 309.66680908203125 346.2052001953125 C 309.66680908203125 349.83929443359375 309.66680908203125 353.47344970703125 309.66680908203125 357.10748291015625 C 308.9701232910156 359.70330810546875 308.2734069824219 362.29913330078125 307.57672119140625 364.89495849609375 C 306.35748291015625 367.31768798828125 305.13824462890625 369.74041748046875 303.91900634765625 372.16314697265625 C 302.52557373046875 374.23980712890625 301.1321716308594 376.31646728515625 299.73876953125 378.39306640625 C 295.9068603515625 382.71942138671875 292.0749816894531 387.04571533203125 288.2430725097656 391.3720703125 C 289.636474609375 391.7181396484375 291.0299072265625 392.06427001953125 292.4233093261719 392.41033935546875 C 292.94586181640625 392.7564697265625 293.4683837890625 393.10260009765625 293.9909362792969 393.44866943359375 C 295.0359802246094 394.83306884765625 296.0810241699219 396.21759033203125 297.1260986328125 397.60198974609375 C 297.1260986328125 399.33251953125 297.1260986328125 401.06304931640625 297.1260986328125 402.79351806640625 C 296.77777099609375 403.48577880859375 296.42938232421875 404.17803955078125 296.0810241699219 404.87017822265625 C 294.6876220703125 406.08160400390625 293.2942199707031 407.29290771484375 291.9007873535156 408.50433349609375 C 290.50738525390625 408.6773681640625 289.11395263671875 408.85040283203125 287.7205505371094 409.02349853515625 C 283.36614990234375 407.98516845703125 279.0116882324219 406.94683837890625 274.65728759765625 405.90850830078125 C 273.43804931640625 405.21630859375 272.21881103515625 404.52410888671875 270.99957275390625 403.83184814453125 C 270.1286926269531 402.96661376953125 269.2578125 402.10137939453125 268.38690185546875 401.236083984375 C 267.8643798828125 400.19781494140625 267.34185791015625 399.15948486328125 266.8193054199219 398.12115478515625 C 266.8193054199219 396.39056396484375 266.8193054199219 394.66009521484375 266.8193054199219 392.92950439453125 C 267.51605224609375 391.3720703125 268.2127380371094 389.8145751953125 268.9094543457031 388.25714111328125 C 270.47705078125 386.18048095703125 272.04461669921875 384.10382080078125 273.6122131347656 382.02716064453125 C 277.4441223144531 377.8739013671875 281.2760009765625 373.72064208984375 285.10791015625 369.56732177734375 C 286.3271484375 367.83685302734375 287.54638671875 366.10626220703125 288.765625 364.37579345703125 C 289.98486328125 361.60687255859375 291.2041015625 358.83807373046875 292.4233093261719 356.0692138671875 C 292.5975036621094 353.99261474609375 292.7716979980469 351.91595458984375 292.94586181640625 349.83929443359375 C 292.4233093261719 347.93572998046875 291.9007873535156 346.03216552734375 291.3782653808594 344.1285400390625 C 290.50738525390625 342.571044921875 289.636474609375 341.01361083984375 288.765625 339.45611572265625 C 287.7205505371094 338.07171630859375 286.67547607421875 336.687255859375 285.63043212890625 335.3028564453125 C 283.1919250488281 332.88006591796875 280.75347900390625 330.45733642578125 278.31500244140625 328.03460693359375 C 274.65728759765625 325.43878173828125 270.99957275390625 322.84295654296875 267.34185791015625 320.24725341796875 C 265.6000671386719 319.55499267578125 263.8583068847656 318.86273193359375 262.1165466308594 318.17059326171875 C 260.374755859375 317.824462890625 258.6330261230469 317.47833251953125 256.8912658691406 317.13226318359375 C 255.6719970703125 315.92083740234375 254.4527587890625 314.70953369140625 253.2335205078125 313.49810791015625 C 252.88516235351562 312.28680419921875 252.53683471679688 311.07537841796875 252.1884765625 309.86407470703125 C 252.36264038085938 308.82574462890625 252.53683471679688 307.78741455078125 252.71099853515625 306.74908447265625 C 253.05935668945312 306.05682373046875 253.40771484375 305.3646240234375 253.75607299804688 304.67242431640625 C 254.4527587890625 303.98016357421875 255.14947509765625 303.28802490234375 255.84619140625 302.59576416015625 C 256.7170715332031 302.24969482421875 257.58795166015625 301.90362548828125 258.4588317871094 301.55743408203125M 324.29766845703125 253.275634765625 C 324.47186279296875 253.10260009765625 324.64605712890625 252.92950439453125 324.8202209472656 252.7564697265625 C 326.3878173828125 252.7564697265625 327.9554138183594 252.7564697265625 329.5229797363281 252.7564697265625 C 330.2197265625 253.10260009765625 330.9164123535156 253.44866943359375 331.6131286621094 253.7947998046875 C 332.4839782714844 254.66009521484375 333.3548889160156 255.52532958984375 334.22576904296875 256.39056396484375 C 334.5741271972656 257.08282470703125 334.9224853515625 257.7750244140625 335.2708435058594 258.46722412109375 C 336.1417236328125 261.92828369140625 337.0126037597656 265.38934326171875 337.8835144042969 268.85040283203125 C 338.2318420410156 272.31146240234375 338.5802001953125 275.77252197265625 338.92852783203125 279.23358154296875 C 339.10272216796875 279.40667724609375 339.27691650390625 279.5797119140625 339.4510803222656 279.75274658203125 C 339.4510803222656 281.65631103515625 339.4510803222656 283.5599365234375 339.4510803222656 285.46356201171875 C 339.6252746582031 285.63653564453125 339.7994384765625 285.80963134765625 339.9736022949219 285.98272705078125 C 339.7994384765625 296.19281005859375 339.6252746582031 306.4029541015625 339.4510803222656 316.61309814453125 C 339.27691650390625 316.7861328125 339.10272216796875 316.95916748046875 338.92852783203125 317.13226318359375 C 338.92852783203125 318.86273193359375 338.92852783203125 320.59332275390625 338.92852783203125 322.3238525390625 C 338.7543640136719 322.49688720703125 338.5802001953125 322.66998291015625 338.406005859375 322.84295654296875 C 337.8835144042969 328.20770263671875 337.3609619140625 333.57232666015625 336.83843994140625 338.93695068359375 C 336.6642761230469 339.11004638671875 336.49005126953125 339.2830810546875 336.3158874511719 339.45611572265625 C 336.3158874511719 340.66748046875 336.3158874511719 341.87884521484375 336.3158874511719 343.09027099609375 C 336.1417236328125 343.2633056640625 335.967529296875 343.43634033203125 335.7933654785156 343.609375 C 335.7933654785156 344.647705078125 335.7933654785156 345.68597412109375 335.7933654785156 346.72430419921875 C 335.61920166015625 346.89739990234375 335.44500732421875 347.07049560546875 335.2708435058594 347.2435302734375 C 335.0966491699219 349.49322509765625 334.9224853515625 351.74285888671875 334.748291015625 353.99261474609375 C 334.22576904296875 356.58837890625 333.7032165527344 359.18414306640625 333.18072509765625 361.77996826171875 C 333.18072509765625 362.99139404296875 333.18072509765625 364.20269775390625 333.18072509765625 365.41412353515625 C 332.8323669433594 366.79852294921875 332.4839782714844 368.18292236328125 332.1356506347656 369.56732177734375 C 331.78729248046875 374.412841796875 331.43896484375 379.25836181640625 331.090576171875 384.10382080078125 C 330.9164123535156 384.27691650390625 330.7422180175781 384.449951171875 330.56805419921875 384.62298583984375 C 330.56805419921875 387.391845703125 330.56805419921875 390.16070556640625 330.56805419921875 392.92950439453125 C 330.7422180175781 393.10260009765625 330.9164123535156 393.275634765625 331.090576171875 393.44866943359375 C 331.2647705078125 393.275634765625 331.43896484375 393.10260009765625 331.6131286621094 392.92950439453125 C 334.0516052246094 392.92950439453125 336.49005126953125 392.92950439453125 338.92852783203125 392.92950439453125 C 339.4510803222656 393.10260009765625 339.9736022949219 393.275634765625 340.4961242675781 393.44866943359375 C 341.7153625488281 394.48699951171875 342.9346008300781 395.52532958984375 344.1538391113281 396.56365966796875 C 344.6763916015625 397.94805908203125 345.19891357421875 399.33251953125 345.721435546875 400.7169189453125 C 345.3730773925781 402.2744140625 345.0247497558594 403.83184814453125 344.6763916015625 405.38934326171875 C 343.4571533203125 406.60076904296875 342.2379150390625 407.81207275390625 341.0186767578125 409.02349853515625 C 339.9736022949219 409.36956787109375 338.92852783203125 409.7156982421875 337.8835144042969 410.06182861328125 C 335.967529296875 410.06182861328125 334.0516052246094 410.06182861328125 332.1356506347656 410.06182861328125 C 330.9164123535156 410.40789794921875 329.6971740722656 410.75396728515625 328.4779357910156 411.10015869140625 C 326.2136535644531 411.10015869140625 323.9493408203125 411.10015869140625 321.6850280761719 411.10015869140625 C 320.4657897949219 410.58099365234375 319.24658203125 410.06182861328125 318.02734375 409.54266357421875 C 316.6339111328125 407.98516845703125 315.2405090332031 406.42767333984375 313.8470764160156 404.87017822265625 C 313.49871826171875 403.6588134765625 313.1503601074219 402.44744873046875 312.8020324707031 401.236083984375 C 313.3245544433594 392.23736572265625 313.8470764160156 383.23858642578125 314.36962890625 374.23980712890625 C 314.5437927246094 374.06671142578125 314.71795654296875 373.8936767578125 314.8921203613281 373.72064208984375 C 315.2405090332031 369.56732177734375 315.5888671875 365.41412353515625 315.93719482421875 361.26080322265625 C 316.1113586425781 361.08770751953125 316.2855529785156 360.91473388671875 316.459716796875 360.74163818359375 C 316.6339111328125 358.491943359375 316.80810546875 356.24224853515625 316.9822692871094 353.99261474609375 C 317.15643310546875 353.81951904296875 317.33062744140625 353.64642333984375 317.5047912597656 353.47344970703125 C 317.678955078125 351.22369384765625 317.8531188964844 348.97406005859375 318.02734375 346.72430419921875 C 318.54986572265625 344.1285400390625 319.0723876953125 341.53277587890625 319.59490966796875 338.93695068359375 C 319.59490966796875 337.7255859375 319.59490966796875 336.51422119140625 319.59490966796875 335.3028564453125 C 319.9432678222656 333.91839599609375 320.2916259765625 332.53399658203125 320.6399841308594 331.14959716796875 C 320.98834228515625 326.65020751953125 321.336669921875 322.15081787109375 321.6850280761719 317.65142822265625 C 321.85919189453125 317.47833251953125 322.0334167480469 317.3052978515625 322.20758056640625 317.13226318359375 C 322.20758056640625 315.22869873046875 322.20758056640625 313.3250732421875 322.20758056640625 311.4215087890625 C 322.3817443847656 311.24847412109375 322.555908203125 311.07537841796875 322.7301025390625 310.90228271484375 C 322.7301025390625 302.24969482421875 322.7301025390625 293.59698486328125 322.7301025390625 284.94439697265625 C 322.555908203125 284.77130126953125 322.3817443847656 284.5982666015625 322.20758056640625 284.42523193359375 C 322.20758056640625 282.86773681640625 322.20758056640625 281.31024169921875 322.20758056640625 279.75274658203125 C 322.0334167480469 279.5797119140625 321.85919189453125 279.40667724609375 321.6850280761719 279.23358154296875 C 321.5108642578125 277.156982421875 321.336669921875 275.08038330078125 321.1625061035156 273.00372314453125 C 320.2916259765625 269.71563720703125 319.4207458496094 266.42767333984375 318.54986572265625 263.13970947265625 C 318.54986572265625 261.7552490234375 318.54986572265625 260.37078857421875 318.54986572265625 258.98638916015625 C 319.24658203125 257.7750244140625 319.9432678222656 256.56365966796875 320.6399841308594 255.35223388671875 C 321.5108642578125 254.66009521484375 322.3817443847656 253.96783447265625 323.2526550292969 253.275634765625 C 323.6009826660156 253.275634765625 323.9493408203125 253.275634765625 324.29766845703125 253.275634765625M 291.9007873535156 146.84796142578125 C 292.0749816894531 146.6749267578125 292.2491455078125 146.5018310546875 292.4233093261719 146.32879638671875 C 293.6425476074219 146.32879638671875 294.8617858886719 146.32879638671875 296.0810241699219 146.32879638671875 C 297.3002624511719 146.6749267578125 298.5195007324219 147.02099609375 299.73876953125 147.36712646484375 C 300.6096496582031 147.88629150390625 301.48052978515625 148.40545654296875 302.3514099121094 148.92462158203125 C 303.396484375 149.962890625 304.4415283203125 151.001220703125 305.486572265625 152.03955078125 C 306.705810546875 151.17425537109375 307.9250793457031 150.30902099609375 309.1443176269531 149.44378662109375 C 310.3635559082031 148.92462158203125 311.5827941894531 148.40545654296875 312.8020324707031 147.88629150390625 C 313.6728820800781 147.71319580078125 314.5437927246094 147.5401611328125 315.4146728515625 147.36712646484375 C 316.6339111328125 147.5401611328125 317.8531188964844 147.71319580078125 319.0723876953125 147.88629150390625 C 320.2916259765625 148.5784912109375 321.5108642578125 149.27069091796875 322.7301025390625 149.962890625 C 323.7751770019531 151.17425537109375 324.8202209472656 152.38568115234375 325.86529541015625 153.5970458984375 C 326.5619812011719 154.9814453125 327.2586975097656 156.36590576171875 327.9554138183594 157.75030517578125 C 328.6521301269531 160.86529541015625 329.34881591796875 163.980224609375 330.0455322265625 167.09515380859375 C 333.7032165527344 167.61431884765625 337.3609619140625 168.13348388671875 341.0186767578125 168.65264892578125 C 344.6763916015625 169.69097900390625 348.3340759277344 170.72930908203125 351.9918212890625 171.76763916015625 C 354.2561340332031 172.80596923828125 356.5204162597656 173.84423828125 358.7846984863281 174.882568359375 C 360.5264892578125 176.09393310546875 362.26824951171875 177.3052978515625 364.010009765625 178.51666259765625 C 365.92596435546875 180.766357421875 367.8419189453125 183.01605224609375 369.7578430175781 185.2657470703125 C 370.2803955078125 186.3040771484375 370.80291748046875 187.3424072265625 371.3254699707031 188.38067626953125 C 371.84796142578125 190.2843017578125 372.3704833984375 192.1878662109375 372.8930358886719 194.09149169921875 C 372.8930358886719 196.687255859375 372.8930358886719 199.2830810546875 372.8930358886719 201.87884521484375 C 371.84796142578125 205.51300048828125 370.80291748046875 209.1470947265625 369.7578430175781 212.78118896484375 C 368.36444091796875 215.550048828125 366.97100830078125 218.31890869140625 365.5776062011719 221.0877685546875 C 364.010009765625 223.510498046875 362.4424133300781 225.9332275390625 360.8748474121094 228.35601806640625 C 357.9138488769531 231.9901123046875 354.95281982421875 235.62420654296875 351.9918212890625 239.25836181640625 C 351.29510498046875 239.60443115234375 350.598388671875 239.9505615234375 349.9017028808594 240.29669189453125 C 348.159912109375 240.29669189453125 346.41815185546875 240.29669189453125 344.6763916015625 240.29669189453125 C 343.97967529296875 239.9505615234375 343.2829895019531 239.60443115234375 342.5862731933594 239.25836181640625 C 341.7153625488281 238.39306640625 340.8445129394531 237.52777099609375 339.9736022949219 236.66253662109375 C 339.6252746582031 235.9703369140625 339.27691650390625 235.27813720703125 338.92852783203125 234.58587646484375 C 338.92852783203125 232.85540771484375 338.92852783203125 231.12481689453125 338.92852783203125 229.39434814453125 C 342.76043701171875 224.0296630859375 346.5923156738281 218.6650390625 350.4242248535156 213.30035400390625 C 351.6434631347656 210.87762451171875 352.8627014160156 208.45489501953125 354.0819396972656 206.03216552734375 C 354.6044616699219 204.30157470703125 355.1269836425781 202.571044921875 355.6495361328125 200.84051513671875 C 355.4753723144531 198.5908203125 355.3011779785156 196.34112548828125 355.1269836425781 194.09149169921875 C 353.73358154296875 192.70703125 352.34014892578125 191.3226318359375 350.9467468261719 189.93817138671875 C 348.5082702636719 188.89984130859375 346.06982421875 187.861572265625 343.6313171386719 186.8232421875 C 339.6252746582031 185.95794677734375 335.61920166015625 185.09271240234375 331.6131286621094 184.22747802734375 C 324.9944152832031 183.53521728515625 318.37567138671875 182.843017578125 311.7569580078125 182.15081787109375 C 309.84100341796875 181.63165283203125 307.9250793457031 181.11248779296875 306.0091247558594 180.59332275390625 C 304.4415283203125 179.55499267578125 302.8739318847656 178.51666259765625 301.30633544921875 177.47833251953125 C 299.73876953125 175.05560302734375 298.1711730957031 172.63287353515625 296.60357666015625 170.21014404296875 C 295.9068603515625 168.65264892578125 295.21014404296875 167.09515380859375 294.5134582519531 165.5377197265625 C 294.16510009765625 165.3646240234375 293.81671142578125 165.19158935546875 293.4683837890625 165.0185546875 C 292.4233093261719 167.4412841796875 291.3782653808594 169.864013671875 290.3332214355469 172.28680419921875 C 289.636474609375 175.57476806640625 288.9397888183594 178.86279296875 288.2430725097656 182.15081787109375 C 287.89471435546875 187.861572265625 287.54638671875 193.57232666015625 287.1980285644531 199.2830810546875 C 287.0238342285156 199.45611572265625 286.84967041015625 199.629150390625 286.67547607421875 199.80218505859375 C 286.67547607421875 202.2249755859375 286.67547607421875 204.647705078125 286.67547607421875 207.0704345703125 C 286.5013122558594 207.2435302734375 286.3271484375 207.41656494140625 286.1529541015625 207.589599609375 C 286.1529541015625 208.97406005859375 286.1529541015625 210.35845947265625 286.1529541015625 211.74285888671875 C 285.8045959472656 212.95428466796875 285.45623779296875 214.1656494140625 285.10791015625 215.37701416015625 C 284.23699951171875 217.1075439453125 283.36614990234375 218.83807373046875 282.4952392578125 220.568603515625 C 279.3600769042969 225.0679931640625 276.224853515625 229.56732177734375 273.0896911621094 234.06671142578125 C 271.3479309082031 238.22003173828125 269.60614013671875 242.373291015625 267.8643798828125 246.52655029296875 C 265.0775451660156 252.06427001953125 262.2907409667969 257.60198974609375 259.50390625 263.13970947265625 C 256.8912658691406 267.29290771484375 254.27859497070312 271.44622802734375 251.66595458984375 275.5994873046875 C 247.48568725585938 279.92584228515625 243.30545043945312 284.25213623046875 239.12521362304688 288.5784912109375 C 233.20318603515625 293.25091552734375 227.2811737060547 297.92340087890625 221.35916137695312 302.59576416015625 C 219.26904296875 304.67242431640625 217.17892456054688 306.74908447265625 215.08880615234375 308.82574462890625 C 212.12777709960938 312.80596923828125 209.16677856445312 316.7861328125 206.2057647705078 320.766357421875 C 204.46400451660156 324.22747802734375 202.72222900390625 327.6884765625 200.98046875 331.14959716796875 C 199.76123046875 335.47589111328125 198.5419921875 339.80218505859375 197.32275390625 344.1285400390625 C 197.14857482910156 349.66619873046875 196.9744110107422 355.20391845703125 196.8002166748047 360.74163818359375 C 196.9744110107422 360.91473388671875 197.14857482910156 361.08770751953125 197.32275390625 361.26080322265625 C 197.49693298339844 363.33746337890625 197.67111206054688 365.41412353515625 197.8452911376953 367.49072265625 C 199.41287231445312 372.16314697265625 200.98046875 376.8355712890625 202.54806518554688 381.50799560546875 C 203.76730346679688 383.93072509765625 204.98654174804688 386.353515625 206.2057647705078 388.7762451171875 C 208.12171936035156 391.7181396484375 210.03765869140625 394.66009521484375 211.95361328125 397.60198974609375 C 214.04373168945312 400.19781494140625 216.13385009765625 402.79351806640625 218.22396850585938 405.38934326171875 C 221.70751953125 408.85040283203125 225.19105529785156 412.31146240234375 228.67459106445312 415.77252197265625 C 232.33230590820312 418.5413818359375 235.99002075195312 421.31024169921875 239.64773559570312 424.07904052734375 C 243.65380859375 425.80963134765625 247.65988159179688 427.54010009765625 251.66595458984375 429.27069091796875 C 255.49783325195312 430.30902099609375 259.3297424316406 431.34735107421875 263.1615905761719 432.38568115234375 C 266.8193054199219 433.07781982421875 270.47705078125 433.77008056640625 274.134765625 434.46221923828125 C 278.4891662597656 434.80841064453125 282.8435974121094 435.15447998046875 287.1980285644531 435.50054931640625 C 287.3722229003906 435.67364501953125 287.54638671875 435.84674072265625 287.7205505371094 436.01971435546875 C 289.8106689453125 436.01971435546875 291.9007873535156 436.01971435546875 293.9909362792969 436.01971435546875 C 294.16510009765625 436.19281005859375 294.3392639160156 436.36590576171875 294.5134582519531 436.53887939453125 C 303.396484375 436.53887939453125 312.27947998046875 436.53887939453125 321.1625061035156 436.53887939453125 C 321.336669921875 436.36590576171875 321.5108642578125 436.19281005859375 321.6850280761719 436.01971435546875 C 323.9493408203125 436.01971435546875 326.2136535644531 436.01971435546875 328.4779357910156 436.01971435546875 C 328.6521301269531 435.84674072265625 328.8262939453125 435.67364501953125 329.0004577636719 435.50054931640625 C 330.56805419921875 435.50054931640625 332.1356506347656 435.50054931640625 333.7032165527344 435.50054931640625 C 333.87744140625 435.32757568359375 334.0516052246094 435.15447998046875 334.22576904296875 434.98150634765625 C 338.92852783203125 434.46221923828125 343.6313171386719 433.94317626953125 348.3340759277344 433.42401123046875 C 354.77862548828125 431.86651611328125 361.2231750488281 430.30902099609375 367.667724609375 428.75152587890625 C 370.9770812988281 427.54010009765625 374.2864685058594 426.32879638671875 377.5957946777344 425.11737060546875 C 380.73101806640625 423.55987548828125 383.8661804199219 422.00250244140625 387.0013427734375 420.44500732421875 C 389.4398193359375 418.71441650390625 391.8783264160156 416.98394775390625 394.3168029785156 415.25335693359375 C 396.4068908691406 412.83062744140625 398.4970397949219 410.40789794921875 400.587158203125 407.98516845703125 C 401.10968017578125 406.94683837890625 401.6322021484375 405.90850830078125 402.1547546386719 404.87017822265625 C 402.50311279296875 403.48577880859375 402.8514404296875 402.10137939453125 403.1998291015625 400.7169189453125 C 403.1998291015625 398.64031982421875 403.1998291015625 396.56365966796875 403.1998291015625 394.48699951171875 C 402.8514404296875 392.92950439453125 402.50311279296875 391.3720703125 402.1547546386719 389.8145751953125 C 401.10968017578125 387.391845703125 400.06463623046875 384.96905517578125 399.0195617675781 382.54632568359375 C 397.45196533203125 379.95050048828125 395.8843688964844 377.354736328125 394.3168029785156 374.75897216796875 C 394.3168029785156 373.37457275390625 394.3168029785156 371.99005126953125 394.3168029785156 370.60565185546875 C 395.01348876953125 369.39434814453125 395.710205078125 368.18292236328125 396.4068908691406 366.9715576171875 C 397.2778015136719 366.27935791015625 398.148681640625 365.58709716796875 399.0195617675781 364.89495849609375 C 401.10968017578125 364.72186279296875 403.1998291015625 364.548828125 405.2899169921875 364.37579345703125 C 405.9866638183594 364.72186279296875 406.683349609375 365.06793212890625 407.38006591796875 365.41412353515625 C 408.2509460449219 366.27935791015625 409.121826171875 367.14459228515625 409.99273681640625 368.00982666015625 C 411.21197509765625 369.9134521484375 412.4311828613281 371.8170166015625 413.6504211425781 373.72064208984375 C 414.8696594238281 376.31646728515625 416.0888977050781 378.9122314453125 417.3081359863281 381.50799560546875 C 418.17901611328125 384.449951171875 419.0498962402344 387.391845703125 419.9207763671875 390.333740234375 C 419.9207763671875 391.54510498046875 419.9207763671875 392.7564697265625 419.9207763671875 393.96783447265625 C 420.094970703125 394.14093017578125 420.2691345214844 394.31396484375 420.44329833984375 394.48699951171875 C 420.2691345214844 397.94805908203125 420.094970703125 401.40911865234375 419.9207763671875 404.87017822265625 C 419.2240905761719 407.11993408203125 418.5273742675781 409.36956787109375 417.8306884765625 411.6192626953125 C 417.13397216796875 413.00372314453125 416.4372253417969 414.38812255859375 415.74053955078125 415.77252197265625 C 413.998779296875 418.19525146484375 412.2569885253906 420.6180419921875 410.5152282714844 423.04083251953125 C 408.9476623535156 424.59820556640625 407.38006591796875 426.15570068359375 405.81243896484375 427.71319580078125 C 403.025634765625 429.78985595703125 400.2388000488281 431.86651611328125 397.45196533203125 433.94317626953125 C 394.6651306152344 435.50054931640625 391.8783264160156 437.05804443359375 389.09149169921875 438.61553955078125 C 385.7821044921875 439.99993896484375 382.4727783203125 441.38446044921875 379.1634216308594 442.76885986328125 C 373.4155578613281 444.49932861328125 367.667724609375 446.22991943359375 361.919921875 447.96038818359375 C 357.5654602050781 448.82574462890625 353.2110595703125 449.69097900390625 348.85662841796875 450.55621337890625 C 345.5472717285156 450.90240478515625 342.2379150390625 451.24847412109375 338.92852783203125 451.59454345703125 C 338.7543640136719 451.76763916015625 338.5802001953125 451.94061279296875 338.406005859375 452.11370849609375 C 337.0126037597656 452.11370849609375 335.61920166015625 452.11370849609375 334.22576904296875 452.11370849609375 C 334.0516052246094 452.28680419921875 333.87744140625 452.45977783203125 333.7032165527344 452.63287353515625 C 329.0004577636719 452.80596923828125 324.29766845703125 452.97894287109375 319.59490966796875 453.15203857421875 C 319.4207458496094 453.32513427734375 319.24658203125 453.49810791015625 319.0723876953125 453.67120361328125 C 311.5827941894531 453.67120361328125 304.0931701660156 453.67120361328125 296.60357666015625 453.67120361328125 C 296.42938232421875 453.49810791015625 296.2552185058594 453.32513427734375 296.0810241699219 453.15203857421875 C 293.4683837890625 453.15203857421875 290.855712890625 453.15203857421875 288.2430725097656 453.15203857421875 C 288.06890869140625 452.97894287109375 287.89471435546875 452.80596923828125 287.7205505371094 452.63287353515625 C 284.23699951171875 452.45977783203125 280.75347900390625 452.28680419921875 277.2699279785156 452.11370849609375 C 277.09576416015625 451.94061279296875 276.9216003417969 451.76763916015625 276.7474060058594 451.59454345703125 C 272.5671691894531 451.07537841796875 268.38690185546875 450.55621337890625 264.2066650390625 450.03704833984375 C 259.8522644042969 448.99871826171875 255.49783325195312 447.96038818359375 251.14340209960938 446.92218017578125 C 246.7889862060547 445.36468505859375 242.4345703125 443.80718994140625 238.08013916015625 442.24969482421875 C 235.119140625 440.69219970703125 232.1581268310547 439.13470458984375 229.19712829589844 437.57720947265625 C 226.41029357910156 435.50054931640625 223.62347412109375 433.42401123046875 220.8366241455078 431.34735107421875 C 214.7404327392578 425.29046630859375 208.64425659179688 419.23358154296875 202.54806518554688 413.17669677734375 C 198.8903350830078 407.98516845703125 195.23263549804688 402.79351806640625 191.5749053955078 397.60198974609375 C 189.4847869873047 393.275634765625 187.39466857910156 388.94927978515625 185.30455017089844 384.62298583984375 C 184.08531188964844 380.8157958984375 182.86607360839844 377.00860595703125 181.6468505859375 373.20147705078125 C 181.29847717285156 370.60565185546875 180.95013427734375 368.00982666015625 180.60177612304688 365.41412353515625 C 180.42759704589844 365.24102783203125 180.25341796875 365.06793212890625 180.07923889160156 364.89495849609375 C 180.07923889160156 363.68353271484375 180.07923889160156 362.47216796875 180.07923889160156 361.26080322265625 C 179.9050750732422 361.08770751953125 179.73089599609375 360.91473388671875 179.55670166015625 360.74163818359375 C 179.55670166015625 356.41534423828125 179.55670166015625 352.0889892578125 179.55670166015625 347.76263427734375 C 180.60177612304688 342.39801025390625 181.6468505859375 337.03338623046875 182.69189453125 331.668701171875 C 184.2594757080078 327.6884765625 185.82708740234375 323.708251953125 187.39466857910156 319.72802734375 C 189.83314514160156 315.57476806640625 192.27163696289062 311.4215087890625 194.71009826660156 307.26824951171875 C 197.32275390625 303.98016357421875 199.93540954589844 300.69219970703125 202.54806518554688 297.4041748046875 C 204.98654174804688 294.98150634765625 207.4250030517578 292.5587158203125 209.86349487304688 290.135986328125 C 215.95968627929688 285.29046630859375 222.0558624267578 280.44500732421875 228.1520538330078 275.5994873046875 C 230.93890380859375 272.83062744140625 233.72572326660156 270.06182861328125 236.51255798339844 267.29290771484375 C 237.55760192871094 265.90850830078125 238.60267639160156 264.52410888671875 239.64773559570312 263.13970947265625 C 241.21533203125 260.54388427734375 242.7829132080078 257.94805908203125 244.3505096435547 255.35223388671875 C 246.96316528320312 250.16070556640625 249.57583618164062 244.96905517578125 252.1884765625 239.77752685546875 C 254.10440063476562 235.27813720703125 256.0203552246094 230.77874755859375 257.9363098144531 226.27935791015625 C 261.5940246582031 220.74163818359375 265.2517395019531 215.2039794921875 268.9094543457031 209.666259765625 C 269.7803039550781 199.2830810546875 270.6512145996094 188.89984130859375 271.5220947265625 178.51666259765625 C 271.6962890625 178.3436279296875 271.8704528808594 178.17059326171875 272.04461669921875 177.99749755859375 C 272.3929748535156 175.4017333984375 272.7413635253906 172.80596923828125 273.0896911621094 170.21014404296875 C 274.134765625 167.09515380859375 275.1798095703125 163.980224609375 276.224853515625 160.86529541015625 C 277.4441223144531 158.78863525390625 278.6633605957031 156.71197509765625 279.8825988769531 154.6353759765625 C 281.6243591308594 152.90484619140625 283.36614990234375 151.17425537109375 285.10791015625 149.44378662109375 C 286.3271484375 148.75152587890625 287.54638671875 148.059326171875 288.765625 147.36712646484375 C 289.8106689453125 147.19403076171875 290.855712890625 147.02099609375 291.9007873535156 146.84796142578125"/>
  </g>
</svg>
