<?xml version="1.0" ?>
<svg xmlns="http://www.w3.org/2000/svg" version="1.1" width="600" height="600">
  <defs/>
  <g>
    <path stroke-width="0" fill="rgb(0, 0, 0)" opacity="1.0" d="M 288.2430725097656 92.5958251953125 C 288.417236328125 92.4227294921875 288.5914611816406 92.24969482421875 288.765625 92.07666015625 C 290.3332214355469 92.24969482421875 291.9007873535156 92.4227294921875 293.4683837890625 92.5958251953125 C 294.6876220703125 93.980224609375 295.9068603515625 95.3646240234375 297.1260986328125 96.74908447265625 C 297.1260986328125 98.3065185546875 297.1260986328125 99.864013671875 297.1260986328125 101.4215087890625 C 296.2552185058594 102.63287353515625 295.38433837890625 103.84423828125 294.5134582519531 105.05560302734375 C 294.3392639160156 105.57476806640625 294.16510009765625 106.09393310546875 293.9909362792969 106.61309814453125 C 294.16510009765625 106.7861328125 294.3392639160156 106.959228515625 294.5134582519531 107.13226318359375 C 294.8617858886719 106.959228515625 295.21014404296875 106.7861328125 295.5585021972656 106.61309814453125 C 298.5195007324219 106.61309814453125 301.48052978515625 106.61309814453125 304.4415283203125 106.61309814453125 C 304.7898864746094 106.7861328125 305.13824462890625 106.959228515625 305.486572265625 107.13226318359375 C 305.6607666015625 106.959228515625 305.8349304199219 106.7861328125 306.0091247558594 106.61309814453125 C 305.6607666015625 105.747802734375 305.3124084472656 104.882568359375 304.96405029296875 104.01727294921875 C 304.267333984375 103.15203857421875 303.5706481933594 102.2867431640625 302.8739318847656 101.4215087890625 C 302.8739318847656 99.864013671875 302.8739318847656 98.3065185546875 302.8739318847656 96.74908447265625 C 303.91900634765625 95.5377197265625 304.96405029296875 94.3262939453125 306.0091247558594 93.11492919921875 C 306.705810546875 92.76885986328125 307.4025573730469 92.4227294921875 308.0992431640625 92.07666015625 C 309.1443176269531 92.07666015625 310.1893615722656 92.07666015625 311.23443603515625 92.07666015625 C 311.9311218261719 92.4227294921875 312.62786865234375 92.76885986328125 313.3245544433594 93.11492919921875 C 314.36962890625 94.15325927734375 315.4146728515625 95.19158935546875 316.459716796875 96.22991943359375 C 317.15643310546875 97.4412841796875 317.8531494140625 98.65264892578125 318.54986572265625 99.864013671875 C 319.4207458496094 103.3250732421875 320.2916259765625 106.7861328125 321.1625061035156 110.2471923828125 C 321.1625061035156 111.97772216796875 321.1625061035156 113.708251953125 321.1625061035156 115.4388427734375 C 322.7301025390625 117.6884765625 324.29766845703125 119.93817138671875 325.86529541015625 122.1878662109375 C 326.7361755371094 124.78369140625 327.6070556640625 127.37945556640625 328.4779357910156 129.97528076171875 C 328.4779357910156 133.2633056640625 328.4779357910156 136.55126953125 328.4779357910156 139.83929443359375 C 329.8713684082031 141.56982421875 331.2647705078125 143.30035400390625 332.658203125 145.0308837890625 C 333.7032165527344 147.626708984375 334.748291015625 150.22247314453125 335.7933654785156 152.81829833984375 C 335.7933654785156 157.66375732421875 335.7933654785156 162.50927734375 335.7933654785156 167.354736328125 C 334.9224853515625 169.60443115234375 334.0516052246094 171.8541259765625 333.18072509765625 174.10382080078125 C 334.748291015625 175.48828125 336.3158874511719 176.8726806640625 337.8835144042969 178.257080078125 C 338.7543640136719 179.468505859375 339.6252746582031 180.6798095703125 340.4961242675781 181.8912353515625 C 341.0186767578125 182.9295654296875 341.54119873046875 183.9678955078125 342.0637512207031 185.00616455078125 C 342.4120788574219 186.390625 342.76043701171875 187.7750244140625 343.1087646484375 189.159423828125 C 343.1087646484375 196.08154296875 343.1087646484375 203.00372314453125 343.1087646484375 209.92584228515625 C 342.2379150390625 212.5216064453125 341.3670349121094 215.117431640625 340.4961242675781 217.7132568359375 C 341.54119873046875 218.40545654296875 342.5862731933594 219.09765625 343.6313171386719 219.78985595703125 C 345.0247497558594 221.5203857421875 346.41815185546875 223.25091552734375 347.81158447265625 224.9814453125 C 348.6824645996094 227.5772705078125 349.5533142089844 230.17303466796875 350.4242248535156 232.768798828125 C 350.4242248535156 239.3448486328125 350.4242248535156 245.9208984375 350.4242248535156 252.49688720703125 C 349.5533142089844 255.2657470703125 348.6824645996094 258.03460693359375 347.81158447265625 260.803466796875 C 349.9017028808594 262.70703125 351.9918212890625 264.610595703125 354.0819396972656 266.51416015625 C 354.95281982421875 268.2447509765625 355.8236999511719 269.97528076171875 356.6946105957031 271.705810546875 C 357.0429382324219 273.436279296875 357.39129638671875 275.1668701171875 357.7396240234375 276.89739990234375 C 357.7396240234375 282.78125 357.7396240234375 288.6650390625 357.7396240234375 294.548828125 C 357.5654602050781 294.721923828125 357.39129638671875 294.8948974609375 357.2171325683594 295.0679931640625 C 357.2171325683594 295.9332275390625 357.2171325683594 296.79852294921875 357.2171325683594 297.663818359375 C 356.3462219238281 299.74041748046875 355.4753723144531 301.8170166015625 354.6044616699219 303.8936767578125 C 353.73358154296875 304.9320068359375 352.8627014160156 305.9703369140625 351.9918212890625 307.0086669921875 C 352.68853759765625 307.8739013671875 353.3852233886719 308.7391357421875 354.0819396972656 309.6044921875 C 355.1269836425781 312.0272216796875 356.17205810546875 314.449951171875 357.2171325683594 316.8726806640625 C 357.2171325683594 317.7379150390625 357.2171325683594 318.6031494140625 357.2171325683594 319.46844482421875 C 357.39129638671875 319.6414794921875 357.5654602050781 319.8145751953125 357.7396240234375 319.9876708984375 C 357.7396240234375 325.8714599609375 357.7396240234375 331.7552490234375 357.7396240234375 337.6390380859375 C 357.39129638671875 339.196533203125 357.0429382324219 340.7540283203125 356.6946105957031 342.31146240234375 C 355.99786376953125 343.86895751953125 355.3011779785156 345.4263916015625 354.6044616699219 346.98394775390625 C 352.34014892578125 349.233642578125 350.07586669921875 351.4832763671875 347.81158447265625 353.7330322265625 C 348.6824645996094 356.5018310546875 349.5533142089844 359.27069091796875 350.4242248535156 362.03955078125 C 350.4242248535156 368.4425048828125 350.4242248535156 374.845458984375 350.4242248535156 381.2484130859375 C 350.07586669921875 382.805908203125 349.7275085449219 384.3634033203125 349.379150390625 385.9208984375 C 347.9857482910156 388.1705322265625 346.5923156738281 390.4202880859375 345.19891357421875 392.669921875 C 345.3730773925781 393.3621826171875 345.5472717285156 394.05438232421875 345.721435546875 394.74658203125 C 346.7665100097656 396.3040771484375 347.81158447265625 397.861572265625 348.85662841796875 399.41900634765625 C 349.379150390625 401.3226318359375 349.9017028808594 403.2261962890625 350.4242248535156 405.1297607421875 C 350.4242248535156 411.53271484375 350.4242248535156 417.9356689453125 350.4242248535156 424.338623046875 C 350.07586669921875 425.8961181640625 349.7275085449219 427.45361328125 349.379150390625 429.0111083984375 C 348.6824645996094 430.3955078125 347.9857482910156 431.7799072265625 347.2890625 433.1644287109375 C 345.0247497558594 435.4140625 342.76043701171875 437.663818359375 340.4961242675781 439.9134521484375 C 341.3670349121094 442.50927734375 342.2379150390625 445.1051025390625 343.1087646484375 447.7008056640625 C 343.1087646484375 452.2001953125 343.1087646484375 456.6995849609375 343.1087646484375 461.198974609375 C 342.5862731933594 462.9295654296875 342.0637512207031 464.6600341796875 341.54119873046875 466.390625 C 340.8445129394531 467.6019287109375 340.14776611328125 468.8133544921875 339.4510803222656 470.024658203125 C 337.3609619140625 471.92822265625 335.2708435058594 473.831787109375 333.18072509765625 475.7354736328125 C 334.0516052246094 478.158203125 334.9224853515625 480.5809326171875 335.7933654785156 483.003662109375 C 335.7933654785156 485.426513671875 335.7933654785156 487.84912109375 335.7933654785156 490.27197265625 C 335.44500732421875 491.4832763671875 335.0966491699219 492.6947021484375 334.748291015625 493.906005859375 C 334.0516052246094 495.29052734375 333.3548889160156 496.6748046875 332.658203125 498.059326171875 C 331.090576171875 499.789794921875 329.5229797363281 501.5203857421875 327.9554138183594 503.2509765625 C 325.86529541015625 504.4622802734375 323.7751770019531 505.673583984375 321.6850280761719 506.885009765625 C 320.2916259765625 507.231201171875 318.898193359375 507.5772705078125 317.5047912597656 507.92333984375 C 305.8349304199219 507.92333984375 294.16510009765625 507.92333984375 282.4952392578125 507.92333984375 C 281.79852294921875 507.750244140625 281.1018371582031 507.5772705078125 280.4051208496094 507.4041748046875 C 279.0116882324219 506.885009765625 277.6182861328125 506.3658447265625 276.224853515625 505.8466796875 C 274.8314514160156 504.9814453125 273.43804931640625 504.1162109375 272.04461669921875 503.2509765625 C 270.47705078125 501.5203857421875 268.9094543457031 499.789794921875 267.34185791015625 498.059326171875 C 266.6451416015625 496.6748046875 265.9484558105469 495.29052734375 265.2517395019531 493.906005859375 C 264.90338134765625 492.6947021484375 264.5550231933594 491.4832763671875 264.2066650390625 490.27197265625 C 264.2066650390625 487.84912109375 264.2066650390625 485.426513671875 264.2066650390625 483.003662109375 C 265.0775451660156 480.5809326171875 265.9484558105469 478.158203125 266.8193054199219 475.7354736328125 C 264.7292175292969 473.831787109375 262.6390686035156 471.92822265625 260.5489807128906 470.024658203125 C 259.8522644042969 468.8133544921875 259.1555480957031 467.6019287109375 258.4588317871094 466.390625 C 257.9363098144531 464.6600341796875 257.41375732421875 462.9295654296875 256.8912658691406 461.198974609375 C 256.8912658691406 456.6995849609375 256.8912658691406 452.2001953125 256.8912658691406 447.7008056640625 C 257.76214599609375 445.1051025390625 258.6330261230469 442.50927734375 259.50390625 439.9134521484375 C 257.2395935058594 437.663818359375 254.97531127929688 435.4140625 252.71099853515625 433.1644287109375 C 252.0142822265625 431.7799072265625 251.31759643554688 430.3955078125 250.62088012695312 429.0111083984375 C 250.27252197265625 427.626708984375 249.92416381835938 426.2421875 249.57583618164062 424.8577880859375 C 249.57583618164062 418.28179931640625 249.57583618164062 411.705810546875 249.57583618164062 405.1297607421875 C 250.09832763671875 403.2261962890625 250.62088012695312 401.3226318359375 251.14340209960938 399.41900634765625 C 252.36264038085938 397.51544189453125 253.58187866210938 395.61181640625 254.80111694335938 393.708251953125 C 254.80111694335938 393.3621826171875 254.80111694335938 393.01605224609375 254.80111694335938 392.669921875 C 253.40771484375 390.4202880859375 252.0142822265625 388.1705322265625 250.62088012695312 385.9208984375 C 250.27252197265625 384.3634033203125 249.92416381835938 382.805908203125 249.57583618164062 381.2484130859375 C 249.57583618164062 374.845458984375 249.57583618164062 368.4425048828125 249.57583618164062 362.03955078125 C 250.44671630859375 359.27069091796875 251.31759643554688 356.5018310546875 252.1884765625 353.7330322265625 C 249.92416381835938 351.4832763671875 247.65988159179688 349.233642578125 245.39556884765625 346.98394775390625 C 244.6988525390625 345.4263916015625 244.0021514892578 343.86895751953125 243.30545043945312 342.31146240234375 C 242.9571075439453 340.7540283203125 242.60873413085938 339.196533203125 242.26039123535156 337.6390380859375 C 242.26039123535156 331.5821533203125 242.26039123535156 325.52532958984375 242.26039123535156 319.46844482421875 C 242.9571075439453 317.04571533203125 243.65380859375 314.6229248046875 244.3505096435547 312.2001953125 C 245.5697479248047 310.6427001953125 246.7889862060547 309.08526611328125 248.0082244873047 307.52783203125 C 247.13734436035156 306.31640625 246.26646423339844 305.10504150390625 245.39556884765625 303.8936767578125 C 244.52468872070312 301.8170166015625 243.65380859375 299.74041748046875 242.7829132080078 297.663818359375 C 242.7829132080078 296.79852294921875 242.7829132080078 295.9332275390625 242.7829132080078 295.0679931640625 C 242.60873413085938 294.8948974609375 242.4345703125 294.721923828125 242.26039123535156 294.548828125 C 242.26039123535156 288.6650390625 242.26039123535156 282.78125 242.26039123535156 276.89739990234375 C 242.60873413085938 275.1668701171875 242.9571075439453 273.436279296875 243.30545043945312 271.705810546875 C 244.17633056640625 269.97528076171875 245.04722595214844 268.2447509765625 245.91810607910156 266.51416015625 C 248.0082244873047 264.610595703125 250.09832763671875 262.70703125 252.1884765625 260.803466796875 C 251.31759643554688 258.03460693359375 250.44671630859375 255.2657470703125 249.57583618164062 252.49688720703125 C 249.57583618164062 245.9208984375 249.57583618164062 239.3448486328125 249.57583618164062 232.768798828125 C 249.75 231.903564453125 249.92416381835938 231.038330078125 250.09832763671875 230.17303466796875 C 251.14340209960938 227.92333984375 252.1884765625 225.67364501953125 253.2335205078125 223.4239501953125 C 254.4527587890625 222.03955078125 255.6719970703125 220.6551513671875 256.8912658691406 219.27069091796875 C 257.76214599609375 218.75152587890625 258.6330261230469 218.23236083984375 259.50390625 217.7132568359375 C 258.6330261230469 215.117431640625 257.76214599609375 212.5216064453125 256.8912658691406 209.92584228515625 C 256.8912658691406 203.00372314453125 256.8912658691406 196.08154296875 256.8912658691406 189.159423828125 C 257.2395935058594 187.7750244140625 257.58795166015625 186.390625 257.9363098144531 185.00616455078125 C 258.4588317871094 183.9678955078125 258.98138427734375 182.9295654296875 259.50390625 181.8912353515625 C 260.374755859375 180.6798095703125 261.24566650390625 179.468505859375 262.1165466308594 178.257080078125 C 263.68414306640625 176.8726806640625 265.2517395019531 175.48828125 266.8193054199219 174.10382080078125 C 265.9484558105469 171.8541259765625 265.0775451660156 169.60443115234375 264.2066650390625 167.354736328125 C 264.2066650390625 162.50927734375 264.2066650390625 157.66375732421875 264.2066650390625 152.81829833984375 C 264.3808288574219 152.1260986328125 264.5550537109375 151.433837890625 264.7292175292969 150.74163818359375 C 265.6000671386719 148.83807373046875 266.4709777832031 146.9344482421875 267.34185791015625 145.0308837890625 C 268.73529052734375 143.30035400390625 270.1286926269531 141.56982421875 271.5220947265625 139.83929443359375 C 271.5220947265625 136.55126953125 271.5220947265625 133.2633056640625 271.5220947265625 129.97528076171875 C 272.3929748535156 127.37945556640625 273.26385498046875 124.78369140625 274.134765625 122.1878662109375 C 275.7023620605469 119.93817138671875 277.2699279785156 117.6884765625 278.8375244140625 115.4388427734375 C 278.8375244140625 113.708251953125 278.8375244140625 111.97772216796875 278.8375244140625 110.2471923828125 C 279.7084045410156 106.7861328125 280.5793151855469 103.3250732421875 281.4501647949219 99.864013671875 C 282.14691162109375 98.65264892578125 282.8435974121094 97.4412841796875 283.5403137207031 96.22991943359375 C 284.58538818359375 95.19158935546875 285.63043212890625 94.15325927734375 286.67547607421875 93.11492919921875 C 287.197998046875 92.94189453125 287.7205505371094 92.76885986328125 288.2430725097656 92.5958251953125M 283.5403137207031 149.1842041015625 C 282.8435974121094 149.5302734375 282.14691162109375 149.87640380859375 281.4501647949219 150.22247314453125 C 280.75347900390625 150.9146728515625 280.0567626953125 151.60693359375 279.3600769042969 152.29913330078125 C 279.0116882324219 152.9913330078125 278.6633605957031 153.68353271484375 278.31500244140625 154.37579345703125 C 278.31500244140625 158.18292236328125 278.31500244140625 161.9901123046875 278.31500244140625 165.79730224609375 C 278.6633605957031 166.489501953125 279.0116882324219 167.18170166015625 279.3600769042969 167.8739013671875 C 280.0567626953125 168.566162109375 280.75347900390625 169.25830078125 281.4501647949219 169.9505615234375 C 284.0628356933594 170.64276123046875 286.67547607421875 171.3349609375 289.28814697265625 172.0272216796875 C 289.98486328125 172.7193603515625 290.6815490722656 173.41162109375 291.3782653808594 174.10382080078125 C 291.72662353515625 174.7960205078125 292.0749816894531 175.48828125 292.4233093261719 176.180419921875 C 292.4233093261719 177.391845703125 292.4233093261719 178.60321044921875 292.4233093261719 179.8145751953125 C 292.0749816894531 180.50677490234375 291.72662353515625 181.198974609375 291.3782653808594 181.8912353515625 C 289.98486328125 182.9295654296875 288.5914611816406 183.9678955078125 287.1980285644531 185.00616455078125 C 283.7144775390625 185.00616455078125 280.2309265136719 185.00616455078125 276.7474060058594 185.00616455078125 C 275.87652587890625 185.352294921875 275.005615234375 185.6983642578125 274.134765625 186.04449462890625 C 273.43804931640625 186.7366943359375 272.7413635253906 187.428955078125 272.04461669921875 188.12109375 C 271.6962890625 188.98638916015625 271.3479309082031 189.8516845703125 270.99957275390625 190.7169189453125 C 270.99957275390625 196.6007080078125 270.99957275390625 202.48455810546875 270.99957275390625 208.36834716796875 C 271.3479309082031 209.233642578125 271.6962890625 210.098876953125 272.04461669921875 210.96417236328125 C 273.0896911621094 211.82940673828125 274.134765625 212.6947021484375 275.1798095703125 213.5599365234375 C 275.7023620605469 213.7330322265625 276.224853515625 213.90606689453125 276.7474060058594 214.0791015625 C 280.2309265136719 214.0791015625 283.7144775390625 214.0791015625 287.1980285644531 214.0791015625 C 287.89471435546875 214.42523193359375 288.5914611816406 214.77130126953125 289.28814697265625 215.117431640625 C 289.98486328125 215.80963134765625 290.6815490722656 216.5018310546875 291.3782653808594 217.194091796875 C 291.72662353515625 217.88629150390625 292.0749816894531 218.5784912109375 292.4233093261719 219.27069091796875 C 292.4233093261719 220.4820556640625 292.4233093261719 221.69342041015625 292.4233093261719 222.90478515625 C 292.0749816894531 223.5970458984375 291.72662353515625 224.28924560546875 291.3782653808594 224.9814453125 C 290.6815490722656 225.67364501953125 289.98486328125 226.3658447265625 289.28814697265625 227.05810546875 C 288.417236328125 227.4041748046875 287.54638671875 227.75030517578125 286.67547607421875 228.096435546875 C 280.92767333984375 228.096435546875 275.1798095703125 228.096435546875 269.4319763183594 228.096435546875 C 268.03857421875 228.961669921875 266.6451416015625 229.826904296875 265.2517395019531 230.69219970703125 C 264.7292175292969 231.73052978515625 264.2066650390625 232.76885986328125 263.68414306640625 233.80712890625 C 263.68414306640625 239.69097900390625 263.68414306640625 245.57476806640625 263.68414306640625 251.45855712890625 C 264.2066650390625 252.49688720703125 264.7292175292969 253.53521728515625 265.2517395019531 254.573486328125 C 266.6451416015625 255.4388427734375 268.03857421875 256.3040771484375 269.4319763183594 257.1693115234375 C 275.35400390625 257.1693115234375 281.2760009765625 257.1693115234375 287.1980285644531 257.1693115234375 C 287.89471435546875 257.51544189453125 288.5914611816406 257.861572265625 289.28814697265625 258.2076416015625 C 290.1590270996094 259.0728759765625 291.0299072265625 259.938232421875 291.9007873535156 260.803466796875 C 292.0749816894531 262.533935546875 292.2491455078125 264.2645263671875 292.4233093261719 265.99505615234375 C 292.0749816894531 266.687255859375 291.72662353515625 267.37945556640625 291.3782653808594 268.0716552734375 C 290.6815490722656 268.763916015625 289.98486328125 269.4560546875 289.28814697265625 270.1483154296875 C 288.417236328125 270.494384765625 287.54638671875 270.840576171875 286.67547607421875 271.1866455078125 C 278.4891662597656 271.1866455078125 270.3028564453125 271.1866455078125 262.1165466308594 271.1866455078125 C 261.0715026855469 271.705810546875 260.02642822265625 272.2249755859375 258.98138427734375 272.744140625 C 258.1104736328125 274.30157470703125 257.2395935058594 275.85906982421875 256.36871337890625 277.41650390625 C 256.36871337890625 282.9542236328125 256.36871337890625 288.491943359375 256.36871337890625 294.0296630859375 C 256.7170715332031 294.8948974609375 257.0654296875 295.76019287109375 257.41375732421875 296.62548828125 C 258.28466796875 297.49072265625 259.1555480957031 298.35595703125 260.02642822265625 299.22125244140625 C 260.8973083496094 299.5673828125 261.7681884765625 299.9134521484375 262.6390686035156 300.25958251953125 C 270.82537841796875 300.25958251953125 279.0116882324219 300.25958251953125 287.1980285644531 300.25958251953125 C 287.89471435546875 300.605712890625 288.5914611816406 300.9517822265625 289.28814697265625 301.2978515625 C 290.1590270996094 302.16314697265625 291.0299072265625 303.0284423828125 291.9007873535156 303.8936767578125 C 292.0749816894531 305.624267578125 292.2491455078125 307.354736328125 292.4233093261719 309.08526611328125 C 292.0749816894531 309.7774658203125 291.72662353515625 310.4697265625 291.3782653808594 311.16192626953125 C 290.6815490722656 311.8541259765625 289.98486328125 312.54638671875 289.28814697265625 313.238525390625 C 288.417236328125 313.58465576171875 287.54638671875 313.9307861328125 286.67547607421875 314.27685546875 C 278.4891662597656 314.27685546875 270.3028564453125 314.27685546875 262.1165466308594 314.27685546875 C 261.0715026855469 314.7960205078125 260.02642822265625 315.315185546875 258.98138427734375 315.8343505859375 C 258.1104736328125 317.391845703125 257.2395935058594 318.9493408203125 256.36871337890625 320.50677490234375 C 256.36871337890625 326.04449462890625 256.36871337890625 331.5821533203125 256.36871337890625 337.119873046875 C 256.7170715332031 337.98516845703125 257.0654296875 338.8504638671875 257.41375732421875 339.7156982421875 C 258.28466796875 340.5809326171875 259.1555480957031 341.4461669921875 260.02642822265625 342.31146240234375 C 260.8973083496094 342.6575927734375 261.7681884765625 343.00372314453125 262.6390686035156 343.34979248046875 C 270.82537841796875 343.34979248046875 279.0116882324219 343.34979248046875 287.1980285644531 343.34979248046875 C 287.7205505371094 343.5228271484375 288.2430725097656 343.6959228515625 288.765625 343.86895751953125 C 289.8106689453125 344.90728759765625 290.855712890625 345.94561767578125 291.9007873535156 346.98394775390625 C 292.0749816894531 348.7144775390625 292.2491455078125 350.4449462890625 292.4233093261719 352.175537109375 C 292.0749816894531 352.86773681640625 291.72662353515625 353.5599365234375 291.3782653808594 354.25213623046875 C 290.3332214355469 355.117431640625 289.28814697265625 355.982666015625 288.2430725097656 356.847900390625 C 287.54638671875 357.02099609375 286.84967041015625 357.194091796875 286.1529541015625 357.3670654296875 C 280.4051208496094 357.3670654296875 274.65728759765625 357.3670654296875 268.9094543457031 357.3670654296875 C 267.51605224609375 358.4053955078125 266.12261962890625 359.4437255859375 264.7292175292969 360.4820556640625 C 264.3808288574219 361.3472900390625 264.0325012207031 362.21258544921875 263.68414306640625 363.077880859375 C 263.68414306640625 368.78857421875 263.68414306640625 374.4993896484375 263.68414306640625 380.21014404296875 C 264.3808288574219 381.59454345703125 265.0775451660156 382.97900390625 265.7742614746094 384.3634033203125 C 267.16766357421875 385.05560302734375 268.56109619140625 385.747802734375 269.95452880859375 386.4400634765625 C 275.87652587890625 386.4400634765625 281.79852294921875 386.4400634765625 287.7205505371094 386.4400634765625 C 288.06890869140625 386.613037109375 288.417236328125 386.7861328125 288.765625 386.959228515625 C 289.98486328125 388.3436279296875 291.2041015625 389.72802734375 292.4233093261719 391.11248779296875 C 292.4233093261719 392.49688720703125 292.4233093261719 393.88134765625 292.4233093261719 395.2657470703125 C 291.5524597167969 396.47711181640625 290.6815490722656 397.6884765625 289.8106689453125 398.89990234375 C 288.5914611816406 399.41900634765625 287.3722229003906 399.938232421875 286.1529541015625 400.45733642578125 C 280.4051208496094 400.45733642578125 274.65728759765625 400.45733642578125 268.9094543457031 400.45733642578125 C 268.2127380371094 400.803466796875 267.51605224609375 401.1495361328125 266.8193054199219 401.49566650390625 C 266.12261962890625 402.1878662109375 265.4259033203125 402.880126953125 264.7292175292969 403.572265625 C 264.3808288574219 404.43756103515625 264.0325012207031 405.3028564453125 263.68414306640625 406.1680908203125 C 263.68414306640625 411.87890625 263.68414306640625 417.589599609375 263.68414306640625 423.30029296875 C 264.0325012207031 424.1656494140625 264.3808288574219 425.0308837890625 264.7292175292969 425.8961181640625 C 265.9484558105469 426.9344482421875 267.16766357421875 427.9727783203125 268.38690185546875 429.0111083984375 C 269.0836181640625 429.1842041015625 269.7803039550781 429.357177734375 270.47705078125 429.5302734375 C 276.224853515625 429.5302734375 281.97271728515625 429.5302734375 287.7205505371094 429.5302734375 C 289.28814697265625 431.0877685546875 290.855712890625 432.645263671875 292.4233093261719 434.20263671875 C 292.4233093261719 435.587158203125 292.4233093261719 436.9715576171875 292.4233093261719 438.35595703125 C 291.5524597167969 439.5673828125 290.6815490722656 440.7786865234375 289.8106689453125 441.9901123046875 C 288.417236328125 442.50927734375 287.0238342285156 443.0284423828125 285.63043212890625 443.547607421875 C 282.4952392578125 443.547607421875 279.3600769042969 443.547607421875 276.224853515625 443.547607421875 C 275.7023620605469 443.7205810546875 275.1798095703125 443.8936767578125 274.65728759765625 444.0667724609375 C 273.786376953125 444.9320068359375 272.91552734375 445.7972412109375 272.04461669921875 446.66259765625 C 271.6962890625 447.354736328125 271.3479309082031 448.0469970703125 270.99957275390625 448.7391357421875 C 270.99957275390625 452.373291015625 270.99957275390625 456.0074462890625 270.99957275390625 459.6414794921875 C 271.8704528808594 461.02587890625 272.7413635253906 462.410400390625 273.6122131347656 463.7947998046875 C 274.8314514160156 464.31396484375 276.0506896972656 464.8331298828125 277.2699279785156 465.352294921875 C 280.5793151855469 465.352294921875 283.888671875 465.352294921875 287.1980285644531 465.352294921875 C 287.7205505371094 465.525390625 288.2430725097656 465.6983642578125 288.765625 465.8714599609375 C 289.98486328125 467.255859375 291.2041015625 468.6402587890625 292.4233093261719 470.024658203125 C 292.4233093261719 471.4091796875 292.4233093261719 472.7935791015625 292.4233093261719 474.177978515625 C 291.5524597167969 475.389404296875 290.6815490722656 476.6007080078125 289.8106689453125 477.81201171875 C 289.28814697265625 478.158203125 288.765625 478.5042724609375 288.2430725097656 478.850341796875 C 286.1529541015625 479.196533203125 284.0628356933594 479.5426025390625 281.97271728515625 479.888671875 C 280.92767333984375 480.927001953125 279.8825988769531 481.96533203125 278.8375244140625 483.003662109375 C 278.6633605957031 484.9072265625 278.4891662597656 486.810791015625 278.31500244140625 488.7144775390625 C 278.6633605957031 489.40673828125 279.0116882324219 490.098876953125 279.3600769042969 490.791015625 C 280.75347900390625 491.829345703125 282.14691162109375 492.86767578125 283.5403137207031 493.906005859375 C 294.3392639160156 493.906005859375 305.13824462890625 493.906005859375 315.93719482421875 493.906005859375 C 316.80810546875 493.5599365234375 317.678955078125 493.2138671875 318.54986572265625 492.86767578125 C 319.24658203125 492.175537109375 319.9432678222656 491.4832763671875 320.6399841308594 490.791015625 C 320.98834228515625 490.098876953125 321.336669921875 489.40673828125 321.6850280761719 488.7144775390625 C 321.5108642578125 486.810791015625 321.336669921875 484.9072265625 321.1625061035156 483.003662109375 C 320.117431640625 481.96533203125 319.0723876953125 480.927001953125 318.02734375 479.888671875 C 315.93719482421875 479.5426025390625 313.8470764160156 479.196533203125 311.7569580078125 478.850341796875 C 311.23443603515625 478.5042724609375 310.7118835449219 478.158203125 310.1893615722656 477.81201171875 C 309.3184814453125 476.6007080078125 308.44757080078125 475.389404296875 307.57672119140625 474.177978515625 C 307.57672119140625 472.7935791015625 307.57672119140625 471.4091796875 307.57672119140625 470.024658203125 C 308.79595947265625 468.6402587890625 310.01519775390625 467.255859375 311.23443603515625 465.8714599609375 C 311.7569580078125 465.6983642578125 312.27947998046875 465.525390625 312.8020324707031 465.352294921875 C 316.1113586425781 465.352294921875 319.4207458496094 465.352294921875 322.7301025390625 465.352294921875 C 323.9493408203125 464.8331298828125 325.1685791015625 464.31396484375 326.3878173828125 463.7947998046875 C 327.2586975097656 462.410400390625 328.12957763671875 461.02587890625 329.0004577636719 459.6414794921875 C 329.0004577636719 456.0074462890625 329.0004577636719 452.373291015625 329.0004577636719 448.7391357421875 C 328.6521301269531 448.0469970703125 328.3037414550781 447.354736328125 327.9554138183594 446.66259765625 C 327.0845031738281 445.7972412109375 326.2136535644531 444.9320068359375 325.3427429199219 444.0667724609375 C 324.8202209472656 443.8936767578125 324.29766845703125 443.7205810546875 323.7751770019531 443.547607421875 C 320.6399841308594 443.547607421875 317.5047912597656 443.547607421875 314.36962890625 443.547607421875 C 312.9761962890625 443.0284423828125 311.5827941894531 442.50927734375 310.1893615722656 441.9901123046875 C 309.3184814453125 440.7786865234375 308.44757080078125 439.5673828125 307.57672119140625 438.35595703125 C 307.57672119140625 436.9715576171875 307.57672119140625 435.587158203125 307.57672119140625 434.20263671875 C 309.1443176269531 432.645263671875 310.7118835449219 431.0877685546875 312.27947998046875 429.5302734375 C 318.02734375 429.5302734375 323.7751770019531 429.5302734375 329.5229797363281 429.5302734375 C 330.56805419921875 429.1842041015625 331.6131286621094 428.8380126953125 332.658203125 428.491943359375 C 333.529052734375 427.626708984375 334.39996337890625 426.761474609375 335.2708435058594 425.8961181640625 C 335.61920166015625 425.0308837890625 335.967529296875 424.1656494140625 336.3158874511719 423.30029296875 C 336.3158874511719 417.589599609375 336.3158874511719 411.87890625 336.3158874511719 406.1680908203125 C 335.967529296875 405.3028564453125 335.61920166015625 404.43756103515625 335.2708435058594 403.572265625 C 333.87744140625 402.533935546875 332.4839782714844 401.49566650390625 331.090576171875 400.45733642578125 C 325.3427429199219 400.45733642578125 319.59490966796875 400.45733642578125 313.8470764160156 400.45733642578125 C 313.1503601074219 400.2843017578125 312.4536437988281 400.1112060546875 311.7569580078125 399.938232421875 C 310.7118835449219 399.07293701171875 309.66680908203125 398.2076416015625 308.6217956542969 397.3424072265625 C 308.2734069824219 396.650146484375 307.9250793457031 395.9580078125 307.57672119140625 395.2657470703125 C 307.57672119140625 393.88134765625 307.57672119140625 392.49688720703125 307.57672119140625 391.11248779296875 C 309.1443176269531 389.55499267578125 310.7118835449219 387.99755859375 312.27947998046875 386.4400634765625 C 318.2015075683594 386.4400634765625 324.1235046386719 386.4400634765625 330.0455322265625 386.4400634765625 C 331.43896484375 385.747802734375 332.8323669433594 385.05560302734375 334.22576904296875 384.3634033203125 C 334.9224853515625 382.97900390625 335.61920166015625 381.59454345703125 336.3158874511719 380.21014404296875 C 336.3158874511719 374.4993896484375 336.3158874511719 368.78857421875 336.3158874511719 363.077880859375 C 335.967529296875 362.21258544921875 335.61920166015625 361.3472900390625 335.2708435058594 360.4820556640625 C 333.87744140625 359.4437255859375 332.4839782714844 358.4053955078125 331.090576171875 357.3670654296875 C 325.3427429199219 357.3670654296875 319.59490966796875 357.3670654296875 313.8470764160156 357.3670654296875 C 313.1503601074219 357.194091796875 312.4536437988281 357.02099609375 311.7569580078125 356.847900390625 C 310.7118835449219 355.982666015625 309.66680908203125 355.117431640625 308.6217956542969 354.25213623046875 C 308.2734069824219 353.5599365234375 307.9250793457031 352.86773681640625 307.57672119140625 352.175537109375 C 307.57672119140625 350.7911376953125 307.57672119140625 349.4066162109375 307.57672119140625 348.022216796875 C 308.79595947265625 346.6378173828125 310.01519775390625 345.25341796875 311.23443603515625 343.86895751953125 C 311.7569580078125 343.6959228515625 312.27947998046875 343.5228271484375 312.8020324707031 343.34979248046875 C 320.98834228515625 343.34979248046875 329.1746520996094 343.34979248046875 337.3609619140625 343.34979248046875 C 338.2318420410156 343.00372314453125 339.10272216796875 342.6575927734375 339.9736022949219 342.31146240234375 C 340.8445129394531 341.4461669921875 341.7153625488281 340.5809326171875 342.5862731933594 339.7156982421875 C 342.9346008300781 338.8504638671875 343.2829895019531 337.98516845703125 343.6313171386719 337.119873046875 C 343.6313171386719 331.5821533203125 343.6313171386719 326.04449462890625 343.6313171386719 320.50677490234375 C 343.1087646484375 319.29541015625 342.5862731933594 318.08404541015625 342.0637512207031 316.8726806640625 C 340.6703186035156 316.0074462890625 339.27691650390625 315.14215087890625 337.8835144042969 314.27685546875 C 329.6971740722656 314.27685546875 321.5108642578125 314.27685546875 313.3245544433594 314.27685546875 C 312.8020324707031 314.10382080078125 312.27947998046875 313.9307861328125 311.7569580078125 313.7576904296875 C 310.7118835449219 312.8924560546875 309.66680908203125 312.0272216796875 308.6217956542969 311.16192626953125 C 308.2734069824219 310.4697265625 307.9250793457031 309.7774658203125 307.57672119140625 309.08526611328125 C 307.57672119140625 307.7008056640625 307.57672119140625 306.31640625 307.57672119140625 304.9320068359375 C 308.6217956542969 303.7205810546875 309.66680908203125 302.50927734375 310.7118835449219 301.2978515625 C 311.4085998535156 300.9517822265625 312.1053161621094 300.605712890625 312.8020324707031 300.25958251953125 C 320.98834228515625 300.25958251953125 329.1746520996094 300.25958251953125 337.3609619140625 300.25958251953125 C 338.2318420410156 299.9134521484375 339.10272216796875 299.5673828125 339.9736022949219 299.22125244140625 C 340.8445129394531 298.35595703125 341.7153625488281 297.49072265625 342.5862731933594 296.62548828125 C 342.9346008300781 295.76019287109375 343.2829895019531 294.8948974609375 343.6313171386719 294.0296630859375 C 343.6313171386719 288.491943359375 343.6313171386719 282.9542236328125 343.6313171386719 277.41650390625 C 343.1087646484375 276.2052001953125 342.5862731933594 274.9937744140625 342.0637512207031 273.782470703125 C 340.6703186035156 272.91717529296875 339.27691650390625 272.0518798828125 337.8835144042969 271.1866455078125 C 329.6971740722656 271.1866455078125 321.5108642578125 271.1866455078125 313.3245544433594 271.1866455078125 C 312.4536437988281 270.840576171875 311.5827941894531 270.494384765625 310.7118835449219 270.1483154296875 C 310.01519775390625 269.4560546875 309.3184814453125 268.763916015625 308.6217956542969 268.0716552734375 C 308.2734069824219 267.37945556640625 307.9250793457031 266.687255859375 307.57672119140625 265.99505615234375 C 307.57672119140625 264.610595703125 307.57672119140625 263.2261962890625 307.57672119140625 261.841796875 C 308.6217956542969 260.63037109375 309.66680908203125 259.4190673828125 310.7118835449219 258.2076416015625 C 311.4085998535156 257.861572265625 312.1053161621094 257.51544189453125 312.8020324707031 257.1693115234375 C 318.7240295410156 257.1693115234375 324.64605712890625 257.1693115234375 330.56805419921875 257.1693115234375 C 331.9614562988281 256.3040771484375 333.3548889160156 255.4388427734375 334.748291015625 254.573486328125 C 335.2708435058594 253.53521728515625 335.7933654785156 252.49688720703125 336.3158874511719 251.45855712890625 C 336.3158874511719 245.57476806640625 336.3158874511719 239.69097900390625 336.3158874511719 233.80712890625 C 335.7933654785156 232.76885986328125 335.2708435058594 231.73052978515625 334.748291015625 230.69219970703125 C 333.3548889160156 229.826904296875 331.9614562988281 228.961669921875 330.56805419921875 228.096435546875 C 324.8202209472656 228.096435546875 319.0723876953125 228.096435546875 313.3245544433594 228.096435546875 C 312.4536437988281 227.75030517578125 311.5827941894531 227.4041748046875 310.7118835449219 227.05810546875 C 310.01519775390625 226.3658447265625 309.3184814453125 225.67364501953125 308.6217956542969 224.9814453125 C 308.2734069824219 224.28924560546875 307.9250793457031 223.5970458984375 307.57672119140625 222.90478515625 C 307.7508850097656 221.17431640625 307.9250793457031 219.4437255859375 308.0992431640625 217.7132568359375 C 308.9701232910156 216.84796142578125 309.84100341796875 215.982666015625 310.7118835449219 215.117431640625 C 311.4085998535156 214.77130126953125 312.1053161621094 214.42523193359375 312.8020324707031 214.0791015625 C 316.2855529785156 214.0791015625 319.76910400390625 214.0791015625 323.2526550292969 214.0791015625 C 323.7751770019531 213.90606689453125 324.29766845703125 213.7330322265625 324.8202209472656 213.5599365234375 C 325.86529541015625 212.6947021484375 326.91033935546875 211.82940673828125 327.9554138183594 210.96417236328125 C 328.3037414550781 210.098876953125 328.6521301269531 209.233642578125 329.0004577636719 208.36834716796875 C 329.0004577636719 202.48455810546875 329.0004577636719 196.6007080078125 329.0004577636719 190.7169189453125 C 328.6521301269531 189.8516845703125 328.3037414550781 188.98638916015625 327.9554138183594 188.12109375 C 327.2586975097656 187.428955078125 326.5619812011719 186.7366943359375 325.86529541015625 186.04449462890625 C 324.9944152832031 185.6983642578125 324.1235046386719 185.352294921875 323.2526550292969 185.00616455078125 C 319.76910400390625 185.00616455078125 316.2855529785156 185.00616455078125 312.8020324707031 185.00616455078125 C 312.1053161621094 184.6600341796875 311.4085998535156 184.31396484375 310.7118835449219 183.9678955078125 C 309.84100341796875 183.10260009765625 308.9701232910156 182.2373046875 308.0992431640625 181.3720703125 C 307.9250793457031 180.8529052734375 307.7508850097656 180.333740234375 307.57672119140625 179.8145751953125 C 307.57672119140625 178.60321044921875 307.57672119140625 177.391845703125 307.57672119140625 176.180419921875 C 307.9250793457031 175.48828125 308.2734069824219 174.7960205078125 308.6217956542969 174.10382080078125 C 309.3184814453125 173.41162109375 310.01519775390625 172.7193603515625 310.7118835449219 172.0272216796875 C 311.5827941894531 171.68109130859375 312.4536437988281 171.3349609375 313.3245544433594 170.9888916015625 C 314.71795654296875 170.8157958984375 316.1113586425781 170.64276123046875 317.5047912597656 170.4697265625 C 318.54986572265625 169.60443115234375 319.59490966796875 168.73919677734375 320.6399841308594 167.8739013671875 C 320.98834228515625 167.18170166015625 321.336669921875 166.489501953125 321.6850280761719 165.79730224609375 C 321.6850280761719 161.9901123046875 321.6850280761719 158.18292236328125 321.6850280761719 154.37579345703125 C 321.336669921875 153.68353271484375 320.98834228515625 152.9913330078125 320.6399841308594 152.29913330078125 C 319.9432678222656 151.60693359375 319.24658203125 150.9146728515625 318.54986572265625 150.22247314453125 C 317.8531494140625 149.87640380859375 317.15643310546875 149.5302734375 316.459716796875 149.1842041015625 C 305.486572265625 149.1842041015625 294.5134582519531 149.1842041015625 283.5403137207031 149.1842041015625M 296.60357666015625 120.63037109375 C 295.5585021972656 120.97650146484375 294.5134582519531 121.3226318359375 293.4683837890625 121.668701171875 C 291.9007873535156 122.880126953125 290.3332214355469 124.09149169921875 288.765625 125.3028564453125 C 288.06890869140625 126.3411865234375 287.3722229003906 127.37945556640625 286.67547607421875 128.41778564453125 C 286.3271484375 129.45611572265625 285.9787902832031 130.49444580078125 285.63043212890625 131.53271484375 C 285.63043212890625 132.744140625 285.63043212890625 133.95550537109375 285.63043212890625 135.1668701171875 C 295.2101745605469 135.1668701171875 304.7898864746094 135.1668701171875 314.36962890625 135.1668701171875 C 314.36962890625 133.95550537109375 314.36962890625 132.744140625 314.36962890625 131.53271484375 C 314.0212707519531 130.49444580078125 313.6728820800781 129.45611572265625 313.3245544433594 128.41778564453125 C 312.1053161621094 126.8603515625 310.8860778808594 125.3028564453125 309.66680908203125 123.745361328125 C 308.6217956542969 123.05316162109375 307.57672119140625 122.3609619140625 306.5316467285156 121.668701171875 C 305.486572265625 121.3226318359375 304.4415283203125 120.97650146484375 303.396484375 120.63037109375 C 301.1321716308594 120.63037109375 298.86785888671875 120.63037109375 296.60357666015625 120.63037109375"/>
  </g>
</svg>
