<?xml version="1.0" ?>
<svg xmlns="http://www.w3.org/2000/svg" version="1.1" width="600" height="600">
  <defs/>
  <g>
    <path stroke-width="0" fill="rgb(0, 0, 0)" opacity="1.0" d="M 407.3800354003906 180.333740234375 C 407.55419921875 180.16070556640625 407.7283935546875 179.9876708984375 407.9025573730469 179.8145751953125 C 409.8184814453125 179.9876708984375 411.73443603515625 180.16070556640625 413.650390625 180.333740234375 C 414.34710693359375 180.67987060546875 415.0437927246094 181.0260009765625 415.7405090332031 181.3720703125 C 416.78558349609375 182.410400390625 417.8306579589844 183.44873046875 418.8757019042969 184.487060546875 C 442.0412292480469 219.962890625 465.2067565917969 255.4388427734375 488.37225341796875 290.91473388671875 C 489.7656555175781 293.33746337890625 491.15911865234375 295.76025390625 492.5525207519531 298.18292236328125 C 492.7267150878906 298.8751220703125 492.90087890625 299.5673828125 493.0750427246094 300.25958251953125 C 493.0750427246094 337.29296875 493.0750427246094 374.3262939453125 493.0750427246094 411.3597412109375 C 492.7267150878906 412.39801025390625 492.3783264160156 413.43634033203125 492.02996826171875 414.47467041015625 C 490.98492431640625 415.68603515625 489.93988037109375 416.89739990234375 488.8948059082031 418.1087646484375 C 487.32720947265625 418.801025390625 485.7596130371094 419.4931640625 484.1920166015625 420.1854248046875 C 361.3973388671875 420.1854248046875 238.60264587402344 420.1854248046875 115.80795288085938 420.1854248046875 C 114.24036407470703 419.4931640625 112.67276763916016 418.801025390625 111.10517120361328 418.1087646484375 C 110.58264923095703 417.589599609375 110.06011199951172 417.0704345703125 109.53758239746094 416.55126953125 C 108.84088134765625 415.33990478515625 108.14417266845703 414.1285400390625 107.44745635986328 412.917236328125 C 107.44745635986328 411.87890625 107.44745635986328 410.840576171875 107.44745635986328 409.80224609375 C 107.27328491210938 409.629150390625 107.09910583496094 409.45611572265625 106.92493438720703 409.2830810546875 C 106.92493438720703 373.4610595703125 106.92493438720703 337.6390380859375 106.92493438720703 301.8170166015625 C 107.27328491210938 300.25958251953125 107.62163543701172 298.7021484375 107.9699935913086 297.1446533203125 C 109.01505279541016 295.9332275390625 110.06011199951172 294.721923828125 111.10517120361328 293.510498046875 C 121.03324890136719 289.0111083984375 130.9613494873047 284.51171875 140.88941955566406 280.0123291015625 C 158.48129272460938 273.0902099609375 176.07315063476562 266.1680908203125 193.66502380371094 259.2459716796875 C 195.92930603027344 258.55377197265625 198.193603515625 257.861572265625 200.45791625976562 257.1693115234375 C 204.11561584472656 255.61181640625 207.77334594726562 254.05438232421875 211.43104553222656 252.49688720703125 C 213.6953582763672 251.8046875 215.95965576171875 251.11248779296875 218.22393798828125 250.4202880859375 C 219.61737060546875 249.72802734375 221.0107879638672 249.03582763671875 222.40420532226562 248.3436279296875 C 223.2750701904297 248.17059326171875 224.1459503173828 247.99755859375 225.016845703125 247.824462890625 C 247.83401489257812 239.17181396484375 270.65118408203125 230.5191650390625 293.4683532714844 221.86651611328125 C 294.86175537109375 221.5203857421875 296.25518798828125 221.17431640625 297.6485900878906 220.82818603515625 C 299.0419921875 220.135986328125 300.4354248046875 219.44378662109375 301.8288269042969 218.7515869140625 C 303.2222900390625 218.40545654296875 304.6156921386719 218.059326171875 306.00909423828125 217.7132568359375 C 315.4146423339844 214.0791015625 324.8201904296875 210.44500732421875 334.2257385253906 206.8109130859375 C 335.6191711425781 206.46478271484375 337.0125732421875 206.11865234375 338.4059753417969 205.7725830078125 C 341.71533203125 204.38812255859375 345.02471923828125 203.00372314453125 348.33404541015625 201.6192626953125 C 349.72747802734375 201.273193359375 351.1208801269531 200.92706298828125 352.5143127441406 200.5809326171875 C 355.82366943359375 199.196533203125 359.1330261230469 197.8121337890625 362.4423828125 196.42767333984375 C 363.8358154296875 196.08160400390625 365.2292175292969 195.7354736328125 366.6226501464844 195.389404296875 C 369.9320068359375 194.00494384765625 373.2413635253906 192.62054443359375 376.5507507324219 191.236083984375 C 386.8271484375 187.60198974609375 397.1036071777344 183.9678955078125 407.3800354003906 180.333740234375M 127.30361938476562 311.16192626953125 C 127.30361938476562 340.7540283203125 127.30361938476562 370.3460693359375 127.30361938476562 399.938232421875 C 242.43453979492188 399.938232421875 357.5654296875 399.938232421875 472.69635009765625 399.938232421875 C 472.69635009765625 370.3460693359375 472.69635009765625 340.7540283203125 472.69635009765625 311.16192626953125 C 357.5654296875 311.16192626953125 242.43453979492188 311.16192626953125 127.30361938476562 311.16192626953125M 283.540283203125 346.4647216796875 C 283.7144470214844 346.291748046875 283.8886413574219 346.11865234375 284.06280517578125 345.94561767578125 C 287.1979675292969 345.94561767578125 290.33319091796875 345.94561767578125 293.4683532714844 345.94561767578125 C 296.08099365234375 346.98394775390625 298.69366455078125 348.02227783203125 301.3063049316406 349.060546875 C 303.57061767578125 351.13720703125 305.83489990234375 353.2138671875 308.0992126464844 355.29046630859375 C 309.3184509277344 357.7132568359375 310.5376892089844 360.135986328125 311.7569274902344 362.5587158203125 C 311.93109130859375 363.25091552734375 312.10528564453125 363.943115234375 312.2794494628906 364.6353759765625 C 312.2794494628906 367.75030517578125 312.2794494628906 370.865234375 312.2794494628906 373.980224609375 C 311.4085693359375 376.22991943359375 310.5376892089844 378.4796142578125 309.6667785644531 380.729248046875 C 307.7508544921875 382.97900390625 305.83489990234375 385.22869873046875 303.9189758300781 387.4783935546875 C 301.4804992675781 388.86279296875 299.0419921875 390.2471923828125 296.6035461425781 391.631591796875 C 295.03594970703125 391.977783203125 293.4683532714844 392.3238525390625 291.9007568359375 392.669921875 C 289.8106384277344 392.669921875 287.72052001953125 392.669921875 285.6304016113281 392.669921875 C 283.0177307128906 391.8046875 280.40509033203125 390.939453125 277.79241943359375 390.07415771484375 C 276.74737548828125 389.3819580078125 275.70233154296875 388.689697265625 274.6572570800781 387.99755859375 C 273.08966064453125 386.4400634765625 271.5220642089844 384.882568359375 269.9544982910156 383.3250732421875 C 268.909423828125 381.59454345703125 267.8643493652344 379.864013671875 266.81927490234375 378.13348388671875 C 266.470947265625 377.09521484375 266.1225891113281 376.056884765625 265.77423095703125 375.0185546875 C 265.60003662109375 372.07666015625 265.4258728027344 369.134765625 265.251708984375 366.19287109375 C 265.77423095703125 364.28924560546875 266.2967834472656 362.3856201171875 266.81927490234375 360.4820556640625 C 267.5160217285156 359.09765625 268.21270751953125 357.7132568359375 268.909423828125 356.32879638671875 C 271.1737060546875 354.0791015625 273.4380187988281 351.8294677734375 275.70233154296875 349.5797119140625 C 276.92156982421875 348.88751220703125 278.14080810546875 348.1953125 279.36004638671875 347.5030517578125 C 280.7534484863281 347.156982421875 282.1468811035156 346.8109130859375 283.540283203125 346.4647216796875M 287.72052001953125 365.6737060546875 C 287.0238037109375 366.3658447265625 286.3271179199219 367.05810546875 285.6304016113281 367.75030517578125 C 285.6304016113281 368.78857421875 285.6304016113281 369.826904296875 285.6304016113281 370.865234375 C 286.1529235839844 371.3843994140625 286.6754455566406 371.903564453125 287.197998046875 372.4227294921875 C 288.2430419921875 372.4227294921875 289.2881164550781 372.4227294921875 290.33319091796875 372.4227294921875 C 291.0298767089844 371.73052978515625 291.7265930175781 371.038330078125 292.42327880859375 370.3460693359375 C 292.42327880859375 369.65386962890625 292.42327880859375 368.961669921875 292.42327880859375 368.26947021484375 C 291.9007568359375 367.5772705078125 291.37823486328125 366.885009765625 290.8556823730469 366.19287109375 C 289.8106384277344 366.019775390625 288.7655944824219 365.8466796875 287.72052001953125 365.6737060546875M 168.06100463867188 324.14093017578125 C 168.2351837158203 323.9678955078125 168.40936279296875 323.7947998046875 168.5835418701172 323.6217041015625 C 170.49949645996094 323.6217041015625 172.41543579101562 323.6217041015625 174.33139038085938 323.6217041015625 C 175.8989715576172 323.9678955078125 177.466552734375 324.31396484375 179.03416442871094 324.6600341796875 C 180.7759246826172 325.52532958984375 182.5177001953125 326.390625 184.25946044921875 327.255859375 C 186.69793701171875 329.6785888671875 189.13641357421875 332.10137939453125 191.5748748779297 334.52410888671875 C 192.6199493408203 336.9468994140625 193.66502380371094 339.36956787109375 194.71006774902344 341.7923583984375 C 194.88424682617188 344.215087890625 195.0584259033203 346.6378173828125 195.23260498046875 349.060546875 C 194.88424682617188 350.7911376953125 194.535888671875 352.5216064453125 194.18753051757812 354.252197265625 C 193.49082946777344 355.8096923828125 192.79412841796875 357.36712646484375 192.097412109375 358.924560546875 C 190.878173828125 360.4820556640625 189.65895080566406 362.03955078125 188.43971252441406 363.5970458984375 C 187.39463806152344 364.4622802734375 186.34959411621094 365.32757568359375 185.3045196533203 366.19287109375 C 184.2594451904297 366.885009765625 183.2144012451172 367.5772705078125 182.16932678222656 368.26947021484375 C 180.07920837402344 368.961669921875 177.9890899658203 369.65386962890625 175.8989715576172 370.3460693359375 C 172.93797302246094 370.3460693359375 169.97695922851562 370.3460693359375 167.01596069335938 370.3460693359375 C 164.92584228515625 369.65386962890625 162.835693359375 368.961669921875 160.74557495117188 368.26947021484375 C 158.8296356201172 366.885009765625 156.91368103027344 365.5006103515625 154.9977569580078 364.1162109375 C 153.9526824951172 362.90478515625 152.90762329101562 361.6934814453125 151.86256408691406 360.4820556640625 C 151.16586303710938 359.27069091796875 150.46914672851562 358.059326171875 149.77244567871094 356.84796142578125 C 149.24990844726562 355.29046630859375 148.7273712158203 353.7330322265625 148.20484924316406 352.175537109375 C 148.20484924316406 351.31024169921875 148.20484924316406 350.4449462890625 148.20484924316406 349.5797119140625 C 148.03067016601562 349.40667724609375 147.8564910888672 349.233642578125 147.6823272705078 349.060546875 C 147.8564910888672 346.6378173828125 148.03067016601562 344.215087890625 148.20484924316406 341.7923583984375 C 149.24990844726562 339.36956787109375 150.29498291015625 336.9468994140625 151.34002685546875 334.52410888671875 C 153.7785186767578 332.10137939453125 156.21697998046875 329.6785888671875 158.65545654296875 327.255859375 C 160.39723205566406 326.390625 162.1389923095703 325.52532958984375 163.88076782226562 324.6600341796875 C 165.27418518066406 324.48699951171875 166.66758728027344 324.31396484375 168.06100463867188 324.14093017578125M 169.6286163330078 343.8690185546875 C 169.1060791015625 344.5611572265625 168.5835418701172 345.25341796875 168.06100463867188 345.94561767578125 C 168.06100463867188 346.8109130859375 168.06100463867188 347.6761474609375 168.06100463867188 348.5413818359375 C 168.931884765625 349.233642578125 169.8027801513672 349.92584228515625 170.6736602783203 350.6180419921875 C 171.19619750976562 350.6180419921875 171.71873474121094 350.6180419921875 172.24127197265625 350.6180419921875 C 173.1121368408203 349.92584228515625 173.98301696777344 349.233642578125 174.85389709472656 348.5413818359375 C 174.85389709472656 347.6761474609375 174.85389709472656 346.8109130859375 174.85389709472656 345.94561767578125 C 174.15719604492188 345.25341796875 173.4604949951172 344.5611572265625 172.76377868652344 343.8690185546875 C 171.71873474121094 343.8690185546875 170.6736602783203 343.8690185546875 169.6286163330078 343.8690185546875M 403.7223205566406 316.353515625 C 403.896484375 316.18048095703125 404.0706481933594 316.0074462890625 404.2448425292969 315.8343505859375 C 406.85748291015625 315.8343505859375 409.47015380859375 315.8343505859375 412.0827941894531 315.8343505859375 C 414.86962890625 316.8726806640625 417.6564636230469 317.9110107421875 420.4432678222656 318.9493408203125 C 422.70758056640625 321.0260009765625 424.9718933105469 323.10260009765625 427.2362060546875 325.17919921875 C 427.9328918457031 326.217529296875 428.6296081542969 327.255859375 429.3262939453125 328.294189453125 C 430.0230407714844 330.19775390625 430.7197265625 332.10137939453125 431.41644287109375 334.00494384765625 C 431.41644287109375 334.8702392578125 431.41644287109375 335.7354736328125 431.41644287109375 336.6007080078125 C 431.5906066894531 336.7738037109375 431.7648010253906 336.94683837890625 431.93896484375 337.119873046875 C 431.7648010253906 339.5426025390625 431.5906066894531 341.96539306640625 431.41644287109375 344.38812255859375 C 430.0230407714844 347.33001708984375 428.6296081542969 350.27197265625 427.2362060546875 353.2138671875 C 424.9718933105469 355.29046630859375 422.70758056640625 357.36712646484375 420.4432678222656 359.4437255859375 C 417.6564636230469 360.4820556640625 414.86962890625 361.5203857421875 412.0827941894531 362.5587158203125 C 409.47015380859375 362.5587158203125 406.85748291015625 362.5587158203125 404.2448425292969 362.5587158203125 C 402.5030822753906 362.03955078125 400.7613220214844 361.5203857421875 399.01953125 361.001220703125 C 397.4519348144531 360.135986328125 395.88433837890625 359.27069091796875 394.3167724609375 358.4053955078125 C 392.22662353515625 356.15576171875 390.13653564453125 353.90606689453125 388.04638671875 351.6563720703125 C 387.0013122558594 349.233642578125 385.956298828125 346.8109130859375 384.9112243652344 344.38812255859375 C 384.9112243652344 343.5228271484375 384.9112243652344 342.6575927734375 384.9112243652344 341.7923583984375 C 384.7370300292969 341.6192626953125 384.5628662109375 341.44622802734375 384.388671875 341.273193359375 C 384.5628662109375 338.8504638671875 384.7370300292969 336.42767333984375 384.9112243652344 334.00494384765625 C 385.956298828125 331.5821533203125 387.0013122558594 329.159423828125 388.04638671875 326.7366943359375 C 390.6590576171875 324.14093017578125 393.2716979980469 321.54510498046875 395.88433837890625 318.9493408203125 C 397.9744873046875 318.08404541015625 400.0646057128906 317.21875 402.15472412109375 316.353515625 C 402.67724609375 316.353515625 403.1997985839844 316.353515625 403.7223205566406 316.353515625M 407.3800354003906 335.5623779296875 C 406.5091552734375 336.254638671875 405.63824462890625 336.94683837890625 404.76739501953125 337.6390380859375 C 404.76739501953125 338.6773681640625 404.76739501953125 339.7156982421875 404.76739501953125 340.7540283203125 C 405.2898864746094 341.273193359375 405.8124084472656 341.7923583984375 406.3349609375 342.3115234375 C 407.20587158203125 342.48455810546875 408.07672119140625 342.6575927734375 408.9476318359375 342.8306884765625 C 409.8184814453125 342.138427734375 410.68939208984375 341.44622802734375 411.5602722167969 340.7540283203125 C 411.5602722167969 339.7156982421875 411.5602722167969 338.6773681640625 411.5602722167969 337.6390380859375 C 411.0377197265625 337.119873046875 410.51519775390625 336.6007080078125 409.9927062988281 336.08160400390625 C 409.1217956542969 335.9085693359375 408.25091552734375 335.7354736328125 407.3800354003906 335.5623779296875M 404.76739501953125 202.138427734375 C 372.3704528808594 214.0791015625 339.97357177734375 226.019775390625 307.5766906738281 237.96044921875 C 307.05413818359375 238.3065185546875 306.5316162109375 238.65264892578125 306.00909423828125 238.998779296875 C 305.1382141113281 239.17181396484375 304.2673034667969 239.3448486328125 303.3964538574219 239.5179443359375 C 302.8739013671875 239.864013671875 302.35137939453125 240.21014404296875 301.8288269042969 240.5562744140625 C 300.9579772949219 240.72930908203125 300.0870666503906 240.90234375 299.2162170410156 241.075439453125 C 298.69366455078125 241.4215087890625 298.171142578125 241.767578125 297.6485900878906 242.11370849609375 C 296.7777404785156 242.2867431640625 295.9068298339844 242.4598388671875 295.03594970703125 242.63287353515625 C 294.513427734375 242.97900390625 293.99090576171875 243.3250732421875 293.4683532714844 243.67120361328125 C 292.59747314453125 243.84423828125 291.7265930175781 244.017333984375 290.8556823730469 244.19036865234375 C 290.33319091796875 244.53643798828125 289.8106384277344 244.882568359375 289.2881164550781 245.22869873046875 C 288.4172058105469 245.4017333984375 287.5463562011719 245.57476806640625 286.6754455566406 245.747802734375 C 286.1529235839844 246.09393310546875 285.6304016113281 246.4400634765625 285.1078796386719 246.7861328125 C 284.2369689941406 246.959228515625 283.3661193847656 247.13226318359375 282.4952087402344 247.3052978515625 C 281.9726867675781 247.65142822265625 281.45013427734375 247.99755859375 280.9276428222656 248.3436279296875 C 280.0567321777344 248.51666259765625 279.18585205078125 248.68975830078125 278.3149719238281 248.86279296875 C 277.79241943359375 249.20892333984375 277.2698974609375 249.55499267578125 276.74737548828125 249.901123046875 C 275.8764953613281 250.07415771484375 275.0055847167969 250.2471923828125 274.1347351074219 250.4202880859375 C 273.6121826171875 250.766357421875 273.08966064453125 251.11248779296875 272.567138671875 251.4586181640625 C 271.6962585449219 251.63165283203125 270.8253479003906 251.8046875 269.9544982910156 251.977783203125 C 269.43194580078125 252.3238525390625 268.909423828125 252.66998291015625 268.3868713378906 253.01605224609375 C 267.5160217285156 253.18914794921875 266.6451110839844 253.3621826171875 265.77423095703125 253.53521728515625 C 265.251708984375 253.88134765625 264.72918701171875 254.2274169921875 264.2066345214844 254.57354736328125 C 263.3357849121094 254.74658203125 262.4648742675781 254.919677734375 261.593994140625 255.09271240234375 C 261.07147216796875 255.4388427734375 260.5489196777344 255.784912109375 260.0263977050781 256.1309814453125 C 259.155517578125 256.3040771484375 258.2846374511719 256.4771728515625 257.4137268066406 256.650146484375 C 256.8912353515625 256.996337890625 256.3686828613281 257.3424072265625 255.84616088867188 257.6884765625 C 254.97528076171875 257.861572265625 254.1043701171875 258.03460693359375 253.23348999023438 258.2076416015625 C 252.71096801757812 258.55377197265625 252.18844604492188 258.89990234375 251.66592407226562 259.2459716796875 C 250.79501342773438 259.4190673828125 249.92413330078125 259.592041015625 249.05325317382812 259.76513671875 C 244.0021209716797 261.841796875 238.9510040283203 263.91845703125 233.89987182617188 265.99505615234375 C 232.50645446777344 266.3411865234375 231.113037109375 266.687255859375 229.71961975097656 267.03338623046875 C 228.3262176513672 267.7255859375 226.93280029296875 268.41778564453125 225.53936767578125 269.1099853515625 C 223.2750701904297 269.80224609375 221.0107879638672 270.494384765625 218.74647521972656 271.1866455078125 C 202.89637756347656 277.41656494140625 187.04629516601562 283.646484375 171.19619750976562 289.87640380859375 C 170.3253173828125 290.0494384765625 169.4544219970703 290.2225341796875 168.5835418701172 290.3955078125 C 168.2351837158203 290.74169921875 167.8868408203125 291.0877685546875 167.53846740722656 291.433837890625 C 266.2967834472656 291.433837890625 365.0550537109375 291.433837890625 463.8133239746094 291.433837890625 C 463.9875183105469 291.26080322265625 464.16168212890625 291.0877685546875 464.3358459472656 290.91473388671875 C 463.4649963378906 289.5302734375 462.5940856933594 288.1458740234375 461.72320556640625 286.761474609375 C 457.7171325683594 280.87762451171875 453.7110595703125 274.99383544921875 449.7049865722656 269.1099853515625 C 436.4675598144531 248.51666259765625 423.2301330566406 227.92333984375 409.9927062988281 207.33001708984375 C 408.9476318359375 205.7725830078125 407.9025573730469 204.215087890625 406.85748291015625 202.6575927734375 C 406.1607971191406 202.48455810546875 405.4640808105469 202.3115234375 404.76739501953125 202.138427734375M 384.9112243652344 225.5006103515625 C 385.08538818359375 225.32757568359375 385.2595520019531 225.154541015625 385.4337463378906 224.9814453125 C 388.3947448730469 225.154541015625 391.35577392578125 225.32757568359375 394.3167724609375 225.5006103515625 C 396.9294128417969 226.71197509765625 399.5420837402344 227.92333984375 402.15472412109375 229.134765625 C 403.37396240234375 230.173095703125 404.59320068359375 231.21136474609375 405.8124084472656 232.24969482421875 C 406.85748291015625 233.6341552734375 407.9025573730469 235.0185546875 408.9476318359375 236.4029541015625 C 409.6443176269531 237.787353515625 410.3410339355469 239.17181396484375 411.0377197265625 240.5562744140625 C 411.3861083984375 241.940673828125 411.73443603515625 243.3250732421875 412.0827941894531 244.70953369140625 C 411.90863037109375 247.99755859375 411.73443603515625 251.2855224609375 411.5602722167969 254.57354736328125 C 410.8635559082031 256.3040771484375 410.1668701171875 258.03460693359375 409.47015380859375 259.76513671875 C 408.7734375 260.803466796875 408.07672119140625 261.841796875 407.3800354003906 262.880126953125 C 405.98663330078125 264.2645263671875 404.59320068359375 265.64892578125 403.1997985839844 267.03338623046875 C 402.15472412109375 267.7255859375 401.1096496582031 268.41778564453125 400.0646057128906 269.1099853515625 C 397.80029296875 269.97528076171875 395.5360107421875 270.840576171875 393.2716979980469 271.705810546875 C 390.13653564453125 271.705810546875 387.0013122558594 271.705810546875 383.86614990234375 271.705810546875 C 382.2985534667969 271.1866455078125 380.7309875488281 270.66748046875 379.16339111328125 270.1483154296875 C 377.4216003417969 269.1099853515625 375.6798400878906 268.0716552734375 373.9380798339844 267.03338623046875 C 372.544677734375 265.64892578125 371.1512145996094 264.2645263671875 369.7578125 262.880126953125 C 369.0611267089844 261.841796875 368.3644104003906 260.803466796875 367.6676940917969 259.76513671875 C 366.79681396484375 257.3424072265625 365.9259338378906 254.919677734375 365.0550537109375 252.49688720703125 C 365.2292175292969 249.03582763671875 365.40338134765625 245.57476806640625 365.57757568359375 242.11370849609375 C 366.79681396484375 239.69097900390625 368.01605224609375 237.26824951171875 369.23529052734375 234.845458984375 C 371.67376708984375 232.5958251953125 374.11224365234375 230.3460693359375 376.5507507324219 228.096435546875 C 378.6408386230469 227.23114013671875 380.7309875488281 226.3658447265625 382.8210754394531 225.5006103515625 C 383.5177917480469 225.5006103515625 384.2145080566406 225.5006103515625 384.9112243652344 225.5006103515625M 387.0013122558594 245.22869873046875 C 386.30462646484375 246.09393310546875 385.60791015625 246.959228515625 384.9112243652344 247.824462890625 C 385.08538818359375 248.68975830078125 385.2595520019531 249.55499267578125 385.4337463378906 250.4202880859375 C 386.1304626464844 250.939453125 386.8271484375 251.4586181640625 387.52386474609375 251.977783203125 C 388.2205505371094 251.977783203125 388.91729736328125 251.977783203125 389.6139831542969 251.977783203125 C 390.3106994628906 251.4586181640625 391.00738525390625 250.939453125 391.7041015625 250.4202880859375 C 391.8782958984375 249.55499267578125 392.0524597167969 248.68975830078125 392.22662353515625 247.824462890625 C 391.5299377441406 246.959228515625 390.8332214355469 246.09393310546875 390.13653564453125 245.22869873046875 C 389.0914611816406 245.22869873046875 388.04638671875 245.22869873046875 387.0013122558594 245.22869873046875"/>
  </g>
</svg>
