<?xml version="1.0" ?>
<svg xmlns="http://www.w3.org/2000/svg" version="1.1" width="600" height="600">
  <defs/>
  <g>
    <path stroke-width="0" fill="rgb(0, 0, 0)" opacity="1.0" d="M 237.03504943847656 92.5958251953125 C 237.209228515625 92.4227294921875 237.38340759277344 92.24969482421875 237.5575714111328 92.07666015625 C 238.60264587402344 92.07666015625 239.647705078125 92.07666015625 240.69276428222656 92.07666015625 C 244.17630004882812 93.4610595703125 247.65985107421875 94.845458984375 251.14337158203125 96.22991943359375 C 255.84616088867188 97.26824951171875 260.5489196777344 98.3065185546875 265.251708984375 99.3448486328125 C 268.3868713378906 99.3448486328125 271.5220642089844 99.3448486328125 274.6572570800781 99.3448486328125 C 279.882568359375 98.3065185546875 285.1078796386719 97.26824951171875 290.33319091796875 96.22991943359375 C 293.8166809082031 96.056884765625 297.30023193359375 95.8837890625 300.7837829589844 95.71075439453125 C 300.9579772949219 95.5377197265625 301.13214111328125 95.3646240234375 301.3063049316406 95.19158935546875 C 304.78985595703125 95.19158935546875 308.27337646484375 95.19158935546875 311.7569274902344 95.19158935546875 C 311.93109130859375 95.0185546875 312.10528564453125 94.845458984375 312.2794494628906 94.67242431640625 C 315.5888366699219 94.845458984375 318.8981628417969 95.0185546875 322.2075500488281 95.19158935546875 C 326.0394287109375 96.056884765625 329.871337890625 96.922119140625 333.70318603515625 97.78741455078125 C 336.31585693359375 98.998779296875 338.9284973144531 100.21014404296875 341.5411682128906 101.4215087890625 C 343.63128662109375 102.805908203125 345.7214050292969 104.19036865234375 347.8115539550781 105.57476806640625 C 351.6434326171875 109.3819580078125 355.475341796875 113.1890869140625 359.3072204589844 116.99627685546875 C 361.9198913574219 117.861572265625 364.53253173828125 118.726806640625 367.1451416015625 119.59210205078125 C 370.97705078125 121.841796875 374.8089599609375 124.09149169921875 378.6408386230469 126.3411865234375 C 381.9502258300781 129.629150390625 385.2595520019531 132.91717529296875 388.5689392089844 136.2052001953125 C 389.96234130859375 138.28179931640625 391.35577392578125 140.35845947265625 392.7491760253906 142.43511962890625 C 393.7942199707031 144.51171875 394.83929443359375 146.58837890625 395.88433837890625 148.6650390625 C 396.9294128417969 151.60693359375 397.9744873046875 154.548828125 399.01953125 157.49072265625 C 399.8904113769531 161.9901123046875 400.7613220214844 166.489501953125 401.6321716308594 170.9888916015625 C 401.6321716308594 172.7193603515625 401.6321716308594 174.449951171875 401.6321716308594 176.180419921875 C 401.8063659667969 176.353515625 401.9805603027344 176.526611328125 402.15472412109375 176.6995849609375 C 401.9805603027344 183.62176513671875 401.8063659667969 190.54388427734375 401.6321716308594 197.46600341796875 C 401.4580078125 197.6390380859375 401.2838439941406 197.8121337890625 401.1096496582031 197.98516845703125 C 401.1096496582031 199.36956787109375 401.1096496582031 200.7540283203125 401.1096496582031 202.138427734375 C 400.93548583984375 202.31146240234375 400.7613220214844 202.48455810546875 400.5871276855469 202.6575927734375 C 400.23876953125 205.7725830078125 399.8904113769531 208.88751220703125 399.5420837402344 212.00244140625 C 398.49700927734375 215.982666015625 397.4519348144531 219.962890625 396.4068603515625 223.943115234375 C 396.4068603515625 224.80841064453125 396.4068603515625 225.67364501953125 396.4068603515625 226.5389404296875 C 397.6260986328125 228.26947021484375 398.8453369140625 230.0 400.0646057128906 231.73052978515625 C 400.93548583984375 233.63409423828125 401.8063659667969 235.5377197265625 402.67724609375 237.4412841796875 C 403.1997985839844 240.037109375 403.7223205566406 242.63287353515625 404.2448425292969 245.2286376953125 C 404.0706481933594 247.99749755859375 403.896484375 250.766357421875 403.7223205566406 253.53521728515625 C 402.5030822753906 257.6884765625 401.2838439941406 261.841796875 400.0646057128906 265.99505615234375 C 398.49700927734375 269.1099853515625 396.9294128417969 272.2249755859375 395.3618469238281 275.33990478515625 C 392.7491760253906 278.454833984375 390.13653564453125 281.56982421875 387.52386474609375 284.684814453125 C 386.4787902832031 285.550048828125 385.4337463378906 286.415283203125 384.388671875 287.28057861328125 C 381.7760009765625 288.83807373046875 379.16339111328125 290.3955078125 376.5507507324219 291.9530029296875 C 375.50567626953125 294.8948974609375 374.4606018066406 297.8367919921875 373.41552734375 300.7786865234375 C 371.325439453125 305.10504150390625 369.23529052734375 309.431396484375 367.1451416015625 313.7576904296875 C 365.0550537109375 317.04571533203125 362.96490478515625 320.333740234375 360.87481689453125 323.6217041015625 C 359.48138427734375 325.17919921875 358.0879821777344 326.7366943359375 356.694580078125 328.294189453125 C 356.34619140625 330.8900146484375 355.9978332519531 333.48577880859375 355.6495056152344 336.08154296875 C 355.475341796875 336.254638671875 355.3011474609375 336.42767333984375 355.126953125 336.6007080078125 C 355.126953125 337.98516845703125 355.126953125 339.36956787109375 355.126953125 340.7540283203125 C 354.9527893066406 340.92706298828125 354.7785949707031 341.10009765625 354.60443115234375 341.273193359375 C 354.7785949707031 346.29168701171875 354.9527893066406 351.31024169921875 355.126953125 356.32879638671875 C 355.9978332519531 358.5784912109375 356.8687438964844 360.828125 357.7395935058594 363.077880859375 C 358.6105041503906 364.28924560546875 359.48138427734375 365.5006103515625 360.3522644042969 366.71197509765625 C 363.4874572753906 369.134765625 366.6226501464844 371.55743408203125 369.7578125 373.980224609375 C 374.634765625 376.22991943359375 379.5117492675781 378.4796142578125 384.388671875 380.729248046875 C 394.3167724609375 384.3634033203125 404.2448425292969 387.99755859375 414.1729431152344 391.631591796875 C 418.3531799316406 393.708251953125 422.5334167480469 395.784912109375 426.7136535644531 397.861572265625 C 431.2422790527344 400.97650146484375 435.7708435058594 404.0914306640625 440.2994384765625 407.2064208984375 C 442.912109375 409.80224609375 445.5247497558594 412.39801025390625 448.1374206542969 414.9937744140625 C 449.3566589355469 416.55126953125 450.5758972167969 418.1087646484375 451.7951354980469 419.666259765625 C 453.88525390625 423.30029296875 455.9753723144531 426.9344482421875 458.06549072265625 430.568603515625 C 459.2847595214844 434.0296630859375 460.5039978027344 437.49072265625 461.72320556640625 440.9517822265625 C 462.419921875 444.5859375 463.1166076660156 448.219970703125 463.8133239746094 451.8541259765625 C 463.9875183105469 456.6995849609375 464.16168212890625 461.545166015625 464.3358459472656 466.390625 C 463.9875183105469 467.6019287109375 463.63916015625 468.8133544921875 463.2908020019531 470.024658203125 C 462.419921875 471.4091796875 461.54901123046875 472.7935791015625 460.67816162109375 474.177978515625 C 458.9363708496094 475.908447265625 457.1946105957031 477.6390380859375 455.4528503417969 479.36962890625 C 452.8402099609375 481.10009765625 450.2275390625 482.83056640625 447.6148986816406 484.5611572265625 C 443.0862731933594 486.6378173828125 438.55767822265625 488.7144775390625 434.0290832519531 490.791015625 C 428.6296081542969 492.5216064453125 423.2301330566406 494.252197265625 417.8306579589844 495.982666015625 C 411.73443603515625 497.3671875 405.63824462890625 498.75146484375 399.5420837402344 500.135986328125 C 398.6711730957031 500.135986328125 397.80029296875 500.135986328125 396.9294128417969 500.135986328125 C 392.7491760253906 501.001220703125 388.5689392089844 501.866455078125 384.388671875 502.731689453125 C 381.9502258300781 502.90478515625 379.5117492675781 503.077880859375 377.0732421875 503.2509765625 C 376.8990783691406 503.4239501953125 376.72491455078125 503.5970458984375 376.5507507324219 503.77001953125 C 370.45452880859375 504.289306640625 364.35833740234375 504.808349609375 358.26214599609375 505.3275146484375 C 358.0879821777344 505.5006103515625 357.913818359375 505.673583984375 357.7395935058594 505.8466796875 C 355.6495056152344 505.8466796875 353.5593566894531 505.8466796875 351.4692687988281 505.8466796875 C 351.2950744628906 506.019775390625 351.1208801269531 506.19287109375 350.94671630859375 506.3658447265625 C 345.373046875 506.5389404296875 339.7994079589844 506.7119140625 334.2257385253906 506.885009765625 C 334.05157470703125 507.05810546875 333.8774108886719 507.231201171875 333.70318603515625 507.4041748046875 C 329.00042724609375 507.4041748046875 324.2976379394531 507.4041748046875 319.5948791503906 507.4041748046875 C 319.42071533203125 507.5772705078125 319.2465515136719 507.750244140625 319.0723571777344 507.92333984375 C 301.4804992675781 507.750244140625 283.8886413574219 507.5772705078125 266.2967834472656 507.4041748046875 C 266.1225891113281 507.231201171875 265.94842529296875 507.05810546875 265.77423095703125 506.885009765625 C 262.6390380859375 506.885009765625 259.5038757324219 506.885009765625 256.3686828613281 506.885009765625 C 256.1944885253906 506.7119140625 256.02032470703125 506.5389404296875 255.84616088867188 506.3658447265625 C 251.49172973632812 506.19287109375 247.13731384277344 506.019775390625 242.7828826904297 505.8466796875 C 242.60870361328125 505.673583984375 242.43453979492188 505.5006103515625 242.26036071777344 505.3275146484375 C 240.51858520507812 505.3275146484375 238.7768096923828 505.3275146484375 237.03504943847656 505.3275146484375 C 236.86087036132812 505.154541015625 236.6866912841797 504.9814453125 236.5125274658203 504.808349609375 C 230.76467895507812 504.289306640625 225.016845703125 503.77001953125 219.26901245117188 503.2509765625 C 218.04977416992188 502.90478515625 216.8305206298828 502.5587158203125 215.61129760742188 502.212646484375 C 211.43104553222656 501.693359375 207.2508087158203 501.17431640625 203.07057189941406 500.655029296875 C 202.19967651367188 500.30908203125 201.32879638671875 499.962890625 200.45791625976562 499.6168212890625 C 199.5870361328125 499.6168212890625 198.7161407470703 499.6168212890625 197.8452606201172 499.6168212890625 C 192.6199493408203 498.4053955078125 187.39463806152344 497.194091796875 182.16932678222656 495.982666015625 C 176.7698516845703 494.252197265625 171.37037658691406 492.5216064453125 165.97088623046875 490.791015625 C 161.09393310546875 488.5413818359375 156.21697998046875 486.291748046875 151.34002685546875 484.0419921875 C 149.07574462890625 482.4844970703125 146.81143188476562 480.927001953125 144.54713439941406 479.36962890625 C 142.80535888671875 477.6390380859375 141.0635986328125 475.908447265625 139.3218231201172 474.177978515625 C 138.6251220703125 473.1396484375 137.9284210205078 472.101318359375 137.23170471191406 471.06298828125 C 136.70916748046875 469.6785888671875 136.1866455078125 468.294189453125 135.66412353515625 466.9097900390625 C 135.66412353515625 463.6217041015625 135.66412353515625 460.333740234375 135.66412353515625 457.0457763671875 C 135.83828735351562 456.8726806640625 136.01246643066406 456.6995849609375 136.1866455078125 456.526611328125 C 136.1866455078125 454.9691162109375 136.1866455078125 453.41162109375 136.1866455078125 451.8541259765625 C 136.8833465576172 448.219970703125 137.58004760742188 444.5859375 138.2767791748047 440.9517822265625 C 139.1476593017578 438.35595703125 140.01853942871094 435.7601318359375 140.88941955566406 433.1644287109375 C 142.10865783691406 430.568603515625 143.32789611816406 427.9727783203125 144.54713439941406 425.376953125 C 146.98561096191406 421.9158935546875 149.42408752441406 418.454833984375 151.86256408691406 414.9937744140625 C 155.34609985351562 411.705810546875 158.8296356201172 408.41778564453125 162.3131866455078 405.1297607421875 C 165.97088623046875 402.70703125 169.6286163330078 400.2843017578125 173.28631591796875 397.861572265625 C 178.3374481201172 395.43878173828125 183.38856506347656 393.01605224609375 188.43971252441406 390.59326171875 C 199.5870361328125 386.4400634765625 210.73434448242188 382.2867431640625 221.8816680908203 378.13348388671875 C 225.53936767578125 376.22991943359375 229.1970977783203 374.3262939453125 232.85479736328125 372.4227294921875 C 235.11911010742188 370.5191650390625 237.38340759277344 368.61553955078125 239.647705078125 366.71197509765625 C 240.51858520507812 365.5006103515625 241.38946533203125 364.28924560546875 242.26036071777344 363.077880859375 C 242.9570770263672 361.5203857421875 243.65377807617188 359.962890625 244.35047912597656 358.4053955078125 C 244.524658203125 356.5018310546875 244.69882202148438 354.5982666015625 244.8730010986328 352.6947021484375 C 245.0471954345703 352.5216064453125 245.2213592529297 352.34857177734375 245.39553833007812 352.175537109375 C 245.39553833007812 348.5413818359375 245.39553833007812 344.90728759765625 245.39553833007812 341.273193359375 C 245.2213592529297 341.10009765625 245.0471954345703 340.92706298828125 244.8730010986328 340.7540283203125 C 244.8730010986328 339.36956787109375 244.8730010986328 337.98516845703125 244.8730010986328 336.6007080078125 C 244.35047912597656 334.00494384765625 243.8279571533203 331.40911865234375 243.305419921875 328.8133544921875 C 241.91200256347656 327.08282470703125 240.51858520507812 325.352294921875 239.12518310546875 323.6217041015625 C 237.03504943847656 320.333740234375 234.94493103027344 317.04571533203125 232.85479736328125 313.7576904296875 C 231.4613800048828 310.9888916015625 230.06797790527344 308.219970703125 228.674560546875 305.451171875 C 226.93280029296875 300.9517822265625 225.19102478027344 296.452392578125 223.44924926757812 291.9530029296875 C 220.8365936279297 290.3955078125 218.22393798828125 288.83807373046875 215.61129760742188 287.28057861328125 C 214.5662384033203 286.415283203125 213.5211639404297 285.550048828125 212.4761199951172 284.684814453125 C 209.86346435546875 281.56982421875 207.2508087158203 278.454833984375 204.63815307617188 275.33990478515625 C 203.07057189941406 272.2249755859375 201.50296020507812 269.1099853515625 199.9353790283203 265.99505615234375 C 198.8903045654297 262.70703125 197.8452606201172 259.4190673828125 196.80018615722656 256.1309814453125 C 196.6260223388672 254.4005126953125 196.45184326171875 252.669921875 196.2776641845703 250.939453125 C 196.10348510742188 250.766357421875 195.92930603027344 250.59332275390625 195.75514221191406 250.4202880859375 C 195.75514221191406 248.51666259765625 195.75514221191406 246.61309814453125 195.75514221191406 244.70947265625 C 196.2776641845703 242.2867431640625 196.80018615722656 239.864013671875 197.32272338867188 237.4412841796875 C 198.7161407470703 234.67242431640625 200.1095428466797 231.903564453125 201.50296020507812 229.134765625 C 202.72219848632812 227.75030517578125 203.9414520263672 226.3658447265625 205.1606903076172 224.9814453125 C 204.98651123046875 223.5970458984375 204.8123321533203 222.21258544921875 204.63815307617188 220.82818603515625 C 204.28981018066406 219.962890625 203.9414520263672 219.09765625 203.5930938720703 218.23236083984375 C 203.41891479492188 214.77130126953125 203.24473571777344 211.31024169921875 203.07057189941406 207.84918212890625 C 202.3738555908203 204.5611572265625 201.67715454101562 201.273193359375 200.98043823242188 197.98516845703125 C 200.80625915527344 195.38934326171875 200.632080078125 192.7935791015625 200.45791625976562 190.19775390625 C 200.2837371826172 190.02471923828125 200.1095428466797 189.8516845703125 199.9353790283203 189.6785888671875 C 199.9353790283203 187.7750244140625 199.9353790283203 185.8714599609375 199.9353790283203 183.9678955078125 C 199.76119995117188 183.7947998046875 199.5870361328125 183.62176513671875 199.412841796875 183.44873046875 C 199.5870361328125 176.180419921875 199.76119995117188 168.9122314453125 199.9353790283203 161.64398193359375 C 200.1095428466797 161.470947265625 200.2837371826172 161.29791259765625 200.45791625976562 161.12481689453125 C 200.632080078125 158.70208740234375 200.80625915527344 156.27935791015625 200.98043823242188 153.85662841796875 C 201.851318359375 149.70330810546875 202.72219848632812 145.550048828125 203.5930938720703 141.39678955078125 C 205.33485412597656 135.85906982421875 207.07662963867188 130.3214111328125 208.81838989257812 124.78369140625 C 209.6892852783203 122.70703125 210.56016540527344 120.63037109375 211.43104553222656 118.55377197265625 C 212.4761199951172 116.8232421875 213.5211639404297 115.09271240234375 214.5662384033203 113.3621826171875 C 216.30801391601562 111.11248779296875 218.04977416992188 108.86279296875 219.7915496826172 106.61309814453125 C 223.1009063720703 103.3250732421875 226.41026306152344 100.037109375 229.71961975097656 96.74908447265625 C 231.113037109375 95.71075439453125 232.50645446777344 94.67242431640625 233.89987182617188 93.63409423828125 C 234.94493103027344 93.28802490234375 235.989990234375 92.94189453125 237.03504943847656 92.5958251953125M 232.332275390625 388.51666259765625 C 226.75860595703125 390.939453125 221.18495178222656 393.3621826171875 215.61129760742188 395.784912109375 C 215.61129760742188 401.49566650390625 215.61129760742188 407.2064208984375 215.61129760742188 412.9171142578125 C 217.701416015625 413.2633056640625 219.7915496826172 413.609375 221.8816680908203 413.9554443359375 C 225.53936767578125 415.85906982421875 229.1970977783203 417.7626953125 232.85479736328125 419.666259765625 C 235.81581115722656 422.43505859375 238.7768096923828 425.2039794921875 241.73782348632812 427.9727783203125 C 242.9570770263672 429.703369140625 244.17630004882812 431.433837890625 245.39553833007812 433.1644287109375 C 246.61477661132812 435.587158203125 247.83401489257812 438.0098876953125 249.05325317382812 440.4326171875 C 249.74996948242188 443.0284423828125 250.44668579101562 445.624267578125 251.14337158203125 448.219970703125 C 251.14337158203125 451.508056640625 251.14337158203125 454.7960205078125 251.14337158203125 458.083984375 C 250.27249145507812 460.333740234375 249.401611328125 462.58349609375 248.53073120117188 464.8331298828125 C 247.3114776611328 466.217529296875 246.0922393798828 467.6019287109375 244.8730010986328 468.986328125 C 242.9570770263672 469.6785888671875 241.04112243652344 470.370849609375 239.12518310546875 471.06298828125 C 238.7768096923828 470.7169189453125 238.428466796875 470.370849609375 238.08010864257812 470.024658203125 C 238.08010864257812 467.7750244140625 238.08010864257812 465.525390625 238.08010864257812 463.275634765625 C 239.12518310546875 462.410400390625 240.17022705078125 461.545166015625 241.21530151367188 460.6798095703125 C 241.56365966796875 459.9876708984375 241.91200256347656 459.29541015625 242.26036071777344 458.603271484375 C 242.43453979492188 455.8343505859375 242.60870361328125 453.0655517578125 242.7828826904297 450.296630859375 C 241.91200256347656 447.181640625 241.04112243652344 444.0667724609375 240.17022705078125 440.9517822265625 C 237.9059295654297 437.663818359375 235.6416473388672 434.375732421875 233.37733459472656 431.0877685546875 C 231.80975341796875 429.703369140625 230.24215698242188 428.31884765625 228.674560546875 426.9344482421875 C 226.236083984375 425.550048828125 223.797607421875 424.1656494140625 221.359130859375 422.78125 C 218.57229614257812 422.0889892578125 215.7854766845703 421.396728515625 212.99864196777344 420.70458984375 C 211.25686645507812 420.70458984375 209.51510620117188 420.70458984375 207.77334594726562 420.70458984375 C 205.509033203125 421.2237548828125 203.24473571777344 421.742919921875 200.98043823242188 422.261962890625 C 198.193603515625 423.8194580078125 195.40676879882812 425.376953125 192.6199493408203 426.9344482421875 C 190.00729370117188 429.5302734375 187.39463806152344 432.1260986328125 184.781982421875 434.721923828125 C 183.38856506347656 437.1446533203125 181.9951629638672 439.5673828125 180.60174560546875 441.9901123046875 C 179.90504455566406 444.412841796875 179.2083282470703 446.8355712890625 178.51162719726562 449.25830078125 C 178.51162719726562 451.8541259765625 178.51162719726562 454.449951171875 178.51162719726562 457.0457763671875 C 178.85997009277344 458.083984375 179.2083282470703 459.122314453125 179.55667114257812 460.16064453125 C 180.7759246826172 461.198974609375 181.9951629638672 462.2373046875 183.2144012451172 463.275634765625 C 183.2144012451172 465.525390625 183.2144012451172 467.7750244140625 183.2144012451172 470.024658203125 C 182.8660430908203 470.370849609375 182.5177001953125 470.7169189453125 182.16932678222656 471.06298828125 C 181.29844665527344 470.889892578125 180.4275665283203 470.7169189453125 179.55667114257812 470.5438232421875 C 178.51162719726562 470.024658203125 177.466552734375 469.505615234375 176.4215087890625 468.986328125 C 175.37643432617188 467.947998046875 174.33139038085938 466.9097900390625 173.28631591796875 465.8714599609375 C 172.24124145507812 463.44873046875 171.19619750976562 461.02587890625 170.151123046875 458.603271484375 C 170.151123046875 454.9691162109375 170.151123046875 451.3349609375 170.151123046875 447.7008056640625 C 171.0220184326172 444.7589111328125 171.8928985595703 441.8170166015625 172.76377868652344 438.8751220703125 C 173.63467407226562 437.1446533203125 174.50555419921875 435.4140625 175.37643432617188 433.68359375 C 176.59567260742188 431.9530029296875 177.81491088867188 430.222412109375 179.03416442871094 428.491943359375 C 181.64682006835938 425.8961181640625 184.25946044921875 423.30029296875 186.87210083007812 420.70458984375 C 188.0913543701172 419.83929443359375 189.3105926513672 418.9739990234375 190.5298309326172 418.1087646484375 C 192.9683074951172 416.8973388671875 195.40676879882812 415.68603515625 197.8452606201172 414.474609375 C 200.45791625976562 413.782470703125 203.07057189941406 413.0902099609375 205.6832275390625 412.39801025390625 C 205.6832275390625 408.2447509765625 205.6832275390625 404.0914306640625 205.6832275390625 399.938232421875 C 205.33485412597656 399.76513671875 204.98651123046875 399.592041015625 204.63815307617188 399.41900634765625 C 199.0644989013672 401.668701171875 193.49082946777344 403.91845703125 187.91717529296875 406.1680908203125 C 184.9561767578125 407.7255859375 181.9951629638672 409.2830810546875 179.03416442871094 410.840576171875 C 176.4215087890625 412.571044921875 173.80885314941406 414.30157470703125 171.19619750976562 416.0321044921875 C 168.2351837158203 418.80096435546875 165.27418518066406 421.56982421875 162.3131866455078 424.338623046875 C 161.2681121826172 425.72314453125 160.22303771972656 427.1075439453125 159.17799377441406 428.491943359375 C 157.2620391845703 432.299072265625 155.34609985351562 436.1063232421875 153.43014526367188 439.9134521484375 C 152.38510131835938 444.412841796875 151.34002685546875 448.9122314453125 150.29498291015625 453.41162109375 C 150.29498291015625 454.9691162109375 150.29498291015625 456.526611328125 150.29498291015625 458.083984375 C 150.12078857421875 458.257080078125 149.9466094970703 458.43017578125 149.77244567871094 458.603271484375 C 149.77244567871094 460.5068359375 149.77244567871094 462.410400390625 149.77244567871094 464.31396484375 C 149.9466094970703 464.6600341796875 150.12078857421875 465.006103515625 150.29498291015625 465.352294921875 C 151.5142059326172 466.5635986328125 152.7334442138672 467.7750244140625 153.9526824951172 468.986328125 C 156.21697998046875 470.370849609375 158.48129272460938 471.7552490234375 160.74557495117188 473.1396484375 C 165.27418518066406 475.043212890625 169.8027801513672 476.94677734375 174.33139038085938 478.850341796875 C 178.3374481201172 480.061767578125 182.34352111816406 481.273193359375 186.34959411621094 482.4844970703125 C 193.49082946777344 484.0419921875 200.632080078125 485.5994873046875 207.77334594726562 487.156982421875 C 213.3470001220703 487.84912109375 218.92066955566406 488.5413818359375 224.49432373046875 489.233642578125 C 224.66848754882812 489.40673828125 224.84266662597656 489.5797119140625 225.016845703125 489.752685546875 C 226.23609924316406 489.752685546875 227.455322265625 489.752685546875 228.674560546875 489.752685546875 C 228.84872436523438 489.92578125 229.02291870117188 490.098876953125 229.1970977783203 490.27197265625 C 234.07403564453125 490.6180419921875 238.9510040283203 490.964111328125 243.8279571533203 491.310302734375 C 244.0021209716797 491.4832763671875 244.17630004882812 491.6563720703125 244.35047912597656 491.829345703125 C 252.18844604492188 492.175537109375 260.0263977050781 492.5216064453125 267.8643493652344 492.86767578125 C 268.0385437011719 493.040771484375 268.21270751953125 493.2138671875 268.3868713378906 493.386962890625 C 273.6121826171875 493.386962890625 278.8374938964844 493.386962890625 284.06280517578125 493.386962890625 C 284.2369689941406 493.5599365234375 284.4111328125 493.73291015625 284.5853576660156 493.906005859375 C 294.86175537109375 493.906005859375 305.1382141113281 493.906005859375 315.4146423339844 493.906005859375 C 315.5888366699219 493.73291015625 315.76300048828125 493.5599365234375 315.9371643066406 493.386962890625 C 324.4718322753906 493.2138671875 333.0065002441406 493.040771484375 341.5411682128906 492.86767578125 C 341.71533203125 492.694580078125 341.8895263671875 492.5216064453125 342.063720703125 492.3486328125 C 346.59228515625 492.175537109375 351.1208801269531 492.00244140625 355.6495056152344 491.829345703125 C 355.82366943359375 491.6563720703125 355.9978332519531 491.4832763671875 356.1720275878906 491.310302734375 C 357.913818359375 491.310302734375 359.65557861328125 491.310302734375 361.3973388671875 491.310302734375 C 361.5715026855469 491.13720703125 361.74566650390625 490.964111328125 361.9198913574219 490.791015625 C 363.4874572753906 490.791015625 365.0550537109375 490.791015625 366.6226501464844 490.791015625 C 366.79681396484375 490.6180419921875 366.9709777832031 490.4449462890625 367.1451416015625 490.27197265625 C 371.1512145996094 489.92578125 375.15728759765625 489.5797119140625 379.16339111328125 489.233642578125 C 380.3825988769531 488.887451171875 381.6018371582031 488.5413818359375 382.8210754394531 488.1953125 C 385.956298828125 487.84912109375 389.0914611816406 487.5030517578125 392.22662353515625 487.156982421875 C 399.3678894042969 485.5994873046875 406.5091552734375 484.0419921875 413.650390625 482.4844970703125 C 417.6564636230469 481.273193359375 421.6625061035156 480.061767578125 425.6685791015625 478.850341796875 C 429.50048828125 477.29296875 433.3323669433594 475.7354736328125 437.1642761230469 474.177978515625 C 440.1252746582031 472.447509765625 443.0862731933594 470.7169189453125 446.04730224609375 468.986328125 C 447.4407043457031 467.428955078125 448.8341369628906 465.8714599609375 450.2275390625 464.31396484375 C 450.0533752441406 460.6798095703125 449.87921142578125 457.0457763671875 449.7049865722656 453.41162109375 C 448.8341369628906 449.431396484375 447.9632263183594 445.451171875 447.09234619140625 441.470947265625 C 445.5247497558594 438.0098876953125 443.9571533203125 434.548828125 442.38958740234375 431.0877685546875 C 440.8219909667969 428.8380126953125 439.25439453125 426.58837890625 437.6867980957031 424.338623046875 C 434.7257995605469 421.56982421875 431.7648010253906 418.80096435546875 428.8038024902344 416.0321044921875 C 424.9718933105469 413.609375 421.1400146484375 411.1866455078125 417.30810546875 408.763916015625 C 410.51519775390625 405.822021484375 403.7223205566406 402.880126953125 396.9294128417969 399.938232421875 C 395.5360107421875 399.592041015625 394.142578125 399.2459716796875 392.7491760253906 398.89990234375 C 388.91729736328125 397.3424072265625 385.08538818359375 395.784912109375 381.2535095214844 394.2274169921875 C 380.7309875488281 394.2274169921875 380.20843505859375 394.2274169921875 379.6859130859375 394.2274169921875 C 380.7309875488281 397.51544189453125 381.7760009765625 400.803466796875 382.8210754394531 404.0914306640625 C 382.9952392578125 406.687255859375 383.1694641113281 409.2830810546875 383.3436279296875 411.87890625 C 383.5177917480469 412.0518798828125 383.6919860839844 412.2249755859375 383.86614990234375 412.39801025390625 C 383.86614990234375 426.9344482421875 383.86614990234375 441.470947265625 383.86614990234375 456.0074462890625 C 384.0403137207031 456.180419921875 384.2145080566406 456.353515625 384.388671875 456.526611328125 C 391.5299377441406 456.526611328125 398.6711730957031 456.526611328125 405.8124084472656 456.526611328125 C 405.98663330078125 456.6995849609375 406.1607971191406 456.8726806640625 406.3349609375 457.0457763671875 C 406.3349609375 459.8145751953125 406.3349609375 462.58349609375 406.3349609375 465.352294921875 C 405.98663330078125 465.6983642578125 405.63824462890625 466.04443359375 405.2898864746094 466.390625 C 387.3497009277344 466.390625 369.4094543457031 466.390625 351.4692687988281 466.390625 C 351.2950744628906 466.217529296875 351.1208801269531 466.04443359375 350.94671630859375 465.8714599609375 C 350.94671630859375 462.9295654296875 350.94671630859375 459.9876708984375 350.94671630859375 457.0457763671875 C 351.1208801269531 456.8726806640625 351.2950744628906 456.6995849609375 351.4692687988281 456.526611328125 C 358.6105041503906 456.526611328125 365.7517395019531 456.526611328125 372.89300537109375 456.526611328125 C 373.06719970703125 456.180419921875 373.2413635253906 455.8343505859375 373.41552734375 455.48828125 C 373.41552734375 443.547607421875 373.41552734375 431.60693359375 373.41552734375 419.666259765625 C 373.2413635253906 419.4931640625 373.06719970703125 419.32012939453125 372.89300537109375 419.1470947265625 C 372.89300537109375 416.37823486328125 372.89300537109375 413.609375 372.89300537109375 410.840576171875 C 371.8479309082031 406.3411865234375 370.8028869628906 401.841796875 369.7578125 397.3424072265625 C 368.3644104003906 394.74658203125 366.9709777832031 392.1507568359375 365.57757568359375 389.55499267578125 C 346.7664794921875 418.80096435546875 327.95538330078125 448.0469970703125 309.144287109375 477.29296875 C 307.7508544921875 479.36962890625 306.3574523925781 481.4462890625 304.9640197753906 483.5228271484375 C 304.4414978027344 483.868896484375 303.9189758300781 484.215087890625 303.3964538574219 484.5611572265625 C 280.40509033203125 453.0655517578125 257.4137268066406 421.56982421875 234.42239379882812 390.07415771484375 C 233.72569274902344 389.55499267578125 233.02899169921875 389.03582763671875 232.332275390625 388.51666259765625M 228.1520233154297 458.083984375 C 229.02291870117188 457.9110107421875 229.893798828125 457.7379150390625 230.76467895507812 457.56494140625 C 231.98391723632812 457.9110107421875 233.20315551757812 458.257080078125 234.42239379882812 458.603271484375 C 234.770751953125 458.9493408203125 235.11911010742188 459.29541015625 235.4674530029297 459.6414794921875 C 235.4674530029297 464.31396484375 235.4674530029297 468.986328125 235.4674530029297 473.6588134765625 C 234.94493103027344 474.0048828125 234.42239379882812 474.35107421875 233.89987182617188 474.6971435546875 C 231.80975341796875 474.8701171875 229.71961975097656 475.043212890625 227.62950134277344 475.21630859375 C 226.75860595703125 474.5240478515625 225.88772583007812 473.831787109375 225.016845703125 473.1396484375 C 224.66848754882812 472.447509765625 224.3201446533203 471.7552490234375 223.97178649902344 471.06298828125 C 223.97178649902344 467.947998046875 223.97178649902344 464.8331298828125 223.97178649902344 461.7181396484375 C 225.016845703125 460.5068359375 226.06190490722656 459.29541015625 227.1069793701172 458.083984375 C 227.455322265625 458.083984375 227.80368041992188 458.083984375 228.1520233154297 458.083984375M 190.00729370117188 458.083984375 C 190.878173828125 457.9110107421875 191.7490692138672 457.7379150390625 192.6199493408203 457.56494140625 C 193.316650390625 457.9110107421875 194.01336669921875 458.257080078125 194.71006774902344 458.603271484375 C 195.40676879882812 459.29541015625 196.10348510742188 459.9876708984375 196.80018615722656 460.6798095703125 C 196.97438049316406 461.198974609375 197.14854431152344 461.7181396484375 197.32272338867188 462.2373046875 C 197.32272338867188 465.17919921875 197.32272338867188 468.12109375 197.32272338867188 471.06298828125 C 196.6260223388672 472.101318359375 195.92930603027344 473.1396484375 195.23260498046875 474.177978515625 C 194.535888671875 474.5240478515625 193.8391876220703 474.8701171875 193.14248657226562 475.21630859375 C 191.92324829101562 475.21630859375 190.70399475097656 475.21630859375 189.48475646972656 475.21630859375 C 188.26553344726562 474.6971435546875 187.04629516601562 474.177978515625 185.82705688476562 473.6588134765625 C 185.82705688476562 468.8133544921875 185.82705688476562 463.9678955078125 185.82705688476562 459.122314453125 C 187.22047424316406 458.7762451171875 188.61387634277344 458.43017578125 190.00729370117188 458.083984375M 250.620849609375 375.0185546875 C 247.65985107421875 377.96044921875 244.69882202148438 380.90234375 241.73782348632812 383.84423828125 C 256.3686828613281 403.745361328125 270.9995422363281 423.646484375 285.6304016113281 443.547607421875 C 285.8045654296875 443.37451171875 285.978759765625 443.201416015625 286.1529235839844 443.0284423828125 C 286.6754455566406 438.529052734375 287.1979675292969 434.0296630859375 287.72052001953125 429.5302734375 C 288.0688781738281 428.31884765625 288.4172058105469 427.1075439453125 288.7655944824219 425.8961181640625 C 289.1139221191406 422.261962890625 289.4622802734375 418.6279296875 289.8106384277344 414.9937744140625 C 286.1529235839844 411.1866455078125 282.4952087402344 407.37945556640625 278.8374938964844 403.572265625 C 278.8374938964844 403.0531005859375 278.8374938964844 402.533935546875 278.8374938964844 402.01483154296875 C 280.7534484863281 399.07293701171875 282.66937255859375 396.1309814453125 284.5853576660156 393.1890869140625 C 284.9336853027344 392.3238525390625 285.28204345703125 391.45855712890625 285.6304016113281 390.59326171875 C 275.3539733886719 385.747802734375 265.0775146484375 380.90234375 254.80108642578125 376.056884765625 C 253.40768432617188 375.710693359375 252.01425170898438 375.3646240234375 250.620849609375 375.0185546875M 347.8115539550781 374.4993896484375 C 337.7092590332031 379.864013671875 327.6070251464844 385.2286376953125 317.5047607421875 390.59326171875 C 317.5047607421875 390.939453125 317.5047607421875 391.2855224609375 317.5047607421875 391.631591796875 C 319.7690734863281 395.2657470703125 322.03338623046875 398.89990234375 324.2976379394531 402.533935546875 C 323.775146484375 403.39923095703125 323.25262451171875 404.2645263671875 322.7300720214844 405.1297607421875 C 319.42071533203125 408.5908203125 316.111328125 412.0518798828125 312.802001953125 415.512939453125 C 314.3695983886719 425.376953125 315.9371643066406 435.240966796875 317.5047607421875 445.1051025390625 C 317.6789245605469 445.1051025390625 317.85308837890625 445.1051025390625 318.0273132324219 445.1051025390625 C 331.2647399902344 424.51171875 344.5021667480469 403.91845703125 357.7395935058594 383.3250732421875 C 354.7785949707031 380.3831787109375 351.8175964355469 377.4412841796875 348.8565979003906 374.4993896484375 C 348.5082702636719 374.4993896484375 348.1598815917969 374.4993896484375 347.8115539550781 374.4993896484375M 377.59576416015625 232.24969482421875 C 377.4216003417969 232.5958251953125 377.2474365234375 232.94189453125 377.0732421875 233.2879638671875 C 377.0732421875 235.19158935546875 377.0732421875 237.09521484375 377.0732421875 238.998779296875 C 376.5507507324219 241.2484130859375 376.0281982421875 243.49810791015625 375.50567626953125 245.747802734375 C 374.4606018066406 248.3436279296875 373.41552734375 250.939453125 372.3704528808594 253.53521728515625 C 371.1512145996094 255.2657470703125 369.9320068359375 256.99627685546875 368.7127685546875 258.726806640625 C 366.2742919921875 260.803466796875 363.8358154296875 262.880126953125 361.3973388671875 264.95672607421875 C 359.48138427734375 265.822021484375 357.5654296875 266.687255859375 355.6495056152344 267.552490234375 C 352.8626708984375 268.2447509765625 350.0758361816406 268.93695068359375 347.2890319824219 269.629150390625 C 343.282958984375 269.629150390625 339.2768859863281 269.629150390625 335.27081298828125 269.629150390625 C 334.3999328613281 269.4560546875 333.5290222167969 269.2830810546875 332.6581726074219 269.1099853515625 C 330.5680236816406 268.41778564453125 328.4779052734375 267.7255859375 326.3877868652344 267.0333251953125 C 324.2976379394531 265.822021484375 322.2075500488281 264.610595703125 320.1174011230469 263.3992919921875 C 318.0273132324219 261.3226318359375 315.9371643066406 259.2459716796875 313.8470458984375 257.1693115234375 C 313.15032958984375 256.1309814453125 312.45361328125 255.0926513671875 311.7569274902344 254.05438232421875 C 311.0602111816406 252.49688720703125 310.363525390625 250.939453125 309.6667785644531 249.3819580078125 C 308.62176513671875 245.9208984375 307.5766906738281 242.4598388671875 306.5316162109375 238.998779296875 C 306.00909423828125 237.96044921875 305.4865417480469 236.922119140625 304.9640197753906 235.8837890625 C 304.4414978027344 235.3646240234375 303.9189758300781 234.845458984375 303.3964538574219 234.3262939453125 C 302.8739013671875 234.15325927734375 302.35137939453125 233.980224609375 301.8288269042969 233.80712890625 C 300.9579772949219 233.980224609375 300.0870666503906 234.15325927734375 299.2162170410156 234.3262939453125 C 298.51947021484375 235.0185546875 297.82275390625 235.71075439453125 297.1260681152344 236.4029541015625 C 296.6035461425781 237.4412841796875 296.08099365234375 238.4796142578125 295.5584716796875 239.5179443359375 C 294.3392333984375 243.49810791015625 293.1199951171875 247.47833251953125 291.9007568359375 251.45855712890625 C 290.5073547363281 253.708251953125 289.1139221191406 255.9580078125 287.72052001953125 258.2076416015625 C 286.1529235839844 259.76513671875 284.5853576660156 261.3226318359375 283.0177307128906 262.880126953125 C 281.101806640625 264.0914306640625 279.18585205078125 265.3028564453125 277.2698974609375 266.51416015625 C 273.7863464355469 267.552490234375 270.3028259277344 268.5908203125 266.81927490234375 269.629150390625 C 262.813232421875 269.629150390625 258.8071594238281 269.629150390625 254.80108642578125 269.629150390625 C 251.66592407226562 268.763916015625 248.53073120117188 267.89862060546875 245.39553833007812 267.0333251953125 C 243.65377807617188 266.1680908203125 241.91200256347656 265.3028564453125 240.17022705078125 264.43756103515625 C 237.7317657470703 262.1878662109375 235.29327392578125 259.938232421875 232.85479736328125 257.6884765625 C 232.15809631347656 256.650146484375 231.4613800048828 255.61181640625 230.76467895507812 254.573486328125 C 229.54544067382812 251.97772216796875 228.3262176513672 249.3819580078125 227.1069793701172 246.7861328125 C 226.75860595703125 245.05560302734375 226.41026306152344 243.3250732421875 226.06190490722656 241.59454345703125 C 225.71356201171875 242.11370849609375 225.36520385742188 242.63287353515625 225.016845703125 243.15203857421875 C 224.49432373046875 243.15203857421875 223.97178649902344 243.15203857421875 223.44924926757812 243.15203857421875 C 222.75254821777344 242.4598388671875 222.0558319091797 241.767578125 221.359130859375 241.07537841796875 C 219.7915496826172 238.65264892578125 218.22393798828125 236.22991943359375 216.65635681152344 233.80712890625 C 215.7854766845703 234.4993896484375 214.91458129882812 235.19158935546875 214.043701171875 235.8837890625 C 212.99864196777344 237.787353515625 211.95358276367188 239.69097900390625 210.9085235595703 241.59454345703125 C 210.56016540527344 243.3250732421875 210.21180725097656 245.05560302734375 209.86346435546875 246.7861328125 C 210.03762817382812 248.51666259765625 210.21180725097656 250.2471923828125 210.38600158691406 251.97772216796875 C 211.43104553222656 255.2657470703125 212.4761199951172 258.5537109375 213.5211639404297 261.841796875 C 214.39205932617188 263.572265625 215.262939453125 265.3028564453125 216.13381958007812 267.0333251953125 C 217.87559509277344 269.2830810546875 219.61737060546875 271.53271484375 221.359130859375 273.782470703125 C 222.92672729492188 274.9937744140625 224.49432373046875 276.2052001953125 226.06190490722656 277.41650390625 C 228.84872436523438 278.6279296875 231.6355743408203 279.83929443359375 234.42239379882812 281.0506591796875 C 235.989990234375 285.376953125 237.5575714111328 289.703369140625 239.12518310546875 294.0296630859375 C 241.5636444091797 299.0482177734375 244.0021209716797 304.0667724609375 246.4405975341797 309.08526611328125 C 248.18235778808594 311.6810302734375 249.92413330078125 314.27685546875 251.66592407226562 316.8726806640625 C 253.23348999023438 318.6031494140625 254.80108642578125 320.333740234375 256.3686828613281 322.06427001953125 C 257.23956298828125 326.390625 258.1104431152344 330.7169189453125 258.9813537597656 335.04327392578125 C 258.9813537597656 336.42767333984375 258.9813537597656 337.8121337890625 258.9813537597656 339.196533203125 C 259.155517578125 339.36956787109375 259.3297119140625 339.5426025390625 259.5038757324219 339.7156982421875 C 259.5038757324219 344.38812255859375 259.5038757324219 349.060546875 259.5038757324219 353.7330322265625 C 259.3297119140625 353.906005859375 259.155517578125 354.0791015625 258.9813537597656 354.25213623046875 C 258.8071594238281 356.32879638671875 258.63299560546875 358.4053955078125 258.45880126953125 360.4820556640625 C 257.7621154785156 362.21258544921875 257.0653991699219 363.943115234375 256.3686828613281 365.67364501953125 C 256.717041015625 366.019775390625 257.0653991699219 366.3658447265625 257.4137268066406 366.71197509765625 C 262.29071044921875 368.78857421875 267.1676330566406 370.865234375 272.0445861816406 372.94189453125 C 281.7984924316406 377.61431884765625 291.55242919921875 382.2867431640625 301.3063049316406 386.959228515625 C 301.8288269042969 386.959228515625 302.35137939453125 386.959228515625 302.8739013671875 386.959228515625 C 316.2855224609375 379.864013671875 329.6971435546875 372.768798828125 343.1087341308594 365.67364501953125 C 343.1087341308594 365.154541015625 343.1087341308594 364.6353759765625 343.1087341308594 364.1162109375 C 342.58624267578125 362.90478515625 342.063720703125 361.6934814453125 341.5411682128906 360.4820556640625 C 341.36700439453125 358.4053955078125 341.19281005859375 356.32879638671875 341.0186462402344 354.25213623046875 C 340.844482421875 354.0791015625 340.6702880859375 353.906005859375 340.49609375 353.7330322265625 C 340.49609375 349.060546875 340.49609375 344.38812255859375 340.49609375 339.7156982421875 C 340.6702880859375 339.5426025390625 340.844482421875 339.36956787109375 341.0186462402344 339.196533203125 C 341.0186462402344 337.8121337890625 341.0186462402344 336.42767333984375 341.0186462402344 335.04327392578125 C 341.8895263671875 330.7169189453125 342.7604064941406 326.390625 343.63128662109375 322.06427001953125 C 345.1988830566406 320.333740234375 346.7664794921875 318.6031494140625 348.33404541015625 316.8726806640625 C 350.0758361816406 314.27685546875 351.8175964355469 311.6810302734375 353.5593566894531 309.08526611328125 C 355.6495056152344 304.9320068359375 357.7395935058594 300.7786865234375 359.8297424316406 296.62548828125 C 361.74566650390625 291.433837890625 363.6616516113281 286.24224853515625 365.57757568359375 281.0506591796875 C 368.3644104003906 279.83929443359375 371.1512145996094 278.6279296875 373.9380798339844 277.41650390625 C 375.85400390625 275.85906982421875 377.76995849609375 274.30157470703125 379.6859130859375 272.744140625 C 381.0793151855469 270.840576171875 382.4727478027344 268.93695068359375 383.86614990234375 267.0333251953125 C 384.5628662109375 265.64892578125 385.2595520019531 264.2645263671875 385.956298828125 262.880126953125 C 387.0013122558594 259.938232421875 388.04638671875 256.99627685546875 389.0914611816406 254.05438232421875 C 389.4397888183594 251.63165283203125 389.78814697265625 249.2088623046875 390.13653564453125 246.7861328125 C 389.78814697265625 245.05560302734375 389.4397888183594 243.3250732421875 389.0914611816406 241.59454345703125 C 388.3947448730469 240.21014404296875 387.69805908203125 238.82568359375 387.0013122558594 237.4412841796875 C 386.30462646484375 236.7490234375 385.60791015625 236.056884765625 384.9112243652344 235.3646240234375 C 383.6919860839844 237.2681884765625 382.4727478027344 239.17181396484375 381.2535095214844 241.07537841796875 C 380.9051513671875 240.729248046875 380.5567932128906 240.3831787109375 380.20843505859375 240.037109375 C 379.8600769042969 237.787353515625 379.5117492675781 235.5377197265625 379.16339111328125 233.2879638671875 C 378.98919677734375 232.94189453125 378.81500244140625 232.5958251953125 378.6408386230469 232.24969482421875 C 378.29248046875 232.24969482421875 377.94415283203125 232.24969482421875 377.59576416015625 232.24969482421875M 338.9284973144531 222.3856201171875 C 338.75433349609375 222.5587158203125 338.5801696777344 222.73175048828125 338.4059753417969 222.90478515625 C 335.27081298828125 223.077880859375 332.1356201171875 223.25091552734375 329.00042724609375 223.4239501953125 C 326.73614501953125 223.943115234375 324.4718322753906 224.4622802734375 322.2075500488281 224.9814453125 C 321.1624755859375 225.5006103515625 320.1174011230469 226.019775390625 319.0723571777344 226.5389404296875 C 318.20147705078125 227.4041748046875 317.3305969238281 228.26947021484375 316.4596862792969 229.134765625 C 316.111328125 230.17303466796875 315.76300048828125 231.21136474609375 315.4146423339844 232.24969482421875 C 315.4146423339844 234.4993896484375 315.4146423339844 236.7490234375 315.4146423339844 238.998779296875 C 315.9371643066406 241.2484130859375 316.4596862792969 243.49810791015625 316.98223876953125 245.747802734375 C 317.5047607421875 247.3052978515625 318.0273132324219 248.86279296875 318.5498352050781 250.4202880859375 C 319.2465515136719 251.63165283203125 319.9432373046875 252.843017578125 320.63995361328125 254.05438232421875 C 321.8591613769531 255.2657470703125 323.0783996582031 256.4771728515625 324.2976379394531 257.6884765625 C 326.56195068359375 258.89990234375 328.8262634277344 260.1112060546875 331.0905456542969 261.3226318359375 C 333.8774108886719 261.841796875 336.66424560546875 262.3609619140625 339.4510498046875 262.880126953125 C 340.844482421875 262.880126953125 342.2378845214844 262.880126953125 343.63128662109375 262.880126953125 C 346.4181213378906 262.3609619140625 349.2049560546875 261.841796875 351.9917907714844 261.3226318359375 C 354.60443115234375 259.938232421875 357.21710205078125 258.5537109375 359.8297424316406 257.1693115234375 C 360.87481689453125 255.9580078125 361.9198913574219 254.74658203125 362.96490478515625 253.53521728515625 C 363.8358154296875 251.97772216796875 364.7066955566406 250.4202880859375 365.57757568359375 248.86279296875 C 366.4484558105469 245.57476806640625 367.3193664550781 242.2867431640625 368.1902160644531 238.998779296875 C 368.01605224609375 235.71075439453125 367.8418884277344 232.4227294921875 367.6676940917969 229.134765625 C 366.6226501464844 227.92333984375 365.57757568359375 226.71197509765625 364.53253173828125 225.5006103515625 C 363.13909912109375 224.9814453125 361.74566650390625 224.4622802734375 360.3522644042969 223.943115234375 C 358.6105041503906 223.77008056640625 356.8687438964844 223.5970458984375 355.126953125 223.4239501953125 C 354.9527893066406 223.25091552734375 354.7785949707031 223.077880859375 354.60443115234375 222.90478515625 C 352.6885070800781 222.90478515625 350.7725524902344 222.90478515625 348.8565979003906 222.90478515625 C 348.68243408203125 222.73175048828125 348.50823974609375 222.5587158203125 348.33404541015625 222.3856201171875 C 345.1988830566406 222.3856201171875 342.063720703125 222.3856201171875 338.9284973144531 222.3856201171875M 253.23348999023438 222.3856201171875 C 253.059326171875 222.5587158203125 252.88516235351562 222.73175048828125 252.71096801757812 222.90478515625 C 251.14337158203125 222.90478515625 249.5758056640625 222.90478515625 248.00819396972656 222.90478515625 C 245.39553833007812 223.4239501953125 242.7828826904297 223.943115234375 240.17022705078125 224.4622802734375 C 239.12518310546875 224.9814453125 238.08010864257812 225.5006103515625 237.03504943847656 226.019775390625 C 236.33834838867188 226.885009765625 235.6416473388672 227.75030517578125 234.94493103027344 228.6156005859375 C 234.59657287597656 230.17303466796875 234.24822998046875 231.73052978515625 233.89987182617188 233.2879638671875 C 234.07403564453125 235.71075439453125 234.24822998046875 238.13348388671875 234.42239379882812 240.55621337890625 C 234.94493103027344 242.63287353515625 235.4674530029297 244.70947265625 235.989990234375 246.7861328125 C 236.6866912841797 248.3436279296875 237.38340759277344 249.901123046875 238.08010864257812 251.45855712890625 C 239.82188415527344 253.53521728515625 241.5636444091797 255.61181640625 243.305419921875 257.6884765625 C 244.35047912597656 258.3807373046875 245.39553833007812 259.0728759765625 246.4405975341797 259.76513671875 C 248.35655212402344 260.4573974609375 250.27249145507812 261.1495361328125 252.18844604492188 261.841796875 C 255.84616088867188 262.1878662109375 259.5038757324219 262.533935546875 263.16156005859375 262.880126953125 C 263.3357849121094 262.70703125 263.50994873046875 262.533935546875 263.6841125488281 262.3609619140625 C 265.60003662109375 262.1878662109375 267.5160217285156 262.01483154296875 269.43194580078125 261.841796875 C 271.5220642089844 260.97650146484375 273.6121826171875 260.1112060546875 275.70233154296875 259.2459716796875 C 277.2698974609375 258.03460693359375 278.8374938964844 256.8232421875 280.40509033203125 255.61181640625 C 281.2759704589844 254.4005126953125 282.1468811035156 253.1890869140625 283.0177307128906 251.97772216796875 C 283.7144470214844 250.2471923828125 284.4111328125 248.51666259765625 285.1078796386719 246.7861328125 C 285.8045654296875 243.84423828125 286.50128173828125 240.90234375 287.197998046875 237.96044921875 C 287.197998046875 236.4029541015625 287.197998046875 234.845458984375 287.197998046875 233.2879638671875 C 286.6754455566406 231.73052978515625 286.1529235839844 230.17303466796875 285.6304016113281 228.6156005859375 C 284.2369689941406 227.5772705078125 282.84356689453125 226.5389404296875 281.45013427734375 225.5006103515625 C 278.8374938964844 224.80841064453125 276.2248229980469 224.1162109375 273.6121826171875 223.4239501953125 C 270.4770202636719 223.25091552734375 267.3418273925781 223.077880859375 264.2066345214844 222.90478515625 C 264.032470703125 222.73175048828125 263.8582763671875 222.5587158203125 263.6841125488281 222.3856201171875 C 260.2005615234375 222.3856201171875 256.717041015625 222.3856201171875 253.23348999023438 222.3856201171875M 348.33404541015625 155.9332275390625 C 345.5472412109375 156.62548828125 342.7604064941406 157.31768798828125 339.97357177734375 158.0098876953125 C 339.1026916503906 158.0098876953125 338.2318115234375 158.0098876953125 337.3609313964844 158.0098876953125 C 333.1806945800781 158.8751220703125 329.00042724609375 159.74041748046875 324.8201904296875 160.605712890625 C 322.5558776855469 160.77874755859375 320.2915954589844 160.9517822265625 318.0273132324219 161.12481689453125 C 316.8080749511719 161.470947265625 315.5888366699219 161.81707763671875 314.3695983886719 162.16314697265625 C 308.62176513671875 162.68231201171875 302.8739013671875 163.20147705078125 297.1260681152344 163.72064208984375 C 296.951904296875 163.8936767578125 296.7777404785156 164.0667724609375 296.6035461425781 164.23980712890625 C 295.03594970703125 164.23980712890625 293.4683532714844 164.23980712890625 291.9007568359375 164.23980712890625 C 291.7265930175781 164.412841796875 291.55242919921875 164.5859375 291.37823486328125 164.75897216796875 C 289.1139221191406 164.75897216796875 286.8496398925781 164.75897216796875 284.5853576660156 164.75897216796875 C 284.4111328125 164.9320068359375 284.2369689941406 165.10504150390625 284.06280517578125 165.27813720703125 C 276.3990173339844 165.451171875 268.7352600097656 165.62420654296875 261.07147216796875 165.79730224609375 C 260.89727783203125 165.62420654296875 260.7231140136719 165.451171875 260.5489501953125 165.27813720703125 C 256.1944885253906 165.10504150390625 251.840087890625 164.9320068359375 247.48565673828125 164.75897216796875 C 245.39553833007812 164.23980712890625 243.305419921875 163.72064208984375 241.21530151367188 163.20147705078125 C 240.86692810058594 164.5859375 240.51858520507812 165.9703369140625 240.17022705078125 167.354736328125 C 240.17022705078125 168.9122314453125 240.17022705078125 170.4697265625 240.17022705078125 172.0272216796875 C 239.82188415527344 173.238525390625 239.47352600097656 174.449951171875 239.12518310546875 175.66131591796875 C 239.12518310546875 176.526611328125 239.12518310546875 177.391845703125 239.12518310546875 178.257080078125 C 238.428466796875 181.3720703125 237.7317657470703 184.48699951171875 237.03504943847656 187.60198974609375 C 233.55152893066406 197.6390380859375 230.06797790527344 207.6761474609375 226.58444213867188 217.7132568359375 C 226.75860595703125 217.7132568359375 226.93280029296875 217.7132568359375 227.1069793701172 217.7132568359375 C 227.28114318847656 217.02099609375 227.455322265625 216.32879638671875 227.62950134277344 215.6365966796875 C 228.50038146972656 214.94439697265625 229.3712615966797 214.25213623046875 230.24215698242188 213.5599365234375 C 231.98391723632812 213.38690185546875 233.72569274902344 213.2138671875 235.4674530029297 213.040771484375 C 235.6416473388672 212.86773681640625 235.81581115722656 212.6947021484375 235.989990234375 212.5216064453125 C 237.9059295654297 212.5216064453125 239.82188415527344 212.5216064453125 241.73782348632812 212.5216064453125 C 241.91200256347656 212.34857177734375 242.086181640625 212.175537109375 242.26036071777344 212.00244140625 C 248.53073120117188 212.00244140625 254.80108642578125 212.00244140625 261.07147216796875 212.00244140625 C 261.2456359863281 212.175537109375 261.4197998046875 212.34857177734375 261.593994140625 212.5216064453125 C 266.2967834472656 212.6947021484375 270.9995422363281 212.86773681640625 275.70233154296875 213.040771484375 C 275.8764953613281 213.2138671875 276.0506591796875 213.38690185546875 276.2248229980469 213.5599365234375 C 278.8374938964844 213.7330322265625 281.45013427734375 213.90606689453125 284.06280517578125 214.0791015625 C 288.5914306640625 214.94439697265625 293.1199951171875 215.80963134765625 297.6485900878906 216.6749267578125 C 299.91290283203125 216.6749267578125 302.1772155761719 216.6749267578125 304.4414978027344 216.6749267578125 C 309.144287109375 215.80963134765625 313.8470764160156 214.94439697265625 318.5498352050781 214.0791015625 C 319.5948791503906 214.0791015625 320.63995361328125 214.0791015625 321.68499755859375 214.0791015625 C 321.8591613769531 213.90606689453125 322.03338623046875 213.7330322265625 322.2075500488281 213.5599365234375 C 325.51690673828125 213.38690185546875 328.8262634277344 213.2138671875 332.1356201171875 213.040771484375 C 332.3097839355469 212.86773681640625 332.48394775390625 212.6947021484375 332.6581726074219 212.5216064453125 C 335.27081298828125 212.5216064453125 337.88348388671875 212.5216064453125 340.49609375 212.5216064453125 C 340.6702880859375 212.34857177734375 340.844482421875 212.175537109375 341.0186462402344 212.00244140625 C 347.46319580078125 212.00244140625 353.9077453613281 212.00244140625 360.3522644042969 212.00244140625 C 360.5264587402344 212.175537109375 360.70062255859375 212.34857177734375 360.87481689453125 212.5216064453125 C 364.0099792480469 212.6947021484375 367.1451416015625 212.86773681640625 370.2803649902344 213.040771484375 C 371.325439453125 213.38690185546875 372.3704528808594 213.7330322265625 373.41552734375 214.0791015625 C 373.41552734375 213.5599365234375 373.41552734375 213.040771484375 373.41552734375 212.5216064453125 C 372.544677734375 210.098876953125 371.67376708984375 207.6761474609375 370.8028869628906 205.25341796875 C 368.8869323730469 201.273193359375 366.9709777832031 197.29296875 365.0550537109375 193.312744140625 C 363.13909912109375 190.7169189453125 361.22314453125 188.12109375 359.3072204589844 185.52532958984375 C 357.7395935058594 182.58343505859375 356.1720275878906 179.64154052734375 354.60443115234375 176.6995849609375 C 353.38519287109375 173.238525390625 352.16595458984375 169.7774658203125 350.94671630859375 166.31640625 C 350.4241943359375 162.8553466796875 349.90167236328125 159.394287109375 349.3791198730469 155.9332275390625 C 349.0307922363281 155.9332275390625 348.68243408203125 155.9332275390625 348.33404541015625 155.9332275390625"/>
  </g>
</svg>
