<?xml version="1.0" ?>
<svg xmlns="http://www.w3.org/2000/svg" version="1.1" width="600" height="600">
  <defs/>
  <g>
    <path stroke-width="0" fill="rgb(0, 0, 0)" opacity="1.0" d="M 287.72052001953125 135.1668701171875 C 287.8946838378906 134.9937744140625 288.0688781738281 134.82080078125 288.2430419921875 134.647705078125 C 296.951904296875 134.647705078125 305.6607360839844 134.647705078125 314.3695983886719 134.647705078125 C 314.54376220703125 134.82080078125 314.7179260253906 134.9937744140625 314.89208984375 135.1668701171875 C 319.2465515136719 135.33990478515625 323.6009521484375 135.512939453125 327.95538330078125 135.68603515625 C 328.1295471191406 135.85906982421875 328.3037109375 136.0321044921875 328.4779052734375 136.2052001953125 C 329.6971435546875 136.2052001953125 330.9163818359375 136.2052001953125 332.1356201171875 136.2052001953125 C 332.3097839355469 136.37823486328125 332.48394775390625 136.55126953125 332.6581726074219 136.724365234375 C 333.8774108886719 136.724365234375 335.09661865234375 136.724365234375 336.31585693359375 136.724365234375 C 336.4900207519531 136.89739990234375 336.66424560546875 137.0704345703125 336.8384094238281 137.2435302734375 C 339.7994079589844 137.589599609375 342.7604064941406 137.93572998046875 345.7214050292969 138.28179931640625 C 352.51434326171875 139.83929443359375 359.3072204589844 141.39678955078125 366.1001281738281 142.9542236328125 C 370.97705078125 144.51171875 375.85400390625 146.0692138671875 380.7309875488281 147.626708984375 C 385.4337463378906 149.5302734375 390.13653564453125 151.433837890625 394.83929443359375 153.33746337890625 C 400.23876953125 156.1063232421875 405.63824462890625 158.8751220703125 411.0377197265625 161.64398193359375 C 416.0888671875 164.9320068359375 421.1400146484375 168.22003173828125 426.1911315917969 171.508056640625 C 428.8038024902344 173.58465576171875 431.41644287109375 175.66131591796875 434.0290832519531 177.7379150390625 C 438.3835144042969 182.06427001953125 442.7379150390625 186.390625 447.09234619140625 190.7169189453125 C 450.4017028808594 195.21630859375 453.7110595703125 199.7156982421875 457.02044677734375 204.215087890625 C 458.9363708496094 207.84918212890625 460.8523254394531 211.4832763671875 462.76824951171875 215.117431640625 C 464.16168212890625 219.09765625 465.5550842285156 223.077880859375 466.9485168457031 227.05810546875 C 467.6452331542969 230.69219970703125 468.3419189453125 234.3262939453125 469.03863525390625 237.96044921875 C 469.03863525390625 249.03582763671875 469.03863525390625 260.1112060546875 469.03863525390625 271.1866455078125 C 469.2127990722656 271.87884521484375 469.3869934082031 272.571044921875 469.5611572265625 273.2633056640625 C 471.8254699707031 273.2633056640625 474.08978271484375 273.2633056640625 476.35406494140625 273.2633056640625 C 478.61834716796875 274.1285400390625 480.8826599121094 274.9937744140625 483.14697265625 275.85906982421875 C 485.0628967285156 277.589599609375 486.9788513183594 279.32012939453125 488.8948059082031 281.0506591796875 C 490.1140441894531 283.646484375 491.3332824707031 286.24224853515625 492.5525207519531 288.83807373046875 C 492.7267150878906 294.548828125 492.90087890625 300.25958251953125 493.0750427246094 305.9703369140625 C 492.90087890625 306.14337158203125 492.7267150878906 306.31640625 492.5525207519531 306.489501953125 C 492.5525207519531 308.0469970703125 492.5525207519531 309.6044921875 492.5525207519531 311.16192626953125 C 492.20416259765625 312.2001953125 491.8558044433594 313.238525390625 491.5074462890625 314.27685546875 C 490.6365661621094 315.8343505859375 489.7656555175781 317.391845703125 488.8948059082031 318.9493408203125 C 486.9788513183594 320.6798095703125 485.0628967285156 322.410400390625 483.14697265625 324.140869140625 C 480.8826599121094 325.00616455078125 478.61834716796875 325.8714599609375 476.35406494140625 326.7366943359375 C 474.08978271484375 326.7366943359375 471.8254699707031 326.7366943359375 469.5611572265625 326.7366943359375 C 469.3869934082031 327.42889404296875 469.2127990722656 328.12109375 469.03863525390625 328.8133544921875 C 469.03863525390625 339.88873291015625 469.03863525390625 350.964111328125 469.03863525390625 362.03955078125 C 468.3419189453125 365.67364501953125 467.6452331542969 369.3077392578125 466.9485168457031 372.94189453125 C 465.5550842285156 376.922119140625 464.16168212890625 380.90234375 462.76824951171875 384.882568359375 C 461.54901123046875 387.3052978515625 460.32977294921875 389.72802734375 459.11053466796875 392.1507568359375 C 457.3687744140625 394.919677734375 455.62701416015625 397.6884765625 453.88525390625 400.45733642578125 C 451.2726135253906 403.745361328125 448.6599426269531 407.0333251953125 446.04730224609375 410.3214111328125 C 442.38958740234375 413.9554443359375 438.7318420410156 417.589599609375 435.0741271972656 421.2237548828125 C 431.5906066894531 423.9925537109375 428.1070556640625 426.761474609375 424.62353515625 429.5302734375 C 419.74658203125 432.645263671875 414.86962890625 435.7601318359375 409.9927062988281 438.8751220703125 C 405.98663330078125 440.9517822265625 401.9805603027344 443.0284423828125 397.9744873046875 445.1051025390625 C 393.9684143066406 446.8355712890625 389.96234130859375 448.566162109375 385.956298828125 450.296630859375 C 380.3825988769531 452.2001953125 374.8089599609375 454.103759765625 369.23529052734375 456.0074462890625 C 363.8358154296875 457.391845703125 358.43634033203125 458.7762451171875 353.0368347167969 460.16064453125 C 348.33404541015625 461.02587890625 343.63128662109375 461.8912353515625 338.9284973144531 462.7564697265625 C 334.9224548339844 463.1025390625 330.9163818359375 463.44873046875 326.9103088378906 463.7947998046875 C 326.73614501953125 463.9678955078125 326.56195068359375 464.140869140625 326.3877868652344 464.31396484375 C 324.6460266113281 464.31396484375 322.90423583984375 464.31396484375 321.1624755859375 464.31396484375 C 320.9883117675781 464.487060546875 320.81414794921875 464.6600341796875 320.63995361328125 464.8331298828125 C 317.85308837890625 464.8331298828125 315.0662841796875 464.8331298828125 312.2794494628906 464.8331298828125 C 312.10528564453125 465.006103515625 311.93109130859375 465.17919921875 311.7569274902344 465.352294921875 C 304.78985595703125 465.352294921875 297.82275390625 465.352294921875 290.8556823730469 465.352294921875 C 290.6815185546875 465.17919921875 290.5073547363281 465.006103515625 290.33319091796875 464.8331298828125 C 285.6304016113281 464.6600341796875 280.9276428222656 464.487060546875 276.2248229980469 464.31396484375 C 276.0506591796875 464.140869140625 275.8764953613281 463.9678955078125 275.70233154296875 463.7947998046875 C 270.65118408203125 463.275634765625 265.60003662109375 462.7564697265625 260.5489501953125 462.2373046875 C 252.71096801757812 460.5068359375 244.8730010986328 458.7762451171875 237.03504943847656 457.0457763671875 C 231.6355743408203 455.315185546875 226.236083984375 453.584716796875 220.8365936279297 451.8541259765625 C 215.43711853027344 449.6044921875 210.03762817382812 447.354736328125 204.63815307617188 445.1051025390625 C 198.8903045654297 441.9901123046875 193.14248657226562 438.8751220703125 187.39463806152344 435.7601318359375 C 184.25946044921875 433.68359375 181.12428283691406 431.60693359375 177.9890899658203 429.5302734375 C 174.50555419921875 426.761474609375 171.0220184326172 423.9925537109375 167.53846740722656 421.2237548828125 C 163.88076782226562 417.589599609375 160.22303771972656 413.9554443359375 156.56533813476562 410.3214111328125 C 153.2559814453125 405.9949951171875 149.9466094970703 401.668701171875 146.6372528076172 397.3424072265625 C 144.89547729492188 394.2274169921875 143.15371704101562 391.11248779296875 141.4119415283203 387.99755859375 C 140.1927032470703 385.2286376953125 138.97348022460938 382.4598388671875 137.75424194335938 379.69091796875 C 136.53500366210938 375.0185546875 135.31576538085938 370.3460693359375 134.0965118408203 365.67364501953125 C 133.92234802246094 361.6934814453125 133.7481689453125 357.7132568359375 133.57398986816406 353.7330322265625 C 133.39981079101562 353.5599365234375 133.2256317138672 353.3868408203125 133.0514678955078 353.2138671875 C 133.0514678955078 345.080322265625 133.0514678955078 336.94683837890625 133.0514678955078 328.8133544921875 C 133.2256317138672 328.6402587890625 133.39981079101562 328.46722412109375 133.57398986816406 328.294189453125 C 133.39981079101562 327.7750244140625 133.2256317138672 327.255859375 133.0514678955078 326.7366943359375 C 129.91627502441406 326.7366943359375 126.78108215332031 326.7366943359375 123.64590454101562 326.7366943359375 C 121.38160705566406 325.8714599609375 119.11731719970703 325.00616455078125 116.85301208496094 324.140869140625 C 114.93706512451172 322.410400390625 113.0211181640625 320.6798095703125 111.10517120361328 318.9493408203125 C 109.88594055175781 316.353515625 108.66670227050781 313.7576904296875 107.44745635986328 311.16192626953125 C 107.44745635986328 309.6044921875 107.44745635986328 308.0469970703125 107.44745635986328 306.489501953125 C 107.27328491210938 306.31640625 107.09910583496094 306.14337158203125 106.92493438720703 305.9703369140625 C 107.09910583496094 305.451171875 107.27328491210938 304.9320068359375 107.44745635986328 304.412841796875 C 107.27328491210938 304.23974609375 107.09910583496094 304.0667724609375 106.92493438720703 303.8936767578125 C 107.09910583496094 298.8751220703125 107.27328491210938 293.85662841796875 107.44745635986328 288.83807373046875 C 108.66670227050781 286.24224853515625 109.88594055175781 283.646484375 111.10517120361328 281.0506591796875 C 112.32440948486328 279.83929443359375 113.54365539550781 278.6279296875 114.76288604736328 277.41650390625 C 116.5046615600586 276.37823486328125 118.24642944335938 275.33990478515625 119.98819732666016 274.30157470703125 C 121.20744323730469 273.95550537109375 122.42666625976562 273.609375 123.64590454101562 273.2633056640625 C 126.78108215332031 273.2633056640625 129.91627502441406 273.2633056640625 133.0514678955078 273.2633056640625 C 133.2256317138672 272.744140625 133.39981079101562 272.2249755859375 133.57398986816406 271.705810546875 C 133.39981079101562 271.53271484375 133.2256317138672 271.35968017578125 133.0514678955078 271.1866455078125 C 133.2256317138672 260.1112060546875 133.39981079101562 249.03582763671875 133.57398986816406 237.96044921875 C 134.27069091796875 234.3262939453125 134.9674072265625 230.69219970703125 135.66412353515625 227.05810546875 C 137.0575408935547 223.077880859375 138.45094299316406 219.09765625 139.8443603515625 215.117431640625 C 141.76031494140625 211.4832763671875 143.67625427246094 207.84918212890625 145.59219360351562 204.215087890625 C 147.5081329345703 201.44622802734375 149.42408752441406 198.6773681640625 151.34002685546875 195.90850830078125 C 152.90762329101562 194.00494384765625 154.4752197265625 192.101318359375 156.0428009033203 190.19775390625 C 160.0488739013672 186.217529296875 164.05494689941406 182.2373046875 168.06100463867188 178.257080078125 C 172.58961486816406 174.7960205078125 177.1182098388672 171.3349609375 181.64682006835938 167.8739013671875 C 186.17539978027344 165.10504150390625 190.70399475097656 162.336181640625 195.23260498046875 159.5673828125 C 199.412841796875 157.49072265625 203.5930938720703 155.4140625 207.77334594726562 153.33746337890625 C 212.99864196777344 151.26080322265625 218.22393798828125 149.1842041015625 223.44924926757812 147.1075439453125 C 228.50038146972656 145.550048828125 233.55149841308594 143.9925537109375 238.60264587402344 142.43511962890625 C 244.69882202148438 141.0506591796875 250.79501342773438 139.666259765625 256.8912353515625 138.28179931640625 C 259.85223388671875 137.93572998046875 262.813232421875 137.589599609375 265.77423095703125 137.2435302734375 C 265.94842529296875 137.0704345703125 266.1225891113281 136.89739990234375 266.2967834472656 136.724365234375 C 267.5160217285156 136.724365234375 268.7352600097656 136.724365234375 269.9544982910156 136.724365234375 C 270.128662109375 136.55126953125 270.3028259277344 136.37823486328125 270.4770202636719 136.2052001953125 C 271.6962585449219 136.2052001953125 272.9154968261719 136.2052001953125 274.1347351074219 136.2052001953125 C 274.30889892578125 136.0321044921875 274.48309326171875 135.85906982421875 274.6572570800781 135.68603515625 C 279.01165771484375 135.512939453125 283.3661193847656 135.33990478515625 287.72052001953125 135.1668701171875M 382.8210754394531 363.077880859375 C 382.1243896484375 363.25091552734375 381.42767333984375 363.4239501953125 380.7309875488281 363.5970458984375 C 380.3825988769531 364.1162109375 380.03424072265625 364.6353759765625 379.6859130859375 365.154541015625 C 372.3704528808594 377.4412841796875 365.0550537109375 389.72802734375 357.7395935058594 402.01483154296875 C 356.5203857421875 403.2261962890625 355.3011474609375 404.43756103515625 354.0819091796875 405.64892578125 C 353.38519287109375 405.9949951171875 352.6885070800781 406.3411865234375 351.9917907714844 406.687255859375 C 349.55328369140625 406.51416015625 347.11480712890625 406.3411865234375 344.6763610839844 406.1680908203125 C 343.282958984375 404.95672607421875 341.8895263671875 403.745361328125 340.49609375 402.533935546875 C 332.6581726074219 389.55499267578125 324.8201904296875 376.57598876953125 316.98223876953125 363.5970458984375 C 262.813232421875 363.5970458984375 208.64422607421875 363.5970458984375 154.4752197265625 363.5970458984375 C 154.4752197265625 364.28924560546875 154.4752197265625 364.9814453125 154.4752197265625 365.67364501953125 C 155.34609985351562 368.61553955078125 156.21697998046875 371.55743408203125 157.08787536621094 374.4993896484375 C 158.65545654296875 377.787353515625 160.22303771972656 381.07537841796875 161.7906494140625 384.3634033203125 C 165.10000610351562 388.86279296875 168.40936279296875 393.3621826171875 171.71873474121094 397.861572265625 C 174.6797332763672 400.803466796875 177.6407470703125 403.745361328125 180.60174560546875 406.687255859375 C 183.2144012451172 408.763916015625 185.82705688476562 410.840576171875 188.43971252441406 412.9171142578125 C 192.44577026367188 415.512939453125 196.45184326171875 418.1087646484375 200.45791625976562 420.70458984375 C 204.46397399902344 422.78125 208.4700469970703 424.8577880859375 212.4761199951172 426.9344482421875 C 217.0047149658203 428.8380126953125 221.53330993652344 430.74169921875 226.06190490722656 432.645263671875 C 229.71961975097656 433.8565673828125 233.37733459472656 435.0679931640625 237.03504943847656 436.279296875 C 245.0471954345703 438.182861328125 253.059326171875 440.0865478515625 261.07147216796875 441.9901123046875 C 265.77423095703125 442.50927734375 270.4770202636719 443.0284423828125 275.1797790527344 443.547607421875 C 275.3539733886719 443.7205810546875 275.52813720703125 443.8936767578125 275.70233154296875 444.0667724609375 C 277.2698974609375 444.0667724609375 278.8374938964844 444.0667724609375 280.40509033203125 444.0667724609375 C 280.57928466796875 444.23974609375 280.7534484863281 444.412841796875 280.9276428222656 444.5859375 C 283.19189453125 444.5859375 285.4562072753906 444.5859375 287.72052001953125 444.5859375 C 287.8946838378906 444.7589111328125 288.0688781738281 444.9320068359375 288.2430419921875 445.1051025390625 C 296.951904296875 445.1051025390625 305.6607360839844 445.1051025390625 314.3695983886719 445.1051025390625 C 314.54376220703125 444.9320068359375 314.7179260253906 444.7589111328125 314.89208984375 444.5859375 C 317.1564025878906 444.5859375 319.42071533203125 444.5859375 321.68499755859375 444.5859375 C 321.8591613769531 444.412841796875 322.03338623046875 444.23974609375 322.2075500488281 444.0667724609375 C 325.1685485839844 443.8936767578125 328.1295471191406 443.7205810546875 331.0905456542969 443.547607421875 C 331.2647399902344 443.37451171875 331.4389343261719 443.201416015625 331.61309814453125 443.0284423828125 C 333.8774108886719 442.8553466796875 336.1416931152344 442.682373046875 338.4059753417969 442.50927734375 C 339.4510498046875 442.1630859375 340.49609375 441.8170166015625 341.5411682128906 441.470947265625 C 344.15380859375 441.1248779296875 346.7664794921875 440.7786865234375 349.3791198730469 440.4326171875 C 355.3011474609375 438.8751220703125 361.22314453125 437.317626953125 367.1451416015625 435.7601318359375 C 373.2413635253906 433.510498046875 379.3375549316406 431.2607421875 385.4337463378906 429.0111083984375 C 388.74310302734375 427.45361328125 392.0524597167969 425.8961181640625 395.3618469238281 424.338623046875 C 400.5871276855469 421.2237548828125 405.8124084472656 418.1087646484375 411.0377197265625 414.9937744140625 C 415.7405090332031 411.1866455078125 420.4432678222656 407.37945556640625 425.14605712890625 403.572265625 C 427.58453369140625 400.97650146484375 430.0230407714844 398.3807373046875 432.46148681640625 395.784912109375 C 434.7257995605469 392.669921875 436.9901123046875 389.55499267578125 439.25439453125 386.4400634765625 C 440.8219909667969 383.49810791015625 442.38958740234375 380.55621337890625 443.9571533203125 377.61431884765625 C 445.0022277832031 374.67242431640625 446.04730224609375 371.73046875 447.09234619140625 368.78857421875 C 447.4407043457031 367.05810546875 447.7890625 365.3275146484375 448.1374206542969 363.5970458984375 C 426.53948974609375 363.5970458984375 404.9415588378906 363.5970458984375 383.3436279296875 363.5970458984375 C 383.1694641113281 363.4239501953125 382.9952392578125 363.25091552734375 382.8210754394531 363.077880859375M 153.43014526367188 326.7366943359375 C 153.43014526367188 332.2744140625 153.43014526367188 337.8121337890625 153.43014526367188 343.34979248046875 C 210.56016540527344 343.34979248046875 267.690185546875 343.34979248046875 324.8201904296875 343.34979248046875 C 325.6910705566406 343.6959228515625 326.56195068359375 344.0419921875 327.432861328125 344.38812255859375 C 328.4779052734375 345.25341796875 329.52294921875 346.11865234375 330.5680236816406 346.98394775390625 C 336.66424560546875 357.02099609375 342.7604064941406 367.05810546875 348.8565979003906 377.09515380859375 C 349.2049560546875 376.922119140625 349.55328369140625 376.7490234375 349.90167236328125 376.57598876953125 C 355.82366943359375 366.71197509765625 361.74566650390625 356.847900390625 367.6676940917969 346.98394775390625 C 369.0611267089844 345.94561767578125 370.45452880859375 344.90728759765625 371.8479309082031 343.86895751953125 C 372.3704528808594 343.6959228515625 372.89300537109375 343.5228271484375 373.41552734375 343.34979248046875 C 398.6711730957031 343.34979248046875 423.92681884765625 343.34979248046875 449.1824645996094 343.34979248046875 C 449.1824645996094 337.8121337890625 449.1824645996094 332.2744140625 449.1824645996094 326.7366943359375 C 350.5983581542969 326.7366943359375 252.01425170898438 326.7366943359375 153.43014526367188 326.7366943359375M 127.82615661621094 292.9913330078125 C 127.6519775390625 293.16436767578125 127.47779846191406 293.33740234375 127.30361938476562 293.510498046875 C 127.30361938476562 297.8367919921875 127.30361938476562 302.16314697265625 127.30361938476562 306.489501953125 C 242.26036071777344 306.489501953125 357.21710205078125 306.489501953125 472.1737976074219 306.489501953125 C 472.1737976074219 304.412841796875 472.1737976074219 302.336181640625 472.1737976074219 300.25958251953125 C 472.3479919433594 300.0865478515625 472.5221862792969 299.9134521484375 472.69635009765625 299.74041748046875 C 472.69635009765625 297.663818359375 472.69635009765625 295.587158203125 472.69635009765625 293.510498046875 C 472.5221862792969 293.33740234375 472.3479919433594 293.16436767578125 472.1737976074219 292.9913330078125 C 357.3912658691406 292.9913330078125 242.60870361328125 292.9913330078125 127.82615661621094 292.9913330078125M 153.43014526367188 256.650146484375 C 153.43014526367188 262.01483154296875 153.43014526367188 267.37945556640625 153.43014526367188 272.744140625 C 153.60433959960938 272.91717529296875 153.7785186767578 273.0902099609375 153.9526824951172 273.2633056640625 C 252.18844604492188 273.2633056640625 350.4241943359375 273.2633056640625 448.6599426269531 273.2633056640625 C 448.8341369628906 273.0902099609375 449.00830078125 272.91717529296875 449.1824645996094 272.744140625 C 449.1824645996094 267.37945556640625 449.1824645996094 262.01483154296875 449.1824645996094 256.650146484375 C 350.5983581542969 256.650146484375 252.01425170898438 256.650146484375 153.43014526367188 256.650146484375M 286.1529235839844 154.8948974609375 C 285.978759765625 155.0679931640625 285.8045654296875 155.24102783203125 285.6304016113281 155.4140625 C 281.7984924316406 155.587158203125 277.96661376953125 155.76019287109375 274.1347351074219 155.9332275390625 C 273.9605712890625 156.1063232421875 273.7863464355469 156.27935791015625 273.6121826171875 156.452392578125 C 269.2577819824219 156.9715576171875 264.9033508300781 157.49072265625 260.5489501953125 158.0098876953125 C 252.53680419921875 159.9134521484375 244.524658203125 161.81707763671875 236.5125274658203 163.72064208984375 C 229.893798828125 166.14337158203125 223.2750701904297 168.566162109375 216.65635681152344 170.9888916015625 C 210.03762817382812 174.449951171875 203.41891479492188 177.9110107421875 196.80018615722656 181.3720703125 C 191.4007110595703 185.352294921875 186.001220703125 189.33251953125 180.60174560546875 193.312744140625 C 177.466552734375 196.42767333984375 174.33139038085938 199.5426025390625 171.19619750976562 202.6575927734375 C 169.28024291992188 205.080322265625 167.3643035888672 207.5030517578125 165.44834899902344 209.92584228515625 C 164.22911071777344 211.82940673828125 163.0098876953125 213.7330322265625 161.7906494140625 215.6365966796875 C 160.22303771972656 218.924560546875 158.65545654296875 222.21258544921875 157.08787536621094 225.5006103515625 C 156.21697998046875 228.4425048828125 155.34609985351562 231.3843994140625 154.4752197265625 234.3262939453125 C 154.64939880371094 235.19158935546875 154.8235626220703 236.056884765625 154.9977569580078 236.922119140625 C 252.53680419921875 236.922119140625 350.0758361816406 236.922119140625 447.6148986816406 236.922119140625 C 447.7890625 236.7490234375 447.9632263183594 236.5760498046875 448.1374206542969 236.4029541015625 C 447.7890625 234.3262939453125 447.4407043457031 232.24969482421875 447.09234619140625 230.17303466796875 C 446.04730224609375 227.4041748046875 445.0022277832031 224.6353759765625 443.9571533203125 221.866455078125 C 442.38958740234375 218.924560546875 440.8219909667969 215.982666015625 439.25439453125 213.040771484375 C 436.81591796875 209.7528076171875 434.37744140625 206.46478271484375 431.93896484375 203.1767578125 C 428.4554138183594 199.7156982421875 424.9718933105469 196.254638671875 421.48834228515625 192.7935791015625 C 419.5724182128906 191.236083984375 417.6564636230469 189.6785888671875 415.7405090332031 188.12109375 C 411.90863037109375 185.52532958984375 408.07672119140625 182.9295654296875 404.2448425292969 180.333740234375 C 401.1096496582031 178.60321044921875 397.9744873046875 176.8726806640625 394.83929443359375 175.14215087890625 C 388.3947448730469 172.373291015625 381.9502258300781 169.60443115234375 375.50567626953125 166.8355712890625 C 369.9320068359375 165.10504150390625 364.35833740234375 163.37451171875 358.78466796875 161.64398193359375 C 354.256103515625 160.605712890625 349.72747802734375 159.5673828125 345.1988830566406 158.529052734375 C 341.0186462402344 158.0098876953125 336.8384094238281 157.49072265625 332.6581726074219 156.9715576171875 C 332.48394775390625 156.79852294921875 332.3097839355469 156.62548828125 332.1356201171875 156.452392578125 C 330.9163818359375 156.452392578125 329.6971435546875 156.452392578125 328.4779052734375 156.452392578125 C 328.3037109375 156.27935791015625 328.1295471191406 156.1063232421875 327.95538330078125 155.9332275390625 C 324.2976379394531 155.76019287109375 320.63995361328125 155.587158203125 316.98223876953125 155.4140625 C 316.8080749511719 155.24102783203125 316.6338806152344 155.0679931640625 316.4596862792969 154.8948974609375 C 306.3574523925781 154.8948974609375 296.25518798828125 154.8948974609375 286.1529235839844 154.8948974609375"/>
  </g>
</svg>
