<?xml version="1.0" ?>
<svg xmlns="http://www.w3.org/2000/svg" version="1.1" width="600" height="600">
  <defs/>
  <g>
    <path stroke-width="0" fill="rgb(0, 0, 0)" opacity="1.0" d="M 187.91717529296875 260.2843017578125 C 188.0913543701172 260.11126708984375 188.26553344726562 259.938232421875 188.43971252441406 259.76513671875 C 189.48475646972656 259.76513671875 190.5298309326172 259.76513671875 191.5748748779297 259.76513671875 C 192.2716064453125 260.11126708984375 192.9683074951172 260.4573974609375 193.66502380371094 260.803466796875 C 194.36172485351562 261.4957275390625 195.0584259033203 262.1878662109375 195.75514221191406 262.880126953125 C 196.10348510742188 263.745361328125 196.45184326171875 264.61065673828125 196.80018615722656 265.4759521484375 C 196.80018615722656 269.11004638671875 196.80018615722656 272.744140625 196.80018615722656 276.3782958984375 C 196.6260223388672 276.8974609375 196.45184326171875 277.41656494140625 196.2776641845703 277.935791015625 C 195.23260498046875 279.1470947265625 194.18753051757812 280.3585205078125 193.14248657226562 281.56982421875 C 192.2716064453125 281.916015625 191.4007110595703 282.2620849609375 190.5298309326172 282.608154296875 C 189.13641357421875 282.2620849609375 187.7429962158203 281.916015625 186.34959411621094 281.56982421875 C 185.47869873046875 280.70458984375 184.60781860351562 279.83935546875 183.7369384765625 278.97406005859375 C 183.562744140625 278.45489501953125 183.38856506347656 277.935791015625 183.2144012451172 277.41656494140625 C 183.2144012451172 273.09027099609375 183.2144012451172 268.763916015625 183.2144012451172 264.4376220703125 C 184.4336395263672 263.05322265625 185.6528778076172 261.668701171875 186.87210083007812 260.2843017578125 C 187.22047424316406 260.2843017578125 187.56881713867188 260.2843017578125 187.91717529296875 260.2843017578125M 203.07057189941406 246.26702880859375 C 203.24473571777344 246.093994140625 203.41891479492188 245.9208984375 203.5930938720703 245.74786376953125 C 206.728271484375 245.74786376953125 209.86346435546875 245.74786376953125 212.99864196777344 245.74786376953125 C 214.39205932617188 246.26702880859375 215.7854766845703 246.78619384765625 217.17889404296875 247.30535888671875 C 218.04977416992188 248.68975830078125 218.92066955566406 250.07421875 219.7915496826172 251.4586181640625 C 219.61737060546875 252.843017578125 219.44317626953125 254.22747802734375 219.26901245117188 255.61187744140625 C 217.87559509277344 256.8232421875 216.482177734375 258.03466796875 215.08877563476562 259.2459716796875 C 210.56016540527344 259.2459716796875 206.0315704345703 259.2459716796875 201.50296020507812 259.2459716796875 C 201.1546173095703 259.072998046875 200.80625915527344 258.89990234375 200.45791625976562 258.726806640625 C 199.5870361328125 257.861572265625 198.7161407470703 256.996337890625 197.8452606201172 256.13104248046875 C 197.4969024658203 254.74664306640625 197.14854431152344 253.3621826171875 196.80018615722656 251.977783203125 C 197.14854431152344 251.11248779296875 197.4969024658203 250.24725341796875 197.8452606201172 249.3819580078125 C 198.7161407470703 248.5167236328125 199.5870361328125 247.65142822265625 200.45791625976562 246.78619384765625 C 201.32879638671875 246.61309814453125 202.19967651367188 246.4400634765625 203.07057189941406 246.26702880859375M 165.97088623046875 246.26702880859375 C 166.1450653076172 246.093994140625 166.31924438476562 245.9208984375 166.49342346191406 245.74786376953125 C 169.6286163330078 245.74786376953125 172.76377868652344 245.74786376953125 175.8989715576172 245.74786376953125 C 176.7698516845703 245.9208984375 177.6407470703125 246.093994140625 178.51162719726562 246.26702880859375 C 179.03416442871094 246.61309814453125 179.55667114257812 246.959228515625 180.07920837402344 247.30535888671875 C 180.95010375976562 248.5167236328125 181.82098388671875 249.72808837890625 182.69186401367188 250.939453125 C 182.69186401367188 252.15081787109375 182.69186401367188 253.3621826171875 182.69186401367188 254.57354736328125 C 182.34352111816406 255.26580810546875 181.9951629638672 255.9580078125 181.64682006835938 256.65020751953125 C 180.4275665283203 257.5155029296875 179.2083282470703 258.3807373046875 177.9890899658203 259.2459716796875 C 173.4604949951172 259.2459716796875 168.93190002441406 259.2459716796875 164.40330505371094 259.2459716796875 C 164.05494689941406 259.072998046875 163.7065887451172 258.89990234375 163.3582305908203 258.726806640625 C 162.3131866455078 257.5155029296875 161.2681121826172 256.3040771484375 160.22303771972656 255.09271240234375 C 160.22303771972656 253.5352783203125 160.22303771972656 251.977783203125 160.22303771972656 250.4202880859375 C 161.2681121826172 249.20892333984375 162.3131866455078 247.99755859375 163.3582305908203 246.78619384765625 C 164.22911071777344 246.61309814453125 165.10000610351562 246.4400634765625 165.97088623046875 246.26702880859375M 188.43971252441406 223.42401123046875 C 189.3105926513672 223.2509765625 190.1814727783203 223.077880859375 191.0523681640625 222.90484619140625 C 192.097412109375 223.42401123046875 193.14248657226562 223.94317626953125 194.18753051757812 224.46234130859375 C 194.88424682617188 225.32757568359375 195.58096313476562 226.19287109375 196.2776641845703 227.05810546875 C 196.45184326171875 227.7503662109375 196.6260223388672 228.4425048828125 196.80018615722656 229.134765625 C 196.80018615722656 232.5958251953125 196.80018615722656 236.056884765625 196.80018615722656 239.5179443359375 C 196.6260223388672 240.210205078125 196.45184326171875 240.90234375 196.2776641845703 241.5946044921875 C 195.58096313476562 242.4598388671875 194.88424682617188 243.32513427734375 194.18753051757812 244.19036865234375 C 193.14248657226562 244.70953369140625 192.097412109375 245.22869873046875 191.0523681640625 245.74786376953125 C 190.1814727783203 245.74786376953125 189.3105926513672 245.74786376953125 188.43971252441406 245.74786376953125 C 187.7429962158203 245.4017333984375 187.04629516601562 245.0556640625 186.34959411621094 244.70953369140625 C 185.3045196533203 243.4981689453125 184.25946044921875 242.28680419921875 183.2144012451172 241.075439453125 C 183.2144012451172 236.5760498046875 183.2144012451172 232.07666015625 183.2144012451172 227.5772705078125 C 184.25946044921875 226.36590576171875 185.3045196533203 225.154541015625 186.34959411621094 223.94317626953125 C 187.04629516601562 223.7701416015625 187.7429962158203 223.5970458984375 188.43971252441406 223.42401123046875M 271.5220642089844 176.69964599609375 C 271.6962585449219 176.526611328125 271.87042236328125 176.353515625 272.0445861816406 176.18048095703125 C 273.6121826171875 176.353515625 275.1797790527344 176.526611328125 276.74737548828125 176.69964599609375 C 277.96661376953125 178.0841064453125 279.18585205078125 179.468505859375 280.40509033203125 180.8529052734375 C 280.40509033203125 182.410400390625 280.40509033203125 183.9678955078125 280.40509033203125 185.525390625 C 279.01165771484375 186.9097900390625 277.6182556152344 188.294189453125 276.2248229980469 189.67864990234375 C 274.6572570800781 189.67864990234375 273.08966064453125 189.67864990234375 271.5220642089844 189.67864990234375 C 270.8253479003906 189.33251953125 270.128662109375 188.9864501953125 269.43194580078125 188.64031982421875 C 268.7352600097656 187.7750244140625 268.0385437011719 186.9097900390625 267.3418273925781 186.0445556640625 C 267.1676330566406 184.487060546875 266.99346923828125 182.9295654296875 266.81927490234375 181.3720703125 C 267.690185546875 180.16070556640625 268.5610656738281 178.9493408203125 269.43194580078125 177.73797607421875 C 270.128662109375 177.391845703125 270.8253479003906 177.0457763671875 271.5220642089844 176.69964599609375M 184.25946044921875 154.37579345703125 C 184.4336395263672 154.2027587890625 184.60781860351562 154.0296630859375 184.781982421875 153.85662841796875 C 187.56881713867188 153.85662841796875 190.35565185546875 153.85662841796875 193.14248657226562 153.85662841796875 C 195.23260498046875 154.721923828125 197.32272338867188 155.587158203125 199.412841796875 156.45245361328125 C 201.67715454101562 158.7021484375 203.9414520263672 160.95184326171875 206.2057342529297 163.2015380859375 C 206.90245056152344 164.93206787109375 207.5991668701172 166.66259765625 208.29586791992188 168.39312744140625 C 208.4700469970703 170.9888916015625 208.64422607421875 173.584716796875 208.81838989257812 176.18048095703125 C 208.12168884277344 178.25714111328125 207.4249725341797 180.333740234375 206.728271484375 182.410400390625 C 206.0315704345703 183.44873046875 205.33485412597656 184.487060546875 204.63815307617188 185.525390625 C 203.41891479492188 186.73675537109375 202.19967651367188 187.9481201171875 200.98043823242188 189.15948486328125 C 199.0644989013672 190.19781494140625 197.14854431152344 191.236083984375 195.23260498046875 192.2744140625 C 191.7490692138672 192.447509765625 188.26553344726562 192.62054443359375 184.781982421875 192.7935791015625 C 182.69186401367188 191.9283447265625 180.60174560546875 191.06304931640625 178.51162719726562 190.19781494140625 C 176.7698516845703 188.64031982421875 175.02809143066406 187.0828857421875 173.28631591796875 185.525390625 C 172.41543579101562 184.14093017578125 171.54454040527344 182.75653076171875 170.6736602783203 181.3720703125 C 170.3253173828125 180.333740234375 169.97695922851562 179.29541015625 169.6286163330078 178.25714111328125 C 169.4544219970703 175.661376953125 169.28024291992188 173.0655517578125 169.1060791015625 170.4697265625 C 169.8027801513672 168.39312744140625 170.49949645996094 166.31646728515625 171.19619750976562 164.23980712890625 C 171.8928985595703 163.2015380859375 172.58961486816406 162.1632080078125 173.28631591796875 161.1248779296875 C 174.50555419921875 159.91351318359375 175.72479248046875 158.7021484375 176.9440460205078 157.49078369140625 C 178.51162719726562 156.62548828125 180.07920837402344 155.76025390625 181.64682006835938 154.89495849609375 C 182.5177001953125 154.721923828125 183.38856506347656 154.548828125 184.25946044921875 154.37579345703125M 186.87210083007812 167.35479736328125 C 186.17539978027344 167.700927734375 185.47869873046875 168.0469970703125 184.781982421875 168.39312744140625 C 184.25946044921875 169.0853271484375 183.7369384765625 169.77752685546875 183.2144012451172 170.4697265625 C 183.04022216796875 170.9888916015625 182.8660430908203 171.508056640625 182.69186401367188 172.0272216796875 C 182.8660430908203 173.41162109375 183.04022216796875 174.79608154296875 183.2144012451172 176.18048095703125 C 183.7369384765625 176.8726806640625 184.25946044921875 177.56494140625 184.781982421875 178.25714111328125 C 185.47869873046875 178.603271484375 186.17539978027344 178.9493408203125 186.87210083007812 179.29541015625 C 188.26553344726562 179.29541015625 189.65895080566406 179.29541015625 191.0523681640625 179.29541015625 C 191.7490692138672 178.9493408203125 192.44577026367188 178.603271484375 193.14248657226562 178.25714111328125 C 193.66502380371094 177.56494140625 194.18753051757812 176.8726806640625 194.71006774902344 176.18048095703125 C 194.88424682617188 175.661376953125 195.0584259033203 175.1422119140625 195.23260498046875 174.623046875 C 195.0584259033203 173.23858642578125 194.88424682617188 171.85418701171875 194.71006774902344 170.4697265625 C 194.18753051757812 169.77752685546875 193.66502380371094 169.0853271484375 193.14248657226562 168.39312744140625 C 192.44577026367188 168.0469970703125 191.7490692138672 167.700927734375 191.0523681640625 167.35479736328125 C 189.65895080566406 167.35479736328125 188.26553344726562 167.35479736328125 186.87210083007812 167.35479736328125M 356.694580078125 95.7108154296875 C 356.8687438964844 95.5377197265625 357.04290771484375 95.36468505859375 357.21710205078125 95.191650390625 C 358.26214599609375 95.191650390625 359.3072204589844 95.191650390625 360.3522644042969 95.191650390625 C 361.0489807128906 95.5377197265625 361.74566650390625 95.88385009765625 362.4423828125 96.22991943359375 C 363.13909912109375 96.92218017578125 363.8358154296875 97.6143798828125 364.53253173828125 98.30657958984375 C 364.8808898925781 98.998779296875 365.2292175292969 99.6910400390625 365.57757568359375 100.38323974609375 C 365.57757568359375 105.0556640625 365.57757568359375 109.72808837890625 365.57757568359375 114.4005126953125 C 365.7517395019531 114.5736083984375 365.9259338378906 114.74664306640625 366.1001281738281 114.919677734375 C 370.97705078125 114.919677734375 375.85400390625 114.919677734375 380.7309875488281 114.919677734375 C 382.1243896484375 116.3040771484375 383.5177917480469 117.68853759765625 384.9112243652344 119.07293701171875 C 384.9112243652344 120.63043212890625 384.9112243652344 122.18792724609375 384.9112243652344 123.745361328125 C 383.5177917480469 125.12982177734375 382.1243896484375 126.51422119140625 380.7309875488281 127.898681640625 C 375.6798400878906 128.07171630859375 370.6286926269531 128.2447509765625 365.57757568359375 128.4178466796875 C 365.57757568359375 142.95428466796875 365.57757568359375 157.49072265625 365.57757568359375 172.0272216796875 C 380.5567932128906 199.7156982421875 395.5360107421875 227.40423583984375 410.51519775390625 255.09271240234375 C 410.68939208984375 256.13104248046875 410.8635559082031 257.16937255859375 411.0377197265625 258.2076416015625 C 410.1668701171875 259.76513671875 409.29595947265625 261.3226318359375 408.4250793457031 262.880126953125 C 407.3800354003906 263.3992919921875 406.3349609375 263.91845703125 405.2898864746094 264.4376220703125 C 403.0256042480469 264.4376220703125 400.7613220214844 264.4376220703125 398.49700927734375 264.4376220703125 C 398.3228454589844 264.78369140625 398.1486511230469 265.12982177734375 397.9744873046875 265.4759521484375 C 397.9744873046875 269.80224609375 397.9744873046875 274.1285400390625 397.9744873046875 278.45489501953125 C 398.1486511230469 278.6279296875 398.3228454589844 278.801025390625 398.49700927734375 278.97406005859375 C 398.3228454589844 279.49322509765625 398.1486511230469 280.01239013671875 397.9744873046875 280.531494140625 C 398.1486511230469 280.70458984375 398.3228454589844 280.877685546875 398.49700927734375 281.05072021484375 C 398.6711730957031 280.877685546875 398.8453369140625 280.70458984375 399.01953125 280.531494140625 C 401.8063659667969 276.55126953125 404.59320068359375 272.571044921875 407.3800354003906 268.5908203125 C 411.3861083984375 264.2645263671875 415.3921813964844 259.938232421875 419.39825439453125 255.61187744140625 C 420.7916564941406 254.4005126953125 422.18505859375 253.18914794921875 423.5784912109375 251.977783203125 C 424.2751770019531 251.63165283203125 424.9718933105469 251.28558349609375 425.6685791015625 250.939453125 C 426.7136535644531 250.939453125 427.75872802734375 250.939453125 428.8038024902344 250.939453125 C 430.0230407714844 251.63165283203125 431.2422790527344 252.3238525390625 432.46148681640625 253.01611328125 C 435.9450378417969 256.4771728515625 439.4285888671875 259.938232421875 442.912109375 263.3992919921875 C 445.8731384277344 267.03338623046875 448.8341369628906 270.66748046875 451.7951354980469 274.3016357421875 C 454.2336120605469 278.1087646484375 456.6720886230469 281.916015625 459.11053466796875 285.72314453125 C 461.54901123046875 291.0877685546875 463.9875183105469 296.452392578125 466.4259948730469 301.81707763671875 C 466.4259948730469 302.33624267578125 466.4259948730469 302.85540771484375 466.4259948730469 303.37457275390625 C 467.1226806640625 305.27813720703125 467.81939697265625 307.1817626953125 468.51611328125 309.0853271484375 C 468.8644714355469 312.20025634765625 469.2127990722656 315.315185546875 469.5611572265625 318.43017578125 C 469.7353210449219 318.603271484375 469.9095458984375 318.7762451171875 470.0837097167969 318.9493408203125 C 470.0837097167969 323.62176513671875 470.0837097167969 328.294189453125 470.0837097167969 332.9666748046875 C 469.9095458984375 333.13970947265625 469.7353210449219 333.312744140625 469.5611572265625 333.48577880859375 C 469.5611572265625 335.21630859375 469.5611572265625 336.9468994140625 469.5611572265625 338.6773681640625 C 469.3869934082031 338.8504638671875 469.2127990722656 339.02349853515625 469.03863525390625 339.196533203125 C 468.51611328125 343.1767578125 467.9935607910156 347.156982421875 467.4710388183594 351.13720703125 C 466.2518005371094 354.94439697265625 465.0325622558594 358.7515869140625 463.8133239746094 362.5587158203125 C 463.8133239746094 377.26824951171875 463.8133239746094 391.977783203125 463.8133239746094 406.687255859375 C 466.2518005371094 406.687255859375 468.6903076171875 406.687255859375 471.1287536621094 406.687255859375 C 471.65130615234375 406.8603515625 472.1737976074219 407.033447265625 472.69635009765625 407.2064208984375 C 473.5672302246094 407.898681640625 474.4381103515625 408.59088134765625 475.30902099609375 409.2830810546875 C 475.6573486328125 409.975341796875 476.0057067871094 410.66748046875 476.35406494140625 411.3597412109375 C 476.52825927734375 412.2249755859375 476.7024230957031 413.0902099609375 476.8766174316406 413.95556640625 C 476.7024230957031 414.47467041015625 476.52825927734375 414.993896484375 476.35406494140625 415.51300048828125 C 476.52825927734375 415.68603515625 476.7024230957031 415.859130859375 476.8766174316406 416.0321044921875 C 476.8766174316406 440.4326171875 476.8766174316406 464.8331298828125 476.8766174316406 489.233642578125 C 476.7024230957031 489.40673828125 476.52825927734375 489.5797119140625 476.35406494140625 489.7528076171875 C 476.7024230957031 490.27197265625 477.05078125 490.7911376953125 477.39910888671875 491.310302734375 C 480.01177978515625 491.310302734375 482.6244201660156 491.310302734375 485.2370910644531 491.310302734375 C 485.5854187011719 491.4833984375 485.9338073730469 491.6563720703125 486.28216552734375 491.8294677734375 C 487.32720947265625 493.040771484375 488.37225341796875 494.252197265625 489.4173278808594 495.463623046875 C 489.4173278808594 497.02099609375 489.4173278808594 498.5784912109375 489.4173278808594 500.135986328125 C 489.2431640625 500.482177734375 489.0689697265625 500.828125 488.8948059082031 501.17431640625 C 488.02392578125 502.03955078125 487.1530456542969 502.90478515625 486.28216552734375 503.77001953125 C 484.88873291015625 504.1162109375 483.4953308105469 504.46240234375 482.1018981933594 504.808349609375 C 360.70062255859375 504.808349609375 239.29934692382812 504.808349609375 117.8980712890625 504.808349609375 C 116.5046615600586 504.46240234375 115.11123657226562 504.1162109375 113.71782684326172 503.77001953125 C 112.67276763916016 502.5587158203125 111.6277084350586 501.347412109375 110.58264923095703 500.135986328125 C 110.58264923095703 498.5784912109375 110.58264923095703 497.02099609375 110.58264923095703 495.463623046875 C 110.75682067871094 495.117431640625 110.93099975585938 494.7713623046875 111.10517120361328 494.42529296875 C 112.32440948486328 493.386962890625 113.54365539550781 492.3486328125 114.76288604736328 491.310302734375 C 117.37554168701172 491.310302734375 119.98819732666016 491.310302734375 122.60084533691406 491.310302734375 C 122.94920349121094 490.7911376953125 123.29756164550781 490.27197265625 123.64590454101562 489.7528076171875 C 123.47174072265625 489.5797119140625 123.29756164550781 489.40673828125 123.12338256835938 489.233642578125 C 123.12338256835938 464.8331298828125 123.12338256835938 440.4326171875 123.12338256835938 416.0321044921875 C 123.29756164550781 415.859130859375 123.47174072265625 415.68603515625 123.64590454101562 415.51300048828125 C 123.47174072265625 414.993896484375 123.29756164550781 414.47467041015625 123.12338256835938 413.95556640625 C 123.29756164550781 413.0902099609375 123.47174072265625 412.2249755859375 123.64590454101562 411.3597412109375 C 124.34262084960938 410.3214111328125 125.03932189941406 409.2830810546875 125.73602294921875 408.2447509765625 C 126.78108215332031 407.7255859375 127.82615661621094 407.2064208984375 128.8712158203125 406.687255859375 C 133.57398986816406 406.687255859375 138.2767791748047 406.687255859375 142.97955322265625 406.687255859375 C 142.97955322265625 404.78369140625 142.97955322265625 402.880126953125 142.97955322265625 400.9765625 C 141.93447875976562 400.63043212890625 140.88941955566406 400.2843017578125 139.8443603515625 399.938232421875 C 138.97348022460938 399.072998046875 138.1025848388672 398.20770263671875 137.23170471191406 397.3424072265625 C 137.0575408935547 396.996337890625 136.8833465576172 396.65020751953125 136.70916748046875 396.3040771484375 C 136.70916748046875 394.74658203125 136.70916748046875 393.18914794921875 136.70916748046875 391.63165283203125 C 141.23777770996094 377.4412841796875 145.76637268066406 363.2509765625 150.29498291015625 349.06060791015625 C 150.29498291015625 348.5413818359375 150.29498291015625 348.02227783203125 150.29498291015625 347.50311279296875 C 150.99168395996094 345.7725830078125 151.68838500976562 344.04205322265625 152.38510131835938 342.3115234375 C 152.38510131835938 341.7923583984375 152.38510131835938 341.273193359375 152.38510131835938 340.7540283203125 C 153.08180236816406 339.02349853515625 153.7785186767578 337.29296875 154.4752197265625 335.56243896484375 C 154.4752197265625 335.0433349609375 154.4752197265625 334.52410888671875 154.4752197265625 334.0050048828125 C 155.1719207763672 332.2744140625 155.86863708496094 330.54388427734375 156.56533813476562 328.8133544921875 C 156.56533813476562 328.294189453125 156.56533813476562 327.7750244140625 156.56533813476562 327.255859375 C 157.2620391845703 325.525390625 157.95875549316406 323.7947998046875 158.65545654296875 322.0643310546875 C 158.65545654296875 321.545166015625 158.65545654296875 321.0260009765625 158.65545654296875 320.5068359375 C 159.3521728515625 318.7762451171875 160.0488739013672 317.0457763671875 160.74557495117188 315.315185546875 C 160.74557495117188 314.7960205078125 160.74557495117188 314.27691650390625 160.74557495117188 313.7576904296875 C 161.7906494140625 310.9888916015625 162.835693359375 308.22003173828125 163.88076782226562 305.451171875 C 165.27418518066406 304.5859375 166.66758728027344 303.720703125 168.06100463867188 302.85540771484375 C 169.4544219970703 303.0284423828125 170.84783935546875 303.2015380859375 172.24127197265625 303.37457275390625 C 173.1121368408203 304.0667724609375 173.98301696777344 304.759033203125 174.85389709472656 305.451171875 C 175.8989715576172 308.22003173828125 176.9440460205078 310.9888916015625 177.9890899658203 313.7576904296875 C 177.9890899658203 314.27691650390625 177.9890899658203 314.7960205078125 177.9890899658203 315.315185546875 C 178.685791015625 317.0457763671875 179.38250732421875 318.7762451171875 180.07920837402344 320.5068359375 C 180.07920837402344 321.0260009765625 180.07920837402344 321.545166015625 180.07920837402344 322.0643310546875 C 180.7759246826172 323.7947998046875 181.47262573242188 325.525390625 182.16932678222656 327.255859375 C 182.16932678222656 327.7750244140625 182.16932678222656 328.294189453125 182.16932678222656 328.8133544921875 C 182.8660430908203 330.54388427734375 183.562744140625 332.2744140625 184.25946044921875 334.0050048828125 C 184.25946044921875 334.52410888671875 184.25946044921875 335.0433349609375 184.25946044921875 335.56243896484375 C 184.9561767578125 337.29296875 185.6528778076172 339.02349853515625 186.34959411621094 340.7540283203125 C 186.34959411621094 341.273193359375 186.34959411621094 341.7923583984375 186.34959411621094 342.3115234375 C 187.04629516601562 344.04205322265625 187.7429962158203 345.7725830078125 188.43971252441406 347.50311279296875 C 188.43971252441406 348.02227783203125 188.43971252441406 348.5413818359375 188.43971252441406 349.06060791015625 C 192.9683074951172 363.2509765625 197.4969024658203 377.4412841796875 202.02549743652344 391.63165283203125 C 202.02549743652344 393.18914794921875 202.02549743652344 394.74658203125 202.02549743652344 396.3040771484375 C 201.851318359375 396.65020751953125 201.67715454101562 396.996337890625 201.50296020507812 397.3424072265625 C 200.632080078125 398.20770263671875 199.76119995117188 399.072998046875 198.8903045654297 399.938232421875 C 197.8452606201172 400.2843017578125 196.80018615722656 400.63043212890625 195.75514221191406 400.9765625 C 195.75514221191406 402.880126953125 195.75514221191406 404.78369140625 195.75514221191406 406.687255859375 C 202.02549743652344 406.687255859375 208.29586791992188 406.687255859375 214.5662384033203 406.687255859375 C 214.5662384033203 402.880126953125 214.5662384033203 399.072998046875 214.5662384033203 395.2657470703125 C 214.7404022216797 394.919677734375 214.9145965576172 394.57354736328125 215.08877563476562 394.22747802734375 C 213.86952209472656 390.07421875 212.65028381347656 385.9208984375 211.43104553222656 381.76763916015625 C 210.90850830078125 379.171875 210.38600158691406 376.5760498046875 209.86346435546875 373.980224609375 C 209.86346435546875 372.94189453125 209.86346435546875 371.903564453125 209.86346435546875 370.865234375 C 209.6892852783203 370.6922607421875 209.51510620117188 370.5191650390625 209.34092712402344 370.34613037109375 C 209.166748046875 367.05810546875 208.99258422851562 363.7701416015625 208.81838989257812 360.4820556640625 C 208.64422607421875 360.30908203125 208.4700469970703 360.135986328125 208.29586791992188 359.962890625 C 208.29586791992188 354.7713623046875 208.29586791992188 349.5797119140625 208.29586791992188 344.38818359375 C 208.4700469970703 344.215087890625 208.64422607421875 344.04205322265625 208.81838989257812 343.8690185546875 C 209.166748046875 340.407958984375 209.51510620117188 336.9468994140625 209.86346435546875 333.48577880859375 C 210.38600158691406 331.4091796875 210.90850830078125 329.33251953125 211.43104553222656 327.255859375 C 212.99864196777344 322.9295654296875 214.5662384033203 318.603271484375 216.13381958007812 314.27691650390625 C 219.09483337402344 308.7392578125 222.0558319091797 303.2015380859375 225.016845703125 297.663818359375 C 228.1520233154297 293.33746337890625 231.28721618652344 289.01116943359375 234.42239379882812 284.684814453125 C 236.5125274658203 282.43511962890625 238.60264587402344 280.1854248046875 240.69276428222656 277.935791015625 C 242.43453979492188 277.41656494140625 244.17630004882812 276.8974609375 245.91807556152344 276.3782958984375 C 247.48565673828125 273.2633056640625 249.05325317382812 270.1483154296875 250.620849609375 267.03338623046875 C 253.23348999023438 263.3992919921875 255.84616088867188 259.76513671875 258.45880126953125 256.13104248046875 C 263.3357849121094 251.11248779296875 268.21270751953125 246.093994140625 273.08966064453125 241.075439453125 C 276.2248229980469 238.4796142578125 279.36004638671875 235.8837890625 282.4952087402344 233.28802490234375 C 285.978759765625 230.86529541015625 289.4622802734375 228.4425048828125 292.9458312988281 226.019775390625 C 293.64251708984375 225.6737060546875 294.3392333984375 225.32757568359375 295.03594970703125 224.9814453125 C 296.08099365234375 224.9814453125 297.1260681152344 224.9814453125 298.171142578125 224.9814453125 C 300.7837829589844 226.5389404296875 303.3964538574219 228.096435546875 306.00909423828125 229.6539306640625 C 309.3184509277344 232.249755859375 312.6278381347656 234.84552001953125 315.9371643066406 237.4412841796875 C 316.2855224609375 237.4412841796875 316.6338806152344 237.4412841796875 316.98223876953125 237.4412841796875 C 320.9883117675781 229.6539306640625 324.994384765625 221.86651611328125 329.00042724609375 214.07916259765625 C 329.3487854003906 213.7330322265625 329.6971435546875 213.38690185546875 330.0455017089844 213.04083251953125 C 331.0905456542969 210.7911376953125 332.1356201171875 208.54144287109375 333.1806945800781 206.291748046875 C 339.4510498046875 194.8702392578125 345.7214050292969 183.44873046875 351.9917907714844 172.0272216796875 C 351.9917907714844 157.49072265625 351.9917907714844 142.95428466796875 351.9917907714844 128.4178466796875 C 346.9406433105469 128.2447509765625 341.8895263671875 128.07171630859375 336.8384094238281 127.898681640625 C 335.4449768066406 126.51422119140625 334.05157470703125 125.12982177734375 332.6581726074219 123.745361328125 C 332.6581726074219 122.18792724609375 332.6581726074219 120.63043212890625 332.6581726074219 119.07293701171875 C 334.05157470703125 117.68853759765625 335.4449768066406 116.3040771484375 336.8384094238281 114.919677734375 C 341.71533203125 114.919677734375 346.59228515625 114.919677734375 351.4692687988281 114.919677734375 C 351.6434326171875 114.74664306640625 351.8175964355469 114.5736083984375 351.9917907714844 114.4005126953125 C 351.9917907714844 109.72808837890625 351.9917907714844 105.0556640625 351.9917907714844 100.38323974609375 C 352.3401184082031 99.6910400390625 352.6885070800781 98.998779296875 353.0368347167969 98.30657958984375 C 353.7335510253906 97.6143798828125 354.4302673339844 96.92218017578125 355.126953125 96.22991943359375 C 355.6495056152344 96.056884765625 356.1720275878906 95.88385009765625 356.694580078125 95.7108154296875M 204.11561584472656 446.1434326171875 C 201.67715454101562 446.66259765625 199.23867797851562 447.1817626953125 196.80018615722656 447.700927734375 C 194.36172485351562 448.7392578125 191.92324829101562 449.777587890625 189.48475646972656 450.8157958984375 C 186.87210083007812 452.719482421875 184.25946044921875 454.623046875 181.64682006835938 456.526611328125 C 180.25340270996094 458.0841064453125 178.85997009277344 459.6416015625 177.466552734375 461.198974609375 C 176.4215087890625 462.7564697265625 175.37643432617188 464.31396484375 174.33139038085938 465.8714599609375 C 173.28631591796875 468.294189453125 172.24124145507812 470.7169189453125 171.19619750976562 473.1396484375 C 170.6736602783203 475.5625 170.151123046875 477.985107421875 169.6286163330078 480.407958984375 C 169.6286163330078 483.8690185546875 169.6286163330078 487.330078125 169.6286163330078 490.7911376953125 C 169.8027801513672 490.964111328125 169.97695922851562 491.13720703125 170.151123046875 491.310302734375 C 195.75514221191406 491.310302734375 221.359130859375 491.310302734375 246.963134765625 491.310302734375 C 247.13731384277344 491.13720703125 247.3114776611328 490.964111328125 247.48565673828125 490.7911376953125 C 247.48565673828125 487.330078125 247.48565673828125 483.8690185546875 247.48565673828125 480.407958984375 C 246.963134765625 477.985107421875 246.4405975341797 475.5625 245.91807556152344 473.1396484375 C 245.0471954345703 471.06298828125 244.17630004882812 468.9864501953125 243.305419921875 466.9097900390625 C 241.21530151367188 463.9678955078125 239.12518310546875 461.0260009765625 237.03504943847656 458.0841064453125 C 234.42239379882812 456.0074462890625 231.80975341796875 453.9307861328125 229.1970977783203 451.8541259765625 C 226.75860595703125 450.642822265625 224.3201446533203 449.431396484375 221.8816680908203 448.2200927734375 C 218.92066955566406 447.52783203125 215.95965576171875 446.8355712890625 212.99864196777344 446.1434326171875 C 210.03762817382812 446.1434326171875 207.07662963867188 446.1434326171875 204.11561584472656 446.1434326171875M 156.56533813476562 400.9765625 C 156.56533813476562 402.880126953125 156.56533813476562 404.78369140625 156.56533813476562 406.687255859375 C 165.10000610351562 406.687255859375 173.63467407226562 406.687255859375 182.16932678222656 406.687255859375 C 182.16932678222656 404.78369140625 182.16932678222656 402.880126953125 182.16932678222656 400.9765625 C 173.63467407226562 400.9765625 165.10000610351562 400.9765625 156.56533813476562 400.9765625M 228.674560546875 394.22747802734375 C 228.674560546875 399.59210205078125 228.674560546875 404.956787109375 228.674560546875 410.3214111328125 C 228.50038146972656 410.49444580078125 228.3262176513672 410.66748046875 228.1520233154297 410.840576171875 C 228.3262176513672 411.53277587890625 228.50038146972656 412.2249755859375 228.674560546875 412.917236328125 C 228.50038146972656 413.782470703125 228.3262176513672 414.647705078125 228.1520233154297 415.51300048828125 C 227.455322265625 416.55133056640625 226.75860595703125 417.589599609375 226.06190490722656 418.6279296875 C 225.016845703125 419.1470947265625 223.97178649902344 419.666259765625 222.92672729492188 420.1854248046875 C 194.36172485351562 420.1854248046875 165.79672241210938 420.1854248046875 137.23170471191406 420.1854248046875 C 137.0575408935547 420.3585205078125 136.8833465576172 420.53155517578125 136.70916748046875 420.70458984375 C 136.8833465576172 420.877685546875 137.0575408935547 421.0506591796875 137.23170471191406 421.2237548828125 C 137.0575408935547 421.56982421875 136.8833465576172 421.91595458984375 136.70916748046875 422.2620849609375 C 136.8833465576172 422.43511962890625 137.0575408935547 422.608154296875 137.23170471191406 422.78125 C 137.0575408935547 422.9542236328125 136.8833465576172 423.1273193359375 136.70916748046875 423.3004150390625 C 136.70916748046875 445.624267578125 136.70916748046875 467.9481201171875 136.70916748046875 490.27197265625 C 137.0575408935547 490.6180419921875 137.4058837890625 490.964111328125 137.75424194335938 491.310302734375 C 143.67625427246094 491.310302734375 149.59825134277344 491.310302734375 155.520263671875 491.310302734375 C 155.6944580078125 491.13720703125 155.86863708496094 490.964111328125 156.0428009033203 490.7911376953125 C 156.0428009033203 487.156982421875 156.0428009033203 483.52294921875 156.0428009033203 479.8887939453125 C 156.73951721191406 476.427734375 157.43621826171875 472.9666748046875 158.13291931152344 469.505615234375 C 159.3521728515625 466.563720703125 160.5714111328125 463.621826171875 161.7906494140625 460.679931640625 C 164.05494689941406 457.391845703125 166.31924438476562 454.1038818359375 168.5835418701172 450.8157958984375 C 171.37037658691406 448.2200927734375 174.15719604492188 445.624267578125 176.9440460205078 443.0284423828125 C 179.38250732421875 441.470947265625 181.82098388671875 439.9134521484375 184.25946044921875 438.35595703125 C 187.22047424316406 437.1446533203125 190.1814727783203 435.9332275390625 193.14248657226562 434.721923828125 C 196.6260223388672 434.0296630859375 200.1095428466797 433.33740234375 203.5930938720703 432.645263671875 C 208.12168884277344 432.818359375 212.65028381347656 432.9913330078125 217.17889404296875 433.1644287109375 C 219.44317626953125 433.68359375 221.70748901367188 434.2027587890625 223.97178649902344 434.721923828125 C 226.23609924316406 435.587158203125 228.50038146972656 436.452392578125 230.76467895507812 437.317626953125 C 233.89987182617188 439.2213134765625 237.03504943847656 441.1248779296875 240.17022705078125 443.0284423828125 C 242.9570770263672 445.624267578125 245.743896484375 448.2200927734375 248.53073120117188 450.8157958984375 C 250.79501342773438 454.1038818359375 253.059326171875 457.391845703125 255.3236083984375 460.679931640625 C 256.5428466796875 463.621826171875 257.7621154785156 466.563720703125 258.9813537597656 469.505615234375 C 259.67803955078125 472.9666748046875 260.3747253417969 476.427734375 261.07147216796875 479.8887939453125 C 261.07147216796875 483.52294921875 261.07147216796875 487.156982421875 261.07147216796875 490.7911376953125 C 261.2456359863281 490.964111328125 261.4197998046875 491.13720703125 261.593994140625 491.310302734375 C 267.5160217285156 491.310302734375 273.4380187988281 491.310302734375 279.36004638671875 491.310302734375 C 279.7083740234375 490.964111328125 280.0567321777344 490.6180419921875 280.40509033203125 490.27197265625 C 280.40509033203125 474.6971435546875 280.40509033203125 459.1224365234375 280.40509033203125 443.547607421875 C 281.7984924316406 442.1632080078125 283.19189453125 440.77880859375 284.5853576660156 439.394287109375 C 286.1529235839844 439.394287109375 287.72052001953125 439.394287109375 289.2881164550781 439.394287109375 C 289.6364440917969 439.5673828125 289.9848327636719 439.740478515625 290.33319091796875 439.9134521484375 C 291.20404052734375 440.77880859375 292.074951171875 441.64404296875 292.9458312988281 442.50927734375 C 293.294189453125 443.720703125 293.64251708984375 444.9320068359375 293.99090576171875 446.1434326171875 C 293.8166809082031 446.8355712890625 293.64251708984375 447.52783203125 293.4683532714844 448.2200927734375 C 293.4683532714844 462.2373046875 293.4683532714844 476.254638671875 293.4683532714844 490.27197265625 C 293.8166809082031 490.6180419921875 294.1650695800781 490.964111328125 294.513427734375 491.310302734375 C 298.171142578125 491.310302734375 301.8288269042969 491.310302734375 305.4865417480469 491.310302734375 C 305.83489990234375 490.964111328125 306.18328857421875 490.6180419921875 306.5316162109375 490.27197265625 C 306.5316162109375 476.254638671875 306.5316162109375 462.2373046875 306.5316162109375 448.2200927734375 C 306.3574523925781 447.52783203125 306.18328857421875 446.8355712890625 306.00909423828125 446.1434326171875 C 306.3574523925781 444.9320068359375 306.7057800292969 443.720703125 307.05413818359375 442.50927734375 C 308.27337646484375 441.470947265625 309.49261474609375 440.4326171875 310.71185302734375 439.394287109375 C 312.2794494628906 439.394287109375 313.8470458984375 439.394287109375 315.4146423339844 439.394287109375 C 315.76300048828125 439.5673828125 316.111328125 439.740478515625 316.4596862792969 439.9134521484375 C 317.3305969238281 440.77880859375 318.20147705078125 441.64404296875 319.0723571777344 442.50927734375 C 319.42071533203125 443.720703125 319.7690734863281 444.9320068359375 320.1174011230469 446.1434326171875 C 319.9432373046875 446.489501953125 319.7690734863281 446.8355712890625 319.5948791503906 447.1817626953125 C 319.5948791503906 461.545166015625 319.5948791503906 475.9085693359375 319.5948791503906 490.27197265625 C 319.9432373046875 490.6180419921875 320.2915954589844 490.964111328125 320.63995361328125 491.310302734375 C 324.2976379394531 491.310302734375 327.95538330078125 491.310302734375 331.61309814453125 491.310302734375 C 331.96142578125 490.7911376953125 332.3097839355469 490.27197265625 332.6581726074219 489.7528076171875 C 332.48394775390625 489.5797119140625 332.3097839355469 489.40673828125 332.1356201171875 489.233642578125 C 332.1356201171875 475.9085693359375 332.1356201171875 462.58349609375 332.1356201171875 449.25830078125 C 332.3097839355469 449.0853271484375 332.48394775390625 448.9122314453125 332.6581726074219 448.7392578125 C 332.48394775390625 448.0469970703125 332.3097839355469 447.354736328125 332.1356201171875 446.66259765625 C 332.48394775390625 445.278076171875 332.83233642578125 443.8936767578125 333.1806945800781 442.50927734375 C 334.3999328613281 441.470947265625 335.6191711425781 440.4326171875 336.8384094238281 439.394287109375 C 338.4059753417969 439.394287109375 339.97357177734375 439.394287109375 341.5411682128906 439.394287109375 C 342.9345703125 440.77880859375 344.3280029296875 442.1632080078125 345.7214050292969 443.547607421875 C 345.7214050292969 459.1224365234375 345.7214050292969 474.6971435546875 345.7214050292969 490.27197265625 C 346.0697937011719 490.6180419921875 346.4181213378906 490.964111328125 346.7664794921875 491.310302734375 C 350.4241943359375 491.310302734375 354.0819091796875 491.310302734375 357.7395935058594 491.310302734375 C 358.0879821777344 490.964111328125 358.43634033203125 490.6180419921875 358.78466796875 490.27197265625 C 358.78466796875 474.6971435546875 358.78466796875 459.1224365234375 358.78466796875 443.547607421875 C 360.1781005859375 442.1632080078125 361.5715026855469 440.77880859375 362.96490478515625 439.394287109375 C 364.53253173828125 439.394287109375 366.1001281738281 439.394287109375 367.6676940917969 439.394287109375 C 369.0611267089844 440.77880859375 370.45452880859375 442.1632080078125 371.8479309082031 443.547607421875 C 371.8479309082031 444.412841796875 371.8479309082031 445.278076171875 371.8479309082031 446.1434326171875 C 372.0221252441406 446.31640625 372.1962890625 446.489501953125 372.3704528808594 446.66259765625 C 372.1962890625 447.0086669921875 372.0221252441406 447.354736328125 371.8479309082031 447.700927734375 C 372.0221252441406 448.2200927734375 372.1962890625 448.7392578125 372.3704528808594 449.25830078125 C 372.3704528808594 462.58349609375 372.3704528808594 475.9085693359375 372.3704528808594 489.233642578125 C 372.1962890625 489.40673828125 372.0221252441406 489.5797119140625 371.8479309082031 489.7528076171875 C 372.1962890625 490.27197265625 372.544677734375 490.7911376953125 372.89300537109375 491.310302734375 C 376.5507507324219 491.310302734375 380.20843505859375 491.310302734375 383.86614990234375 491.310302734375 C 384.2145080566406 490.964111328125 384.5628662109375 490.6180419921875 384.9112243652344 490.27197265625 C 384.9112243652344 474.6971435546875 384.9112243652344 459.1224365234375 384.9112243652344 443.547607421875 C 386.30462646484375 442.1632080078125 387.69805908203125 440.77880859375 389.0914611816406 439.394287109375 C 390.6590576171875 439.394287109375 392.22662353515625 439.394287109375 393.7942199707031 439.394287109375 C 394.142578125 439.5673828125 394.4909362792969 439.740478515625 394.83929443359375 439.9134521484375 C 395.7101745605469 440.77880859375 396.5810852050781 441.64404296875 397.4519348144531 442.50927734375 C 397.80029296875 443.720703125 398.1486511230469 444.9320068359375 398.49700927734375 446.1434326171875 C 398.3228454589844 446.8355712890625 398.1486511230469 447.52783203125 397.9744873046875 448.2200927734375 C 397.9744873046875 462.2373046875 397.9744873046875 476.254638671875 397.9744873046875 490.27197265625 C 398.3228454589844 490.6180419921875 398.6711730957031 490.964111328125 399.01953125 491.310302734375 C 402.67724609375 491.310302734375 406.3349609375 491.310302734375 409.9927062988281 491.310302734375 C 410.3410339355469 490.964111328125 410.68939208984375 490.6180419921875 411.0377197265625 490.27197265625 C 411.0377197265625 476.254638671875 411.0377197265625 462.2373046875 411.0377197265625 448.2200927734375 C 410.8635559082031 447.52783203125 410.68939208984375 446.8355712890625 410.51519775390625 446.1434326171875 C 410.8635559082031 444.9320068359375 411.2119445800781 443.720703125 411.5602722167969 442.50927734375 C 412.43115234375 441.64404296875 413.3020324707031 440.77880859375 414.1729431152344 439.9134521484375 C 414.5212707519531 439.740478515625 414.86962890625 439.5673828125 415.2179870605469 439.394287109375 C 416.78558349609375 439.394287109375 418.3531799316406 439.394287109375 419.9207458496094 439.394287109375 C 421.1400146484375 440.4326171875 422.3592529296875 441.470947265625 423.5784912109375 442.50927734375 C 423.92681884765625 443.720703125 424.2751770019531 444.9320068359375 424.62353515625 446.1434326171875 C 424.4493408203125 446.489501953125 424.2751770019531 446.8355712890625 424.10101318359375 447.1817626953125 C 424.10101318359375 461.545166015625 424.10101318359375 475.9085693359375 424.10101318359375 490.27197265625 C 424.4493408203125 490.6180419921875 424.7977294921875 490.964111328125 425.14605712890625 491.310302734375 C 428.8038024902344 491.310302734375 432.46148681640625 491.310302734375 436.11920166015625 491.310302734375 C 436.46759033203125 490.7911376953125 436.81591796875 490.27197265625 437.1642761230469 489.7528076171875 C 436.9901123046875 489.5797119140625 436.81591796875 489.40673828125 436.6417541503906 489.233642578125 C 436.6417541503906 475.9085693359375 436.6417541503906 462.58349609375 436.6417541503906 449.25830078125 C 436.81591796875 449.0853271484375 436.9901123046875 448.9122314453125 437.1642761230469 448.7392578125 C 436.9901123046875 448.0469970703125 436.81591796875 447.354736328125 436.6417541503906 446.66259765625 C 436.81591796875 446.489501953125 436.9901123046875 446.31640625 437.1642761230469 446.1434326171875 C 437.1642761230469 445.278076171875 437.1642761230469 444.412841796875 437.1642761230469 443.547607421875 C 438.55767822265625 442.1632080078125 439.95111083984375 440.77880859375 441.3445129394531 439.394287109375 C 442.912109375 439.394287109375 444.4797058105469 439.394287109375 446.04730224609375 439.394287109375 C 447.4407043457031 440.77880859375 448.8341369628906 442.1632080078125 450.2275390625 443.547607421875 C 450.2275390625 459.1224365234375 450.2275390625 474.6971435546875 450.2275390625 490.27197265625 C 450.5758972167969 490.6180419921875 450.9242248535156 490.964111328125 451.2726135253906 491.310302734375 C 454.9302978515625 491.310302734375 458.5880126953125 491.310302734375 462.2457580566406 491.310302734375 C 462.5940856933594 490.964111328125 462.94244384765625 490.6180419921875 463.2908020019531 490.27197265625 C 463.2908020019531 467.9481201171875 463.2908020019531 445.624267578125 463.2908020019531 423.3004150390625 C 463.1166076660156 423.1273193359375 462.94244384765625 422.9542236328125 462.76824951171875 422.78125 C 462.94244384765625 422.0889892578125 463.1166076660156 421.39678955078125 463.2908020019531 420.70458984375 C 463.1166076660156 420.53155517578125 462.94244384765625 420.3585205078125 462.76824951171875 420.1854248046875 C 397.1036071777344 420.1854248046875 331.4389343261719 420.1854248046875 265.77423095703125 420.1854248046875 C 264.38079833984375 419.1470947265625 262.9873962402344 418.1087646484375 261.593994140625 417.0704345703125 C 261.2456359863281 416.3782958984375 260.89727783203125 415.68603515625 260.5489501953125 414.993896484375 C 260.5489501953125 408.07171630859375 260.5489501953125 401.14959716796875 260.5489501953125 394.22747802734375 C 249.92413330078125 394.22747802734375 239.29934692382812 394.22747802734375 228.674560546875 394.22747802734375M 413.650390625 368.26953125 C 420.26910400390625 380.72930908203125 426.8878173828125 393.18914794921875 433.5065612792969 405.64892578125 C 433.85491943359375 405.9951171875 434.2032775878906 406.3411865234375 434.5516052246094 406.687255859375 C 439.6027526855469 406.687255859375 444.6539001464844 406.687255859375 449.7049865722656 406.687255859375 C 449.7049865722656 394.22747802734375 449.7049865722656 381.76763916015625 449.7049865722656 369.30780029296875 C 449.87921142578125 369.134765625 450.0533752441406 368.961669921875 450.2275390625 368.78863525390625 C 450.0533752441406 368.6156005859375 449.87921142578125 368.4425048828125 449.7049865722656 368.26953125 C 437.6867980957031 368.26953125 425.6685791015625 368.26953125 413.650390625 368.26953125M 384.388671875 343.8690185546875 C 378.98919677734375 354.252197265625 373.5896911621094 364.6353759765625 368.1902160644531 375.0185546875 C 363.6616516113281 383.152099609375 359.1330261230469 391.2855224609375 354.60443115234375 399.4190673828125 C 353.5593566894531 401.841796875 352.51434326171875 404.2645263671875 351.4692687988281 406.687255859375 C 373.7638854980469 406.687255859375 396.05853271484375 406.687255859375 418.3531799316406 406.687255859375 C 418.3531799316406 406.3411865234375 418.3531799316406 405.9951171875 418.3531799316406 405.64892578125 C 417.1339416503906 403.2261962890625 415.9147033691406 400.803466796875 414.6954650878906 398.3807373046875 C 413.12786865234375 395.784912109375 411.5602722167969 393.18914794921875 409.9927062988281 390.59332275390625 C 401.9805603027344 375.36468505859375 393.9684143066406 360.135986328125 385.956298828125 344.9073486328125 C 385.4337463378906 344.56121826171875 384.9112243652344 344.215087890625 384.388671875 343.8690185546875M 280.40509033203125 342.3115234375 C 280.40509033203125 349.233642578125 280.40509033203125 356.15576171875 280.40509033203125 363.077880859375 C 280.23089599609375 363.2509765625 280.0567321777344 363.42401123046875 279.882568359375 363.5970458984375 C 279.882568359375 365.154541015625 279.882568359375 366.7120361328125 279.882568359375 368.26953125 C 279.7083740234375 368.4425048828125 279.5342102050781 368.6156005859375 279.36004638671875 368.78863525390625 C 278.8374938964844 372.76885986328125 278.3149719238281 376.74908447265625 277.79241943359375 380.72930908203125 C 277.0957336425781 383.4981689453125 276.3990173339844 386.26702880859375 275.70233154296875 389.035888671875 C 275.1797790527344 389.901123046875 274.6572570800781 390.766357421875 274.1347351074219 391.63165283203125 C 274.1347351074219 396.65020751953125 274.1347351074219 401.668701171875 274.1347351074219 406.687255859375 C 291.37823486328125 406.687255859375 308.62176513671875 406.687255859375 325.8652648925781 406.687255859375 C 325.8652648925781 385.22869873046875 325.8652648925781 363.7701416015625 325.8652648925781 342.3115234375 C 310.71185302734375 342.3115234375 295.5584716796875 342.3115234375 280.40509033203125 342.3115234375M 169.1060791015625 332.9666748046875 C 163.53240966796875 350.96417236328125 157.95875549316406 368.961669921875 152.38510131835938 386.959228515625 C 152.7334442138672 387.13232421875 153.08180236816406 387.30535888671875 153.43014526367188 387.4783935546875 C 164.05494689941406 387.4783935546875 174.6797332763672 387.4783935546875 185.3045196533203 387.4783935546875 C 185.6528778076172 387.30535888671875 186.001220703125 387.13232421875 186.34959411621094 386.959228515625 C 186.17539978027344 386.26702880859375 186.001220703125 385.5748291015625 185.82705688476562 384.882568359375 C 181.64682006835938 371.903564453125 177.466552734375 358.92462158203125 173.28631591796875 345.9456787109375 C 172.58961486816406 343.1767578125 171.8928985595703 340.407958984375 171.19619750976562 337.6390380859375 C 170.6736602783203 336.08160400390625 170.151123046875 334.52410888671875 169.6286163330078 332.9666748046875 C 169.4544219970703 332.9666748046875 169.28024291992188 332.9666748046875 169.1060791015625 332.9666748046875M 244.35047912597656 294.0296630859375 C 242.60870361328125 296.27935791015625 240.86692810058594 298.529052734375 239.12518310546875 300.77880859375 C 237.38340759277344 303.547607421875 235.6416473388672 306.31646728515625 233.89987182617188 309.0853271484375 C 231.6355743408203 313.7576904296875 229.3712615966797 318.43017578125 227.1069793701172 323.1026611328125 C 225.88772583007812 327.0828857421875 224.66848754882812 331.0631103515625 223.44924926757812 335.0433349609375 C 223.1009063720703 338.15826416015625 222.75254821777344 341.273193359375 222.40420532226562 344.38818359375 C 222.2300262451172 344.56121826171875 222.0558319091797 344.7342529296875 221.8816680908203 344.9073486328125 C 221.8816680908203 349.7528076171875 221.8816680908203 354.5982666015625 221.8816680908203 359.44378662109375 C 222.0558319091797 359.6168212890625 222.2300262451172 359.7899169921875 222.40420532226562 359.962890625 C 222.40420532226562 361.6934814453125 222.40420532226562 363.42401123046875 222.40420532226562 365.154541015625 C 222.578369140625 365.32757568359375 222.75254821777344 365.5006103515625 222.92672729492188 365.6737060546875 C 222.92672729492188 366.885009765625 222.92672729492188 368.096435546875 222.92672729492188 369.30780029296875 C 223.1009063720703 369.4808349609375 223.2750701904297 369.6539306640625 223.44924926757812 369.82696533203125 C 223.797607421875 372.5958251953125 224.1459503173828 375.36468505859375 224.49432373046875 378.133544921875 C 224.84266662597656 378.998779296875 225.19102478027344 379.864013671875 225.53936767578125 380.72930908203125 C 238.25430297851562 380.72930908203125 250.96920776367188 380.72930908203125 263.6841125488281 380.72930908203125 C 264.38079833984375 377.4412841796875 265.0775146484375 374.1533203125 265.77423095703125 370.865234375 C 265.94842529296875 368.26953125 266.1225891113281 365.6737060546875 266.2967834472656 363.077880859375 C 266.470947265625 362.90478515625 266.6451110839844 362.7318115234375 266.81927490234375 362.5587158203125 C 266.81927490234375 355.8096923828125 266.81927490234375 349.06060791015625 266.81927490234375 342.3115234375 C 266.470947265625 341.10015869140625 266.1225891113281 339.8887939453125 265.77423095703125 338.6773681640625 C 265.77423095703125 337.8121337890625 265.77423095703125 336.9468994140625 265.77423095703125 336.08160400390625 C 264.38079833984375 331.58221435546875 262.9873962402344 327.0828857421875 261.593994140625 322.58343505859375 C 259.5038757324219 318.25714111328125 257.4137268066406 313.9307861328125 255.3236083984375 309.6044921875 C 252.88516235351562 305.79730224609375 250.44668579101562 301.9901123046875 248.00819396972656 298.1829833984375 C 246.78895568847656 296.798583984375 245.56971740722656 295.41412353515625 244.35047912597656 294.0296630859375M 427.2362060546875 267.03338623046875 C 424.2751770019531 270.1483154296875 421.3141784667969 273.2633056640625 418.3531799316406 276.3782958984375 C 416.2630310058594 279.1470947265625 414.1729431152344 281.916015625 412.0827941894531 284.684814453125 C 410.68939208984375 286.93450927734375 409.29595947265625 289.1842041015625 407.9025573730469 291.43389892578125 C 405.98663330078125 295.41412353515625 404.0706481933594 299.39434814453125 402.15472412109375 303.37457275390625 C 401.4580078125 305.451171875 400.7613220214844 307.52783203125 400.0646057128906 309.6044921875 C 399.5420837402344 312.20025634765625 399.01953125 314.7960205078125 398.49700927734375 317.391845703125 C 398.49700927734375 323.275634765625 398.49700927734375 329.15948486328125 398.49700927734375 335.0433349609375 C 398.6711730957031 335.21630859375 398.8453369140625 335.389404296875 399.01953125 335.56243896484375 C 399.1937255859375 337.8121337890625 399.3678894042969 340.06182861328125 399.5420837402344 342.3115234375 C 401.8063659667969 346.46478271484375 404.0706481933594 350.6180419921875 406.3349609375 354.7713623046875 C 421.6625061035156 354.7713623046875 436.9901123046875 354.7713623046875 452.3176574707031 354.7713623046875 C 453.18853759765625 351.310302734375 454.0594482421875 347.8492431640625 454.9302978515625 344.38818359375 C 455.1044616699219 342.3115234375 455.2786865234375 340.23486328125 455.4528503417969 338.15826416015625 C 455.62701416015625 337.9852294921875 455.80120849609375 337.8121337890625 455.9753723144531 337.6390380859375 C 455.9753723144531 336.08160400390625 455.9753723144531 334.52410888671875 455.9753723144531 332.9666748046875 C 456.1495361328125 332.7935791015625 456.3236999511719 332.62054443359375 456.4979248046875 332.447509765625 C 456.4979248046875 328.12115478515625 456.4979248046875 323.7947998046875 456.4979248046875 319.468505859375 C 456.3236999511719 319.29541015625 456.1495361328125 319.1224365234375 455.9753723144531 318.9493408203125 C 455.62701416015625 316.18048095703125 455.2786865234375 313.41162109375 454.9302978515625 310.642822265625 C 453.7110595703125 307.1817626953125 452.4918518066406 303.720703125 451.2726135253906 300.25958251953125 C 449.1824645996094 296.27935791015625 447.09234619140625 292.29913330078125 445.0022277832031 288.3189697265625 C 442.38958740234375 284.684814453125 439.77691650390625 281.05072021484375 437.1642761230469 277.41656494140625 C 434.89996337890625 274.82080078125 432.63568115234375 272.2249755859375 430.3713684082031 269.629150390625 C 429.3262939453125 268.763916015625 428.28125 267.898681640625 427.2362060546875 267.03338623046875M 341.5411682128906 264.4376220703125 C 341.5411682128906 264.78369140625 341.5411682128906 265.12982177734375 341.5411682128906 265.4759521484375 C 342.41204833984375 266.687255859375 343.282958984375 267.898681640625 344.15380859375 269.11004638671875 C 345.373046875 271.53277587890625 346.59228515625 273.95556640625 347.8115539550781 276.3782958984375 C 348.8565979003906 279.3201904296875 349.90167236328125 282.2620849609375 350.94671630859375 285.2039794921875 C 351.2950744628906 287.7998046875 351.6434326171875 290.39556884765625 351.9917907714844 292.99139404296875 C 352.16595458984375 293.1644287109375 352.3401184082031 293.33746337890625 352.5143127441406 293.510498046875 C 352.5143127441406 297.49072265625 352.5143127441406 301.470947265625 352.5143127441406 305.451171875 C 352.3401184082031 305.624267578125 352.16595458984375 305.79730224609375 351.9917907714844 305.9703369140625 C 351.9917907714844 307.52783203125 351.9917907714844 309.0853271484375 351.9917907714844 310.642822265625 C 351.8175964355469 310.8157958984375 351.6434326171875 310.9888916015625 351.4692687988281 311.1619873046875 C 351.1208801269531 313.9307861328125 350.7725524902344 316.69964599609375 350.4241943359375 319.468505859375 C 349.2049560546875 323.44873046875 347.9857177734375 327.428955078125 346.7664794921875 331.4091796875 C 345.7214050292969 333.8319091796875 344.6763610839844 336.254638671875 343.63128662109375 338.6773681640625 C 342.2378845214844 339.8887939453125 340.844482421875 341.10015869140625 339.4510498046875 342.3115234375 C 339.4510498046875 361.34735107421875 339.4510498046875 380.3831787109375 339.4510498046875 399.4190673828125 C 352.5143127441406 375.0185546875 365.57757568359375 350.6180419921875 378.6408386230469 326.21759033203125 C 379.3375549316406 325.352294921875 380.03424072265625 324.487060546875 380.7309875488281 323.62176513671875 C 381.9502258300781 323.1026611328125 383.1694641113281 322.58343505859375 384.388671875 322.0643310546875 C 384.388671875 320.5068359375 384.388671875 318.9493408203125 384.388671875 317.391845703125 C 384.5628662109375 317.21881103515625 384.7370300292969 317.0457763671875 384.9112243652344 316.8726806640625 C 384.9112243652344 299.5673828125 384.9112243652344 282.2620849609375 384.9112243652344 264.956787109375 C 384.7370300292969 264.78369140625 384.5628662109375 264.61065673828125 384.388671875 264.4376220703125 C 370.106201171875 264.4376220703125 355.82366943359375 264.4376220703125 341.5411682128906 264.4376220703125M 296.08099365234375 240.037109375 C 290.8556823730469 244.19036865234375 285.6304016113281 248.3436279296875 280.40509033203125 252.4969482421875 C 276.74737548828125 256.3040771484375 273.08966064453125 260.11126708984375 269.43194580078125 263.91845703125 C 266.81927490234375 267.55255126953125 264.2066345214844 271.1866455078125 261.593994140625 274.82080078125 C 260.3747253417969 277.2435302734375 259.155517578125 279.666259765625 257.936279296875 282.0889892578125 C 257.4137268066406 283.819580078125 256.8912353515625 285.550048828125 256.3686828613281 287.2806396484375 C 260.0263977050781 292.645263671875 263.6841125488281 298.0098876953125 267.3418273925781 303.37457275390625 C 269.6061096191406 308.0469970703125 271.87042236328125 312.719482421875 274.1347351074219 317.391845703125 C 275.3539733886719 321.19903564453125 276.5732116699219 325.0062255859375 277.79241943359375 328.8133544921875 C 296.25518798828125 328.8133544921875 314.7179260253906 328.8133544921875 333.1806945800781 328.8133544921875 C 334.5740966796875 324.487060546875 335.9674987792969 320.16070556640625 337.3609313964844 315.8343505859375 C 337.7092590332031 312.373291015625 338.0576477050781 308.9122314453125 338.4059753417969 305.451171875 C 338.5801696777344 305.27813720703125 338.75433349609375 305.1051025390625 338.9284973144531 304.9320068359375 C 338.9284973144531 301.470947265625 338.9284973144531 298.0098876953125 338.9284973144531 294.548828125 C 338.75433349609375 294.37579345703125 338.5801696777344 294.2027587890625 338.4059753417969 294.0296630859375 C 338.2318115234375 292.29913330078125 338.0576477050781 290.568603515625 337.88348388671875 288.838134765625 C 337.1867370605469 286.761474609375 336.4900207519531 284.684814453125 335.7933349609375 282.608154296875 C 334.05157470703125 279.3201904296875 332.3097839355469 276.03216552734375 330.5680236816406 272.744140625 C 327.78118896484375 269.11004638671875 324.994384765625 265.4759521484375 322.2075500488281 261.841796875 C 318.3756408691406 258.03466796875 314.54376220703125 254.22747802734375 310.71185302734375 250.4202880859375 C 306.5316162109375 247.13226318359375 302.35137939453125 243.84423828125 298.171142578125 240.5562744140625 C 297.47442626953125 240.3831787109375 296.7777404785156 240.210205078125 296.08099365234375 240.037109375M 358.78466796875 188.12115478515625 C 357.21710205078125 190.71697998046875 355.6495056152344 193.312744140625 354.0819091796875 195.9085693359375 C 345.02471923828125 213.04083251953125 335.9674987792969 230.173095703125 326.9103088378906 247.30535888671875 C 327.95538330078125 248.5167236328125 329.00042724609375 249.72808837890625 330.0455017089844 250.939453125 C 350.7725524902344 250.939453125 371.4996032714844 250.939453125 392.22662353515625 250.939453125 C 391.18157958984375 248.5167236328125 390.13653564453125 246.093994140625 389.0914611816406 243.67120361328125 C 387.3497009277344 240.72930908203125 385.60791015625 237.78741455078125 383.86614990234375 234.84552001953125 C 375.85400390625 219.6168212890625 367.8418884277344 204.38818359375 359.8297424316406 189.15948486328125 C 359.48138427734375 188.8133544921875 359.1330261230469 188.46728515625 358.78466796875 188.12115478515625"/>
  </g>
</svg>
